%TF.GenerationSoftware,KiCad,Pcbnew,10.0.4*%
%TF.CreationDate,2026-07-23T03:48:32+06:00*%
%TF.ProjectId,rader,72616465-722e-46b6-9963-61645f706362,rev?*%
%TF.SameCoordinates,Original*%
%TF.FileFunction,Soldermask,Top*%
%TF.FilePolarity,Negative*%
%FSLAX46Y46*%
G04 Gerber Fmt 4.6, Leading zero omitted, Abs format (unit mm)*
G04 Created by KiCad (PCBNEW 10.0.4) date 2026-07-23 03:48:32*
%MOMM*%
%LPD*%
G01*
G04 APERTURE LIST*
G04 Aperture macros list*
%AMRoundRect*
0 Rectangle with rounded corners*
0 $1 Rounding radius*
0 $2 $3 $4 $5 $6 $7 $8 $9 X,Y pos of 4 corners*
0 Add a 4 corners polygon primitive as box body*
4,1,4,$2,$3,$4,$5,$6,$7,$8,$9,$2,$3,0*
0 Add four circle primitives for the rounded corners*
1,1,$1+$1,$2,$3*
1,1,$1+$1,$4,$5*
1,1,$1+$1,$6,$7*
1,1,$1+$1,$8,$9*
0 Add four rect primitives between the rounded corners*
20,1,$1+$1,$2,$3,$4,$5,0*
20,1,$1+$1,$4,$5,$6,$7,0*
20,1,$1+$1,$6,$7,$8,$9,0*
20,1,$1+$1,$8,$9,$2,$3,0*%
G04 Aperture macros list end*
%ADD10RoundRect,0.250000X0.900000X-1.000000X0.900000X1.000000X-0.900000X1.000000X-0.900000X-1.000000X0*%
%ADD11RoundRect,0.218750X0.256250X-0.218750X0.256250X0.218750X-0.256250X0.218750X-0.256250X-0.218750X0*%
%ADD12RoundRect,0.200000X-0.275000X0.200000X-0.275000X-0.200000X0.275000X-0.200000X0.275000X0.200000X0*%
%ADD13RoundRect,0.200000X0.200000X0.275000X-0.200000X0.275000X-0.200000X-0.275000X0.200000X-0.275000X0*%
%ADD14RoundRect,0.225000X0.250000X-0.225000X0.250000X0.225000X-0.250000X0.225000X-0.250000X-0.225000X0*%
%ADD15RoundRect,0.200000X0.275000X-0.200000X0.275000X0.200000X-0.275000X0.200000X-0.275000X-0.200000X0*%
%ADD16R,1.700000X1.700000*%
%ADD17C,1.700000*%
%ADD18RoundRect,0.150000X0.150000X-0.825000X0.150000X0.825000X-0.150000X0.825000X-0.150000X-0.825000X0*%
%ADD19RoundRect,0.200000X-0.200000X-0.275000X0.200000X-0.275000X0.200000X0.275000X-0.200000X0.275000X0*%
%ADD20RoundRect,0.225000X-0.225000X-0.250000X0.225000X-0.250000X0.225000X0.250000X-0.225000X0.250000X0*%
%ADD21RoundRect,0.125000X-0.125000X0.625000X-0.125000X-0.625000X0.125000X-0.625000X0.125000X0.625000X0*%
%ADD22RoundRect,0.125000X-0.625000X0.125000X-0.625000X-0.125000X0.625000X-0.125000X0.625000X0.125000X0*%
%ADD23RoundRect,0.250000X-0.550000X0.550000X-0.550000X-0.550000X0.550000X-0.550000X0.550000X0.550000X0*%
%ADD24C,1.600000*%
%ADD25RoundRect,0.218750X0.218750X0.256250X-0.218750X0.256250X-0.218750X-0.256250X0.218750X-0.256250X0*%
%ADD26RoundRect,0.225000X-0.250000X0.225000X-0.250000X-0.225000X0.250000X-0.225000X0.250000X0.225000X0*%
%ADD27R,1.600000X1.600000*%
%ADD28O,1.600000X1.600000*%
%ADD29R,1.528000X0.650000*%
%ADD30RoundRect,0.250000X-0.625000X0.375000X-0.625000X-0.375000X0.625000X-0.375000X0.625000X0.375000X0*%
%ADD31RoundRect,0.250000X0.550000X-0.550000X0.550000X0.550000X-0.550000X0.550000X-0.550000X-0.550000X0*%
G04 APERTURE END LIST*
D10*
%TO.C,ZD1*%
X37150000Y-53500000D03*
X37150000Y-49200000D03*
%TD*%
D11*
%TO.C,LD4*%
X44075000Y-68487500D03*
X44075000Y-66912500D03*
%TD*%
D12*
%TO.C,R12*%
X48450000Y-60200000D03*
X48450000Y-61850000D03*
%TD*%
D13*
%TO.C,R14*%
X53675000Y-42125000D03*
X52025000Y-42125000D03*
%TD*%
D14*
%TO.C,C1*%
X29400000Y-59250000D03*
X29400000Y-57700000D03*
%TD*%
%TO.C,C9*%
X33250000Y-46571144D03*
X33250000Y-45021144D03*
%TD*%
D15*
%TO.C,R7*%
X50525000Y-43725000D03*
X50525000Y-42075000D03*
%TD*%
D16*
%TO.C,J8*%
X75035000Y-67000000D03*
D17*
X75035000Y-64460000D03*
X77575000Y-67000000D03*
X77575000Y-64460000D03*
X80115000Y-67000000D03*
X80115000Y-64460000D03*
%TD*%
D16*
%TO.C,J7*%
X65085000Y-67175000D03*
D17*
X65085000Y-64635000D03*
X67625000Y-67175000D03*
X67625000Y-64635000D03*
X70165000Y-67175000D03*
X70165000Y-64635000D03*
%TD*%
D16*
%TO.C,J5*%
X80125000Y-42745000D03*
D17*
X80125000Y-45285000D03*
X80125000Y-47825000D03*
X80125000Y-50365000D03*
X80125000Y-52905000D03*
%TD*%
D11*
%TO.C,LD3*%
X48925000Y-68525000D03*
X48925000Y-66950000D03*
%TD*%
D16*
%TO.C,J1*%
X22250000Y-56300000D03*
D17*
X22250000Y-58840000D03*
%TD*%
D18*
%TO.C,U1*%
X30190000Y-53696144D03*
X31460000Y-53696144D03*
X32730000Y-53696144D03*
X34000000Y-53696144D03*
X34000000Y-48746144D03*
X32730000Y-48746144D03*
X31460000Y-48746144D03*
X30190000Y-48746144D03*
%TD*%
D16*
%TO.C,J6*%
X60910000Y-24600000D03*
D17*
X63450000Y-24600000D03*
X65990000Y-24600000D03*
X68530000Y-24600000D03*
X71070000Y-24600000D03*
%TD*%
D19*
%TO.C,R10*%
X63175000Y-56575000D03*
X64825000Y-56575000D03*
%TD*%
D10*
%TO.C,D1*%
X26375000Y-59225000D03*
X26375000Y-54925000D03*
%TD*%
D20*
%TO.C,C3*%
X37250000Y-58425000D03*
X38800000Y-58425000D03*
%TD*%
%TO.C,C2*%
X37250000Y-56850000D03*
X38800000Y-56850000D03*
%TD*%
D21*
%TO.C,U2*%
X54000000Y-47750000D03*
X53200000Y-47750000D03*
X52400000Y-47750000D03*
X51600000Y-47750000D03*
X50800000Y-47750000D03*
X50000000Y-47750000D03*
X49200000Y-47750000D03*
X48400000Y-47750000D03*
D22*
X47025000Y-49125000D03*
X47025000Y-49925000D03*
X47025000Y-50725000D03*
X47025000Y-51525000D03*
X47025000Y-52325000D03*
X47025000Y-53125000D03*
X47025000Y-53925000D03*
X47025000Y-54725000D03*
D21*
X48400000Y-56100000D03*
X49200000Y-56100000D03*
X50000000Y-56100000D03*
X50800000Y-56100000D03*
X51600000Y-56100000D03*
X52400000Y-56100000D03*
X53200000Y-56100000D03*
X54000000Y-56100000D03*
D22*
X55375000Y-54725000D03*
X55375000Y-53925000D03*
X55375000Y-53125000D03*
X55375000Y-52325000D03*
X55375000Y-51525000D03*
X55375000Y-50725000D03*
X55375000Y-49925000D03*
X55375000Y-49125000D03*
%TD*%
D23*
%TO.C,L1*%
X32725000Y-56596144D03*
D24*
X32725000Y-59096144D03*
%TD*%
D16*
%TO.C,J9*%
X53805000Y-24025000D03*
D17*
X53805000Y-26565000D03*
X51265000Y-24025000D03*
X51265000Y-26565000D03*
X48725000Y-24025000D03*
X48725000Y-26565000D03*
X46185000Y-24025000D03*
X46185000Y-26565000D03*
%TD*%
D11*
%TO.C,LD2*%
X47325000Y-68525000D03*
X47325000Y-66950000D03*
%TD*%
D15*
%TO.C,R1*%
X28550000Y-52096144D03*
X28550000Y-50446144D03*
%TD*%
D16*
%TO.C,J4*%
X59210000Y-67525000D03*
D17*
X56670000Y-67525000D03*
X54130000Y-67525000D03*
X51590000Y-67525000D03*
%TD*%
D14*
%TO.C,C8*%
X30175000Y-46621144D03*
X30175000Y-45071144D03*
%TD*%
D12*
%TO.C,R9*%
X51475000Y-60150000D03*
X51475000Y-61800000D03*
%TD*%
D14*
%TO.C,C11*%
X47450000Y-43725000D03*
X47450000Y-42175000D03*
%TD*%
D15*
%TO.C,R2*%
X36600000Y-46650000D03*
X36600000Y-45000000D03*
%TD*%
D16*
%TO.C,J3*%
X23372000Y-64520000D03*
D17*
X23372000Y-67060000D03*
%TD*%
D16*
%TO.C,J10*%
X22225000Y-28345000D03*
D17*
X22225000Y-30885000D03*
X22225000Y-33425000D03*
X22225000Y-35965000D03*
%TD*%
D15*
%TO.C,R5*%
X35075000Y-46650000D03*
X35075000Y-45000000D03*
%TD*%
D12*
%TO.C,R8*%
X49975000Y-60175000D03*
X49975000Y-61825000D03*
%TD*%
D25*
%TO.C,LD1*%
X80315000Y-34945000D03*
X78740000Y-34945000D03*
%TD*%
D26*
%TO.C,C5*%
X35886000Y-64715000D03*
X35886000Y-66265000D03*
%TD*%
D11*
%TO.C,LD5*%
X45700000Y-68512500D03*
X45700000Y-66937500D03*
%TD*%
D13*
%TO.C,R13*%
X64825000Y-55025000D03*
X63175000Y-55025000D03*
%TD*%
D27*
%TO.C,A1*%
X28550000Y-22985000D03*
D28*
X28550000Y-25525000D03*
X28550000Y-28065000D03*
X28550000Y-30605000D03*
X28550000Y-33145000D03*
X28550000Y-35685000D03*
X28550000Y-38225000D03*
X28550000Y-40765000D03*
X41250000Y-40765000D03*
X41250000Y-38225000D03*
X41250000Y-35685000D03*
X41250000Y-33145000D03*
X41250000Y-30605000D03*
X41250000Y-28065000D03*
X41250000Y-25525000D03*
X41250000Y-22985000D03*
%TD*%
D23*
%TO.C,C7*%
X60375000Y-59575000D03*
D24*
X60375000Y-62075000D03*
%TD*%
D16*
%TO.C,J2*%
X22325000Y-43305000D03*
D17*
X22325000Y-45845000D03*
%TD*%
D13*
%TO.C,R3*%
X80300000Y-36725000D03*
X78650000Y-36725000D03*
%TD*%
D14*
%TO.C,C4*%
X49000000Y-43700000D03*
X49000000Y-42150000D03*
%TD*%
D15*
%TO.C,R6*%
X31700000Y-46646144D03*
X31700000Y-44996144D03*
%TD*%
D29*
%TO.C,IC1*%
X33997000Y-67320000D03*
X33997000Y-66050000D03*
X33997000Y-64780000D03*
X33997000Y-63510000D03*
X28575000Y-63510000D03*
X28575000Y-64780000D03*
X28575000Y-66050000D03*
X28575000Y-67320000D03*
%TD*%
D30*
%TO.C,F1*%
X22300000Y-48925000D03*
X22300000Y-51725000D03*
%TD*%
D12*
%TO.C,R11*%
X46900000Y-60225000D03*
X46900000Y-61875000D03*
%TD*%
D13*
%TO.C,R15*%
X53675000Y-43725000D03*
X52025000Y-43725000D03*
%TD*%
D12*
%TO.C,R4*%
X26572000Y-64545000D03*
X26572000Y-66195000D03*
%TD*%
D31*
%TO.C,C6*%
X26850000Y-47225000D03*
D24*
X26850000Y-44725000D03*
%TD*%
M02*
