%TF.GenerationSoftware,KiCad,Pcbnew,10.0.4*%
%TF.CreationDate,2026-07-23T03:48:32+06:00*%
%TF.ProjectId,rader,72616465-722e-46b6-9963-61645f706362,rev?*%
%TF.SameCoordinates,Original*%
%TF.FileFunction,Copper,L2,Bot*%
%TF.FilePolarity,Positive*%
%FSLAX46Y46*%
G04 Gerber Fmt 4.6, Leading zero omitted, Abs format (unit mm)*
G04 Created by KiCad (PCBNEW 10.0.4) date 2026-07-23 03:48:32*
%MOMM*%
%LPD*%
G01*
G04 APERTURE LIST*
G04 Aperture macros list*
%AMRoundRect*
0 Rectangle with rounded corners*
0 $1 Rounding radius*
0 $2 $3 $4 $5 $6 $7 $8 $9 X,Y pos of 4 corners*
0 Add a 4 corners polygon primitive as box body*
4,1,4,$2,$3,$4,$5,$6,$7,$8,$9,$2,$3,0*
0 Add four circle primitives for the rounded corners*
1,1,$1+$1,$2,$3*
1,1,$1+$1,$4,$5*
1,1,$1+$1,$6,$7*
1,1,$1+$1,$8,$9*
0 Add four rect primitives between the rounded corners*
20,1,$1+$1,$2,$3,$4,$5,0*
20,1,$1+$1,$4,$5,$6,$7,0*
20,1,$1+$1,$6,$7,$8,$9,0*
20,1,$1+$1,$8,$9,$2,$3,0*%
G04 Aperture macros list end*
%TA.AperFunction,ComponentPad*%
%ADD10R,1.700000X1.700000*%
%TD*%
%TA.AperFunction,ComponentPad*%
%ADD11C,1.700000*%
%TD*%
%TA.AperFunction,ComponentPad*%
%ADD12RoundRect,0.250000X-0.550000X0.550000X-0.550000X-0.550000X0.550000X-0.550000X0.550000X0.550000X0*%
%TD*%
%TA.AperFunction,ComponentPad*%
%ADD13C,1.600000*%
%TD*%
%TA.AperFunction,ComponentPad*%
%ADD14R,1.600000X1.600000*%
%TD*%
%TA.AperFunction,ComponentPad*%
%ADD15O,1.600000X1.600000*%
%TD*%
%TA.AperFunction,ComponentPad*%
%ADD16RoundRect,0.250000X0.550000X-0.550000X0.550000X0.550000X-0.550000X0.550000X-0.550000X-0.550000X0*%
%TD*%
%TA.AperFunction,ViaPad*%
%ADD17C,0.600000*%
%TD*%
%TA.AperFunction,Conductor*%
%ADD18C,0.800000*%
%TD*%
%TA.AperFunction,Conductor*%
%ADD19C,0.600000*%
%TD*%
%TA.AperFunction,Conductor*%
%ADD20C,0.500000*%
%TD*%
%TA.AperFunction,Conductor*%
%ADD21C,0.300000*%
%TD*%
G04 APERTURE END LIST*
D10*
%TO.P,J8,1,Pin_1_1*%
%TO.N,GND*%
X75035000Y-67000000D03*
D11*
%TO.P,J8,2,Pin_2_2*%
X75035000Y-64460000D03*
%TO.P,J8,3,Pin_3_3*%
%TO.N,/ws*%
X77575000Y-67000000D03*
%TO.P,J8,4,Pin_4_4*%
%TO.N,+3V3*%
X77575000Y-64460000D03*
%TO.P,J8,5,Pin_5_5*%
%TO.N,/sck*%
X80115000Y-67000000D03*
%TO.P,J8,6,Pin_6_6*%
%TO.N,/sd*%
X80115000Y-64460000D03*
%TD*%
D10*
%TO.P,J7,1,Pin_1_1*%
%TO.N,+3V3*%
X65085000Y-67175000D03*
D11*
%TO.P,J7,2,Pin_2_2*%
%TO.N,GND*%
X65085000Y-64635000D03*
%TO.P,J7,3,Pin_3_3*%
%TO.N,/ws*%
X67625000Y-67175000D03*
%TO.P,J7,4,Pin_4_4*%
%TO.N,+3V3*%
X67625000Y-64635000D03*
%TO.P,J7,5,Pin_5_5*%
%TO.N,/sck*%
X70165000Y-67175000D03*
%TO.P,J7,6,Pin_6_6*%
%TO.N,/sd*%
X70165000Y-64635000D03*
%TD*%
D10*
%TO.P,J5,1,Pin_1_1*%
%TO.N,+3V3*%
X80125000Y-42745000D03*
D11*
%TO.P,J5,2,Pin_2_2*%
%TO.N,GND*%
X80125000Y-45285000D03*
%TO.P,J5,3,Pin_3_3*%
%TO.N,/gsm_rx*%
X80125000Y-47825000D03*
%TO.P,J5,4,Pin_4_4*%
%TO.N,/gsm_tx*%
X80125000Y-50365000D03*
%TO.P,J5,5,Pin_5_5*%
%TO.N,/PPS*%
X80125000Y-52905000D03*
%TD*%
D10*
%TO.P,J1,1,Pin_1_1*%
%TO.N,Net-(J1-Pin_1)*%
X22250000Y-56300000D03*
D11*
%TO.P,J1,2,Pin_2_2*%
%TO.N,GND*%
X22250000Y-58840000D03*
%TD*%
D10*
%TO.P,J6,1,Pin_1_1*%
%TO.N,+3V3*%
X60910000Y-24600000D03*
D11*
%TO.P,J6,2,Pin_2_2*%
%TO.N,GND*%
X63450000Y-24600000D03*
%TO.P,J6,3,Pin_3_3*%
%TO.N,/scl*%
X65990000Y-24600000D03*
%TO.P,J6,4,Pin_4_4*%
%TO.N,/sda*%
X68530000Y-24600000D03*
%TO.P,J6,5,Pin_5_5*%
%TO.N,/drdy*%
X71070000Y-24600000D03*
%TD*%
D12*
%TO.P,L1,1*%
%TO.N,/sw*%
X32725000Y-56596144D03*
D13*
%TO.P,L1,2*%
%TO.N,+3V3*%
X32725000Y-59096144D03*
%TD*%
D10*
%TO.P,J9,1,Pin_1_1*%
%TO.N,+3V3*%
X53805000Y-24025000D03*
D11*
%TO.P,J9,2,Pin_2_2*%
%TO.N,GND*%
X53805000Y-26565000D03*
%TO.P,J9,3,Pin_3_3*%
%TO.N,/do0*%
X51265000Y-24025000D03*
%TO.P,J9,4,Pin_4_4*%
%TO.N,/C1101 _cs*%
X51265000Y-26565000D03*
%TO.P,J9,5,Pin_5_5*%
%TO.N,/C1101 _clk*%
X48725000Y-24025000D03*
%TO.P,J9,6,Pin_6_6*%
%TO.N,/C1101 _mosi*%
X48725000Y-26565000D03*
%TO.P,J9,7,Pin_7_7*%
%TO.N,/C1101_miso*%
X46185000Y-24025000D03*
%TO.P,J9,8,Pin_8_8*%
%TO.N,/do2*%
X46185000Y-26565000D03*
%TD*%
D10*
%TO.P,J4,1,Pin_1_1*%
%TO.N,GND*%
X59210000Y-67525000D03*
D11*
%TO.P,J4,2,Pin_2_2*%
%TO.N,/SWCLK*%
X56670000Y-67525000D03*
%TO.P,J4,3,Pin_3_3*%
%TO.N,/SWDIO*%
X54130000Y-67525000D03*
%TO.P,J4,4,Pin_4_4*%
%TO.N,+3V3*%
X51590000Y-67525000D03*
%TD*%
D10*
%TO.P,J3,1,Pin_1_1*%
%TO.N,/canl*%
X23372000Y-64520000D03*
D11*
%TO.P,J3,2,Pin_2_2*%
%TO.N,/canh*%
X23372000Y-67060000D03*
%TD*%
D10*
%TO.P,J10,1,Pin_1_1*%
%TO.N,/staper1*%
X22225000Y-28345000D03*
D11*
%TO.P,J10,2,Pin_2_2*%
%TO.N,/staper2*%
X22225000Y-30885000D03*
%TO.P,J10,3,Pin_3_3*%
%TO.N,/staper3*%
X22225000Y-33425000D03*
%TO.P,J10,4,Pin_4_4*%
%TO.N,/staper4*%
X22225000Y-35965000D03*
%TD*%
D14*
%TO.P,A1,1,GND_1*%
%TO.N,GND*%
X28550000Y-22985000D03*
D15*
%TO.P,A1,2,VDD_2*%
%TO.N,+3V3*%
X28550000Y-25525000D03*
%TO.P,A1,3,1B_3*%
%TO.N,/staper1*%
X28550000Y-28065000D03*
%TO.P,A1,4,1A_4*%
%TO.N,/staper2*%
X28550000Y-30605000D03*
%TO.P,A1,5,2A_5*%
%TO.N,/staper3*%
X28550000Y-33145000D03*
%TO.P,A1,6,2B_6*%
%TO.N,/staper4*%
X28550000Y-35685000D03*
%TO.P,A1,7,GND_7*%
%TO.N,GND*%
X28550000Y-38225000D03*
%TO.P,A1,8,VMOT_8*%
%TO.N,+12V*%
X28550000Y-40765000D03*
%TO.P,A1,9,~{ENABLE}_9*%
%TO.N,/ENABLE*%
X41250000Y-40765000D03*
%TO.P,A1,10,MS1_10*%
%TO.N,+3V3*%
X41250000Y-38225000D03*
%TO.P,A1,11,MS2_11*%
X41250000Y-35685000D03*
%TO.P,A1,12,MS3_12*%
X41250000Y-33145000D03*
%TO.P,A1,13,~{RESET}_13*%
X41250000Y-30605000D03*
%TO.P,A1,14,~{SLEEP}_14*%
X41250000Y-28065000D03*
%TO.P,A1,15,STEP_15*%
%TO.N,/STEP*%
X41250000Y-25525000D03*
%TO.P,A1,16,DIR_16*%
%TO.N,/DIR*%
X41250000Y-22985000D03*
%TD*%
D12*
%TO.P,C7,1*%
%TO.N,GND*%
X60375000Y-59575000D03*
D13*
%TO.P,C7,2*%
%TO.N,+3V3*%
X60375000Y-62075000D03*
%TD*%
D10*
%TO.P,J2,1,Pin_1_1*%
%TO.N,GND*%
X22325000Y-43305000D03*
D11*
%TO.P,J2,2,Pin_2_2*%
%TO.N,+12V*%
X22325000Y-45845000D03*
%TD*%
D16*
%TO.P,C6,1*%
%TO.N,GND*%
X26850000Y-47225000D03*
D13*
%TO.P,C6,2*%
%TO.N,+12V*%
X26850000Y-44725000D03*
%TD*%
D17*
%TO.N,+3V3*%
X51600000Y-50275000D03*
X36600000Y-46650000D03*
%TO.N,GND*%
X36200000Y-55625000D03*
X38800000Y-56850000D03*
%TO.N,/sda*%
X53675000Y-43725000D03*
%TO.N,/C1101 _clk*%
X48925000Y-49250000D03*
%TO.N,/do0*%
X48400000Y-46525000D03*
%TO.N,/C1101_miso*%
X45925000Y-49925000D03*
%TD*%
%TO.N,+3V3*%
D18*
X39350000Y-21350000D02*
X37525000Y-23175000D01*
D19*
X77575000Y-62925000D02*
X77050000Y-62400000D01*
X68700000Y-62400000D02*
X67625000Y-63475000D01*
X77575000Y-64460000D02*
X77575000Y-62925000D01*
D18*
X37525000Y-23175000D02*
X37525000Y-28065000D01*
D20*
X77575000Y-45295000D02*
X80125000Y-42745000D01*
D19*
X38025000Y-35000000D02*
X38025000Y-46100000D01*
X51590000Y-62075000D02*
X60375000Y-62075000D01*
D18*
X52325000Y-21350000D02*
X39350000Y-21350000D01*
X53805000Y-22830000D02*
X52325000Y-21350000D01*
X51590000Y-62075000D02*
X51590000Y-67525000D01*
X54380000Y-24600000D02*
X53805000Y-24025000D01*
X31090000Y-28065000D02*
X28550000Y-25525000D01*
X60910000Y-24600000D02*
X54380000Y-24600000D01*
X32725000Y-59096144D02*
X35703856Y-62075000D01*
X41250000Y-28065000D02*
X37525000Y-28065000D01*
X51590000Y-50385000D02*
X51590000Y-62075000D01*
D20*
X77575000Y-62925000D02*
X77575000Y-45295000D01*
D19*
X77050000Y-62400000D02*
X68700000Y-62400000D01*
X38025000Y-46100000D02*
X37475000Y-46650000D01*
X31090000Y-28065000D02*
X38025000Y-35000000D01*
D18*
X51600000Y-50275000D02*
X51600000Y-50375000D01*
D19*
X37475000Y-46650000D02*
X36600000Y-46650000D01*
D18*
X37525000Y-28065000D02*
X31090000Y-28065000D01*
X35703856Y-62075000D02*
X51590000Y-62075000D01*
X51600000Y-50375000D02*
X51590000Y-50385000D01*
D19*
X67625000Y-63475000D02*
X67625000Y-64635000D01*
D20*
X67625000Y-64635000D02*
X65085000Y-67175000D01*
D18*
X53805000Y-24025000D02*
X53805000Y-22830000D01*
%TO.N,GND*%
D19*
X36200000Y-55625000D02*
X38500000Y-55625000D01*
X38500000Y-55625000D02*
X38800000Y-55925000D01*
X38800000Y-55925000D02*
X38800000Y-56850000D01*
%TO.N,/ws*%
X77575000Y-67000000D02*
X75500000Y-69075000D01*
X75500000Y-69075000D02*
X69025000Y-69075000D01*
X69025000Y-69075000D02*
X67625000Y-67675000D01*
X67625000Y-67675000D02*
X67625000Y-67175000D01*
%TO.N,/sda*%
D20*
X68530000Y-37170000D02*
X61975000Y-43725000D01*
X61975000Y-43725000D02*
X53675000Y-43725000D01*
X68530000Y-24600000D02*
X68530000Y-37170000D01*
%TO.N,/C1101 _clk*%
D21*
X48925000Y-49250000D02*
X48550000Y-49250000D01*
X47475000Y-25275000D02*
X48725000Y-24025000D01*
X48550000Y-49250000D02*
X47475000Y-48175000D01*
X47475000Y-48175000D02*
X47475000Y-25275000D01*
%TO.N,/do0*%
X48400000Y-39475000D02*
X49975000Y-37900000D01*
X49975000Y-37900000D02*
X49975000Y-25315000D01*
X48400000Y-46525000D02*
X48400000Y-39475000D01*
X49975000Y-25315000D02*
X51265000Y-24025000D01*
%TO.N,/C1101_miso*%
D20*
X45450000Y-49925000D02*
X44600000Y-49075000D01*
X45925000Y-49925000D02*
X45450000Y-49925000D01*
X44600000Y-49075000D02*
X44600000Y-25610000D01*
X44600000Y-25610000D02*
X46185000Y-24025000D01*
%TD*%
%TA.AperFunction,Conductor*%
%TO.N,GND*%
G36*
X82677826Y-20222174D02*
G01*
X82699500Y-20274500D01*
X82699500Y-69725500D01*
X82677826Y-69777826D01*
X82625500Y-69799500D01*
X20274500Y-69799500D01*
X20222174Y-69777826D01*
X20200500Y-69725500D01*
X20200500Y-66956535D01*
X22321500Y-66956535D01*
X22321500Y-67163464D01*
X22361868Y-67366413D01*
X22361870Y-67366420D01*
X22441059Y-67557598D01*
X22517899Y-67672599D01*
X22556023Y-67729655D01*
X22702345Y-67875977D01*
X22874402Y-67990941D01*
X23065580Y-68070130D01*
X23268535Y-68110500D01*
X23268536Y-68110500D01*
X23475464Y-68110500D01*
X23475465Y-68110500D01*
X23678420Y-68070130D01*
X23869598Y-67990941D01*
X24041655Y-67875977D01*
X24187977Y-67729655D01*
X24302941Y-67557598D01*
X24382130Y-67366420D01*
X24422500Y-67163465D01*
X24422500Y-66956535D01*
X24382130Y-66753580D01*
X24302941Y-66562402D01*
X24187977Y-66390345D01*
X24041655Y-66244023D01*
X23869598Y-66129059D01*
X23678420Y-66049870D01*
X23678413Y-66049868D01*
X23525516Y-66019455D01*
X23475465Y-66009500D01*
X23268535Y-66009500D01*
X23228385Y-66017486D01*
X23065586Y-66049868D01*
X23065579Y-66049870D01*
X22874401Y-66129059D01*
X22702345Y-66244022D01*
X22702344Y-66244024D01*
X22556024Y-66390344D01*
X22556022Y-66390345D01*
X22441059Y-66562401D01*
X22361870Y-66753579D01*
X22361868Y-66753586D01*
X22321500Y-66956535D01*
X20200500Y-66956535D01*
X20200500Y-63650252D01*
X22321500Y-63650252D01*
X22321500Y-65389748D01*
X22329255Y-65428736D01*
X22333133Y-65448232D01*
X22347766Y-65470131D01*
X22377448Y-65514552D01*
X22421560Y-65544027D01*
X22443767Y-65558866D01*
X22443768Y-65558866D01*
X22443769Y-65558867D01*
X22502252Y-65570500D01*
X22502254Y-65570500D01*
X24241746Y-65570500D01*
X24241748Y-65570500D01*
X24300231Y-65558867D01*
X24366552Y-65514552D01*
X24410867Y-65448231D01*
X24422500Y-65389748D01*
X24422500Y-63650252D01*
X24410867Y-63591769D01*
X24366552Y-63525448D01*
X24315661Y-63491443D01*
X24300232Y-63481133D01*
X24300233Y-63481133D01*
X24270989Y-63475316D01*
X24241748Y-63469500D01*
X22502252Y-63469500D01*
X22473010Y-63475316D01*
X22443767Y-63481133D01*
X22377449Y-63525447D01*
X22377447Y-63525449D01*
X22333133Y-63591767D01*
X22333133Y-63591769D01*
X22321500Y-63650252D01*
X20200500Y-63650252D01*
X20200500Y-55430253D01*
X21199500Y-55430253D01*
X21199500Y-57169746D01*
X21211133Y-57228232D01*
X21240608Y-57272343D01*
X21255448Y-57294552D01*
X21299560Y-57324027D01*
X21321767Y-57338866D01*
X21321768Y-57338866D01*
X21321769Y-57338867D01*
X21380252Y-57350500D01*
X21380254Y-57350500D01*
X23119746Y-57350500D01*
X23119748Y-57350500D01*
X23178231Y-57338867D01*
X23244552Y-57294552D01*
X23288867Y-57228231D01*
X23300500Y-57169748D01*
X23300500Y-55430252D01*
X23288867Y-55371769D01*
X23244552Y-55305448D01*
X23222343Y-55290608D01*
X23178232Y-55261133D01*
X23178233Y-55261133D01*
X23148989Y-55255316D01*
X23119748Y-55249500D01*
X21380252Y-55249500D01*
X21351010Y-55255316D01*
X21321767Y-55261133D01*
X21255449Y-55305447D01*
X21255447Y-55305449D01*
X21211133Y-55371767D01*
X21199500Y-55430253D01*
X20200500Y-55430253D01*
X20200500Y-47174999D01*
X24500000Y-47174999D01*
X24524999Y-62474999D01*
X24525000Y-62474999D01*
X24525000Y-62475000D01*
X35204557Y-62455722D01*
X35256921Y-62477302D01*
X35257016Y-62477396D01*
X35335140Y-62555520D01*
X35369747Y-62575500D01*
X35472074Y-62634578D01*
X35579426Y-62663343D01*
X35624796Y-62675500D01*
X35624797Y-62675501D01*
X35624799Y-62675501D01*
X35787444Y-62675501D01*
X35787460Y-62675500D01*
X50915500Y-62675500D01*
X50967826Y-62697174D01*
X50989500Y-62749500D01*
X50989500Y-66623261D01*
X50967826Y-66675587D01*
X50956612Y-66684790D01*
X50920348Y-66709020D01*
X50920347Y-66709021D01*
X50774023Y-66855344D01*
X50774022Y-66855345D01*
X50659059Y-67027401D01*
X50579870Y-67218579D01*
X50579868Y-67218586D01*
X50539500Y-67421535D01*
X50539500Y-67628464D01*
X50579868Y-67831413D01*
X50579870Y-67831420D01*
X50659059Y-68022598D01*
X50767658Y-68185130D01*
X50774023Y-68194655D01*
X50920345Y-68340977D01*
X51092402Y-68455941D01*
X51283580Y-68535130D01*
X51486535Y-68575500D01*
X51486536Y-68575500D01*
X51693464Y-68575500D01*
X51693465Y-68575500D01*
X51896420Y-68535130D01*
X52087598Y-68455941D01*
X52259655Y-68340977D01*
X52405977Y-68194655D01*
X52520941Y-68022598D01*
X52600130Y-67831420D01*
X52640500Y-67628465D01*
X52640500Y-67421535D01*
X53079500Y-67421535D01*
X53079500Y-67628464D01*
X53119868Y-67831413D01*
X53119870Y-67831420D01*
X53199059Y-68022598D01*
X53307658Y-68185130D01*
X53314023Y-68194655D01*
X53460345Y-68340977D01*
X53632402Y-68455941D01*
X53823580Y-68535130D01*
X54026535Y-68575500D01*
X54026536Y-68575500D01*
X54233464Y-68575500D01*
X54233465Y-68575500D01*
X54436420Y-68535130D01*
X54627598Y-68455941D01*
X54799655Y-68340977D01*
X54945977Y-68194655D01*
X55060941Y-68022598D01*
X55140130Y-67831420D01*
X55180500Y-67628465D01*
X55180500Y-67421535D01*
X55619500Y-67421535D01*
X55619500Y-67628464D01*
X55659868Y-67831413D01*
X55659870Y-67831420D01*
X55739059Y-68022598D01*
X55847658Y-68185130D01*
X55854023Y-68194655D01*
X56000345Y-68340977D01*
X56172402Y-68455941D01*
X56363580Y-68535130D01*
X56566535Y-68575500D01*
X56566536Y-68575500D01*
X56773464Y-68575500D01*
X56773465Y-68575500D01*
X56976420Y-68535130D01*
X57167598Y-68455941D01*
X57339655Y-68340977D01*
X57485977Y-68194655D01*
X57600941Y-68022598D01*
X57680130Y-67831420D01*
X57720500Y-67628465D01*
X57720500Y-67421535D01*
X57680130Y-67218580D01*
X57600941Y-67027402D01*
X57485977Y-66855345D01*
X57339655Y-66709023D01*
X57339652Y-66709021D01*
X57167598Y-66594059D01*
X56976420Y-66514870D01*
X56976413Y-66514868D01*
X56823516Y-66484455D01*
X56773465Y-66474500D01*
X56566535Y-66474500D01*
X56526385Y-66482486D01*
X56363586Y-66514868D01*
X56363579Y-66514870D01*
X56172401Y-66594059D01*
X56000345Y-66709022D01*
X56000344Y-66709024D01*
X55854024Y-66855344D01*
X55854022Y-66855345D01*
X55739059Y-67027401D01*
X55659870Y-67218579D01*
X55659868Y-67218586D01*
X55619500Y-67421535D01*
X55180500Y-67421535D01*
X55140130Y-67218580D01*
X55060941Y-67027402D01*
X54945977Y-66855345D01*
X54799655Y-66709023D01*
X54799652Y-66709021D01*
X54627598Y-66594059D01*
X54436420Y-66514870D01*
X54436413Y-66514868D01*
X54283516Y-66484455D01*
X54233465Y-66474500D01*
X54026535Y-66474500D01*
X53986385Y-66482486D01*
X53823586Y-66514868D01*
X53823579Y-66514870D01*
X53632401Y-66594059D01*
X53460345Y-66709022D01*
X53460344Y-66709024D01*
X53314024Y-66855344D01*
X53314022Y-66855345D01*
X53199059Y-67027401D01*
X53119870Y-67218579D01*
X53119868Y-67218586D01*
X53079500Y-67421535D01*
X52640500Y-67421535D01*
X52600130Y-67218580D01*
X52520941Y-67027402D01*
X52405977Y-66855345D01*
X52259655Y-66709023D01*
X52236541Y-66693579D01*
X52223388Y-66684790D01*
X52191922Y-66637697D01*
X52190500Y-66623261D01*
X52190500Y-66305253D01*
X64034500Y-66305253D01*
X64034500Y-68044746D01*
X64046133Y-68103232D01*
X64050990Y-68110500D01*
X64090448Y-68169552D01*
X64128015Y-68194654D01*
X64156767Y-68213866D01*
X64156768Y-68213866D01*
X64156769Y-68213867D01*
X64215252Y-68225500D01*
X64215254Y-68225500D01*
X65954746Y-68225500D01*
X65954748Y-68225500D01*
X66013231Y-68213867D01*
X66079552Y-68169552D01*
X66123867Y-68103231D01*
X66135500Y-68044748D01*
X66135500Y-67071535D01*
X66574500Y-67071535D01*
X66574500Y-67278465D01*
X66580059Y-67306413D01*
X66614868Y-67481413D01*
X66614870Y-67481420D01*
X66694059Y-67672598D01*
X66800179Y-67831420D01*
X66809023Y-67844655D01*
X66955345Y-67990977D01*
X67127402Y-68105941D01*
X67318580Y-68185130D01*
X67432298Y-68207749D01*
X67470187Y-68228001D01*
X68717686Y-69475500D01*
X68831814Y-69541392D01*
X68959105Y-69575499D01*
X68959106Y-69575500D01*
X68959108Y-69575500D01*
X75565894Y-69575500D01*
X75565894Y-69575499D01*
X75693186Y-69541392D01*
X75807314Y-69475500D01*
X77244035Y-68038777D01*
X77296360Y-68017104D01*
X77310789Y-68018525D01*
X77471535Y-68050500D01*
X77471537Y-68050500D01*
X77678464Y-68050500D01*
X77678465Y-68050500D01*
X77881420Y-68010130D01*
X78072598Y-67930941D01*
X78244655Y-67815977D01*
X78390977Y-67669655D01*
X78505941Y-67497598D01*
X78585130Y-67306420D01*
X78625500Y-67103465D01*
X78625500Y-66896535D01*
X79064500Y-66896535D01*
X79064500Y-67103464D01*
X79104868Y-67306413D01*
X79104870Y-67306420D01*
X79184059Y-67497598D01*
X79299023Y-67669655D01*
X79445345Y-67815977D01*
X79617402Y-67930941D01*
X79808580Y-68010130D01*
X80011535Y-68050500D01*
X80011536Y-68050500D01*
X80218464Y-68050500D01*
X80218465Y-68050500D01*
X80421420Y-68010130D01*
X80612598Y-67930941D01*
X80784655Y-67815977D01*
X80930977Y-67669655D01*
X81045941Y-67497598D01*
X81125130Y-67306420D01*
X81165500Y-67103465D01*
X81165500Y-66896535D01*
X81125130Y-66693580D01*
X81045941Y-66502402D01*
X80930977Y-66330345D01*
X80784655Y-66184023D01*
X80779306Y-66180449D01*
X80612598Y-66069059D01*
X80421420Y-65989870D01*
X80421413Y-65989868D01*
X80268516Y-65959455D01*
X80218465Y-65949500D01*
X80011535Y-65949500D01*
X79971385Y-65957486D01*
X79808586Y-65989868D01*
X79808579Y-65989870D01*
X79617401Y-66069059D01*
X79445345Y-66184022D01*
X79445344Y-66184024D01*
X79299024Y-66330344D01*
X79299022Y-66330345D01*
X79184059Y-66502401D01*
X79104870Y-66693579D01*
X79104868Y-66693586D01*
X79064500Y-66896535D01*
X78625500Y-66896535D01*
X78585130Y-66693580D01*
X78505941Y-66502402D01*
X78390977Y-66330345D01*
X78244655Y-66184023D01*
X78239306Y-66180449D01*
X78072598Y-66069059D01*
X77881420Y-65989870D01*
X77881413Y-65989868D01*
X77728516Y-65959455D01*
X77678465Y-65949500D01*
X77471535Y-65949500D01*
X77431385Y-65957486D01*
X77268586Y-65989868D01*
X77268579Y-65989870D01*
X77077401Y-66069059D01*
X76905345Y-66184022D01*
X76905344Y-66184024D01*
X76759024Y-66330344D01*
X76759022Y-66330345D01*
X76644059Y-66502401D01*
X76564870Y-66693579D01*
X76564868Y-66693586D01*
X76524500Y-66896535D01*
X76524500Y-67103464D01*
X76556472Y-67264202D01*
X76545423Y-67319750D01*
X76536220Y-67330964D01*
X75314360Y-68552826D01*
X75262034Y-68574500D01*
X69262966Y-68574500D01*
X69210640Y-68552826D01*
X68508549Y-67850735D01*
X68486875Y-67798409D01*
X68499346Y-67757298D01*
X68555941Y-67672598D01*
X68635130Y-67481420D01*
X68675500Y-67278465D01*
X68675500Y-67071535D01*
X69114500Y-67071535D01*
X69114500Y-67278465D01*
X69120059Y-67306413D01*
X69154868Y-67481413D01*
X69154870Y-67481420D01*
X69234059Y-67672598D01*
X69340179Y-67831420D01*
X69349023Y-67844655D01*
X69495345Y-67990977D01*
X69667402Y-68105941D01*
X69858580Y-68185130D01*
X70061535Y-68225500D01*
X70061536Y-68225500D01*
X70268464Y-68225500D01*
X70268465Y-68225500D01*
X70471420Y-68185130D01*
X70662598Y-68105941D01*
X70834655Y-67990977D01*
X70980977Y-67844655D01*
X71095941Y-67672598D01*
X71175130Y-67481420D01*
X71215500Y-67278465D01*
X71215500Y-67071535D01*
X71175130Y-66868580D01*
X71095941Y-66677402D01*
X70980977Y-66505345D01*
X70834655Y-66359023D01*
X70754180Y-66305252D01*
X70662598Y-66244059D01*
X70471420Y-66164870D01*
X70471413Y-66164868D01*
X70318516Y-66134455D01*
X70268465Y-66124500D01*
X70061535Y-66124500D01*
X70021385Y-66132486D01*
X69858586Y-66164868D01*
X69858579Y-66164870D01*
X69667401Y-66244059D01*
X69495345Y-66359022D01*
X69495344Y-66359024D01*
X69349024Y-66505344D01*
X69349022Y-66505345D01*
X69234059Y-66677401D01*
X69154870Y-66868579D01*
X69154868Y-66868586D01*
X69114500Y-67071535D01*
X68675500Y-67071535D01*
X68635130Y-66868580D01*
X68555941Y-66677402D01*
X68440977Y-66505345D01*
X68294655Y-66359023D01*
X68214180Y-66305252D01*
X68122598Y-66244059D01*
X67931420Y-66164870D01*
X67931413Y-66164868D01*
X67778516Y-66134455D01*
X67728465Y-66124500D01*
X67521535Y-66124500D01*
X67481385Y-66132486D01*
X67318586Y-66164868D01*
X67318579Y-66164870D01*
X67127401Y-66244059D01*
X66955345Y-66359022D01*
X66955344Y-66359024D01*
X66809024Y-66505344D01*
X66809022Y-66505345D01*
X66694059Y-66677401D01*
X66614870Y-66868579D01*
X66614868Y-66868586D01*
X66574500Y-67071535D01*
X66135500Y-67071535D01*
X66135500Y-66792254D01*
X66157173Y-66739929D01*
X67236519Y-65660582D01*
X67288844Y-65638909D01*
X67315086Y-65644131D01*
X67315104Y-65644075D01*
X67315675Y-65644248D01*
X67317169Y-65644545D01*
X67318580Y-65645130D01*
X67521535Y-65685500D01*
X67521536Y-65685500D01*
X67728464Y-65685500D01*
X67728465Y-65685500D01*
X67931420Y-65645130D01*
X68122598Y-65565941D01*
X68294655Y-65450977D01*
X68440977Y-65304655D01*
X68555941Y-65132598D01*
X68635130Y-64941420D01*
X68675500Y-64738465D01*
X68675500Y-64531535D01*
X69114500Y-64531535D01*
X69114500Y-64738464D01*
X69154868Y-64941413D01*
X69154869Y-64941417D01*
X69154870Y-64941420D01*
X69234059Y-65132598D01*
X69349023Y-65304655D01*
X69495345Y-65450977D01*
X69667402Y-65565941D01*
X69858580Y-65645130D01*
X70061535Y-65685500D01*
X70061536Y-65685500D01*
X70268464Y-65685500D01*
X70268465Y-65685500D01*
X70471420Y-65645130D01*
X70662598Y-65565941D01*
X70834655Y-65450977D01*
X70980977Y-65304655D01*
X71095941Y-65132598D01*
X71175130Y-64941420D01*
X71215500Y-64738465D01*
X71215500Y-64531535D01*
X71175130Y-64328580D01*
X71095941Y-64137402D01*
X70980977Y-63965345D01*
X70834655Y-63819023D01*
X70662598Y-63704059D01*
X70471420Y-63624870D01*
X70471413Y-63624868D01*
X70304999Y-63591767D01*
X70268465Y-63584500D01*
X70061535Y-63584500D01*
X70025001Y-63591767D01*
X69858586Y-63624868D01*
X69858579Y-63624870D01*
X69667401Y-63704059D01*
X69495345Y-63819022D01*
X69495344Y-63819024D01*
X69349024Y-63965344D01*
X69349022Y-63965345D01*
X69234059Y-64137401D01*
X69154870Y-64328579D01*
X69154868Y-64328586D01*
X69114500Y-64531535D01*
X68675500Y-64531535D01*
X68635130Y-64328580D01*
X68555941Y-64137402D01*
X68440977Y-63965345D01*
X68294655Y-63819023D01*
X68294654Y-63819022D01*
X68186276Y-63746606D01*
X68154810Y-63699513D01*
X68165859Y-63643965D01*
X68175057Y-63632756D01*
X68885640Y-62922174D01*
X68937966Y-62900500D01*
X76812034Y-62900500D01*
X76864360Y-62922174D01*
X77052826Y-63110640D01*
X77074500Y-63162966D01*
X77074500Y-63491443D01*
X77052826Y-63543769D01*
X77041612Y-63552972D01*
X76905345Y-63644022D01*
X76905344Y-63644024D01*
X76759024Y-63790344D01*
X76759022Y-63790345D01*
X76644059Y-63962401D01*
X76564870Y-64153579D01*
X76564868Y-64153586D01*
X76524500Y-64356535D01*
X76524500Y-64563464D01*
X76564868Y-64766413D01*
X76564870Y-64766420D01*
X76644059Y-64957598D01*
X76759023Y-65129655D01*
X76905345Y-65275977D01*
X77077402Y-65390941D01*
X77268580Y-65470130D01*
X77471535Y-65510500D01*
X77471536Y-65510500D01*
X77678464Y-65510500D01*
X77678465Y-65510500D01*
X77881420Y-65470130D01*
X78072598Y-65390941D01*
X78244655Y-65275977D01*
X78390977Y-65129655D01*
X78505941Y-64957598D01*
X78585130Y-64766420D01*
X78625500Y-64563465D01*
X78625500Y-64356535D01*
X79064500Y-64356535D01*
X79064500Y-64563464D01*
X79104868Y-64766413D01*
X79104870Y-64766420D01*
X79184059Y-64957598D01*
X79299023Y-65129655D01*
X79445345Y-65275977D01*
X79617402Y-65390941D01*
X79808580Y-65470130D01*
X80011535Y-65510500D01*
X80011536Y-65510500D01*
X80218464Y-65510500D01*
X80218465Y-65510500D01*
X80421420Y-65470130D01*
X80612598Y-65390941D01*
X80784655Y-65275977D01*
X80930977Y-65129655D01*
X81045941Y-64957598D01*
X81125130Y-64766420D01*
X81165500Y-64563465D01*
X81165500Y-64356535D01*
X81125130Y-64153580D01*
X81045941Y-63962402D01*
X80930977Y-63790345D01*
X80784655Y-63644023D01*
X80784568Y-63643965D01*
X80612598Y-63529059D01*
X80421420Y-63449870D01*
X80421413Y-63449868D01*
X80268516Y-63419455D01*
X80218465Y-63409500D01*
X80011535Y-63409500D01*
X79971385Y-63417486D01*
X79808586Y-63449868D01*
X79808579Y-63449870D01*
X79617401Y-63529059D01*
X79445345Y-63644022D01*
X79445344Y-63644024D01*
X79299024Y-63790344D01*
X79299022Y-63790345D01*
X79184059Y-63962401D01*
X79104870Y-64153579D01*
X79104868Y-64153586D01*
X79064500Y-64356535D01*
X78625500Y-64356535D01*
X78585130Y-64153580D01*
X78505941Y-63962402D01*
X78390977Y-63790345D01*
X78244655Y-63644023D01*
X78244654Y-63644022D01*
X78108388Y-63552972D01*
X78076922Y-63505880D01*
X78075500Y-63491443D01*
X78075500Y-62859106D01*
X78075499Y-62859105D01*
X78073632Y-62852139D01*
X78041392Y-62731814D01*
X78035412Y-62721457D01*
X78025500Y-62684460D01*
X78025500Y-52801535D01*
X79074500Y-52801535D01*
X79074500Y-53008464D01*
X79114868Y-53211413D01*
X79114870Y-53211420D01*
X79194059Y-53402598D01*
X79309023Y-53574655D01*
X79455345Y-53720977D01*
X79627402Y-53835941D01*
X79818580Y-53915130D01*
X80021535Y-53955500D01*
X80021536Y-53955500D01*
X80228464Y-53955500D01*
X80228465Y-53955500D01*
X80431420Y-53915130D01*
X80622598Y-53835941D01*
X80794655Y-53720977D01*
X80940977Y-53574655D01*
X81055941Y-53402598D01*
X81135130Y-53211420D01*
X81175500Y-53008465D01*
X81175500Y-52801535D01*
X81135130Y-52598580D01*
X81055941Y-52407402D01*
X80940977Y-52235345D01*
X80794655Y-52089023D01*
X80622598Y-51974059D01*
X80431420Y-51894870D01*
X80431413Y-51894868D01*
X80278516Y-51864455D01*
X80228465Y-51854500D01*
X80021535Y-51854500D01*
X79981385Y-51862486D01*
X79818586Y-51894868D01*
X79818579Y-51894870D01*
X79627401Y-51974059D01*
X79455345Y-52089022D01*
X79455344Y-52089024D01*
X79309024Y-52235344D01*
X79309022Y-52235345D01*
X79194059Y-52407401D01*
X79114870Y-52598579D01*
X79114868Y-52598586D01*
X79074500Y-52801535D01*
X78025500Y-52801535D01*
X78025500Y-50261535D01*
X79074500Y-50261535D01*
X79074500Y-50468465D01*
X79080995Y-50501118D01*
X79114868Y-50671413D01*
X79114870Y-50671420D01*
X79194059Y-50862598D01*
X79309023Y-51034655D01*
X79455345Y-51180977D01*
X79627402Y-51295941D01*
X79818580Y-51375130D01*
X80021535Y-51415500D01*
X80021536Y-51415500D01*
X80228464Y-51415500D01*
X80228465Y-51415500D01*
X80431420Y-51375130D01*
X80622598Y-51295941D01*
X80794655Y-51180977D01*
X80940977Y-51034655D01*
X81055941Y-50862598D01*
X81135130Y-50671420D01*
X81175500Y-50468465D01*
X81175500Y-50261535D01*
X81135130Y-50058580D01*
X81055941Y-49867402D01*
X80940977Y-49695345D01*
X80794655Y-49549023D01*
X80766888Y-49530470D01*
X80622598Y-49434059D01*
X80431420Y-49354870D01*
X80431413Y-49354868D01*
X80278516Y-49324455D01*
X80228465Y-49314500D01*
X80021535Y-49314500D01*
X79981385Y-49322486D01*
X79818586Y-49354868D01*
X79818579Y-49354870D01*
X79627401Y-49434059D01*
X79455345Y-49549022D01*
X79455344Y-49549024D01*
X79309024Y-49695344D01*
X79309022Y-49695345D01*
X79194059Y-49867401D01*
X79114870Y-50058579D01*
X79114868Y-50058586D01*
X79087547Y-50195941D01*
X79074500Y-50261535D01*
X78025500Y-50261535D01*
X78025500Y-47721535D01*
X79074500Y-47721535D01*
X79074500Y-47928464D01*
X79114868Y-48131413D01*
X79114870Y-48131420D01*
X79194059Y-48322598D01*
X79309023Y-48494655D01*
X79455345Y-48640977D01*
X79627402Y-48755941D01*
X79818580Y-48835130D01*
X80021535Y-48875500D01*
X80021536Y-48875500D01*
X80228464Y-48875500D01*
X80228465Y-48875500D01*
X80431420Y-48835130D01*
X80622598Y-48755941D01*
X80794655Y-48640977D01*
X80940977Y-48494655D01*
X81055941Y-48322598D01*
X81135130Y-48131420D01*
X81175500Y-47928465D01*
X81175500Y-47721535D01*
X81135130Y-47518580D01*
X81055941Y-47327402D01*
X80940977Y-47155345D01*
X80794655Y-47009023D01*
X80768268Y-46991392D01*
X80622598Y-46894059D01*
X80431420Y-46814870D01*
X80431413Y-46814868D01*
X80235704Y-46775940D01*
X80228465Y-46774500D01*
X80021535Y-46774500D01*
X80014296Y-46775940D01*
X79818586Y-46814868D01*
X79818579Y-46814870D01*
X79627401Y-46894059D01*
X79455345Y-47009022D01*
X79455344Y-47009024D01*
X79309024Y-47155344D01*
X79309022Y-47155345D01*
X79194059Y-47327401D01*
X79114870Y-47518579D01*
X79114868Y-47518586D01*
X79074500Y-47721535D01*
X78025500Y-47721535D01*
X78025500Y-45512255D01*
X78047174Y-45459929D01*
X79689930Y-43817174D01*
X79742256Y-43795500D01*
X80994746Y-43795500D01*
X80994748Y-43795500D01*
X81053231Y-43783867D01*
X81119552Y-43739552D01*
X81163867Y-43673231D01*
X81175500Y-43614748D01*
X81175500Y-41875252D01*
X81163867Y-41816769D01*
X81119552Y-41750448D01*
X81084538Y-41727052D01*
X81053232Y-41706133D01*
X81053233Y-41706133D01*
X81023989Y-41700316D01*
X80994748Y-41694500D01*
X79255252Y-41694500D01*
X79226010Y-41700316D01*
X79196767Y-41706133D01*
X79130449Y-41750447D01*
X79130447Y-41750449D01*
X79086133Y-41816767D01*
X79074500Y-41875253D01*
X79074500Y-43127744D01*
X79052826Y-43180070D01*
X77214508Y-45018389D01*
X77155201Y-45121112D01*
X77152680Y-45130523D01*
X77152679Y-45130522D01*
X77152679Y-45130525D01*
X77124500Y-45235688D01*
X77124500Y-61825500D01*
X77102826Y-61877826D01*
X77050500Y-61899500D01*
X68634106Y-61899500D01*
X68506818Y-61933606D01*
X68506809Y-61933610D01*
X68392685Y-61999500D01*
X67224500Y-63167685D01*
X67158610Y-63281809D01*
X67158606Y-63281818D01*
X67124500Y-63409105D01*
X67124500Y-63666443D01*
X67102826Y-63718769D01*
X67091612Y-63727972D01*
X66955345Y-63819022D01*
X66955344Y-63819024D01*
X66809024Y-63965344D01*
X66809022Y-63965345D01*
X66694059Y-64137401D01*
X66614870Y-64328579D01*
X66614868Y-64328586D01*
X66574500Y-64531535D01*
X66574500Y-64738464D01*
X66614869Y-64941417D01*
X66614871Y-64941426D01*
X66615455Y-64942834D01*
X66615455Y-64943349D01*
X66615926Y-64944902D01*
X66615455Y-64945044D01*
X66615457Y-64999471D01*
X66599415Y-65023480D01*
X65520071Y-66102826D01*
X65467745Y-66124500D01*
X64215252Y-66124500D01*
X64186010Y-66130316D01*
X64156767Y-66136133D01*
X64090449Y-66180447D01*
X64090447Y-66180449D01*
X64046133Y-66246767D01*
X64034500Y-66305253D01*
X52190500Y-66305253D01*
X52190500Y-62649500D01*
X52212174Y-62597174D01*
X52264500Y-62575500D01*
X59466578Y-62575500D01*
X59518904Y-62597174D01*
X59528107Y-62608388D01*
X59572950Y-62675501D01*
X59597861Y-62712782D01*
X59737218Y-62852139D01*
X59901086Y-62961632D01*
X60083165Y-63037051D01*
X60276459Y-63075500D01*
X60276461Y-63075500D01*
X60473539Y-63075500D01*
X60473541Y-63075500D01*
X60666835Y-63037051D01*
X60848914Y-62961632D01*
X61012782Y-62852139D01*
X61152139Y-62712782D01*
X61261632Y-62548914D01*
X61337051Y-62366835D01*
X61375500Y-62173541D01*
X61375500Y-61976459D01*
X61337051Y-61783165D01*
X61261632Y-61601086D01*
X61152139Y-61437218D01*
X61012782Y-61297861D01*
X60848914Y-61188368D01*
X60848915Y-61188368D01*
X60848913Y-61188367D01*
X60666839Y-61112950D01*
X60666829Y-61112947D01*
X60537388Y-61087200D01*
X60473541Y-61074500D01*
X60276459Y-61074500D01*
X60221662Y-61085399D01*
X60083170Y-61112947D01*
X60083160Y-61112950D01*
X59901086Y-61188367D01*
X59737218Y-61297860D01*
X59737217Y-61297862D01*
X59597862Y-61437217D01*
X59597860Y-61437218D01*
X59528107Y-61541612D01*
X59481015Y-61573078D01*
X59466578Y-61574500D01*
X52264500Y-61574500D01*
X52212174Y-61552826D01*
X52190500Y-61500500D01*
X52190500Y-50501118D01*
X52193022Y-50481964D01*
X52200500Y-50454058D01*
X52200500Y-50195941D01*
X52200499Y-50195940D01*
X52159578Y-50043220D01*
X52159577Y-50043216D01*
X52080520Y-49906284D01*
X51968716Y-49794480D01*
X51831784Y-49715423D01*
X51831781Y-49715422D01*
X51831779Y-49715421D01*
X51679059Y-49674500D01*
X51679057Y-49674500D01*
X51520943Y-49674500D01*
X51520941Y-49674500D01*
X51368220Y-49715421D01*
X51368214Y-49715424D01*
X51231283Y-49794480D01*
X51119480Y-49906283D01*
X51040424Y-50043214D01*
X51040421Y-50043220D01*
X50999500Y-50195940D01*
X50999500Y-50258877D01*
X50996978Y-50278030D01*
X50989499Y-50305940D01*
X50989499Y-50470015D01*
X50989500Y-50470028D01*
X50989500Y-61400500D01*
X50967826Y-61452826D01*
X50915500Y-61474500D01*
X38461168Y-61474500D01*
X38408842Y-61452826D01*
X38387168Y-61400500D01*
X38387173Y-61399642D01*
X38550000Y-47350000D01*
X38549999Y-47349999D01*
X24500000Y-47174999D01*
X20200500Y-47174999D01*
X20200500Y-45741535D01*
X21274500Y-45741535D01*
X21274500Y-45948464D01*
X21314868Y-46151413D01*
X21314870Y-46151420D01*
X21394059Y-46342598D01*
X21471906Y-46459106D01*
X21509023Y-46514655D01*
X21655345Y-46660977D01*
X21827402Y-46775941D01*
X22018580Y-46855130D01*
X22221535Y-46895500D01*
X22221536Y-46895500D01*
X22428464Y-46895500D01*
X22428465Y-46895500D01*
X22631420Y-46855130D01*
X22822598Y-46775941D01*
X22994655Y-46660977D01*
X23140977Y-46514655D01*
X23255941Y-46342598D01*
X23335130Y-46151420D01*
X23375500Y-45948465D01*
X23375500Y-45741535D01*
X23335130Y-45538580D01*
X23255941Y-45347402D01*
X23140977Y-45175345D01*
X22994655Y-45029023D01*
X22978735Y-45018386D01*
X22822598Y-44914059D01*
X22631420Y-44834870D01*
X22631413Y-44834868D01*
X22478516Y-44804455D01*
X22428465Y-44794500D01*
X22221535Y-44794500D01*
X22181385Y-44802486D01*
X22018586Y-44834868D01*
X22018579Y-44834870D01*
X21827401Y-44914059D01*
X21655345Y-45029022D01*
X21655344Y-45029024D01*
X21509024Y-45175344D01*
X21509022Y-45175345D01*
X21394059Y-45347401D01*
X21314870Y-45538579D01*
X21314868Y-45538586D01*
X21274500Y-45741535D01*
X20200500Y-45741535D01*
X20200500Y-44626460D01*
X25849500Y-44626460D01*
X25849500Y-44823539D01*
X25887947Y-45016829D01*
X25887950Y-45016839D01*
X25963367Y-45198913D01*
X26062584Y-45347401D01*
X26072861Y-45362782D01*
X26212218Y-45502139D01*
X26376086Y-45611632D01*
X26558165Y-45687051D01*
X26751459Y-45725500D01*
X26751461Y-45725500D01*
X26948539Y-45725500D01*
X26948541Y-45725500D01*
X27141835Y-45687051D01*
X27323914Y-45611632D01*
X27487782Y-45502139D01*
X27627139Y-45362782D01*
X27736632Y-45198914D01*
X27812051Y-45016835D01*
X27850500Y-44823541D01*
X27850500Y-44626459D01*
X27812051Y-44433165D01*
X27736632Y-44251086D01*
X27627139Y-44087218D01*
X27487782Y-43947861D01*
X27443377Y-43918190D01*
X27323913Y-43838367D01*
X27141839Y-43762950D01*
X27141829Y-43762947D01*
X27012388Y-43737200D01*
X26948541Y-43724500D01*
X26751459Y-43724500D01*
X26696662Y-43735399D01*
X26558170Y-43762947D01*
X26558160Y-43762950D01*
X26376086Y-43838367D01*
X26212218Y-43947860D01*
X26212217Y-43947862D01*
X26072862Y-44087217D01*
X26072860Y-44087218D01*
X25963367Y-44251086D01*
X25887950Y-44433160D01*
X25887947Y-44433170D01*
X25849500Y-44626460D01*
X20200500Y-44626460D01*
X20200500Y-40666460D01*
X27549500Y-40666460D01*
X27549500Y-40863539D01*
X27587947Y-41056829D01*
X27587950Y-41056839D01*
X27663367Y-41238913D01*
X27663368Y-41238914D01*
X27772861Y-41402782D01*
X27912218Y-41542139D01*
X28076086Y-41651632D01*
X28258165Y-41727051D01*
X28451459Y-41765500D01*
X28451461Y-41765500D01*
X28648539Y-41765500D01*
X28648541Y-41765500D01*
X28841835Y-41727051D01*
X29023914Y-41651632D01*
X29187782Y-41542139D01*
X29327139Y-41402782D01*
X29436632Y-41238914D01*
X29512051Y-41056835D01*
X29550500Y-40863541D01*
X29550500Y-40666459D01*
X29512051Y-40473165D01*
X29436632Y-40291086D01*
X29327139Y-40127218D01*
X29187782Y-39987861D01*
X29023914Y-39878368D01*
X29023915Y-39878368D01*
X29023913Y-39878367D01*
X28841839Y-39802950D01*
X28841829Y-39802947D01*
X28712388Y-39777200D01*
X28648541Y-39764500D01*
X28451459Y-39764500D01*
X28396662Y-39775399D01*
X28258170Y-39802947D01*
X28258160Y-39802950D01*
X28076086Y-39878367D01*
X27912218Y-39987860D01*
X27912217Y-39987862D01*
X27772862Y-40127217D01*
X27772860Y-40127218D01*
X27663367Y-40291086D01*
X27587950Y-40473160D01*
X27587947Y-40473170D01*
X27549500Y-40666460D01*
X20200500Y-40666460D01*
X20200500Y-35861535D01*
X21174500Y-35861535D01*
X21174500Y-36068464D01*
X21214868Y-36271413D01*
X21214870Y-36271420D01*
X21294059Y-36462598D01*
X21366912Y-36571632D01*
X21409023Y-36634655D01*
X21555345Y-36780977D01*
X21727402Y-36895941D01*
X21918580Y-36975130D01*
X22121535Y-37015500D01*
X22121536Y-37015500D01*
X22328464Y-37015500D01*
X22328465Y-37015500D01*
X22531420Y-36975130D01*
X22722598Y-36895941D01*
X22894655Y-36780977D01*
X23040977Y-36634655D01*
X23155941Y-36462598D01*
X23235130Y-36271420D01*
X23275500Y-36068465D01*
X23275500Y-35861535D01*
X23235130Y-35658580D01*
X23235128Y-35658575D01*
X23215481Y-35611142D01*
X23205257Y-35586460D01*
X27549500Y-35586460D01*
X27549500Y-35783539D01*
X27587947Y-35976829D01*
X27587950Y-35976839D01*
X27663367Y-36158913D01*
X27772860Y-36322781D01*
X27912218Y-36462139D01*
X28076086Y-36571632D01*
X28228240Y-36634656D01*
X28258165Y-36647051D01*
X28451459Y-36685500D01*
X28451461Y-36685500D01*
X28648539Y-36685500D01*
X28648541Y-36685500D01*
X28841835Y-36647051D01*
X29023914Y-36571632D01*
X29187782Y-36462139D01*
X29327139Y-36322782D01*
X29436632Y-36158914D01*
X29512051Y-35976835D01*
X29550500Y-35783541D01*
X29550500Y-35586459D01*
X29512051Y-35393165D01*
X29436632Y-35211086D01*
X29327139Y-35047218D01*
X29187782Y-34907861D01*
X29036561Y-34806818D01*
X29023913Y-34798367D01*
X28841839Y-34722950D01*
X28841829Y-34722947D01*
X28689689Y-34692685D01*
X28648541Y-34684500D01*
X28451459Y-34684500D01*
X28410311Y-34692685D01*
X28258170Y-34722947D01*
X28258160Y-34722950D01*
X28076086Y-34798367D01*
X27912218Y-34907860D01*
X27912217Y-34907862D01*
X27772862Y-35047217D01*
X27772860Y-35047218D01*
X27663367Y-35211086D01*
X27587950Y-35393160D01*
X27587947Y-35393170D01*
X27549500Y-35586460D01*
X23205257Y-35586460D01*
X23185807Y-35539506D01*
X23155941Y-35467402D01*
X23040977Y-35295345D01*
X22894655Y-35149023D01*
X22742290Y-35047217D01*
X22722598Y-35034059D01*
X22531420Y-34954870D01*
X22531413Y-34954868D01*
X22378516Y-34924455D01*
X22328465Y-34914500D01*
X22121535Y-34914500D01*
X22081385Y-34922486D01*
X21918586Y-34954868D01*
X21918579Y-34954870D01*
X21727401Y-35034059D01*
X21555345Y-35149022D01*
X21555344Y-35149024D01*
X21409024Y-35295344D01*
X21409022Y-35295345D01*
X21294059Y-35467401D01*
X21214870Y-35658579D01*
X21214868Y-35658586D01*
X21174500Y-35861535D01*
X20200500Y-35861535D01*
X20200500Y-33321535D01*
X21174500Y-33321535D01*
X21174500Y-33528464D01*
X21214868Y-33731413D01*
X21214870Y-33731420D01*
X21294059Y-33922598D01*
X21366912Y-34031632D01*
X21409023Y-34094655D01*
X21555345Y-34240977D01*
X21727402Y-34355941D01*
X21918580Y-34435130D01*
X22121535Y-34475500D01*
X22121536Y-34475500D01*
X22328464Y-34475500D01*
X22328465Y-34475500D01*
X22531420Y-34435130D01*
X22722598Y-34355941D01*
X22894655Y-34240977D01*
X23040977Y-34094655D01*
X23155941Y-33922598D01*
X23235130Y-33731420D01*
X23275500Y-33528465D01*
X23275500Y-33321535D01*
X23235130Y-33118580D01*
X23235128Y-33118575D01*
X23215481Y-33071142D01*
X23205257Y-33046460D01*
X27549500Y-33046460D01*
X27549500Y-33243539D01*
X27587947Y-33436829D01*
X27587950Y-33436839D01*
X27663367Y-33618913D01*
X27772860Y-33782781D01*
X27912218Y-33922139D01*
X28076086Y-34031632D01*
X28228240Y-34094656D01*
X28258165Y-34107051D01*
X28451459Y-34145500D01*
X28451461Y-34145500D01*
X28648539Y-34145500D01*
X28648541Y-34145500D01*
X28841835Y-34107051D01*
X29023914Y-34031632D01*
X29187782Y-33922139D01*
X29327139Y-33782782D01*
X29436632Y-33618914D01*
X29512051Y-33436835D01*
X29550500Y-33243541D01*
X29550500Y-33046459D01*
X29512051Y-32853165D01*
X29436632Y-32671086D01*
X29327139Y-32507218D01*
X29187782Y-32367861D01*
X29023914Y-32258368D01*
X29023915Y-32258368D01*
X29023913Y-32258367D01*
X28841839Y-32182950D01*
X28841829Y-32182947D01*
X28712388Y-32157200D01*
X28648541Y-32144500D01*
X28451459Y-32144500D01*
X28396662Y-32155399D01*
X28258170Y-32182947D01*
X28258160Y-32182950D01*
X28076086Y-32258367D01*
X27912218Y-32367860D01*
X27912217Y-32367862D01*
X27772862Y-32507217D01*
X27772860Y-32507218D01*
X27663367Y-32671086D01*
X27587950Y-32853160D01*
X27587947Y-32853170D01*
X27549500Y-33046460D01*
X23205257Y-33046460D01*
X23185807Y-32999506D01*
X23155941Y-32927402D01*
X23040977Y-32755345D01*
X22894655Y-32609023D01*
X22742290Y-32507217D01*
X22722598Y-32494059D01*
X22531420Y-32414870D01*
X22531413Y-32414868D01*
X22378516Y-32384455D01*
X22328465Y-32374500D01*
X22121535Y-32374500D01*
X22081385Y-32382486D01*
X21918586Y-32414868D01*
X21918579Y-32414870D01*
X21727401Y-32494059D01*
X21555345Y-32609022D01*
X21555344Y-32609024D01*
X21409024Y-32755344D01*
X21409022Y-32755345D01*
X21294059Y-32927401D01*
X21214870Y-33118579D01*
X21214868Y-33118586D01*
X21174500Y-33321535D01*
X20200500Y-33321535D01*
X20200500Y-30781535D01*
X21174500Y-30781535D01*
X21174500Y-30988464D01*
X21214868Y-31191413D01*
X21214870Y-31191420D01*
X21294059Y-31382598D01*
X21366912Y-31491632D01*
X21409023Y-31554655D01*
X21555345Y-31700977D01*
X21727402Y-31815941D01*
X21918580Y-31895130D01*
X22121535Y-31935500D01*
X22121536Y-31935500D01*
X22328464Y-31935500D01*
X22328465Y-31935500D01*
X22531420Y-31895130D01*
X22722598Y-31815941D01*
X22894655Y-31700977D01*
X23040977Y-31554655D01*
X23155941Y-31382598D01*
X23235130Y-31191420D01*
X23275500Y-30988465D01*
X23275500Y-30781535D01*
X23235130Y-30578580D01*
X23235128Y-30578575D01*
X23215481Y-30531142D01*
X23205257Y-30506460D01*
X27549500Y-30506460D01*
X27549500Y-30703539D01*
X27587947Y-30896829D01*
X27587950Y-30896839D01*
X27663367Y-31078913D01*
X27772860Y-31242781D01*
X27912218Y-31382139D01*
X28076086Y-31491632D01*
X28228240Y-31554656D01*
X28258165Y-31567051D01*
X28451459Y-31605500D01*
X28451461Y-31605500D01*
X28648539Y-31605500D01*
X28648541Y-31605500D01*
X28841835Y-31567051D01*
X29023914Y-31491632D01*
X29187782Y-31382139D01*
X29327139Y-31242782D01*
X29436632Y-31078914D01*
X29512051Y-30896835D01*
X29550500Y-30703541D01*
X29550500Y-30506459D01*
X29512051Y-30313165D01*
X29436632Y-30131086D01*
X29327139Y-29967218D01*
X29187782Y-29827861D01*
X29023914Y-29718368D01*
X29023915Y-29718368D01*
X29023913Y-29718367D01*
X28841839Y-29642950D01*
X28841829Y-29642947D01*
X28712388Y-29617200D01*
X28648541Y-29604500D01*
X28451459Y-29604500D01*
X28396662Y-29615399D01*
X28258170Y-29642947D01*
X28258160Y-29642950D01*
X28076086Y-29718367D01*
X27912218Y-29827860D01*
X27912217Y-29827862D01*
X27772862Y-29967217D01*
X27772860Y-29967218D01*
X27663367Y-30131086D01*
X27587950Y-30313160D01*
X27587947Y-30313170D01*
X27549500Y-30506460D01*
X23205257Y-30506460D01*
X23185807Y-30459506D01*
X23155941Y-30387402D01*
X23040977Y-30215345D01*
X22894655Y-30069023D01*
X22742290Y-29967217D01*
X22722598Y-29954059D01*
X22531420Y-29874870D01*
X22531413Y-29874868D01*
X22378516Y-29844455D01*
X22328465Y-29834500D01*
X22121535Y-29834500D01*
X22081385Y-29842486D01*
X21918586Y-29874868D01*
X21918579Y-29874870D01*
X21727401Y-29954059D01*
X21555345Y-30069022D01*
X21555344Y-30069024D01*
X21409024Y-30215344D01*
X21409022Y-30215345D01*
X21294059Y-30387401D01*
X21214870Y-30578579D01*
X21214868Y-30578586D01*
X21174500Y-30781535D01*
X20200500Y-30781535D01*
X20200500Y-27475253D01*
X21174500Y-27475253D01*
X21174500Y-29214746D01*
X21186133Y-29273232D01*
X21215608Y-29317343D01*
X21230448Y-29339552D01*
X21274560Y-29369027D01*
X21296767Y-29383866D01*
X21296768Y-29383866D01*
X21296769Y-29383867D01*
X21355252Y-29395500D01*
X21355254Y-29395500D01*
X23094746Y-29395500D01*
X23094748Y-29395500D01*
X23153231Y-29383867D01*
X23219552Y-29339552D01*
X23263867Y-29273231D01*
X23275500Y-29214748D01*
X23275500Y-27966460D01*
X27549500Y-27966460D01*
X27549500Y-28163539D01*
X27587947Y-28356829D01*
X27587950Y-28356839D01*
X27663367Y-28538913D01*
X27740623Y-28654534D01*
X27772861Y-28702782D01*
X27912218Y-28842139D01*
X28076086Y-28951632D01*
X28258165Y-29027051D01*
X28451459Y-29065500D01*
X28451461Y-29065500D01*
X28648539Y-29065500D01*
X28648541Y-29065500D01*
X28841835Y-29027051D01*
X29023914Y-28951632D01*
X29187782Y-28842139D01*
X29327139Y-28702782D01*
X29436632Y-28538914D01*
X29512051Y-28356835D01*
X29550500Y-28163541D01*
X29550500Y-27966459D01*
X29512051Y-27773165D01*
X29436632Y-27591086D01*
X29327139Y-27427218D01*
X29187782Y-27287861D01*
X29139776Y-27255784D01*
X29023913Y-27178367D01*
X28841839Y-27102950D01*
X28841829Y-27102947D01*
X28712388Y-27077200D01*
X28648541Y-27064500D01*
X28451459Y-27064500D01*
X28396662Y-27075399D01*
X28258170Y-27102947D01*
X28258160Y-27102950D01*
X28076086Y-27178367D01*
X27912218Y-27287860D01*
X27912217Y-27287862D01*
X27772862Y-27427217D01*
X27772860Y-27427218D01*
X27663367Y-27591086D01*
X27587950Y-27773160D01*
X27587947Y-27773170D01*
X27549500Y-27966460D01*
X23275500Y-27966460D01*
X23275500Y-27475252D01*
X23263867Y-27416769D01*
X23219552Y-27350448D01*
X23188627Y-27329784D01*
X23153232Y-27306133D01*
X23153233Y-27306133D01*
X23123989Y-27300316D01*
X23094748Y-27294500D01*
X21355252Y-27294500D01*
X21326010Y-27300316D01*
X21296767Y-27306133D01*
X21230449Y-27350447D01*
X21230447Y-27350449D01*
X21186133Y-27416767D01*
X21174500Y-27475253D01*
X20200500Y-27475253D01*
X20200500Y-25426459D01*
X27549500Y-25426459D01*
X27549500Y-25623541D01*
X27562200Y-25687388D01*
X27587947Y-25816829D01*
X27587950Y-25816839D01*
X27663367Y-25998913D01*
X27722937Y-26088065D01*
X27772861Y-26162782D01*
X27912218Y-26302139D01*
X28076086Y-26411632D01*
X28258165Y-26487051D01*
X28451459Y-26525500D01*
X28451461Y-26525500D01*
X28648539Y-26525500D01*
X28648541Y-26525500D01*
X28653722Y-26524469D01*
X28709271Y-26535518D01*
X28720486Y-26544721D01*
X30606891Y-28431126D01*
X30606896Y-28431132D01*
X30609480Y-28433716D01*
X30721284Y-28545520D01*
X30858216Y-28624577D01*
X30953190Y-28650024D01*
X30986363Y-28669177D01*
X37502826Y-35185640D01*
X37524500Y-35237966D01*
X37524500Y-45862034D01*
X37502826Y-45914360D01*
X37289360Y-46127826D01*
X37237034Y-46149500D01*
X36534106Y-46149500D01*
X36406818Y-46183606D01*
X36406809Y-46183610D01*
X36292685Y-46249500D01*
X36199500Y-46342685D01*
X36133610Y-46456809D01*
X36133606Y-46456818D01*
X36099500Y-46584105D01*
X36099500Y-46715894D01*
X36133606Y-46843181D01*
X36133610Y-46843190D01*
X36181132Y-46925500D01*
X36199500Y-46957314D01*
X36292686Y-47050500D01*
X36406814Y-47116392D01*
X36534105Y-47150499D01*
X36534106Y-47150500D01*
X36534108Y-47150500D01*
X37540894Y-47150500D01*
X37540894Y-47150499D01*
X37668186Y-47116392D01*
X37782314Y-47050500D01*
X38425499Y-46407315D01*
X38435663Y-46389712D01*
X38491392Y-46293186D01*
X38511622Y-46217686D01*
X38525500Y-46165893D01*
X38525500Y-46034108D01*
X38525500Y-40666460D01*
X40249500Y-40666460D01*
X40249500Y-40863539D01*
X40287947Y-41056829D01*
X40287950Y-41056839D01*
X40363367Y-41238913D01*
X40363368Y-41238914D01*
X40472861Y-41402782D01*
X40612218Y-41542139D01*
X40776086Y-41651632D01*
X40958165Y-41727051D01*
X41151459Y-41765500D01*
X41151461Y-41765500D01*
X41348539Y-41765500D01*
X41348541Y-41765500D01*
X41541835Y-41727051D01*
X41723914Y-41651632D01*
X41887782Y-41542139D01*
X42027139Y-41402782D01*
X42136632Y-41238914D01*
X42212051Y-41056835D01*
X42250500Y-40863541D01*
X42250500Y-40666459D01*
X42212051Y-40473165D01*
X42136632Y-40291086D01*
X42027139Y-40127218D01*
X41887782Y-39987861D01*
X41723914Y-39878368D01*
X41723915Y-39878368D01*
X41723913Y-39878367D01*
X41541839Y-39802950D01*
X41541829Y-39802947D01*
X41412388Y-39777200D01*
X41348541Y-39764500D01*
X41151459Y-39764500D01*
X41096662Y-39775399D01*
X40958170Y-39802947D01*
X40958160Y-39802950D01*
X40776086Y-39878367D01*
X40612218Y-39987860D01*
X40612217Y-39987862D01*
X40472862Y-40127217D01*
X40472860Y-40127218D01*
X40363367Y-40291086D01*
X40287950Y-40473160D01*
X40287947Y-40473170D01*
X40249500Y-40666460D01*
X38525500Y-40666460D01*
X38525500Y-38126460D01*
X40249500Y-38126460D01*
X40249500Y-38323539D01*
X40287947Y-38516829D01*
X40287950Y-38516839D01*
X40363367Y-38698913D01*
X40363368Y-38698914D01*
X40472861Y-38862782D01*
X40612218Y-39002139D01*
X40776086Y-39111632D01*
X40958165Y-39187051D01*
X41151459Y-39225500D01*
X41151461Y-39225500D01*
X41348539Y-39225500D01*
X41348541Y-39225500D01*
X41541835Y-39187051D01*
X41723914Y-39111632D01*
X41887782Y-39002139D01*
X42027139Y-38862782D01*
X42136632Y-38698914D01*
X42212051Y-38516835D01*
X42250500Y-38323541D01*
X42250500Y-38126459D01*
X42212051Y-37933165D01*
X42136632Y-37751086D01*
X42027139Y-37587218D01*
X41887782Y-37447861D01*
X41732167Y-37343882D01*
X41723913Y-37338367D01*
X41541839Y-37262950D01*
X41541829Y-37262947D01*
X41412388Y-37237200D01*
X41348541Y-37224500D01*
X41151459Y-37224500D01*
X41096662Y-37235399D01*
X40958170Y-37262947D01*
X40958160Y-37262950D01*
X40776086Y-37338367D01*
X40612218Y-37447860D01*
X40612217Y-37447862D01*
X40472862Y-37587217D01*
X40472860Y-37587218D01*
X40363367Y-37751086D01*
X40287950Y-37933160D01*
X40287947Y-37933170D01*
X40249500Y-38126460D01*
X38525500Y-38126460D01*
X38525500Y-35586460D01*
X40249500Y-35586460D01*
X40249500Y-35783539D01*
X40287947Y-35976829D01*
X40287950Y-35976839D01*
X40363367Y-36158913D01*
X40472860Y-36322781D01*
X40612218Y-36462139D01*
X40776086Y-36571632D01*
X40928240Y-36634656D01*
X40958165Y-36647051D01*
X41151459Y-36685500D01*
X41151461Y-36685500D01*
X41348539Y-36685500D01*
X41348541Y-36685500D01*
X41541835Y-36647051D01*
X41723914Y-36571632D01*
X41887782Y-36462139D01*
X42027139Y-36322782D01*
X42136632Y-36158914D01*
X42212051Y-35976835D01*
X42250500Y-35783541D01*
X42250500Y-35586459D01*
X42212051Y-35393165D01*
X42136632Y-35211086D01*
X42027139Y-35047218D01*
X41887782Y-34907861D01*
X41736561Y-34806818D01*
X41723913Y-34798367D01*
X41541839Y-34722950D01*
X41541829Y-34722947D01*
X41389689Y-34692685D01*
X41348541Y-34684500D01*
X41151459Y-34684500D01*
X41110311Y-34692685D01*
X40958170Y-34722947D01*
X40958160Y-34722950D01*
X40776086Y-34798367D01*
X40612218Y-34907860D01*
X40612217Y-34907862D01*
X40472862Y-35047217D01*
X40472860Y-35047218D01*
X40363367Y-35211086D01*
X40287950Y-35393160D01*
X40287947Y-35393170D01*
X40249500Y-35586460D01*
X38525500Y-35586460D01*
X38525500Y-34934108D01*
X38525500Y-34934106D01*
X38525499Y-34934105D01*
X38491393Y-34806818D01*
X38491392Y-34806814D01*
X38425500Y-34692686D01*
X38332314Y-34599500D01*
X36779274Y-33046460D01*
X40249500Y-33046460D01*
X40249500Y-33243539D01*
X40287947Y-33436829D01*
X40287950Y-33436839D01*
X40363367Y-33618913D01*
X40472860Y-33782781D01*
X40612218Y-33922139D01*
X40776086Y-34031632D01*
X40928240Y-34094656D01*
X40958165Y-34107051D01*
X41151459Y-34145500D01*
X41151461Y-34145500D01*
X41348539Y-34145500D01*
X41348541Y-34145500D01*
X41541835Y-34107051D01*
X41723914Y-34031632D01*
X41887782Y-33922139D01*
X42027139Y-33782782D01*
X42136632Y-33618914D01*
X42212051Y-33436835D01*
X42250500Y-33243541D01*
X42250500Y-33046459D01*
X42212051Y-32853165D01*
X42136632Y-32671086D01*
X42027139Y-32507218D01*
X41887782Y-32367861D01*
X41723914Y-32258368D01*
X41723915Y-32258368D01*
X41723913Y-32258367D01*
X41541839Y-32182950D01*
X41541829Y-32182947D01*
X41412388Y-32157200D01*
X41348541Y-32144500D01*
X41151459Y-32144500D01*
X41096662Y-32155399D01*
X40958170Y-32182947D01*
X40958160Y-32182950D01*
X40776086Y-32258367D01*
X40612218Y-32367860D01*
X40612217Y-32367862D01*
X40472862Y-32507217D01*
X40472860Y-32507218D01*
X40363367Y-32671086D01*
X40287950Y-32853160D01*
X40287947Y-32853170D01*
X40249500Y-33046460D01*
X36779274Y-33046460D01*
X34239274Y-30506460D01*
X40249500Y-30506460D01*
X40249500Y-30703539D01*
X40287947Y-30896829D01*
X40287950Y-30896839D01*
X40363367Y-31078913D01*
X40472860Y-31242781D01*
X40612218Y-31382139D01*
X40776086Y-31491632D01*
X40928240Y-31554656D01*
X40958165Y-31567051D01*
X41151459Y-31605500D01*
X41151461Y-31605500D01*
X41348539Y-31605500D01*
X41348541Y-31605500D01*
X41541835Y-31567051D01*
X41723914Y-31491632D01*
X41887782Y-31382139D01*
X42027139Y-31242782D01*
X42136632Y-31078914D01*
X42212051Y-30896835D01*
X42250500Y-30703541D01*
X42250500Y-30506459D01*
X42212051Y-30313165D01*
X42136632Y-30131086D01*
X42027139Y-29967218D01*
X41887782Y-29827861D01*
X41723914Y-29718368D01*
X41723915Y-29718368D01*
X41723913Y-29718367D01*
X41541839Y-29642950D01*
X41541829Y-29642947D01*
X41412388Y-29617200D01*
X41348541Y-29604500D01*
X41151459Y-29604500D01*
X41096662Y-29615399D01*
X40958170Y-29642947D01*
X40958160Y-29642950D01*
X40776086Y-29718367D01*
X40612218Y-29827860D01*
X40612217Y-29827862D01*
X40472862Y-29967217D01*
X40472860Y-29967218D01*
X40363367Y-30131086D01*
X40287950Y-30313160D01*
X40287947Y-30313170D01*
X40249500Y-30506460D01*
X34239274Y-30506460D01*
X32524640Y-28791826D01*
X32502966Y-28739500D01*
X32524640Y-28687174D01*
X32576966Y-28665500D01*
X37445943Y-28665500D01*
X40408396Y-28665500D01*
X40460722Y-28687174D01*
X40469924Y-28698387D01*
X40472861Y-28702782D01*
X40612218Y-28842139D01*
X40776086Y-28951632D01*
X40958165Y-29027051D01*
X41151459Y-29065500D01*
X41151461Y-29065500D01*
X41348539Y-29065500D01*
X41348541Y-29065500D01*
X41541835Y-29027051D01*
X41723914Y-28951632D01*
X41887782Y-28842139D01*
X42027139Y-28702782D01*
X42136632Y-28538914D01*
X42212051Y-28356835D01*
X42250500Y-28163541D01*
X42250500Y-27966459D01*
X42212051Y-27773165D01*
X42136632Y-27591086D01*
X42027139Y-27427218D01*
X41887782Y-27287861D01*
X41839776Y-27255784D01*
X41723913Y-27178367D01*
X41541839Y-27102950D01*
X41541829Y-27102947D01*
X41412388Y-27077200D01*
X41348541Y-27064500D01*
X41151459Y-27064500D01*
X41096662Y-27075399D01*
X40958170Y-27102947D01*
X40958160Y-27102950D01*
X40776086Y-27178367D01*
X40612218Y-27287860D01*
X40612217Y-27287862D01*
X40472858Y-27427221D01*
X40469924Y-27431613D01*
X40422832Y-27463078D01*
X40408396Y-27464500D01*
X38199500Y-27464500D01*
X38147174Y-27442826D01*
X38125500Y-27390500D01*
X38125500Y-25426459D01*
X40249500Y-25426459D01*
X40249500Y-25623541D01*
X40262200Y-25687388D01*
X40287947Y-25816829D01*
X40287950Y-25816839D01*
X40363367Y-25998913D01*
X40422937Y-26088065D01*
X40472861Y-26162782D01*
X40612218Y-26302139D01*
X40776086Y-26411632D01*
X40958165Y-26487051D01*
X41151459Y-26525500D01*
X41151461Y-26525500D01*
X41348539Y-26525500D01*
X41348541Y-26525500D01*
X41541835Y-26487051D01*
X41723914Y-26411632D01*
X41887782Y-26302139D01*
X42027139Y-26162782D01*
X42136632Y-25998914D01*
X42212051Y-25816835D01*
X42250500Y-25623541D01*
X42250500Y-25550691D01*
X44149500Y-25550691D01*
X44149500Y-25555195D01*
X44149500Y-49134308D01*
X44173712Y-49224672D01*
X44180200Y-49248883D01*
X44180203Y-49248891D01*
X44239508Y-49351610D01*
X44239509Y-49351611D01*
X44239511Y-49351614D01*
X45173387Y-50285490D01*
X45242687Y-50325500D01*
X45276114Y-50344799D01*
X45276115Y-50344799D01*
X45276117Y-50344800D01*
X45333402Y-50360149D01*
X45390688Y-50375499D01*
X45390689Y-50375500D01*
X45390691Y-50375500D01*
X45684460Y-50375500D01*
X45721457Y-50385412D01*
X45731814Y-50391392D01*
X45859105Y-50425499D01*
X45859106Y-50425500D01*
X45859108Y-50425500D01*
X45990894Y-50425500D01*
X45990894Y-50425499D01*
X46118186Y-50391392D01*
X46232314Y-50325500D01*
X46325500Y-50232314D01*
X46391392Y-50118186D01*
X46425499Y-49990894D01*
X46425500Y-49990894D01*
X46425500Y-49859106D01*
X46425499Y-49859105D01*
X46396398Y-49750499D01*
X46391392Y-49731814D01*
X46325500Y-49617686D01*
X46232314Y-49524500D01*
X46128542Y-49464587D01*
X46118190Y-49458610D01*
X46118181Y-49458606D01*
X45990894Y-49424500D01*
X45990892Y-49424500D01*
X45859108Y-49424500D01*
X45859106Y-49424500D01*
X45731818Y-49458606D01*
X45731815Y-49458607D01*
X45731814Y-49458608D01*
X45721457Y-49464587D01*
X45684460Y-49474500D01*
X45667255Y-49474500D01*
X45614929Y-49452826D01*
X45072174Y-48910071D01*
X45050500Y-48857745D01*
X45050500Y-26943186D01*
X45072174Y-26890860D01*
X45124500Y-26869186D01*
X45176826Y-26890860D01*
X45192865Y-26914864D01*
X45254059Y-27062598D01*
X45369023Y-27234655D01*
X45515345Y-27380977D01*
X45687402Y-27495941D01*
X45878580Y-27575130D01*
X46081535Y-27615500D01*
X46081536Y-27615500D01*
X46288464Y-27615500D01*
X46288465Y-27615500D01*
X46491420Y-27575130D01*
X46682598Y-27495941D01*
X46854655Y-27380977D01*
X46998174Y-27237458D01*
X47050500Y-27215784D01*
X47102826Y-27237458D01*
X47124500Y-27289784D01*
X47124500Y-48221146D01*
X47148384Y-48310284D01*
X47148386Y-48310289D01*
X47155493Y-48322598D01*
X47194530Y-48390212D01*
X48334788Y-49530470D01*
X48414712Y-49576614D01*
X48414713Y-49576614D01*
X48414715Y-49576615D01*
X48459284Y-49588557D01*
X48503853Y-49600499D01*
X48503854Y-49600500D01*
X48503856Y-49600500D01*
X48503857Y-49600500D01*
X48537034Y-49600500D01*
X48589360Y-49622174D01*
X48617686Y-49650500D01*
X48731814Y-49716392D01*
X48859105Y-49750499D01*
X48859106Y-49750500D01*
X48859108Y-49750500D01*
X48990894Y-49750500D01*
X48990894Y-49750499D01*
X49118186Y-49716392D01*
X49232314Y-49650500D01*
X49325500Y-49557314D01*
X49391392Y-49443186D01*
X49425499Y-49315894D01*
X49425500Y-49315894D01*
X49425500Y-49184106D01*
X49425499Y-49184105D01*
X49412156Y-49134309D01*
X49391392Y-49056814D01*
X49325500Y-48942686D01*
X49232314Y-48849500D01*
X49207426Y-48835131D01*
X49118190Y-48783610D01*
X49118181Y-48783606D01*
X48990894Y-48749500D01*
X48990892Y-48749500D01*
X48859108Y-48749500D01*
X48859106Y-48749500D01*
X48731818Y-48783606D01*
X48731815Y-48783607D01*
X48731814Y-48783608D01*
X48704662Y-48799284D01*
X48684291Y-48811045D01*
X48628138Y-48818436D01*
X48594966Y-48799284D01*
X47847174Y-48051492D01*
X47825500Y-47999166D01*
X47825500Y-46807109D01*
X47847174Y-46754783D01*
X47899500Y-46733109D01*
X47951826Y-46754783D01*
X47963585Y-46770108D01*
X47999500Y-46832314D01*
X48092686Y-46925500D01*
X48206814Y-46991392D01*
X48334105Y-47025499D01*
X48334106Y-47025500D01*
X48334108Y-47025500D01*
X48465894Y-47025500D01*
X48465894Y-47025499D01*
X48593186Y-46991392D01*
X48707314Y-46925500D01*
X48800500Y-46832314D01*
X48866392Y-46718186D01*
X48900499Y-46590894D01*
X48900500Y-46590894D01*
X48900500Y-46459106D01*
X48900499Y-46459105D01*
X48881905Y-46389712D01*
X48866392Y-46331814D01*
X48800500Y-46217686D01*
X48772174Y-46189360D01*
X48750500Y-46137034D01*
X48750500Y-43659105D01*
X53174500Y-43659105D01*
X53174500Y-43790894D01*
X53208606Y-43918181D01*
X53208607Y-43918184D01*
X53208608Y-43918186D01*
X53274500Y-44032314D01*
X53367686Y-44125500D01*
X53481814Y-44191392D01*
X53609105Y-44225499D01*
X53609106Y-44225500D01*
X53609108Y-44225500D01*
X53740894Y-44225500D01*
X53740894Y-44225499D01*
X53868186Y-44191392D01*
X53878542Y-44185412D01*
X53915540Y-44175500D01*
X62034309Y-44175500D01*
X62124673Y-44151286D01*
X62124674Y-44151286D01*
X62135350Y-44148425D01*
X62148887Y-44144799D01*
X62251614Y-44085489D01*
X68890489Y-37446614D01*
X68949799Y-37343887D01*
X68971486Y-37262949D01*
X68980500Y-37229309D01*
X68980500Y-25599894D01*
X69002174Y-25547568D01*
X69024421Y-25532705D01*
X69024394Y-25532654D01*
X69024919Y-25532373D01*
X69026190Y-25531523D01*
X69027598Y-25530941D01*
X69199655Y-25415977D01*
X69345977Y-25269655D01*
X69460941Y-25097598D01*
X69540130Y-24906420D01*
X69580500Y-24703465D01*
X69580500Y-24496535D01*
X70019500Y-24496535D01*
X70019500Y-24703464D01*
X70059868Y-24906413D01*
X70059870Y-24906420D01*
X70139059Y-25097598D01*
X70229644Y-25233170D01*
X70254023Y-25269655D01*
X70400345Y-25415977D01*
X70572402Y-25530941D01*
X70763580Y-25610130D01*
X70966535Y-25650500D01*
X70966536Y-25650500D01*
X71173464Y-25650500D01*
X71173465Y-25650500D01*
X71376420Y-25610130D01*
X71567598Y-25530941D01*
X71739655Y-25415977D01*
X71885977Y-25269655D01*
X72000941Y-25097598D01*
X72080130Y-24906420D01*
X72120500Y-24703465D01*
X72120500Y-24496535D01*
X72080130Y-24293580D01*
X72000941Y-24102402D01*
X71885977Y-23930345D01*
X71739655Y-23784023D01*
X71659180Y-23730252D01*
X71567598Y-23669059D01*
X71376420Y-23589870D01*
X71376413Y-23589868D01*
X71223516Y-23559455D01*
X71173465Y-23549500D01*
X70966535Y-23549500D01*
X70926385Y-23557486D01*
X70763586Y-23589868D01*
X70763579Y-23589870D01*
X70572401Y-23669059D01*
X70400345Y-23784022D01*
X70400344Y-23784024D01*
X70254024Y-23930344D01*
X70254022Y-23930345D01*
X70139059Y-24102401D01*
X70059870Y-24293579D01*
X70059868Y-24293586D01*
X70019500Y-24496535D01*
X69580500Y-24496535D01*
X69540130Y-24293580D01*
X69460941Y-24102402D01*
X69345977Y-23930345D01*
X69199655Y-23784023D01*
X69119180Y-23730252D01*
X69027598Y-23669059D01*
X68836420Y-23589870D01*
X68836413Y-23589868D01*
X68683516Y-23559455D01*
X68633465Y-23549500D01*
X68426535Y-23549500D01*
X68386385Y-23557486D01*
X68223586Y-23589868D01*
X68223579Y-23589870D01*
X68032401Y-23669059D01*
X67860345Y-23784022D01*
X67860344Y-23784024D01*
X67714024Y-23930344D01*
X67714022Y-23930345D01*
X67599059Y-24102401D01*
X67519870Y-24293579D01*
X67519868Y-24293586D01*
X67479500Y-24496535D01*
X67479500Y-24703464D01*
X67519868Y-24906413D01*
X67519870Y-24906420D01*
X67599059Y-25097598D01*
X67689644Y-25233170D01*
X67714023Y-25269655D01*
X67860345Y-25415977D01*
X68032402Y-25530941D01*
X68033808Y-25531523D01*
X68034173Y-25531888D01*
X68035606Y-25532654D01*
X68035373Y-25533088D01*
X68073863Y-25571565D01*
X68079500Y-25599894D01*
X68079500Y-36952745D01*
X68057826Y-37005071D01*
X61810071Y-43252826D01*
X61757745Y-43274500D01*
X53915540Y-43274500D01*
X53878542Y-43264587D01*
X53868186Y-43258608D01*
X53868182Y-43258607D01*
X53868181Y-43258606D01*
X53740894Y-43224500D01*
X53740892Y-43224500D01*
X53609108Y-43224500D01*
X53609106Y-43224500D01*
X53481818Y-43258606D01*
X53481809Y-43258610D01*
X53367685Y-43324500D01*
X53274500Y-43417685D01*
X53208610Y-43531809D01*
X53208606Y-43531818D01*
X53174500Y-43659105D01*
X48750500Y-43659105D01*
X48750500Y-39650832D01*
X48772173Y-39598507D01*
X50255469Y-38115212D01*
X50301614Y-38035288D01*
X50312887Y-37993216D01*
X50325500Y-37946144D01*
X50325500Y-27289784D01*
X50347174Y-27237458D01*
X50399500Y-27215784D01*
X50451826Y-27237458D01*
X50595345Y-27380977D01*
X50767402Y-27495941D01*
X50958580Y-27575130D01*
X51161535Y-27615500D01*
X51161536Y-27615500D01*
X51368464Y-27615500D01*
X51368465Y-27615500D01*
X51571420Y-27575130D01*
X51762598Y-27495941D01*
X51934655Y-27380977D01*
X52080977Y-27234655D01*
X52195941Y-27062598D01*
X52275130Y-26871420D01*
X52315500Y-26668465D01*
X52315500Y-26461535D01*
X52275130Y-26258580D01*
X52195941Y-26067402D01*
X52080977Y-25895345D01*
X51934655Y-25749023D01*
X51762598Y-25634059D01*
X51571420Y-25554870D01*
X51571413Y-25554868D01*
X51418516Y-25524455D01*
X51368465Y-25514500D01*
X51161535Y-25514500D01*
X51121385Y-25522486D01*
X50958586Y-25554868D01*
X50958579Y-25554870D01*
X50767401Y-25634059D01*
X50595345Y-25749022D01*
X50595344Y-25749024D01*
X50451826Y-25892542D01*
X50399500Y-25914216D01*
X50347174Y-25892542D01*
X50325500Y-25840216D01*
X50325500Y-25490833D01*
X50347173Y-25438508D01*
X50776519Y-25009161D01*
X50828844Y-24987488D01*
X50857162Y-24993120D01*
X50958580Y-25035130D01*
X51161535Y-25075500D01*
X51161536Y-25075500D01*
X51368464Y-25075500D01*
X51368465Y-25075500D01*
X51571420Y-25035130D01*
X51762598Y-24955941D01*
X51934655Y-24840977D01*
X52080977Y-24694655D01*
X52195941Y-24522598D01*
X52275130Y-24331420D01*
X52315500Y-24128465D01*
X52315500Y-23921535D01*
X52275130Y-23718580D01*
X52195941Y-23527402D01*
X52080977Y-23355345D01*
X51934655Y-23209023D01*
X51854180Y-23155252D01*
X51762598Y-23094059D01*
X51571420Y-23014870D01*
X51571413Y-23014868D01*
X51418516Y-22984455D01*
X51368465Y-22974500D01*
X51161535Y-22974500D01*
X51121385Y-22982486D01*
X50958586Y-23014868D01*
X50958579Y-23014870D01*
X50767401Y-23094059D01*
X50595345Y-23209022D01*
X50595344Y-23209024D01*
X50449024Y-23355344D01*
X50449022Y-23355345D01*
X50334059Y-23527401D01*
X50254870Y-23718579D01*
X50254868Y-23718586D01*
X50214500Y-23921535D01*
X50214500Y-24128464D01*
X50254868Y-24331413D01*
X50254871Y-24331424D01*
X50296877Y-24432836D01*
X50296877Y-24489473D01*
X50280836Y-24513480D01*
X49694530Y-25099787D01*
X49660011Y-25159577D01*
X49648386Y-25179710D01*
X49648384Y-25179715D01*
X49624500Y-25268853D01*
X49624500Y-25800216D01*
X49602826Y-25852542D01*
X49550500Y-25874216D01*
X49498174Y-25852542D01*
X49394654Y-25749022D01*
X49222598Y-25634059D01*
X49031420Y-25554870D01*
X49031413Y-25554868D01*
X48878516Y-25524455D01*
X48828465Y-25514500D01*
X48621535Y-25514500D01*
X48581385Y-25522486D01*
X48418586Y-25554868D01*
X48418579Y-25554870D01*
X48227401Y-25634059D01*
X48055345Y-25749022D01*
X48055344Y-25749024D01*
X47951826Y-25852542D01*
X47899500Y-25874216D01*
X47847174Y-25852542D01*
X47825500Y-25800216D01*
X47825500Y-25450833D01*
X47847173Y-25398508D01*
X48236519Y-25009161D01*
X48288844Y-24987488D01*
X48317162Y-24993120D01*
X48418580Y-25035130D01*
X48621535Y-25075500D01*
X48621536Y-25075500D01*
X48828464Y-25075500D01*
X48828465Y-25075500D01*
X49031420Y-25035130D01*
X49222598Y-24955941D01*
X49394655Y-24840977D01*
X49540977Y-24694655D01*
X49655941Y-24522598D01*
X49735130Y-24331420D01*
X49775500Y-24128465D01*
X49775500Y-23921535D01*
X49735130Y-23718580D01*
X49655941Y-23527402D01*
X49540977Y-23355345D01*
X49394655Y-23209023D01*
X49314180Y-23155252D01*
X49222598Y-23094059D01*
X49031420Y-23014870D01*
X49031413Y-23014868D01*
X48878516Y-22984455D01*
X48828465Y-22974500D01*
X48621535Y-22974500D01*
X48581385Y-22982486D01*
X48418586Y-23014868D01*
X48418579Y-23014870D01*
X48227401Y-23094059D01*
X48055345Y-23209022D01*
X48055344Y-23209024D01*
X47909024Y-23355344D01*
X47909022Y-23355345D01*
X47794059Y-23527401D01*
X47714870Y-23718579D01*
X47714868Y-23718586D01*
X47674500Y-23921535D01*
X47674500Y-24128464D01*
X47714868Y-24331413D01*
X47714871Y-24331424D01*
X47756877Y-24432836D01*
X47756877Y-24489473D01*
X47740836Y-24513480D01*
X47194530Y-25059787D01*
X47148386Y-25139710D01*
X47148384Y-25139715D01*
X47124500Y-25228853D01*
X47124500Y-25840216D01*
X47102826Y-25892542D01*
X47050500Y-25914216D01*
X46998174Y-25892542D01*
X46854654Y-25749022D01*
X46682598Y-25634059D01*
X46491420Y-25554870D01*
X46491413Y-25554868D01*
X46338516Y-25524455D01*
X46288465Y-25514500D01*
X46081535Y-25514500D01*
X46041385Y-25522486D01*
X45878586Y-25554868D01*
X45878579Y-25554870D01*
X45687401Y-25634059D01*
X45515345Y-25749022D01*
X45515344Y-25749024D01*
X45369024Y-25895344D01*
X45369022Y-25895345D01*
X45254059Y-26067401D01*
X45192867Y-26215132D01*
X45152818Y-26255180D01*
X45096181Y-26255180D01*
X45056133Y-26215131D01*
X45050500Y-26186813D01*
X45050500Y-25827254D01*
X45072173Y-25774929D01*
X45796519Y-25050582D01*
X45848844Y-25028909D01*
X45875086Y-25034131D01*
X45875104Y-25034075D01*
X45875675Y-25034248D01*
X45877169Y-25034545D01*
X45878580Y-25035130D01*
X46081535Y-25075500D01*
X46081536Y-25075500D01*
X46288464Y-25075500D01*
X46288465Y-25075500D01*
X46491420Y-25035130D01*
X46682598Y-24955941D01*
X46854655Y-24840977D01*
X47000977Y-24694655D01*
X47115941Y-24522598D01*
X47195130Y-24331420D01*
X47235500Y-24128465D01*
X47235500Y-23921535D01*
X47195130Y-23718580D01*
X47115941Y-23527402D01*
X47000977Y-23355345D01*
X46854655Y-23209023D01*
X46774180Y-23155252D01*
X46682598Y-23094059D01*
X46491420Y-23014870D01*
X46491413Y-23014868D01*
X46338516Y-22984455D01*
X46288465Y-22974500D01*
X46081535Y-22974500D01*
X46041385Y-22982486D01*
X45878586Y-23014868D01*
X45878579Y-23014870D01*
X45687401Y-23094059D01*
X45515345Y-23209022D01*
X45515344Y-23209024D01*
X45369024Y-23355344D01*
X45369022Y-23355345D01*
X45254059Y-23527401D01*
X45174870Y-23718579D01*
X45174868Y-23718586D01*
X45134500Y-23921535D01*
X45134500Y-24128464D01*
X45174869Y-24331417D01*
X45174871Y-24331426D01*
X45175455Y-24332834D01*
X45175455Y-24333349D01*
X45175926Y-24334902D01*
X45175455Y-24335044D01*
X45175457Y-24389471D01*
X45159415Y-24413480D01*
X44239508Y-25333389D01*
X44180201Y-25436112D01*
X44177768Y-25445191D01*
X44177749Y-25445264D01*
X44149500Y-25550691D01*
X42250500Y-25550691D01*
X42250500Y-25426459D01*
X42212051Y-25233165D01*
X42189911Y-25179715D01*
X42136632Y-25051086D01*
X42027139Y-24887218D01*
X41887781Y-24747860D01*
X41723913Y-24638367D01*
X41541839Y-24562950D01*
X41541829Y-24562947D01*
X41412388Y-24537200D01*
X41348541Y-24524500D01*
X41151459Y-24524500D01*
X41096662Y-24535399D01*
X40958170Y-24562947D01*
X40958160Y-24562950D01*
X40776086Y-24638367D01*
X40612218Y-24747860D01*
X40612217Y-24747862D01*
X40472862Y-24887217D01*
X40472860Y-24887218D01*
X40363367Y-25051086D01*
X40287950Y-25233160D01*
X40287947Y-25233170D01*
X40268013Y-25333389D01*
X40249500Y-25426459D01*
X38125500Y-25426459D01*
X38125500Y-23454387D01*
X38147174Y-23402061D01*
X39577062Y-21972174D01*
X39629388Y-21950500D01*
X40761048Y-21950500D01*
X40813374Y-21972174D01*
X40835048Y-22024500D01*
X40813374Y-22076826D01*
X40789366Y-22092867D01*
X40776086Y-22098367D01*
X40612218Y-22207860D01*
X40612217Y-22207862D01*
X40472862Y-22347217D01*
X40472860Y-22347218D01*
X40363367Y-22511086D01*
X40287950Y-22693160D01*
X40287947Y-22693170D01*
X40265448Y-22806283D01*
X40249500Y-22886459D01*
X40249500Y-23083541D01*
X40262200Y-23147388D01*
X40287947Y-23276829D01*
X40287950Y-23276839D01*
X40363367Y-23458913D01*
X40461279Y-23605448D01*
X40472861Y-23622782D01*
X40612218Y-23762139D01*
X40776086Y-23871632D01*
X40958165Y-23947051D01*
X41151459Y-23985500D01*
X41151461Y-23985500D01*
X41348539Y-23985500D01*
X41348541Y-23985500D01*
X41541835Y-23947051D01*
X41723914Y-23871632D01*
X41887782Y-23762139D01*
X42027139Y-23622782D01*
X42136632Y-23458914D01*
X42212051Y-23276835D01*
X42250500Y-23083541D01*
X42250500Y-22886459D01*
X42212051Y-22693165D01*
X42136632Y-22511086D01*
X42027139Y-22347218D01*
X41887782Y-22207861D01*
X41723914Y-22098368D01*
X41723915Y-22098368D01*
X41723913Y-22098367D01*
X41710634Y-22092867D01*
X41670585Y-22052819D01*
X41670585Y-21996182D01*
X41710633Y-21956133D01*
X41738952Y-21950500D01*
X52045613Y-21950500D01*
X52097939Y-21972174D01*
X52974992Y-22849227D01*
X52996666Y-22901553D01*
X52974992Y-22953879D01*
X52937104Y-22974131D01*
X52876766Y-22986133D01*
X52810449Y-23030447D01*
X52810447Y-23030449D01*
X52766133Y-23096767D01*
X52766133Y-23096769D01*
X52754500Y-23155252D01*
X52754500Y-24894748D01*
X52756822Y-24906420D01*
X52766133Y-24953232D01*
X52789023Y-24987488D01*
X52810448Y-25019552D01*
X52854560Y-25049027D01*
X52876767Y-25063866D01*
X52876768Y-25063866D01*
X52876769Y-25063867D01*
X52935252Y-25075500D01*
X53982761Y-25075500D01*
X54019760Y-25085413D01*
X54148215Y-25159577D01*
X54148216Y-25159577D01*
X54148218Y-25159578D01*
X54223351Y-25179710D01*
X54300940Y-25200500D01*
X54300941Y-25200501D01*
X54300943Y-25200501D01*
X54463588Y-25200501D01*
X54463604Y-25200500D01*
X59785500Y-25200500D01*
X59837826Y-25222174D01*
X59859500Y-25274500D01*
X59859500Y-25469746D01*
X59871133Y-25528232D01*
X59888933Y-25554870D01*
X59915448Y-25594552D01*
X59958829Y-25623539D01*
X59981767Y-25638866D01*
X59981768Y-25638866D01*
X59981769Y-25638867D01*
X60040252Y-25650500D01*
X60040254Y-25650500D01*
X61779746Y-25650500D01*
X61779748Y-25650500D01*
X61838231Y-25638867D01*
X61904552Y-25594552D01*
X61948867Y-25528231D01*
X61960500Y-25469748D01*
X61960500Y-24496535D01*
X64939500Y-24496535D01*
X64939500Y-24703464D01*
X64979868Y-24906413D01*
X64979870Y-24906420D01*
X65059059Y-25097598D01*
X65149644Y-25233170D01*
X65174023Y-25269655D01*
X65320345Y-25415977D01*
X65492402Y-25530941D01*
X65683580Y-25610130D01*
X65886535Y-25650500D01*
X65886536Y-25650500D01*
X66093464Y-25650500D01*
X66093465Y-25650500D01*
X66296420Y-25610130D01*
X66487598Y-25530941D01*
X66659655Y-25415977D01*
X66805977Y-25269655D01*
X66920941Y-25097598D01*
X67000130Y-24906420D01*
X67040500Y-24703465D01*
X67040500Y-24496535D01*
X67000130Y-24293580D01*
X66920941Y-24102402D01*
X66805977Y-23930345D01*
X66659655Y-23784023D01*
X66579180Y-23730252D01*
X66487598Y-23669059D01*
X66296420Y-23589870D01*
X66296413Y-23589868D01*
X66143516Y-23559455D01*
X66093465Y-23549500D01*
X65886535Y-23549500D01*
X65846385Y-23557486D01*
X65683586Y-23589868D01*
X65683579Y-23589870D01*
X65492401Y-23669059D01*
X65320345Y-23784022D01*
X65320344Y-23784024D01*
X65174024Y-23930344D01*
X65174022Y-23930345D01*
X65059059Y-24102401D01*
X64979870Y-24293579D01*
X64979868Y-24293586D01*
X64939500Y-24496535D01*
X61960500Y-24496535D01*
X61960500Y-23730252D01*
X61948867Y-23671769D01*
X61947056Y-23669059D01*
X61916134Y-23622782D01*
X61904552Y-23605448D01*
X61881235Y-23589868D01*
X61838232Y-23561133D01*
X61838233Y-23561133D01*
X61808989Y-23555316D01*
X61779748Y-23549500D01*
X60040252Y-23549500D01*
X60011010Y-23555316D01*
X59981767Y-23561133D01*
X59915449Y-23605447D01*
X59915447Y-23605449D01*
X59871133Y-23671767D01*
X59859500Y-23730253D01*
X59859500Y-23925500D01*
X59837826Y-23977826D01*
X59785500Y-23999500D01*
X54929500Y-23999500D01*
X54877174Y-23977826D01*
X54855500Y-23925500D01*
X54855500Y-23155253D01*
X54855500Y-23155252D01*
X54843867Y-23096769D01*
X54842056Y-23094059D01*
X54829027Y-23074560D01*
X54799552Y-23030448D01*
X54776235Y-23014868D01*
X54733232Y-22986133D01*
X54733233Y-22986133D01*
X54703989Y-22980316D01*
X54674748Y-22974500D01*
X54674746Y-22974500D01*
X54479500Y-22974500D01*
X54427174Y-22952826D01*
X54405500Y-22900500D01*
X54405500Y-22750944D01*
X54390371Y-22694480D01*
X54390371Y-22694479D01*
X54364578Y-22598218D01*
X54364576Y-22598213D01*
X54314273Y-22511086D01*
X54285519Y-22461283D01*
X54171137Y-22346901D01*
X54171126Y-22346891D01*
X52809740Y-20985505D01*
X52809738Y-20985502D01*
X52693715Y-20869479D01*
X52606904Y-20819360D01*
X52606902Y-20819359D01*
X52556788Y-20790424D01*
X52556781Y-20790421D01*
X52404059Y-20749499D01*
X52404057Y-20749499D01*
X52245943Y-20749499D01*
X52241413Y-20749499D01*
X52241397Y-20749500D01*
X39433604Y-20749500D01*
X39433588Y-20749499D01*
X39429058Y-20749499D01*
X39270943Y-20749499D01*
X39270941Y-20749499D01*
X39118218Y-20790421D01*
X38981283Y-20869480D01*
X37044480Y-22806283D01*
X36998191Y-22886459D01*
X36965423Y-22943213D01*
X36965421Y-22943218D01*
X36924499Y-23095940D01*
X36924499Y-23260015D01*
X36924500Y-23260028D01*
X36924500Y-27390500D01*
X36902826Y-27442826D01*
X36850500Y-27464500D01*
X31369387Y-27464500D01*
X31317061Y-27442826D01*
X29569721Y-25695486D01*
X29548047Y-25643160D01*
X29549469Y-25628722D01*
X29550500Y-25623539D01*
X29550500Y-25426460D01*
X29512052Y-25233170D01*
X29512051Y-25233169D01*
X29512051Y-25233165D01*
X29489911Y-25179715D01*
X29436632Y-25051086D01*
X29327139Y-24887218D01*
X29187781Y-24747860D01*
X29023913Y-24638367D01*
X28841839Y-24562950D01*
X28841829Y-24562947D01*
X28712388Y-24537200D01*
X28648541Y-24524500D01*
X28451459Y-24524500D01*
X28396662Y-24535399D01*
X28258170Y-24562947D01*
X28258160Y-24562950D01*
X28076086Y-24638367D01*
X27912218Y-24747860D01*
X27912217Y-24747862D01*
X27772862Y-24887217D01*
X27772860Y-24887218D01*
X27663367Y-25051086D01*
X27587950Y-25233160D01*
X27587947Y-25233170D01*
X27568013Y-25333389D01*
X27549500Y-25426459D01*
X20200500Y-25426459D01*
X20200500Y-20274500D01*
X20222174Y-20222174D01*
X20274500Y-20200500D01*
X82625500Y-20200500D01*
X82677826Y-20222174D01*
G37*
%TD.AperFunction*%
%TD*%
M02*
