%TF.GenerationSoftware,KiCad,Pcbnew,10.0.4*%
%TF.CreationDate,2026-07-23T03:48:32+06:00*%
%TF.ProjectId,rader,72616465-722e-46b6-9963-61645f706362,rev?*%
%TF.SameCoordinates,Original*%
%TF.FileFunction,Legend,Bot*%
%TF.FilePolarity,Positive*%
%FSLAX46Y46*%
G04 Gerber Fmt 4.6, Leading zero omitted, Abs format (unit mm)*
G04 Created by KiCad (PCBNEW 10.0.4) date 2026-07-23 03:48:32*
%MOMM*%
%LPD*%
G01*
G04 APERTURE LIST*
%ADD10C,0.150000*%
%ADD11C,0.120000*%
G04 APERTURE END LIST*
D10*
X30516666Y-43634580D02*
X30564285Y-43682200D01*
X30564285Y-43682200D02*
X30707142Y-43729819D01*
X30707142Y-43729819D02*
X30802380Y-43729819D01*
X30802380Y-43729819D02*
X30945237Y-43682200D01*
X30945237Y-43682200D02*
X31040475Y-43586961D01*
X31040475Y-43586961D02*
X31088094Y-43491723D01*
X31088094Y-43491723D02*
X31135713Y-43301247D01*
X31135713Y-43301247D02*
X31135713Y-43158390D01*
X31135713Y-43158390D02*
X31088094Y-42967914D01*
X31088094Y-42967914D02*
X31040475Y-42872676D01*
X31040475Y-42872676D02*
X30945237Y-42777438D01*
X30945237Y-42777438D02*
X30802380Y-42729819D01*
X30802380Y-42729819D02*
X30707142Y-42729819D01*
X30707142Y-42729819D02*
X30564285Y-42777438D01*
X30564285Y-42777438D02*
X30516666Y-42825057D01*
X29659523Y-42729819D02*
X29849999Y-42729819D01*
X29849999Y-42729819D02*
X29945237Y-42777438D01*
X29945237Y-42777438D02*
X29992856Y-42825057D01*
X29992856Y-42825057D02*
X30088094Y-42967914D01*
X30088094Y-42967914D02*
X30135713Y-43158390D01*
X30135713Y-43158390D02*
X30135713Y-43539342D01*
X30135713Y-43539342D02*
X30088094Y-43634580D01*
X30088094Y-43634580D02*
X30040475Y-43682200D01*
X30040475Y-43682200D02*
X29945237Y-43729819D01*
X29945237Y-43729819D02*
X29754761Y-43729819D01*
X29754761Y-43729819D02*
X29659523Y-43682200D01*
X29659523Y-43682200D02*
X29611904Y-43634580D01*
X29611904Y-43634580D02*
X29564285Y-43539342D01*
X29564285Y-43539342D02*
X29564285Y-43301247D01*
X29564285Y-43301247D02*
X29611904Y-43206009D01*
X29611904Y-43206009D02*
X29659523Y-43158390D01*
X29659523Y-43158390D02*
X29754761Y-43110771D01*
X29754761Y-43110771D02*
X29945237Y-43110771D01*
X29945237Y-43110771D02*
X30040475Y-43158390D01*
X30040475Y-43158390D02*
X30088094Y-43206009D01*
X30088094Y-43206009D02*
X30135713Y-43301247D01*
%TO.C,C6*%
D11*
X25810000Y-43695000D02*
X24546000Y-43695000D01*
X25810000Y-43735000D02*
X24508000Y-43735000D01*
X25810000Y-43775000D02*
X24471000Y-43775000D01*
X25810000Y-43815000D02*
X24435000Y-43815000D01*
X25810000Y-43855000D02*
X24400000Y-43855000D01*
X25810000Y-43895000D02*
X24367000Y-43895000D01*
X25810000Y-43935000D02*
X24334000Y-43935000D01*
X25810000Y-43975000D02*
X24303000Y-43975000D01*
X25810000Y-44015000D02*
X24273000Y-44015000D01*
X25810000Y-44055000D02*
X24243000Y-44055000D01*
X25810000Y-44095000D02*
X24214000Y-44095000D01*
X25810000Y-44135000D02*
X24187000Y-44135000D01*
X25810000Y-44175000D02*
X24160000Y-44175000D01*
X25810000Y-44215000D02*
X24134000Y-44215000D01*
X25810000Y-44255000D02*
X24109000Y-44255000D01*
X25810000Y-44295000D02*
X24085000Y-44295000D01*
X25810000Y-44335000D02*
X24061000Y-44335000D01*
X25810000Y-44375000D02*
X24038000Y-44375000D01*
X25810000Y-44415000D02*
X24016000Y-44415000D01*
X25810000Y-44455000D02*
X23995000Y-44455000D01*
X25810000Y-44495000D02*
X23974000Y-44495000D01*
X25810000Y-44535000D02*
X23954000Y-44535000D01*
X25810000Y-44575000D02*
X23935000Y-44575000D01*
X25810000Y-44615000D02*
X23916000Y-44615000D01*
X25810000Y-44655000D02*
X23898000Y-44655000D01*
X25810000Y-44695000D02*
X23881000Y-44695000D01*
X25810000Y-44735000D02*
X23864000Y-44735000D01*
X25810000Y-44775000D02*
X23848000Y-44775000D01*
X25810000Y-44815000D02*
X23833000Y-44815000D01*
X25810000Y-44855000D02*
X23818000Y-44855000D01*
X25810000Y-44895000D02*
X23803000Y-44895000D01*
X25810000Y-44935000D02*
X23790000Y-44935000D01*
X25810000Y-44975000D02*
X23777000Y-44975000D01*
X25810000Y-45015000D02*
X23764000Y-45015000D01*
X25810000Y-45055000D02*
X23752000Y-45055000D01*
X25810000Y-45095000D02*
X23741000Y-45095000D01*
X25810000Y-45135000D02*
X23730000Y-45135000D01*
X25810000Y-45175000D02*
X23719000Y-45175000D01*
X25810000Y-45215000D02*
X23710000Y-45215000D01*
X25810000Y-45255000D02*
X23700000Y-45255000D01*
X25810000Y-45295000D02*
X23691000Y-45295000D01*
X25810000Y-45335000D02*
X23683000Y-45335000D01*
X25810000Y-45375000D02*
X23676000Y-45375000D01*
X25810000Y-45415000D02*
X23668000Y-45415000D01*
X25810000Y-45455000D02*
X23662000Y-45455000D01*
X25810000Y-45495000D02*
X23655000Y-45495000D01*
X25810000Y-45535000D02*
X23650000Y-45535000D01*
X25810000Y-45575000D02*
X23645000Y-45575000D01*
X25810000Y-45615000D02*
X23640000Y-45615000D01*
X25810000Y-45655000D02*
X23636000Y-45655000D01*
X25810000Y-45695000D02*
X23632000Y-45695000D01*
X25810000Y-45735000D02*
X23629000Y-45735000D01*
X27252000Y-42735000D02*
X26448000Y-42735000D01*
X27483000Y-42775000D02*
X26217000Y-42775000D01*
X27651000Y-42815000D02*
X26049000Y-42815000D01*
X27789000Y-42855000D02*
X25911000Y-42855000D01*
X27908000Y-42895000D02*
X25792000Y-42895000D01*
X28015000Y-42935000D02*
X25685000Y-42935000D01*
X28111000Y-42975000D02*
X25589000Y-42975000D01*
X28200000Y-43015000D02*
X25500000Y-43015000D01*
X28282000Y-43055000D02*
X25418000Y-43055000D01*
X28359000Y-43095000D02*
X25341000Y-43095000D01*
X28431000Y-43135000D02*
X25269000Y-43135000D01*
X28499000Y-43175000D02*
X25201000Y-43175000D01*
X28564000Y-43215000D02*
X25136000Y-43215000D01*
X28625000Y-43255000D02*
X25075000Y-43255000D01*
X28684000Y-43295000D02*
X25016000Y-43295000D01*
X28689000Y-49475241D02*
X28689000Y-48845241D01*
X28740000Y-43335000D02*
X24960000Y-43335000D01*
X28793000Y-43375000D02*
X24907000Y-43375000D01*
X28845000Y-43415000D02*
X24855000Y-43415000D01*
X28894000Y-43455000D02*
X24806000Y-43455000D01*
X28941000Y-43495000D02*
X24759000Y-43495000D01*
X28987000Y-43535000D02*
X24713000Y-43535000D01*
X29004000Y-49160241D02*
X28374000Y-49160241D01*
X29031000Y-43575000D02*
X24669000Y-43575000D01*
X29073000Y-43615000D02*
X24627000Y-43615000D01*
X29114000Y-43655000D02*
X24586000Y-43655000D01*
X29154000Y-43695000D02*
X27890000Y-43695000D01*
X29192000Y-43735000D02*
X27890000Y-43735000D01*
X29229000Y-43775000D02*
X27890000Y-43775000D01*
X29265000Y-43815000D02*
X27890000Y-43815000D01*
X29300000Y-43855000D02*
X27890000Y-43855000D01*
X29333000Y-43895000D02*
X27890000Y-43895000D01*
X29366000Y-43935000D02*
X27890000Y-43935000D01*
X29397000Y-43975000D02*
X27890000Y-43975000D01*
X29427000Y-44015000D02*
X27890000Y-44015000D01*
X29457000Y-44055000D02*
X27890000Y-44055000D01*
X29486000Y-44095000D02*
X27890000Y-44095000D01*
X29513000Y-44135000D02*
X27890000Y-44135000D01*
X29540000Y-44175000D02*
X27890000Y-44175000D01*
X29566000Y-44215000D02*
X27890000Y-44215000D01*
X29591000Y-44255000D02*
X27890000Y-44255000D01*
X29615000Y-44295000D02*
X27890000Y-44295000D01*
X29639000Y-44335000D02*
X27890000Y-44335000D01*
X29662000Y-44375000D02*
X27890000Y-44375000D01*
X29684000Y-44415000D02*
X27890000Y-44415000D01*
X29705000Y-44455000D02*
X27890000Y-44455000D01*
X29726000Y-44495000D02*
X27890000Y-44495000D01*
X29746000Y-44535000D02*
X27890000Y-44535000D01*
X29765000Y-44575000D02*
X27890000Y-44575000D01*
X29784000Y-44615000D02*
X27890000Y-44615000D01*
X29802000Y-44655000D02*
X27890000Y-44655000D01*
X29819000Y-44695000D02*
X27890000Y-44695000D01*
X29836000Y-44735000D02*
X27890000Y-44735000D01*
X29852000Y-44775000D02*
X27890000Y-44775000D01*
X29867000Y-44815000D02*
X27890000Y-44815000D01*
X29882000Y-44855000D02*
X27890000Y-44855000D01*
X29897000Y-44895000D02*
X27890000Y-44895000D01*
X29910000Y-44935000D02*
X27890000Y-44935000D01*
X29923000Y-44975000D02*
X27890000Y-44975000D01*
X29936000Y-45015000D02*
X27890000Y-45015000D01*
X29948000Y-45055000D02*
X27890000Y-45055000D01*
X29959000Y-45095000D02*
X27890000Y-45095000D01*
X29970000Y-45135000D02*
X27890000Y-45135000D01*
X29981000Y-45175000D02*
X27890000Y-45175000D01*
X29990000Y-45215000D02*
X27890000Y-45215000D01*
X30000000Y-45255000D02*
X27890000Y-45255000D01*
X30009000Y-45295000D02*
X27890000Y-45295000D01*
X30017000Y-45335000D02*
X27890000Y-45335000D01*
X30024000Y-45375000D02*
X27890000Y-45375000D01*
X30032000Y-45415000D02*
X27890000Y-45415000D01*
X30038000Y-45455000D02*
X27890000Y-45455000D01*
X30045000Y-45495000D02*
X27890000Y-45495000D01*
X30050000Y-45535000D02*
X27890000Y-45535000D01*
X30055000Y-45575000D02*
X27890000Y-45575000D01*
X30060000Y-45615000D02*
X27890000Y-45615000D01*
X30064000Y-45655000D02*
X27890000Y-45655000D01*
X30068000Y-45695000D02*
X27890000Y-45695000D01*
X30071000Y-45735000D02*
X27890000Y-45735000D01*
X30074000Y-45775000D02*
X23626000Y-45775000D01*
X30076000Y-45815000D02*
X23624000Y-45815000D01*
X30078000Y-45855000D02*
X23622000Y-45855000D01*
X30079000Y-45895000D02*
X23621000Y-45895000D01*
X30080000Y-45935000D02*
X23620000Y-45935000D01*
X30080000Y-45975000D02*
X23620000Y-45975000D01*
X30120000Y-45975000D02*
G75*
G02*
X23580000Y-45975000I-3270000J0D01*
G01*
X23580000Y-45975000D02*
G75*
G02*
X30120000Y-45975000I3270000J0D01*
G01*
%TD*%
M02*
