M48
; DRILL file KiCad 10.0.4 date 2026-07-23T03:48:33
; FORMAT={-:-/ absolute / metric / decimal}
; #@! TF.CreationDate,2026-07-23T03:48:33+06:00
; #@! TF.GenerationSoftware,Kicad,Pcbnew,10.0.4
; #@! TF.FileFunction,Plated,1,2,PTH
FMAT,2
METRIC
; #@! TA.AperFunction,Plated,PTH,ViaDrill
T1C0.300
; #@! TA.AperFunction,Plated,PTH,ComponentDrill
T2C0.800
; #@! TA.AperFunction,Plated,PTH,ComponentDrill
T3C1.000
%
G90
G05
T1
X36.2Y-55.625
X36.6Y-46.65
X38.8Y-56.85
X45.925Y-49.925
X48.4Y-46.525
X48.925Y-49.25
X51.6Y-50.275
X53.675Y-43.725
T2
X26.85Y-44.725
X26.85Y-47.225
X28.55Y-22.985
X28.55Y-25.525
X28.55Y-28.065
X28.55Y-30.605
X28.55Y-33.145
X28.55Y-35.685
X28.55Y-38.225
X28.55Y-40.765
X32.725Y-56.596
X32.725Y-59.096
X41.25Y-22.985
X41.25Y-25.525
X41.25Y-28.065
X41.25Y-30.605
X41.25Y-33.145
X41.25Y-35.685
X41.25Y-38.225
X41.25Y-40.765
X60.375Y-59.575
X60.375Y-62.075
T3
X22.225Y-28.345
X22.225Y-30.885
X22.225Y-33.425
X22.225Y-35.965
X22.25Y-56.3
X22.25Y-58.84
X22.325Y-43.305
X22.325Y-45.845
X23.372Y-64.52
X23.372Y-67.06
X46.185Y-24.025
X46.185Y-26.565
X48.725Y-24.025
X48.725Y-26.565
X51.265Y-24.025
X51.265Y-26.565
X51.59Y-67.525
X53.805Y-24.025
X53.805Y-26.565
X54.13Y-67.525
X56.67Y-67.525
X59.21Y-67.525
X60.91Y-24.6
X63.45Y-24.6
X65.085Y-64.635
X65.085Y-67.175
X65.99Y-24.6
X67.625Y-64.635
X67.625Y-67.175
X68.53Y-24.6
X70.165Y-64.635
X70.165Y-67.175
X71.07Y-24.6
X75.035Y-64.46
X75.035Y-67.0
X77.575Y-64.46
X77.575Y-67.0
X80.115Y-64.46
X80.115Y-67.0
X80.125Y-42.745
X80.125Y-45.285
X80.125Y-47.825
X80.125Y-50.365
X80.125Y-52.905
M30
