%TF.GenerationSoftware,KiCad,Pcbnew,10.0.4*%
%TF.CreationDate,2026-07-23T03:48:31+06:00*%
%TF.ProjectId,rader,72616465-722e-46b6-9963-61645f706362,rev?*%
%TF.SameCoordinates,Original*%
%TF.FileFunction,Copper,L1,Top*%
%TF.FilePolarity,Positive*%
%FSLAX46Y46*%
G04 Gerber Fmt 4.6, Leading zero omitted, Abs format (unit mm)*
G04 Created by KiCad (PCBNEW 10.0.4) date 2026-07-23 03:48:31*
%MOMM*%
%LPD*%
G01*
G04 APERTURE LIST*
G04 Aperture macros list*
%AMRoundRect*
0 Rectangle with rounded corners*
0 $1 Rounding radius*
0 $2 $3 $4 $5 $6 $7 $8 $9 X,Y pos of 4 corners*
0 Add a 4 corners polygon primitive as box body*
4,1,4,$2,$3,$4,$5,$6,$7,$8,$9,$2,$3,0*
0 Add four circle primitives for the rounded corners*
1,1,$1+$1,$2,$3*
1,1,$1+$1,$4,$5*
1,1,$1+$1,$6,$7*
1,1,$1+$1,$8,$9*
0 Add four rect primitives between the rounded corners*
20,1,$1+$1,$2,$3,$4,$5,0*
20,1,$1+$1,$4,$5,$6,$7,0*
20,1,$1+$1,$6,$7,$8,$9,0*
20,1,$1+$1,$8,$9,$2,$3,0*%
G04 Aperture macros list end*
%TA.AperFunction,SMDPad,CuDef*%
%ADD10RoundRect,0.250000X0.900000X-1.000000X0.900000X1.000000X-0.900000X1.000000X-0.900000X-1.000000X0*%
%TD*%
%TA.AperFunction,SMDPad,CuDef*%
%ADD11RoundRect,0.218750X0.256250X-0.218750X0.256250X0.218750X-0.256250X0.218750X-0.256250X-0.218750X0*%
%TD*%
%TA.AperFunction,SMDPad,CuDef*%
%ADD12RoundRect,0.200000X-0.275000X0.200000X-0.275000X-0.200000X0.275000X-0.200000X0.275000X0.200000X0*%
%TD*%
%TA.AperFunction,SMDPad,CuDef*%
%ADD13RoundRect,0.200000X0.200000X0.275000X-0.200000X0.275000X-0.200000X-0.275000X0.200000X-0.275000X0*%
%TD*%
%TA.AperFunction,SMDPad,CuDef*%
%ADD14RoundRect,0.225000X0.250000X-0.225000X0.250000X0.225000X-0.250000X0.225000X-0.250000X-0.225000X0*%
%TD*%
%TA.AperFunction,SMDPad,CuDef*%
%ADD15RoundRect,0.200000X0.275000X-0.200000X0.275000X0.200000X-0.275000X0.200000X-0.275000X-0.200000X0*%
%TD*%
%TA.AperFunction,ComponentPad*%
%ADD16R,1.700000X1.700000*%
%TD*%
%TA.AperFunction,ComponentPad*%
%ADD17C,1.700000*%
%TD*%
%TA.AperFunction,SMDPad,CuDef*%
%ADD18RoundRect,0.150000X0.150000X-0.825000X0.150000X0.825000X-0.150000X0.825000X-0.150000X-0.825000X0*%
%TD*%
%TA.AperFunction,SMDPad,CuDef*%
%ADD19RoundRect,0.200000X-0.200000X-0.275000X0.200000X-0.275000X0.200000X0.275000X-0.200000X0.275000X0*%
%TD*%
%TA.AperFunction,SMDPad,CuDef*%
%ADD20RoundRect,0.225000X-0.225000X-0.250000X0.225000X-0.250000X0.225000X0.250000X-0.225000X0.250000X0*%
%TD*%
%TA.AperFunction,SMDPad,CuDef*%
%ADD21RoundRect,0.125000X-0.125000X0.625000X-0.125000X-0.625000X0.125000X-0.625000X0.125000X0.625000X0*%
%TD*%
%TA.AperFunction,SMDPad,CuDef*%
%ADD22RoundRect,0.125000X-0.625000X0.125000X-0.625000X-0.125000X0.625000X-0.125000X0.625000X0.125000X0*%
%TD*%
%TA.AperFunction,ComponentPad*%
%ADD23RoundRect,0.250000X-0.550000X0.550000X-0.550000X-0.550000X0.550000X-0.550000X0.550000X0.550000X0*%
%TD*%
%TA.AperFunction,ComponentPad*%
%ADD24C,1.600000*%
%TD*%
%TA.AperFunction,SMDPad,CuDef*%
%ADD25RoundRect,0.218750X0.218750X0.256250X-0.218750X0.256250X-0.218750X-0.256250X0.218750X-0.256250X0*%
%TD*%
%TA.AperFunction,SMDPad,CuDef*%
%ADD26RoundRect,0.225000X-0.250000X0.225000X-0.250000X-0.225000X0.250000X-0.225000X0.250000X0.225000X0*%
%TD*%
%TA.AperFunction,ComponentPad*%
%ADD27R,1.600000X1.600000*%
%TD*%
%TA.AperFunction,ComponentPad*%
%ADD28O,1.600000X1.600000*%
%TD*%
%TA.AperFunction,SMDPad,CuDef*%
%ADD29R,1.528000X0.650000*%
%TD*%
%TA.AperFunction,SMDPad,CuDef*%
%ADD30RoundRect,0.250000X-0.625000X0.375000X-0.625000X-0.375000X0.625000X-0.375000X0.625000X0.375000X0*%
%TD*%
%TA.AperFunction,ComponentPad*%
%ADD31RoundRect,0.250000X0.550000X-0.550000X0.550000X0.550000X-0.550000X0.550000X-0.550000X-0.550000X0*%
%TD*%
%TA.AperFunction,ViaPad*%
%ADD32C,0.600000*%
%TD*%
%TA.AperFunction,Conductor*%
%ADD33C,0.600000*%
%TD*%
%TA.AperFunction,Conductor*%
%ADD34C,0.500000*%
%TD*%
%TA.AperFunction,Conductor*%
%ADD35C,0.800000*%
%TD*%
%TA.AperFunction,Conductor*%
%ADD36C,0.400000*%
%TD*%
%TA.AperFunction,Conductor*%
%ADD37C,0.300000*%
%TD*%
G04 APERTURE END LIST*
D10*
%TO.P,ZD1,1,K_1*%
%TO.N,+3V3*%
X37150000Y-53500000D03*
%TO.P,ZD1,2,A_2*%
%TO.N,GND*%
X37150000Y-49200000D03*
%TD*%
D11*
%TO.P,LD4,1,K_1*%
%TO.N,GND*%
X44075000Y-68487500D03*
%TO.P,LD4,2,A_2*%
%TO.N,Net-(LD4-A)*%
X44075000Y-66912500D03*
%TD*%
D12*
%TO.P,R12,1*%
%TO.N,/LED2*%
X48450000Y-60200000D03*
%TO.P,R12,2*%
%TO.N,Net-(LD5-A)*%
X48450000Y-61850000D03*
%TD*%
D13*
%TO.P,R14,1*%
%TO.N,/scl*%
X53675000Y-42125000D03*
%TO.P,R14,2*%
%TO.N,+3V3*%
X52025000Y-42125000D03*
%TD*%
D14*
%TO.P,C1,1*%
%TO.N,/sw*%
X29400000Y-59250000D03*
%TO.P,C1,2*%
%TO.N,Net-(U1-BS)*%
X29400000Y-57700000D03*
%TD*%
%TO.P,C9,1*%
%TO.N,Net-(U1-COMP)*%
X33250000Y-46571144D03*
%TO.P,C9,2*%
%TO.N,Net-(C9-Pad2)*%
X33250000Y-45021144D03*
%TD*%
D15*
%TO.P,R7,1*%
%TO.N,Net-(U2-PF2-NRST)*%
X50525000Y-43725000D03*
%TO.P,R7,2*%
%TO.N,+3V3*%
X50525000Y-42075000D03*
%TD*%
D16*
%TO.P,J8,1,Pin_1_1*%
%TO.N,GND*%
X75035000Y-67000000D03*
D17*
%TO.P,J8,2,Pin_2_2*%
X75035000Y-64460000D03*
%TO.P,J8,3,Pin_3_3*%
%TO.N,/ws*%
X77575000Y-67000000D03*
%TO.P,J8,4,Pin_4_4*%
%TO.N,+3V3*%
X77575000Y-64460000D03*
%TO.P,J8,5,Pin_5_5*%
%TO.N,/sck*%
X80115000Y-67000000D03*
%TO.P,J8,6,Pin_6_6*%
%TO.N,/sd*%
X80115000Y-64460000D03*
%TD*%
D16*
%TO.P,J7,1,Pin_1_1*%
%TO.N,+3V3*%
X65085000Y-67175000D03*
D17*
%TO.P,J7,2,Pin_2_2*%
%TO.N,GND*%
X65085000Y-64635000D03*
%TO.P,J7,3,Pin_3_3*%
%TO.N,/ws*%
X67625000Y-67175000D03*
%TO.P,J7,4,Pin_4_4*%
%TO.N,+3V3*%
X67625000Y-64635000D03*
%TO.P,J7,5,Pin_5_5*%
%TO.N,/sck*%
X70165000Y-67175000D03*
%TO.P,J7,6,Pin_6_6*%
%TO.N,/sd*%
X70165000Y-64635000D03*
%TD*%
D16*
%TO.P,J5,1,Pin_1_1*%
%TO.N,+3V3*%
X80125000Y-42745000D03*
D17*
%TO.P,J5,2,Pin_2_2*%
%TO.N,GND*%
X80125000Y-45285000D03*
%TO.P,J5,3,Pin_3_3*%
%TO.N,/gsm_rx*%
X80125000Y-47825000D03*
%TO.P,J5,4,Pin_4_4*%
%TO.N,/gsm_tx*%
X80125000Y-50365000D03*
%TO.P,J5,5,Pin_5_5*%
%TO.N,/PPS*%
X80125000Y-52905000D03*
%TD*%
D11*
%TO.P,LD3,1,K_1*%
%TO.N,GND*%
X48925000Y-68525000D03*
%TO.P,LD3,2,A_2*%
%TO.N,Net-(LD3-A)*%
X48925000Y-66950000D03*
%TD*%
D16*
%TO.P,J1,1,Pin_1_1*%
%TO.N,Net-(J1-Pin_1)*%
X22250000Y-56300000D03*
D17*
%TO.P,J1,2,Pin_2_2*%
%TO.N,GND*%
X22250000Y-58840000D03*
%TD*%
D18*
%TO.P,U1,1,BS_1*%
%TO.N,Net-(U1-BS)*%
X30190000Y-53696144D03*
%TO.P,U1,2,IN_2*%
%TO.N,+12V*%
X31460000Y-53696144D03*
%TO.P,U1,3,SW_3*%
%TO.N,/sw*%
X32730000Y-53696144D03*
%TO.P,U1,4,GND_4*%
%TO.N,GND*%
X34000000Y-53696144D03*
%TO.P,U1,5,FB_5*%
%TO.N,/fb*%
X34000000Y-48746144D03*
%TO.P,U1,6,COMP_6*%
%TO.N,Net-(U1-COMP)*%
X32730000Y-48746144D03*
%TO.P,U1,7,EN_7*%
%TO.N,Net-(U1-EN)*%
X31460000Y-48746144D03*
%TO.P,U1,8,SS_8*%
%TO.N,Net-(U1-SS)*%
X30190000Y-48746144D03*
%TD*%
D16*
%TO.P,J6,1,Pin_1_1*%
%TO.N,+3V3*%
X60910000Y-24600000D03*
D17*
%TO.P,J6,2,Pin_2_2*%
%TO.N,GND*%
X63450000Y-24600000D03*
%TO.P,J6,3,Pin_3_3*%
%TO.N,/scl*%
X65990000Y-24600000D03*
%TO.P,J6,4,Pin_4_4*%
%TO.N,/sda*%
X68530000Y-24600000D03*
%TO.P,J6,5,Pin_5_5*%
%TO.N,/drdy*%
X71070000Y-24600000D03*
%TD*%
D19*
%TO.P,R10,1*%
%TO.N,/SWCLK*%
X63175000Y-56575000D03*
%TO.P,R10,2*%
%TO.N,+3V3*%
X64825000Y-56575000D03*
%TD*%
D10*
%TO.P,D1,1,K_1*%
%TO.N,/sw*%
X26375000Y-59225000D03*
%TO.P,D1,2,A_2*%
%TO.N,GND*%
X26375000Y-54925000D03*
%TD*%
D20*
%TO.P,C3,1*%
%TO.N,+3V3*%
X37250000Y-58425000D03*
%TO.P,C3,2*%
%TO.N,GND*%
X38800000Y-58425000D03*
%TD*%
%TO.P,C2,1*%
%TO.N,+3V3*%
X37250000Y-56850000D03*
%TO.P,C2,2*%
%TO.N,GND*%
X38800000Y-56850000D03*
%TD*%
D21*
%TO.P,U2,1,PB9_1*%
%TO.N,/sda*%
X54000000Y-47750000D03*
%TO.P,U2,2,PC14-OSCX_IN_2*%
%TO.N,unconnected-(U2-PC14-OSCX_IN-Pad2)*%
X53200000Y-47750000D03*
%TO.P,U2,3,PC15-OSCX_OUT_3*%
%TO.N,unconnected-(U2-PC15-OSCX_OUT-Pad3)*%
X52400000Y-47750000D03*
%TO.P,U2,4,VDD/VDDA_4*%
%TO.N,+3V3*%
X51600000Y-47750000D03*
%TO.P,U2,5,VSS/VSSA_5*%
%TO.N,GND*%
X50800000Y-47750000D03*
%TO.P,U2,6,PF2-NRST_6*%
%TO.N,Net-(U2-PF2-NRST)*%
X50000000Y-47750000D03*
%TO.P,U2,7,PA0_7*%
%TO.N,/C1101 _clk*%
X49200000Y-47750000D03*
%TO.P,U2,8,PA1_8*%
%TO.N,/do0*%
X48400000Y-47750000D03*
D22*
%TO.P,U2,9,PA2_9*%
%TO.N,/C1101 _cs*%
X47025000Y-49125000D03*
%TO.P,U2,10,PA3_10*%
%TO.N,/C1101_miso*%
X47025000Y-49925000D03*
%TO.P,U2,11,PA4_11*%
%TO.N,/C1101 _mosi*%
X47025000Y-50725000D03*
%TO.P,U2,12,PA5_12*%
%TO.N,/DIR*%
X47025000Y-51525000D03*
%TO.P,U2,13,PA6_13*%
%TO.N,/ENABLE*%
X47025000Y-52325000D03*
%TO.P,U2,14,PA7_14*%
%TO.N,/STEP*%
X47025000Y-53125000D03*
%TO.P,U2,15,PB0_15*%
%TO.N,/can_rx*%
X47025000Y-53925000D03*
%TO.P,U2,16,PB1_16*%
%TO.N,/can_tx*%
X47025000Y-54725000D03*
D21*
%TO.P,U2,17,PB2_17*%
%TO.N,unconnected-(U2-PB2-Pad17)*%
X48400000Y-56100000D03*
%TO.P,U2,18,PA8_18*%
%TO.N,unconnected-(U2-PA8-Pad18)*%
X49200000Y-56100000D03*
%TO.P,U2,19,PA9_19*%
%TO.N,unconnected-(U2-PA9-Pad19)*%
X50000000Y-56100000D03*
%TO.P,U2,20,PC6_20*%
%TO.N,/LED1*%
X50800000Y-56100000D03*
%TO.P,U2,21,PA10_21*%
%TO.N,/LED2*%
X51600000Y-56100000D03*
%TO.P,U2,22,PA11[PA9]_22*%
%TO.N,/LED3*%
X52400000Y-56100000D03*
%TO.P,U2,23,PA12[PA10]_23*%
%TO.N,/LED4*%
X53200000Y-56100000D03*
%TO.P,U2,24,PA13_24*%
%TO.N,/SWDIO*%
X54000000Y-56100000D03*
D22*
%TO.P,U2,25,PA14-BOOT0_25*%
%TO.N,/SWCLK*%
X55375000Y-54725000D03*
%TO.P,U2,26,PA15_26*%
%TO.N,/ws*%
X55375000Y-53925000D03*
%TO.P,U2,27,PB3_27*%
%TO.N,/sck*%
X55375000Y-53125000D03*
%TO.P,U2,28,PB4_28*%
%TO.N,unconnected-(U2-PB4-Pad28)*%
X55375000Y-52325000D03*
%TO.P,U2,29,PB5_29*%
%TO.N,/sd*%
X55375000Y-51525000D03*
%TO.P,U2,30,PB6_30*%
%TO.N,/gsm_tx*%
X55375000Y-50725000D03*
%TO.P,U2,31,PB7_31*%
%TO.N,/gsm_rx*%
X55375000Y-49925000D03*
%TO.P,U2,32,PB8_32*%
%TO.N,/scl*%
X55375000Y-49125000D03*
%TD*%
D23*
%TO.P,L1,1*%
%TO.N,/sw*%
X32725000Y-56596144D03*
D24*
%TO.P,L1,2*%
%TO.N,+3V3*%
X32725000Y-59096144D03*
%TD*%
D16*
%TO.P,J9,1,Pin_1_1*%
%TO.N,+3V3*%
X53805000Y-24025000D03*
D17*
%TO.P,J9,2,Pin_2_2*%
%TO.N,GND*%
X53805000Y-26565000D03*
%TO.P,J9,3,Pin_3_3*%
%TO.N,/do0*%
X51265000Y-24025000D03*
%TO.P,J9,4,Pin_4_4*%
%TO.N,/C1101 _cs*%
X51265000Y-26565000D03*
%TO.P,J9,5,Pin_5_5*%
%TO.N,/C1101 _clk*%
X48725000Y-24025000D03*
%TO.P,J9,6,Pin_6_6*%
%TO.N,/C1101 _mosi*%
X48725000Y-26565000D03*
%TO.P,J9,7,Pin_7_7*%
%TO.N,/C1101_miso*%
X46185000Y-24025000D03*
%TO.P,J9,8,Pin_8_8*%
%TO.N,/do2*%
X46185000Y-26565000D03*
%TD*%
D11*
%TO.P,LD2,1,K_1*%
%TO.N,GND*%
X47325000Y-68525000D03*
%TO.P,LD2,2,A_2*%
%TO.N,Net-(LD2-A)*%
X47325000Y-66950000D03*
%TD*%
D15*
%TO.P,R1,1*%
%TO.N,+12V*%
X28550000Y-52096144D03*
%TO.P,R1,2*%
%TO.N,Net-(U1-EN)*%
X28550000Y-50446144D03*
%TD*%
D16*
%TO.P,J4,1,Pin_1_1*%
%TO.N,GND*%
X59210000Y-67525000D03*
D17*
%TO.P,J4,2,Pin_2_2*%
%TO.N,/SWCLK*%
X56670000Y-67525000D03*
%TO.P,J4,3,Pin_3_3*%
%TO.N,/SWDIO*%
X54130000Y-67525000D03*
%TO.P,J4,4,Pin_4_4*%
%TO.N,+3V3*%
X51590000Y-67525000D03*
%TD*%
D14*
%TO.P,C8,1*%
%TO.N,Net-(U1-SS)*%
X30175000Y-46621144D03*
%TO.P,C8,2*%
%TO.N,GND*%
X30175000Y-45071144D03*
%TD*%
D12*
%TO.P,R9,1*%
%TO.N,/LED4*%
X51475000Y-60150000D03*
%TO.P,R9,2*%
%TO.N,Net-(LD3-A)*%
X51475000Y-61800000D03*
%TD*%
D14*
%TO.P,C11,1*%
%TO.N,Net-(U2-PF2-NRST)*%
X47450000Y-43725000D03*
%TO.P,C11,2*%
%TO.N,GND*%
X47450000Y-42175000D03*
%TD*%
D15*
%TO.P,R2,1*%
%TO.N,+3V3*%
X36600000Y-46650000D03*
%TO.P,R2,2*%
%TO.N,/fb*%
X36600000Y-45000000D03*
%TD*%
D16*
%TO.P,J3,1,Pin_1_1*%
%TO.N,/canl*%
X23372000Y-64520000D03*
D17*
%TO.P,J3,2,Pin_2_2*%
%TO.N,/canh*%
X23372000Y-67060000D03*
%TD*%
D16*
%TO.P,J10,1,Pin_1_1*%
%TO.N,/staper1*%
X22225000Y-28345000D03*
D17*
%TO.P,J10,2,Pin_2_2*%
%TO.N,/staper2*%
X22225000Y-30885000D03*
%TO.P,J10,3,Pin_3_3*%
%TO.N,/staper3*%
X22225000Y-33425000D03*
%TO.P,J10,4,Pin_4_4*%
%TO.N,/staper4*%
X22225000Y-35965000D03*
%TD*%
D15*
%TO.P,R5,1*%
%TO.N,/fb*%
X35075000Y-46650000D03*
%TO.P,R5,2*%
%TO.N,GND*%
X35075000Y-45000000D03*
%TD*%
D12*
%TO.P,R8,1*%
%TO.N,/LED3*%
X49975000Y-60175000D03*
%TO.P,R8,2*%
%TO.N,Net-(LD2-A)*%
X49975000Y-61825000D03*
%TD*%
D25*
%TO.P,LD1,1,K_1*%
%TO.N,GND*%
X80315000Y-34945000D03*
%TO.P,LD1,2,A_2*%
%TO.N,Net-(LD1-A)*%
X78740000Y-34945000D03*
%TD*%
D26*
%TO.P,C5,1*%
%TO.N,+3V3*%
X35886000Y-64715000D03*
%TO.P,C5,2*%
%TO.N,GND*%
X35886000Y-66265000D03*
%TD*%
D11*
%TO.P,LD5,1,K_1*%
%TO.N,GND*%
X45700000Y-68512500D03*
%TO.P,LD5,2,A_2*%
%TO.N,Net-(LD5-A)*%
X45700000Y-66937500D03*
%TD*%
D13*
%TO.P,R13,1*%
%TO.N,GND*%
X64825000Y-55025000D03*
%TO.P,R13,2*%
%TO.N,/SWCLK*%
X63175000Y-55025000D03*
%TD*%
D27*
%TO.P,A1,1,GND_1*%
%TO.N,GND*%
X28550000Y-22985000D03*
D28*
%TO.P,A1,2,VDD_2*%
%TO.N,+3V3*%
X28550000Y-25525000D03*
%TO.P,A1,3,1B_3*%
%TO.N,/staper1*%
X28550000Y-28065000D03*
%TO.P,A1,4,1A_4*%
%TO.N,/staper2*%
X28550000Y-30605000D03*
%TO.P,A1,5,2A_5*%
%TO.N,/staper3*%
X28550000Y-33145000D03*
%TO.P,A1,6,2B_6*%
%TO.N,/staper4*%
X28550000Y-35685000D03*
%TO.P,A1,7,GND_7*%
%TO.N,GND*%
X28550000Y-38225000D03*
%TO.P,A1,8,VMOT_8*%
%TO.N,+12V*%
X28550000Y-40765000D03*
%TO.P,A1,9,~{ENABLE}_9*%
%TO.N,/ENABLE*%
X41250000Y-40765000D03*
%TO.P,A1,10,MS1_10*%
%TO.N,+3V3*%
X41250000Y-38225000D03*
%TO.P,A1,11,MS2_11*%
X41250000Y-35685000D03*
%TO.P,A1,12,MS3_12*%
X41250000Y-33145000D03*
%TO.P,A1,13,~{RESET}_13*%
X41250000Y-30605000D03*
%TO.P,A1,14,~{SLEEP}_14*%
X41250000Y-28065000D03*
%TO.P,A1,15,STEP_15*%
%TO.N,/STEP*%
X41250000Y-25525000D03*
%TO.P,A1,16,DIR_16*%
%TO.N,/DIR*%
X41250000Y-22985000D03*
%TD*%
D23*
%TO.P,C7,1*%
%TO.N,GND*%
X60375000Y-59575000D03*
D24*
%TO.P,C7,2*%
%TO.N,+3V3*%
X60375000Y-62075000D03*
%TD*%
D16*
%TO.P,J2,1,Pin_1_1*%
%TO.N,GND*%
X22325000Y-43305000D03*
D17*
%TO.P,J2,2,Pin_2_2*%
%TO.N,+12V*%
X22325000Y-45845000D03*
%TD*%
D13*
%TO.P,R3,1*%
%TO.N,+3V3*%
X80300000Y-36725000D03*
%TO.P,R3,2*%
%TO.N,Net-(LD1-A)*%
X78650000Y-36725000D03*
%TD*%
D14*
%TO.P,C4,1*%
%TO.N,+3V3*%
X49000000Y-43700000D03*
%TO.P,C4,2*%
%TO.N,GND*%
X49000000Y-42150000D03*
%TD*%
D15*
%TO.P,R6,1*%
%TO.N,Net-(C9-Pad2)*%
X31700000Y-46646144D03*
%TO.P,R6,2*%
%TO.N,GND*%
X31700000Y-44996144D03*
%TD*%
D29*
%TO.P,IC1,1,TXD_1*%
%TO.N,/can_tx*%
X33997000Y-67320000D03*
%TO.P,IC1,2,GND_2*%
%TO.N,GND*%
X33997000Y-66050000D03*
%TO.P,IC1,3,VCC_3*%
%TO.N,+3V3*%
X33997000Y-64780000D03*
%TO.P,IC1,4,RXD_4*%
%TO.N,/can_rx*%
X33997000Y-63510000D03*
%TO.P,IC1,5,SHDNV_IO_5*%
%TO.N,+3V3*%
X28575000Y-63510000D03*
%TO.P,IC1,6,CANL_6*%
%TO.N,/canl*%
X28575000Y-64780000D03*
%TO.P,IC1,7,CANH_7*%
%TO.N,/canh*%
X28575000Y-66050000D03*
%TO.P,IC1,8,STB_8*%
%TO.N,GND*%
X28575000Y-67320000D03*
%TD*%
D30*
%TO.P,F1,1*%
%TO.N,+12V*%
X22300000Y-48925000D03*
%TO.P,F1,2*%
%TO.N,Net-(J1-Pin_1)*%
X22300000Y-51725000D03*
%TD*%
D12*
%TO.P,R11,1*%
%TO.N,/LED1*%
X46900000Y-60225000D03*
%TO.P,R11,2*%
%TO.N,Net-(LD4-A)*%
X46900000Y-61875000D03*
%TD*%
D13*
%TO.P,R15,1*%
%TO.N,/sda*%
X53675000Y-43725000D03*
%TO.P,R15,2*%
%TO.N,+3V3*%
X52025000Y-43725000D03*
%TD*%
D12*
%TO.P,R4,1*%
%TO.N,/canl*%
X26572000Y-64545000D03*
%TO.P,R4,2*%
%TO.N,/canh*%
X26572000Y-66195000D03*
%TD*%
D31*
%TO.P,C6,1*%
%TO.N,GND*%
X26850000Y-47225000D03*
D24*
%TO.P,C6,2*%
%TO.N,+12V*%
X26850000Y-44725000D03*
%TD*%
D32*
%TO.N,+3V3*%
X51600000Y-50275000D03*
X36600000Y-46650000D03*
%TO.N,GND*%
X36200000Y-55625000D03*
X38800000Y-56850000D03*
%TO.N,/sda*%
X53675000Y-43725000D03*
%TO.N,/C1101 _clk*%
X48925000Y-49250000D03*
%TO.N,/do0*%
X48400000Y-46525000D03*
%TO.N,/C1101_miso*%
X45925000Y-49925000D03*
%TD*%
%TO.N,+3V3*%
D33*
X60375000Y-62075000D02*
X60625000Y-62325000D01*
X50525000Y-42175000D02*
X50525000Y-42075000D01*
X64825000Y-60225000D02*
X62975000Y-62075000D01*
X31908000Y-63510000D02*
X32725000Y-64327000D01*
X37150000Y-53500000D02*
X37150000Y-56750000D01*
X60625000Y-62715000D02*
X65085000Y-67175000D01*
X35325000Y-52950000D02*
X35875000Y-53500000D01*
X37250000Y-58425000D02*
X37250000Y-56850000D01*
D34*
X51600000Y-44150000D02*
X52025000Y-43725000D01*
X51600000Y-47750000D02*
X51600000Y-44150000D01*
D33*
X37250000Y-58425000D02*
X33396144Y-58425000D01*
X49000000Y-43700000D02*
X50525000Y-42175000D01*
X35325000Y-47925000D02*
X35325000Y-52950000D01*
X32725000Y-64327000D02*
X33178000Y-64780000D01*
X28575000Y-63510000D02*
X31908000Y-63510000D01*
D34*
X80300000Y-36725000D02*
X80300000Y-42570000D01*
D33*
X33396144Y-58425000D02*
X32725000Y-59096144D01*
X33178000Y-64780000D02*
X33997000Y-64780000D01*
D34*
X51600000Y-47750000D02*
X51600000Y-50275000D01*
D33*
X32725000Y-59096144D02*
X32725000Y-64327000D01*
X36600000Y-46650000D02*
X35325000Y-47925000D01*
X35821000Y-64780000D02*
X35886000Y-64715000D01*
X64825000Y-56575000D02*
X64825000Y-60225000D01*
X52025000Y-42125000D02*
X50575000Y-42125000D01*
D34*
X80300000Y-42570000D02*
X80125000Y-42745000D01*
D33*
X33997000Y-64780000D02*
X35821000Y-64780000D01*
X62975000Y-62075000D02*
X60375000Y-62075000D01*
D35*
X41250000Y-28065000D02*
X41250000Y-38225000D01*
D34*
X51975000Y-43675000D02*
X52025000Y-43725000D01*
D33*
X37150000Y-56750000D02*
X37250000Y-56850000D01*
X60625000Y-62325000D02*
X60625000Y-62715000D01*
X35875000Y-53500000D02*
X37150000Y-53500000D01*
X50575000Y-42125000D02*
X50525000Y-42075000D01*
D34*
X52025000Y-42125000D02*
X52025000Y-43725000D01*
%TO.N,GND*%
D33*
X30175000Y-45071144D02*
X29003856Y-45071144D01*
D35*
X27405000Y-38225000D02*
X28550000Y-38225000D01*
D36*
X37150000Y-49200000D02*
X38550000Y-49200000D01*
X38550000Y-49200000D02*
X38800000Y-49450000D01*
X38800000Y-49450000D02*
X38800000Y-56850000D01*
D33*
X34825000Y-55625000D02*
X36200000Y-55625000D01*
X34000000Y-54800000D02*
X34825000Y-55625000D01*
X26375000Y-54925000D02*
X26165000Y-54925000D01*
X26165000Y-54925000D02*
X22250000Y-58840000D01*
X29003856Y-45071144D02*
X26725000Y-47350000D01*
D35*
X22325000Y-43305000D02*
X27405000Y-38225000D01*
D33*
X34000000Y-53696144D02*
X34000000Y-54800000D01*
%TO.N,Net-(LD4-A)*%
D36*
X46900000Y-63150000D02*
X44075000Y-65975000D01*
X44075000Y-65975000D02*
X44075000Y-66912500D01*
X46900000Y-61875000D02*
X46900000Y-63150000D01*
%TO.N,/LED2*%
X51600000Y-57050000D02*
X51600000Y-56100000D01*
X48450000Y-60200000D02*
X51600000Y-57050000D01*
%TO.N,Net-(LD5-A)*%
X45700000Y-65875000D02*
X45700000Y-66937500D01*
X48450000Y-61850000D02*
X48450000Y-63125000D01*
X48450000Y-63125000D02*
X45700000Y-65875000D01*
%TO.N,/scl*%
D34*
X53675000Y-42125000D02*
X55225000Y-42125000D01*
X55375000Y-42275000D02*
X55375000Y-49125000D01*
X59825000Y-42125000D02*
X65990000Y-35960000D01*
X53675000Y-42125000D02*
X59825000Y-42125000D01*
X55225000Y-42125000D02*
X55375000Y-42275000D01*
X65990000Y-35960000D02*
X65990000Y-24600000D01*
%TO.N,/sw*%
X32730000Y-53696144D02*
X32730000Y-56591144D01*
D33*
X30071144Y-59250000D02*
X32725000Y-56596144D01*
X26400000Y-59250000D02*
X26375000Y-59225000D01*
X29400000Y-59250000D02*
X26400000Y-59250000D01*
X29400000Y-59250000D02*
X30071144Y-59250000D01*
D34*
X32730000Y-56591144D02*
X32725000Y-56596144D01*
%TO.N,Net-(U1-BS)*%
D33*
X30190000Y-56910000D02*
X29400000Y-57700000D01*
X30190000Y-53696144D02*
X30190000Y-56910000D01*
%TO.N,Net-(U1-COMP)*%
D34*
X32730000Y-47091144D02*
X33250000Y-46571144D01*
X32730000Y-48746144D02*
X32730000Y-47091144D01*
%TO.N,Net-(C9-Pad2)*%
X31700000Y-46571144D02*
X33250000Y-45021144D01*
X31700000Y-46646144D02*
X31700000Y-46571144D01*
%TO.N,Net-(U2-PF2-NRST)*%
X48075000Y-45050000D02*
X50000000Y-45050000D01*
X50525000Y-44525000D02*
X50525000Y-43725000D01*
X50000000Y-45050000D02*
X50525000Y-44525000D01*
X50000000Y-47750000D02*
X50000000Y-45050000D01*
X47450000Y-44425000D02*
X48075000Y-45050000D01*
X47450000Y-43725000D02*
X47450000Y-44425000D01*
%TO.N,/ws*%
D37*
X66350000Y-65900000D02*
X67625000Y-67175000D01*
X66350000Y-64325000D02*
X66350000Y-65900000D01*
D34*
X65675000Y-53925000D02*
X55375000Y-53925000D01*
X66350000Y-64325000D02*
X66350000Y-54600000D01*
X66350000Y-54600000D02*
X65675000Y-53925000D01*
%TO.N,/sck*%
D33*
X70165000Y-67175000D02*
X71915000Y-68925000D01*
D34*
X68895000Y-64225000D02*
X68895000Y-54645000D01*
D37*
X68895000Y-64225000D02*
X68895000Y-65905000D01*
D34*
X68895000Y-54645000D02*
X67375000Y-53125000D01*
D37*
X68895000Y-65905000D02*
X70165000Y-67175000D01*
D34*
X67375000Y-53125000D02*
X55375000Y-53125000D01*
D33*
X79325000Y-68925000D02*
X80115000Y-68135000D01*
X80115000Y-68135000D02*
X80115000Y-67000000D01*
X71915000Y-68925000D02*
X79325000Y-68925000D01*
%TO.N,/sd*%
D34*
X70165000Y-54265000D02*
X70165000Y-61300000D01*
X70165000Y-61300000D02*
X70165000Y-64635000D01*
D33*
X70165000Y-61300000D02*
X78950000Y-61300000D01*
D34*
X55375000Y-51525000D02*
X67425000Y-51525000D01*
X67425000Y-51525000D02*
X70165000Y-54265000D01*
D33*
X80115000Y-62465000D02*
X80115000Y-64460000D01*
X78950000Y-61300000D02*
X80115000Y-62465000D01*
%TO.N,/gsm_rx*%
D34*
X55375000Y-49925000D02*
X76175000Y-49925000D01*
X78275000Y-47825000D02*
X80125000Y-47825000D01*
X76175000Y-49925000D02*
X78275000Y-47825000D01*
%TO.N,/gsm_tx*%
X79765000Y-50725000D02*
X80125000Y-50365000D01*
X55375000Y-50725000D02*
X79765000Y-50725000D01*
%TO.N,Net-(LD3-A)*%
D36*
X51475000Y-61800000D02*
X51475000Y-63025000D01*
X51475000Y-63025000D02*
X48925000Y-65575000D01*
X48925000Y-65575000D02*
X48925000Y-66950000D01*
%TO.N,Net-(J1-Pin_1)*%
D35*
X22300000Y-56250000D02*
X22250000Y-56300000D01*
X22300000Y-51725000D02*
X22300000Y-56250000D01*
%TO.N,+12V*%
X26850000Y-44725000D02*
X25730000Y-45845000D01*
D34*
X31450000Y-52450000D02*
X31450000Y-53686144D01*
X31096144Y-52096144D02*
X31450000Y-52450000D01*
D35*
X25730000Y-45845000D02*
X22325000Y-45845000D01*
X25471144Y-52096144D02*
X22300000Y-48925000D01*
X22325000Y-45845000D02*
X22325000Y-48900000D01*
D34*
X31450000Y-53686144D02*
X31460000Y-53696144D01*
D35*
X22325000Y-48900000D02*
X22300000Y-48925000D01*
X28550000Y-43025000D02*
X26850000Y-44725000D01*
D34*
X28550000Y-52096144D02*
X31096144Y-52096144D01*
D35*
X28550000Y-40765000D02*
X28550000Y-43025000D01*
X28550000Y-52096144D02*
X25471144Y-52096144D01*
%TO.N,/fb*%
D34*
X34000000Y-47725000D02*
X35075000Y-46650000D01*
X36600000Y-45000000D02*
X36600000Y-45125000D01*
X34000000Y-48746144D02*
X34000000Y-47725000D01*
X36600000Y-45125000D02*
X35075000Y-46650000D01*
%TO.N,Net-(U1-EN)*%
X30825000Y-50446144D02*
X31460000Y-49811144D01*
X28550000Y-50446144D02*
X30825000Y-50446144D01*
X31460000Y-49811144D02*
X31460000Y-48746144D01*
%TO.N,Net-(U1-SS)*%
X30190000Y-48746144D02*
X30190000Y-46636144D01*
X30190000Y-46636144D02*
X30175000Y-46621144D01*
%TO.N,/sda*%
X54000000Y-47750000D02*
X54000000Y-44050000D01*
X54000000Y-44050000D02*
X53675000Y-43725000D01*
%TO.N,/SWCLK*%
D33*
X63175000Y-56575000D02*
X63175000Y-55025000D01*
D34*
X56400000Y-54725000D02*
X56670000Y-54995000D01*
D33*
X56670000Y-54995000D02*
X56700000Y-55025000D01*
D34*
X55375000Y-54725000D02*
X56400000Y-54725000D01*
D33*
X56700000Y-55025000D02*
X63175000Y-55025000D01*
D34*
X56670000Y-54995000D02*
X56670000Y-67525000D01*
%TO.N,/C1101 _clk*%
X49200000Y-48975000D02*
X49200000Y-47750000D01*
X48925000Y-49250000D02*
X49200000Y-48975000D01*
%TO.N,/do0*%
X48400000Y-46525000D02*
X48400000Y-47750000D01*
%TO.N,/C1101 _cs*%
X45950000Y-49125000D02*
X45425000Y-48600000D01*
X47025000Y-49125000D02*
X45950000Y-49125000D01*
X45425000Y-48600000D02*
X45425000Y-32405000D01*
X45425000Y-32405000D02*
X51265000Y-26565000D01*
%TO.N,/C1101_miso*%
X45925000Y-49925000D02*
X47025000Y-49925000D01*
%TO.N,/C1101 _mosi*%
X44700000Y-50725000D02*
X43875000Y-49900000D01*
X43875000Y-49900000D02*
X43875000Y-31415000D01*
X43875000Y-31415000D02*
X48725000Y-26565000D01*
X47025000Y-50725000D02*
X44700000Y-50725000D01*
%TO.N,/DIR*%
X41250000Y-22985000D02*
X43175000Y-24910000D01*
X43175000Y-50275000D02*
X44425000Y-51525000D01*
X44425000Y-51525000D02*
X47025000Y-51525000D01*
X43175000Y-24910000D02*
X43175000Y-50275000D01*
%TO.N,/ENABLE*%
X47025000Y-52325000D02*
X44100000Y-52325000D01*
X44100000Y-52325000D02*
X41250000Y-49475000D01*
X41250000Y-49475000D02*
X41250000Y-40765000D01*
%TO.N,/STEP*%
X43675000Y-53125000D02*
X39700000Y-49150000D01*
X47025000Y-53125000D02*
X43675000Y-53125000D01*
X39700000Y-49150000D02*
X39700000Y-27075000D01*
X39700000Y-27075000D02*
X41250000Y-25525000D01*
%TO.N,/can_rx*%
X43675000Y-60975000D02*
X43675000Y-55000000D01*
X33997000Y-63510000D02*
X41140000Y-63510000D01*
X41140000Y-63510000D02*
X43675000Y-60975000D01*
X43675000Y-55000000D02*
X44750000Y-53925000D01*
X44750000Y-53925000D02*
X47025000Y-53925000D01*
%TO.N,/can_tx*%
X44375000Y-55575000D02*
X44375000Y-61775000D01*
X38830000Y-67320000D02*
X33997000Y-67320000D01*
X44375000Y-61775000D02*
X38830000Y-67320000D01*
X45225000Y-54725000D02*
X44375000Y-55575000D01*
X47025000Y-54725000D02*
X45225000Y-54725000D01*
%TO.N,/LED1*%
D36*
X47325000Y-59225000D02*
X46875000Y-59675000D01*
X46875000Y-59675000D02*
X46875000Y-60200000D01*
X48500000Y-59225000D02*
X47325000Y-59225000D01*
X46875000Y-60200000D02*
X46900000Y-60225000D01*
X50800000Y-56925000D02*
X48500000Y-59225000D01*
X50800000Y-56100000D02*
X50800000Y-56925000D01*
%TO.N,/LED3*%
X49975000Y-59775000D02*
X52400000Y-57350000D01*
X49975000Y-60175000D02*
X49975000Y-59775000D01*
X52400000Y-57350000D02*
X52400000Y-56100000D01*
%TO.N,/LED4*%
X53200000Y-57550000D02*
X51475000Y-59275000D01*
X51475000Y-59275000D02*
X51475000Y-60150000D01*
X53200000Y-56100000D02*
X53200000Y-57550000D01*
%TO.N,/SWDIO*%
D34*
X54000000Y-56100000D02*
X54000000Y-67395000D01*
X54000000Y-67395000D02*
X54130000Y-67525000D01*
%TO.N,Net-(LD2-A)*%
D36*
X47325000Y-65750000D02*
X47325000Y-66950000D01*
X49975000Y-61825000D02*
X49975000Y-63100000D01*
X49975000Y-63100000D02*
X47325000Y-65750000D01*
%TO.N,/canl*%
D33*
X26547000Y-64520000D02*
X26572000Y-64545000D01*
X23372000Y-64520000D02*
X26547000Y-64520000D01*
X26807000Y-64780000D02*
X26572000Y-64545000D01*
X28575000Y-64780000D02*
X26807000Y-64780000D01*
%TO.N,/canh*%
X28575000Y-66050000D02*
X26717000Y-66050000D01*
X26572000Y-66195000D02*
X24237000Y-66195000D01*
X26717000Y-66050000D02*
X26572000Y-66195000D01*
X24237000Y-66195000D02*
X23372000Y-67060000D01*
%TO.N,/staper1*%
D35*
X28270000Y-28345000D02*
X28550000Y-28065000D01*
X22225000Y-28345000D02*
X28270000Y-28345000D01*
%TO.N,/staper2*%
X22225000Y-30885000D02*
X28270000Y-30885000D01*
X28270000Y-30885000D02*
X28550000Y-30605000D01*
%TO.N,/staper3*%
X28270000Y-33425000D02*
X28550000Y-33145000D01*
X22225000Y-33425000D02*
X28270000Y-33425000D01*
%TO.N,/staper4*%
X28270000Y-35965000D02*
X28550000Y-35685000D01*
X22225000Y-35965000D02*
X28270000Y-35965000D01*
%TO.N,Net-(LD1-A)*%
D34*
X78740000Y-36635000D02*
X78650000Y-36725000D01*
X78740000Y-34945000D02*
X78740000Y-36635000D01*
%TD*%
%TA.AperFunction,Conductor*%
%TO.N,GND*%
G36*
X82677826Y-20222174D02*
G01*
X82699500Y-20274500D01*
X82699500Y-69725500D01*
X82677826Y-69777826D01*
X82625500Y-69799500D01*
X20274500Y-69799500D01*
X20222174Y-69777826D01*
X20200500Y-69725500D01*
X20200500Y-63650252D01*
X22321500Y-63650252D01*
X22321500Y-65389748D01*
X22329255Y-65428736D01*
X22333133Y-65448232D01*
X22347766Y-65470131D01*
X22377448Y-65514552D01*
X22409746Y-65536133D01*
X22443767Y-65558866D01*
X22443768Y-65558866D01*
X22443769Y-65558867D01*
X22502252Y-65570500D01*
X22502254Y-65570500D01*
X24071796Y-65570500D01*
X24124122Y-65592174D01*
X24145796Y-65644500D01*
X24124122Y-65696826D01*
X24090949Y-65715978D01*
X24043818Y-65728606D01*
X24043809Y-65728610D01*
X23929685Y-65794500D01*
X23702964Y-66021220D01*
X23650638Y-66042894D01*
X23636202Y-66041472D01*
X23524321Y-66019218D01*
X23475465Y-66009500D01*
X23268535Y-66009500D01*
X23228385Y-66017486D01*
X23065586Y-66049868D01*
X23065579Y-66049870D01*
X22874401Y-66129059D01*
X22702345Y-66244022D01*
X22702344Y-66244024D01*
X22556024Y-66390344D01*
X22556022Y-66390345D01*
X22441059Y-66562401D01*
X22361870Y-66753579D01*
X22361868Y-66753586D01*
X22331286Y-66907336D01*
X22321500Y-66956535D01*
X22321500Y-67163465D01*
X22326628Y-67189246D01*
X22361868Y-67366413D01*
X22361870Y-67366420D01*
X22441059Y-67557598D01*
X22551730Y-67723231D01*
X22556023Y-67729655D01*
X22702345Y-67875977D01*
X22874402Y-67990941D01*
X23065580Y-68070130D01*
X23268535Y-68110500D01*
X23268536Y-68110500D01*
X23475464Y-68110500D01*
X23475465Y-68110500D01*
X23678420Y-68070130D01*
X23869598Y-67990941D01*
X24041655Y-67875977D01*
X24187977Y-67729655D01*
X24302941Y-67557598D01*
X24382130Y-67366420D01*
X24422500Y-67163465D01*
X24422500Y-66956535D01*
X24390526Y-66795794D01*
X24392005Y-66788358D01*
X24389104Y-66781353D01*
X24397364Y-66761415D01*
X24401575Y-66740247D01*
X24410776Y-66729037D01*
X24422644Y-66717170D01*
X24474965Y-66695500D01*
X26000456Y-66695500D01*
X26052782Y-66717174D01*
X26058658Y-66723050D01*
X26171696Y-66780646D01*
X26265481Y-66795500D01*
X26878518Y-66795499D01*
X26878519Y-66795499D01*
X26972304Y-66780646D01*
X26972306Y-66780645D01*
X26974419Y-66779568D01*
X27085342Y-66723050D01*
X27175050Y-66633342D01*
X27186996Y-66609897D01*
X27196674Y-66590904D01*
X27239741Y-66554122D01*
X27262608Y-66550500D01*
X27690316Y-66550500D01*
X27725940Y-66561306D01*
X27726035Y-66561078D01*
X27728356Y-66562039D01*
X27731427Y-66562971D01*
X27732767Y-66563866D01*
X27732769Y-66563867D01*
X27791252Y-66575500D01*
X27791254Y-66575500D01*
X29358746Y-66575500D01*
X29358748Y-66575500D01*
X29417231Y-66563867D01*
X29483552Y-66519552D01*
X29527867Y-66453231D01*
X29539500Y-66394748D01*
X29539500Y-65705252D01*
X29527867Y-65646769D01*
X29483552Y-65580448D01*
X29461343Y-65565608D01*
X29417232Y-65536133D01*
X29417233Y-65536133D01*
X29387989Y-65530316D01*
X29358748Y-65524500D01*
X27791252Y-65524500D01*
X27762010Y-65530316D01*
X27732767Y-65536133D01*
X27731427Y-65537029D01*
X27729846Y-65537343D01*
X27726035Y-65538922D01*
X27725721Y-65538163D01*
X27710258Y-65541239D01*
X27690316Y-65549500D01*
X26651106Y-65549500D01*
X26523814Y-65583607D01*
X26523811Y-65583608D01*
X26522114Y-65584589D01*
X26520220Y-65585096D01*
X26519330Y-65585465D01*
X26519281Y-65585347D01*
X26485119Y-65594500D01*
X26265480Y-65594500D01*
X26171695Y-65609353D01*
X26171693Y-65609354D01*
X26058657Y-65666950D01*
X26052782Y-65672826D01*
X26000456Y-65694500D01*
X24341188Y-65694500D01*
X24288862Y-65672826D01*
X24267188Y-65620500D01*
X24288862Y-65568174D01*
X24300075Y-65558972D01*
X24334254Y-65536133D01*
X24366552Y-65514552D01*
X24410867Y-65448231D01*
X24422500Y-65389748D01*
X24422500Y-65094500D01*
X24444174Y-65042174D01*
X24496500Y-65020500D01*
X25975456Y-65020500D01*
X26027782Y-65042174D01*
X26058658Y-65073050D01*
X26171696Y-65130646D01*
X26265481Y-65145500D01*
X26434033Y-65145499D01*
X26486359Y-65167173D01*
X26499686Y-65180500D01*
X26613814Y-65246392D01*
X26613815Y-65246392D01*
X26613817Y-65246393D01*
X26625607Y-65249552D01*
X26741104Y-65280499D01*
X26741105Y-65280500D01*
X26741107Y-65280500D01*
X26741108Y-65280500D01*
X27690316Y-65280500D01*
X27725940Y-65291306D01*
X27726035Y-65291078D01*
X27728356Y-65292039D01*
X27731427Y-65292971D01*
X27732767Y-65293866D01*
X27732769Y-65293867D01*
X27791252Y-65305500D01*
X27791254Y-65305500D01*
X29358746Y-65305500D01*
X29358748Y-65305500D01*
X29417231Y-65293867D01*
X29483552Y-65249552D01*
X29527867Y-65183231D01*
X29539500Y-65124748D01*
X29539500Y-64435252D01*
X29527867Y-64376769D01*
X29483552Y-64310448D01*
X29437236Y-64279500D01*
X29417232Y-64266133D01*
X29417233Y-64266133D01*
X29387989Y-64260316D01*
X29358748Y-64254500D01*
X27791252Y-64254500D01*
X27762010Y-64260316D01*
X27732767Y-64266133D01*
X27731427Y-64267029D01*
X27728356Y-64267960D01*
X27726035Y-64268922D01*
X27725940Y-64268693D01*
X27690316Y-64279500D01*
X27305320Y-64279500D01*
X27252994Y-64257826D01*
X27236111Y-64224691D01*
X27234445Y-64225233D01*
X27232645Y-64219693D01*
X27198958Y-64153580D01*
X27175050Y-64106658D01*
X27085342Y-64016950D01*
X26972304Y-63959354D01*
X26972302Y-63959353D01*
X26972301Y-63959353D01*
X26878519Y-63944500D01*
X26265480Y-63944500D01*
X26171695Y-63959353D01*
X26171694Y-63959354D01*
X26069484Y-64011434D01*
X26035888Y-64019500D01*
X24496500Y-64019500D01*
X24444174Y-63997826D01*
X24422500Y-63945500D01*
X24422500Y-63650253D01*
X24417451Y-63624870D01*
X24410867Y-63591769D01*
X24366552Y-63525448D01*
X24315661Y-63491443D01*
X24300232Y-63481133D01*
X24300233Y-63481133D01*
X24270989Y-63475316D01*
X24241748Y-63469500D01*
X22502252Y-63469500D01*
X22473010Y-63475316D01*
X22443767Y-63481133D01*
X22377449Y-63525447D01*
X22377447Y-63525449D01*
X22333133Y-63591767D01*
X22333133Y-63591769D01*
X22321500Y-63650252D01*
X20200500Y-63650252D01*
X20200500Y-55430252D01*
X21199500Y-55430252D01*
X21199500Y-57169748D01*
X21202356Y-57184107D01*
X21211133Y-57228232D01*
X21226012Y-57250499D01*
X21255448Y-57294552D01*
X21299560Y-57324027D01*
X21321767Y-57338866D01*
X21321768Y-57338866D01*
X21321769Y-57338867D01*
X21380252Y-57350500D01*
X21380254Y-57350500D01*
X23119746Y-57350500D01*
X23119748Y-57350500D01*
X23178231Y-57338867D01*
X23244552Y-57294552D01*
X23288867Y-57228231D01*
X23300500Y-57169748D01*
X23300500Y-55430252D01*
X23288867Y-55371769D01*
X23244552Y-55305448D01*
X23214580Y-55285421D01*
X23178232Y-55261133D01*
X23178233Y-55261133D01*
X23148989Y-55255316D01*
X23119748Y-55249500D01*
X23119746Y-55249500D01*
X22974500Y-55249500D01*
X22922174Y-55227826D01*
X22900500Y-55175500D01*
X22900500Y-52624500D01*
X22922174Y-52572174D01*
X22974500Y-52550500D01*
X22979258Y-52550500D01*
X22979266Y-52550500D01*
X23009699Y-52547646D01*
X23137882Y-52502793D01*
X23247150Y-52422150D01*
X23327793Y-52312882D01*
X23372646Y-52184699D01*
X23375500Y-52154266D01*
X23375500Y-51295734D01*
X23372646Y-51265301D01*
X23327793Y-51137118D01*
X23327792Y-51137116D01*
X23247153Y-51027853D01*
X23247146Y-51027846D01*
X23137883Y-50947207D01*
X23137881Y-50947206D01*
X23009704Y-50902355D01*
X23009705Y-50902355D01*
X23009700Y-50902354D01*
X23009699Y-50902354D01*
X22979266Y-50899500D01*
X21620734Y-50899500D01*
X21590301Y-50902354D01*
X21590299Y-50902354D01*
X21590295Y-50902355D01*
X21462118Y-50947206D01*
X21462116Y-50947207D01*
X21352853Y-51027846D01*
X21352846Y-51027853D01*
X21272207Y-51137116D01*
X21272206Y-51137118D01*
X21227355Y-51265295D01*
X21227354Y-51265299D01*
X21227354Y-51265301D01*
X21224500Y-51295734D01*
X21224500Y-52154266D01*
X21227354Y-52184699D01*
X21227354Y-52184701D01*
X21227355Y-52184704D01*
X21272206Y-52312881D01*
X21272207Y-52312883D01*
X21352846Y-52422146D01*
X21352853Y-52422153D01*
X21462116Y-52502792D01*
X21462118Y-52502793D01*
X21590295Y-52547644D01*
X21590301Y-52547646D01*
X21620734Y-52550500D01*
X21625500Y-52550500D01*
X21677826Y-52572174D01*
X21699500Y-52624500D01*
X21699500Y-55175500D01*
X21677826Y-55227826D01*
X21625500Y-55249500D01*
X21380252Y-55249500D01*
X21351010Y-55255316D01*
X21321767Y-55261133D01*
X21255449Y-55305447D01*
X21255447Y-55305449D01*
X21211133Y-55371767D01*
X21211133Y-55371769D01*
X21199500Y-55430252D01*
X20200500Y-55430252D01*
X20200500Y-48495734D01*
X21224500Y-48495734D01*
X21224500Y-49354266D01*
X21227354Y-49384699D01*
X21227354Y-49384701D01*
X21227355Y-49384704D01*
X21272206Y-49512881D01*
X21272207Y-49512883D01*
X21352846Y-49622146D01*
X21352853Y-49622153D01*
X21462116Y-49702792D01*
X21462118Y-49702793D01*
X21590295Y-49747644D01*
X21590301Y-49747646D01*
X21620734Y-49750500D01*
X22245613Y-49750500D01*
X22297939Y-49772174D01*
X24486229Y-51960464D01*
X24507903Y-52012669D01*
X24524999Y-62474999D01*
X24525000Y-62474999D01*
X24525000Y-62475000D01*
X32150367Y-62461234D01*
X32202731Y-62482814D01*
X32224500Y-62535100D01*
X32224500Y-62986631D01*
X32202826Y-63038957D01*
X32150500Y-63060631D01*
X32113501Y-63050717D01*
X32101194Y-63043611D01*
X32101181Y-63043606D01*
X31973894Y-63009500D01*
X31973892Y-63009500D01*
X29459684Y-63009500D01*
X29424059Y-62998693D01*
X29423965Y-62998922D01*
X29421643Y-62997960D01*
X29418573Y-62997029D01*
X29417232Y-62996133D01*
X29397736Y-62992255D01*
X29358748Y-62984500D01*
X27791252Y-62984500D01*
X27762010Y-62990316D01*
X27732767Y-62996133D01*
X27666449Y-63040447D01*
X27666447Y-63040449D01*
X27622133Y-63106767D01*
X27614377Y-63145757D01*
X27610500Y-63165252D01*
X27610500Y-63854748D01*
X27618255Y-63893736D01*
X27622133Y-63913232D01*
X27643027Y-63944501D01*
X27666448Y-63979552D01*
X27693797Y-63997826D01*
X27732767Y-64023866D01*
X27732768Y-64023866D01*
X27732769Y-64023867D01*
X27791252Y-64035500D01*
X27791254Y-64035500D01*
X29358746Y-64035500D01*
X29358748Y-64035500D01*
X29417231Y-64023867D01*
X29417662Y-64023578D01*
X29418573Y-64022971D01*
X29421643Y-64022039D01*
X29423965Y-64021078D01*
X29424059Y-64021306D01*
X29459684Y-64010500D01*
X31670034Y-64010500D01*
X31722360Y-64032174D01*
X32324500Y-64634314D01*
X32777500Y-65087314D01*
X32870686Y-65180500D01*
X32984814Y-65246392D01*
X33112105Y-65280499D01*
X33112106Y-65280500D01*
X33112108Y-65280500D01*
X33112316Y-65280500D01*
X33112476Y-65280548D01*
X33116915Y-65281133D01*
X33116818Y-65281865D01*
X33147940Y-65291306D01*
X33148035Y-65291078D01*
X33150356Y-65292039D01*
X33153427Y-65292971D01*
X33154767Y-65293866D01*
X33154769Y-65293867D01*
X33213252Y-65305500D01*
X33213254Y-65305500D01*
X34780746Y-65305500D01*
X34780748Y-65305500D01*
X34839231Y-65293867D01*
X34839662Y-65293578D01*
X34840573Y-65292971D01*
X34843643Y-65292039D01*
X34845965Y-65291078D01*
X34846059Y-65291306D01*
X34881684Y-65280500D01*
X35349260Y-65280500D01*
X35382854Y-65288565D01*
X35502874Y-65349719D01*
X35602511Y-65365500D01*
X35602512Y-65365500D01*
X36169489Y-65365500D01*
X36219307Y-65357609D01*
X36269126Y-65349719D01*
X36389220Y-65288528D01*
X36484528Y-65193220D01*
X36545719Y-65073126D01*
X36561500Y-64973488D01*
X36561500Y-64456512D01*
X36545719Y-64356874D01*
X36484528Y-64236780D01*
X36389220Y-64141472D01*
X36308677Y-64100433D01*
X36271896Y-64057367D01*
X36276340Y-64000904D01*
X36319407Y-63964122D01*
X36342274Y-63960500D01*
X41199311Y-63960500D01*
X41199311Y-63960499D01*
X41296342Y-63934500D01*
X41313887Y-63929799D01*
X41416614Y-63870489D01*
X43798175Y-61488927D01*
X43850500Y-61467254D01*
X43902826Y-61488928D01*
X43924500Y-61541254D01*
X43924500Y-61557745D01*
X43902826Y-61610071D01*
X38665071Y-66847826D01*
X38612745Y-66869500D01*
X34955256Y-66869500D01*
X34913221Y-66852088D01*
X34911612Y-66854497D01*
X34839232Y-66806133D01*
X34839233Y-66806133D01*
X34809989Y-66800316D01*
X34780748Y-66794500D01*
X33213252Y-66794500D01*
X33184010Y-66800316D01*
X33154767Y-66806133D01*
X33088449Y-66850447D01*
X33088447Y-66850449D01*
X33044133Y-66916767D01*
X33044133Y-66916769D01*
X33032500Y-66975252D01*
X33032500Y-67664748D01*
X33040255Y-67703736D01*
X33044133Y-67723232D01*
X33055204Y-67739800D01*
X33088448Y-67789552D01*
X33127994Y-67815976D01*
X33154767Y-67833866D01*
X33154768Y-67833866D01*
X33154769Y-67833867D01*
X33213252Y-67845500D01*
X33213254Y-67845500D01*
X34780746Y-67845500D01*
X34780748Y-67845500D01*
X34839231Y-67833867D01*
X34905552Y-67789552D01*
X34905551Y-67789552D01*
X34911612Y-67785503D01*
X34913221Y-67787911D01*
X34955256Y-67770500D01*
X38889309Y-67770500D01*
X38979673Y-67746286D01*
X38979674Y-67746286D01*
X38990350Y-67743425D01*
X39003887Y-67739799D01*
X39106614Y-67680489D01*
X40126350Y-66660753D01*
X43399500Y-66660753D01*
X43399500Y-67164246D01*
X43415049Y-67262420D01*
X43475340Y-67380749D01*
X43569250Y-67474659D01*
X43614271Y-67497598D01*
X43687579Y-67534950D01*
X43687579Y-67534951D01*
X43785753Y-67550500D01*
X43785754Y-67550500D01*
X44364247Y-67550500D01*
X44462420Y-67534951D01*
X44580751Y-67474658D01*
X44674658Y-67380751D01*
X44734951Y-67262420D01*
X44750500Y-67164246D01*
X44750500Y-66685753D01*
X45024500Y-66685753D01*
X45024500Y-67189246D01*
X45040049Y-67287420D01*
X45100340Y-67405749D01*
X45194250Y-67499659D01*
X45218781Y-67512158D01*
X45312579Y-67559950D01*
X45312579Y-67559951D01*
X45410753Y-67575500D01*
X45410754Y-67575500D01*
X45989247Y-67575500D01*
X46087420Y-67559951D01*
X46205751Y-67499658D01*
X46299658Y-67405751D01*
X46359951Y-67287420D01*
X46375500Y-67189246D01*
X46375500Y-66698253D01*
X46649500Y-66698253D01*
X46649500Y-67201746D01*
X46665049Y-67299920D01*
X46725340Y-67418249D01*
X46819250Y-67512159D01*
X46878414Y-67542304D01*
X46937579Y-67572450D01*
X46937579Y-67572451D01*
X47035753Y-67588000D01*
X47035754Y-67588000D01*
X47614247Y-67588000D01*
X47712420Y-67572451D01*
X47830751Y-67512158D01*
X47924658Y-67418251D01*
X47984951Y-67299920D01*
X48000500Y-67201746D01*
X48000500Y-66698254D01*
X48000500Y-66698253D01*
X48249500Y-66698253D01*
X48249500Y-67201746D01*
X48265049Y-67299920D01*
X48325340Y-67418249D01*
X48419250Y-67512159D01*
X48478414Y-67542304D01*
X48537579Y-67572450D01*
X48537579Y-67572451D01*
X48635753Y-67588000D01*
X48635754Y-67588000D01*
X49214247Y-67588000D01*
X49312420Y-67572451D01*
X49430751Y-67512158D01*
X49521374Y-67421535D01*
X50539500Y-67421535D01*
X50539500Y-67628464D01*
X50579868Y-67831413D01*
X50579870Y-67831420D01*
X50659059Y-68022598D01*
X50773268Y-68193526D01*
X50774023Y-68194655D01*
X50920345Y-68340977D01*
X51092402Y-68455941D01*
X51283580Y-68535130D01*
X51486535Y-68575500D01*
X51486536Y-68575500D01*
X51693464Y-68575500D01*
X51693465Y-68575500D01*
X51896420Y-68535130D01*
X52087598Y-68455941D01*
X52259655Y-68340977D01*
X52405977Y-68194655D01*
X52520941Y-68022598D01*
X52600130Y-67831420D01*
X52640500Y-67628465D01*
X52640500Y-67421535D01*
X52600130Y-67218580D01*
X52520941Y-67027402D01*
X52405977Y-66855345D01*
X52259655Y-66709023D01*
X52259652Y-66709021D01*
X52087598Y-66594059D01*
X51896420Y-66514870D01*
X51896413Y-66514868D01*
X51729908Y-66481749D01*
X51693465Y-66474500D01*
X51486535Y-66474500D01*
X51450092Y-66481749D01*
X51283586Y-66514868D01*
X51283579Y-66514870D01*
X51092401Y-66594059D01*
X50920345Y-66709022D01*
X50920344Y-66709024D01*
X50774024Y-66855344D01*
X50774022Y-66855345D01*
X50659059Y-67027401D01*
X50579870Y-67218579D01*
X50579868Y-67218586D01*
X50539500Y-67421535D01*
X49521374Y-67421535D01*
X49524658Y-67418251D01*
X49584951Y-67299920D01*
X49600500Y-67201746D01*
X49600500Y-66698254D01*
X49584951Y-66600080D01*
X49536681Y-66505345D01*
X49524659Y-66481750D01*
X49430751Y-66387842D01*
X49365904Y-66354800D01*
X49329122Y-66311733D01*
X49325500Y-66288866D01*
X49325500Y-65771543D01*
X49347173Y-65719218D01*
X51720910Y-63345481D01*
X51720913Y-63345480D01*
X51795480Y-63270913D01*
X51848207Y-63179587D01*
X51866987Y-63109500D01*
X51875501Y-63077727D01*
X51875501Y-62972273D01*
X51875501Y-62967744D01*
X51875500Y-62967726D01*
X51875500Y-62430892D01*
X51897174Y-62378566D01*
X51915897Y-62364962D01*
X51988342Y-62328050D01*
X52078050Y-62238342D01*
X52135646Y-62125304D01*
X52150500Y-62031519D01*
X52150499Y-61568482D01*
X52147523Y-61549693D01*
X52135646Y-61474695D01*
X52135645Y-61474693D01*
X52090788Y-61386658D01*
X52078050Y-61361658D01*
X51988342Y-61271950D01*
X51875304Y-61214354D01*
X51875302Y-61214353D01*
X51875301Y-61214353D01*
X51781519Y-61199500D01*
X51168480Y-61199500D01*
X51074695Y-61214353D01*
X51074693Y-61214354D01*
X50961657Y-61271950D01*
X50871951Y-61361656D01*
X50814353Y-61474698D01*
X50799500Y-61568480D01*
X50799500Y-62031519D01*
X50814353Y-62125304D01*
X50814354Y-62125306D01*
X50871950Y-62238342D01*
X50961658Y-62328050D01*
X51034097Y-62364959D01*
X51070878Y-62408024D01*
X51074500Y-62430892D01*
X51074500Y-62828455D01*
X51052826Y-62880781D01*
X48604517Y-65329090D01*
X48551795Y-65420407D01*
X48551793Y-65420411D01*
X48551793Y-65420412D01*
X48529373Y-65504090D01*
X48526570Y-65514550D01*
X48526568Y-65514555D01*
X48524500Y-65522270D01*
X48524500Y-66288866D01*
X48502826Y-66341192D01*
X48484096Y-66354800D01*
X48419248Y-66387842D01*
X48325340Y-66481750D01*
X48265049Y-66600079D01*
X48265048Y-66600079D01*
X48249500Y-66698253D01*
X48000500Y-66698253D01*
X47984951Y-66600080D01*
X47936681Y-66505345D01*
X47924659Y-66481750D01*
X47830751Y-66387842D01*
X47765904Y-66354800D01*
X47729122Y-66311733D01*
X47725500Y-66288866D01*
X47725500Y-65946544D01*
X47747173Y-65894219D01*
X50295480Y-63345913D01*
X50348207Y-63254588D01*
X50375500Y-63152727D01*
X50375500Y-63047273D01*
X50375500Y-62455892D01*
X50397174Y-62403566D01*
X50415897Y-62389962D01*
X50488342Y-62353050D01*
X50578050Y-62263342D01*
X50635646Y-62150304D01*
X50650500Y-62056519D01*
X50650499Y-61593482D01*
X50646539Y-61568480D01*
X50635646Y-61499695D01*
X50635645Y-61499693D01*
X50590788Y-61411658D01*
X50578050Y-61386658D01*
X50488342Y-61296950D01*
X50375304Y-61239354D01*
X50375302Y-61239353D01*
X50375301Y-61239353D01*
X50281519Y-61224500D01*
X49668480Y-61224500D01*
X49574695Y-61239353D01*
X49574693Y-61239354D01*
X49461657Y-61296950D01*
X49371951Y-61386656D01*
X49314353Y-61499698D01*
X49299500Y-61593480D01*
X49299500Y-62056519D01*
X49314353Y-62150304D01*
X49314354Y-62150306D01*
X49339830Y-62200304D01*
X49371950Y-62263342D01*
X49461658Y-62353050D01*
X49534097Y-62389959D01*
X49570878Y-62433024D01*
X49574500Y-62455892D01*
X49574500Y-62903455D01*
X49552826Y-62955781D01*
X47004517Y-65504090D01*
X46951795Y-65595407D01*
X46951793Y-65595411D01*
X46926507Y-65689784D01*
X46924500Y-65697273D01*
X46924500Y-66288866D01*
X46902826Y-66341192D01*
X46884096Y-66354800D01*
X46819248Y-66387842D01*
X46725340Y-66481750D01*
X46665049Y-66600079D01*
X46665048Y-66600079D01*
X46649500Y-66698253D01*
X46375500Y-66698253D01*
X46375500Y-66685754D01*
X46359951Y-66587580D01*
X46318050Y-66505345D01*
X46299659Y-66469250D01*
X46205751Y-66375342D01*
X46140904Y-66342300D01*
X46104122Y-66299233D01*
X46100500Y-66276366D01*
X46100500Y-66071544D01*
X46122173Y-66019219D01*
X48770480Y-63370913D01*
X48823207Y-63279588D01*
X48850500Y-63177727D01*
X48850500Y-63072273D01*
X48850500Y-62480892D01*
X48872174Y-62428566D01*
X48890897Y-62414962D01*
X48963342Y-62378050D01*
X49053050Y-62288342D01*
X49110646Y-62175304D01*
X49125500Y-62081519D01*
X49125499Y-61618482D01*
X49121539Y-61593480D01*
X49110646Y-61524695D01*
X49110645Y-61524693D01*
X49080770Y-61466061D01*
X49053050Y-61411658D01*
X48963342Y-61321950D01*
X48850304Y-61264354D01*
X48850302Y-61264353D01*
X48850301Y-61264353D01*
X48756519Y-61249500D01*
X48143480Y-61249500D01*
X48049695Y-61264353D01*
X48049693Y-61264354D01*
X47936657Y-61321950D01*
X47846951Y-61411656D01*
X47789353Y-61524698D01*
X47774500Y-61618480D01*
X47774500Y-62081519D01*
X47789353Y-62175304D01*
X47789354Y-62175306D01*
X47846950Y-62288342D01*
X47936658Y-62378050D01*
X48009097Y-62414959D01*
X48045878Y-62458024D01*
X48049500Y-62480892D01*
X48049500Y-62928455D01*
X48027826Y-62980781D01*
X45379517Y-65629090D01*
X45326795Y-65720407D01*
X45326793Y-65720411D01*
X45306942Y-65794500D01*
X45306941Y-65794501D01*
X45299500Y-65822270D01*
X45299500Y-66276366D01*
X45277826Y-66328692D01*
X45259096Y-66342300D01*
X45194248Y-66375342D01*
X45100340Y-66469250D01*
X45040049Y-66587579D01*
X45040048Y-66587579D01*
X45024500Y-66685753D01*
X44750500Y-66685753D01*
X44750500Y-66660754D01*
X44734951Y-66562580D01*
X44687396Y-66469249D01*
X44674659Y-66444250D01*
X44580751Y-66350342D01*
X44515904Y-66317300D01*
X44508172Y-66308247D01*
X44497174Y-66303692D01*
X44490480Y-66287532D01*
X44479122Y-66274233D01*
X44475500Y-66251366D01*
X44475500Y-66171545D01*
X44497174Y-66119219D01*
X45849980Y-64766413D01*
X47220480Y-63395913D01*
X47255005Y-63336113D01*
X47273207Y-63304587D01*
X47300500Y-63202727D01*
X47300500Y-62505892D01*
X47322174Y-62453566D01*
X47340897Y-62439962D01*
X47413342Y-62403050D01*
X47503050Y-62313342D01*
X47560646Y-62200304D01*
X47575500Y-62106519D01*
X47575499Y-61643482D01*
X47571539Y-61618480D01*
X47560646Y-61549695D01*
X47560645Y-61549693D01*
X47522430Y-61474693D01*
X47503050Y-61436658D01*
X47413342Y-61346950D01*
X47300304Y-61289354D01*
X47300302Y-61289353D01*
X47300301Y-61289353D01*
X47206519Y-61274500D01*
X46593480Y-61274500D01*
X46499695Y-61289353D01*
X46499693Y-61289354D01*
X46386657Y-61346950D01*
X46296951Y-61436656D01*
X46239353Y-61549698D01*
X46224500Y-61643480D01*
X46224500Y-62106519D01*
X46239353Y-62200304D01*
X46239354Y-62200306D01*
X46275790Y-62271814D01*
X46296950Y-62313342D01*
X46386658Y-62403050D01*
X46459097Y-62439959D01*
X46495878Y-62483024D01*
X46499500Y-62505892D01*
X46499500Y-62953455D01*
X46477826Y-63005781D01*
X43754517Y-65729090D01*
X43701795Y-65820407D01*
X43701791Y-65820416D01*
X43692831Y-65853855D01*
X43692832Y-65853856D01*
X43676210Y-65915893D01*
X43674500Y-65922274D01*
X43674500Y-66251366D01*
X43652826Y-66303692D01*
X43634096Y-66317300D01*
X43569248Y-66350342D01*
X43475340Y-66444250D01*
X43415049Y-66562579D01*
X43415048Y-66562579D01*
X43399500Y-66660753D01*
X40126350Y-66660753D01*
X44735489Y-62051614D01*
X44794799Y-61948887D01*
X44812771Y-61881814D01*
X44825500Y-61834309D01*
X44825500Y-59993480D01*
X46224500Y-59993480D01*
X46224500Y-60456519D01*
X46239353Y-60550304D01*
X46239354Y-60550306D01*
X46271474Y-60613343D01*
X46296950Y-60663342D01*
X46386658Y-60753050D01*
X46499696Y-60810646D01*
X46593481Y-60825500D01*
X47206518Y-60825499D01*
X47206519Y-60825499D01*
X47300304Y-60810646D01*
X47300306Y-60810645D01*
X47302419Y-60809568D01*
X47413342Y-60753050D01*
X47503050Y-60663342D01*
X47560646Y-60550304D01*
X47575500Y-60456519D01*
X47575499Y-59993482D01*
X47571539Y-59968480D01*
X47560646Y-59899695D01*
X47560645Y-59899693D01*
X47503049Y-59786657D01*
X47468718Y-59752326D01*
X47468702Y-59752289D01*
X47468666Y-59752274D01*
X47457888Y-59726181D01*
X47447044Y-59700000D01*
X47447059Y-59699963D01*
X47447044Y-59699926D01*
X47457940Y-59673692D01*
X47468717Y-59647675D01*
X47469271Y-59647122D01*
X47521545Y-59625500D01*
X47804456Y-59625500D01*
X47856782Y-59647174D01*
X47878456Y-59699500D01*
X47856782Y-59751826D01*
X47846951Y-59761656D01*
X47789353Y-59874698D01*
X47774500Y-59968480D01*
X47774500Y-60431519D01*
X47789353Y-60525304D01*
X47789354Y-60525306D01*
X47821474Y-60588343D01*
X47846950Y-60638342D01*
X47936658Y-60728050D01*
X48049696Y-60785646D01*
X48143481Y-60800500D01*
X48756518Y-60800499D01*
X48756519Y-60800499D01*
X48850304Y-60785646D01*
X48850306Y-60785645D01*
X48852419Y-60784568D01*
X48963342Y-60728050D01*
X49053050Y-60638342D01*
X49110646Y-60525304D01*
X49125500Y-60431519D01*
X49125499Y-60121543D01*
X49147172Y-60069219D01*
X49173175Y-60043216D01*
X49225500Y-60021543D01*
X49277826Y-60043217D01*
X49299500Y-60095543D01*
X49299500Y-60406519D01*
X49314353Y-60500304D01*
X49314354Y-60500306D01*
X49339830Y-60550304D01*
X49371950Y-60613342D01*
X49461658Y-60703050D01*
X49574696Y-60760646D01*
X49668481Y-60775500D01*
X50281518Y-60775499D01*
X50281519Y-60775499D01*
X50375304Y-60760646D01*
X50375306Y-60760645D01*
X50377419Y-60759568D01*
X50488342Y-60703050D01*
X50578050Y-60613342D01*
X50635646Y-60500304D01*
X50650500Y-60406519D01*
X50650499Y-59943482D01*
X50646539Y-59918480D01*
X50635646Y-59849697D01*
X50635646Y-59849696D01*
X50603026Y-59785678D01*
X50598583Y-59729216D01*
X50616635Y-59699757D01*
X50797286Y-59519106D01*
X50948175Y-59368217D01*
X51000500Y-59346544D01*
X51052826Y-59368218D01*
X51074500Y-59420544D01*
X51074500Y-59519106D01*
X51052826Y-59571432D01*
X51034096Y-59585040D01*
X50961657Y-59621950D01*
X50871951Y-59711656D01*
X50814353Y-59824698D01*
X50799500Y-59918480D01*
X50799500Y-60381519D01*
X50814353Y-60475304D01*
X50814354Y-60475306D01*
X50871950Y-60588342D01*
X50961658Y-60678050D01*
X51074696Y-60735646D01*
X51168481Y-60750500D01*
X51781518Y-60750499D01*
X51781519Y-60750499D01*
X51875304Y-60735646D01*
X51875306Y-60735645D01*
X51890216Y-60728048D01*
X51988342Y-60678050D01*
X52078050Y-60588342D01*
X52135646Y-60475304D01*
X52150500Y-60381519D01*
X52150499Y-59918482D01*
X52147523Y-59899693D01*
X52135646Y-59824695D01*
X52135645Y-59824693D01*
X52098771Y-59752326D01*
X52078050Y-59711658D01*
X51988342Y-59621950D01*
X51936391Y-59595479D01*
X51915904Y-59585040D01*
X51908173Y-59575987D01*
X51897174Y-59571432D01*
X51890479Y-59555270D01*
X51879122Y-59541972D01*
X51875500Y-59519106D01*
X51875500Y-59471544D01*
X51897173Y-59419219D01*
X53423175Y-57893217D01*
X53475500Y-57871544D01*
X53527826Y-57893218D01*
X53549500Y-57945544D01*
X53549500Y-66609897D01*
X53527826Y-66662223D01*
X53516613Y-66671425D01*
X53460350Y-66709018D01*
X53460347Y-66709021D01*
X53314023Y-66855344D01*
X53314022Y-66855345D01*
X53199059Y-67027401D01*
X53119870Y-67218579D01*
X53119868Y-67218586D01*
X53079500Y-67421535D01*
X53079500Y-67628464D01*
X53119868Y-67831413D01*
X53119870Y-67831420D01*
X53199059Y-68022598D01*
X53313268Y-68193526D01*
X53314023Y-68194655D01*
X53460345Y-68340977D01*
X53632402Y-68455941D01*
X53823580Y-68535130D01*
X54026535Y-68575500D01*
X54026536Y-68575500D01*
X54233464Y-68575500D01*
X54233465Y-68575500D01*
X54436420Y-68535130D01*
X54627598Y-68455941D01*
X54799655Y-68340977D01*
X54945977Y-68194655D01*
X55060941Y-68022598D01*
X55140130Y-67831420D01*
X55180500Y-67628465D01*
X55180500Y-67421535D01*
X55140130Y-67218580D01*
X55060941Y-67027402D01*
X54945977Y-66855345D01*
X54799655Y-66709023D01*
X54799652Y-66709021D01*
X54627598Y-66594059D01*
X54496181Y-66539623D01*
X54456133Y-66499574D01*
X54450500Y-66471256D01*
X54450500Y-56034733D01*
X54450499Y-56034719D01*
X54450499Y-55436862D01*
X54444259Y-55389456D01*
X54444259Y-55389455D01*
X54395747Y-55285421D01*
X54314579Y-55204253D01*
X54210545Y-55155741D01*
X54210543Y-55155740D01*
X54175619Y-55151142D01*
X54163139Y-55149500D01*
X54163137Y-55149500D01*
X53836862Y-55149500D01*
X53789456Y-55155740D01*
X53789454Y-55155741D01*
X53685420Y-55204253D01*
X53652326Y-55237348D01*
X53600000Y-55259022D01*
X53547674Y-55237348D01*
X53514579Y-55204253D01*
X53478431Y-55187397D01*
X53410545Y-55155741D01*
X53410543Y-55155740D01*
X53375619Y-55151142D01*
X53363139Y-55149500D01*
X53363137Y-55149500D01*
X53036862Y-55149500D01*
X52989456Y-55155740D01*
X52989454Y-55155741D01*
X52885420Y-55204253D01*
X52852326Y-55237348D01*
X52800000Y-55259022D01*
X52747674Y-55237348D01*
X52714579Y-55204253D01*
X52678431Y-55187397D01*
X52610545Y-55155741D01*
X52610543Y-55155740D01*
X52575619Y-55151142D01*
X52563139Y-55149500D01*
X52563137Y-55149500D01*
X52236862Y-55149500D01*
X52189456Y-55155740D01*
X52189454Y-55155741D01*
X52085420Y-55204253D01*
X52052326Y-55237348D01*
X52000000Y-55259022D01*
X51947674Y-55237348D01*
X51914579Y-55204253D01*
X51878431Y-55187397D01*
X51810545Y-55155741D01*
X51810543Y-55155740D01*
X51775619Y-55151142D01*
X51763139Y-55149500D01*
X51763137Y-55149500D01*
X51436862Y-55149500D01*
X51389456Y-55155740D01*
X51389454Y-55155741D01*
X51285420Y-55204253D01*
X51252326Y-55237348D01*
X51200000Y-55259022D01*
X51147674Y-55237348D01*
X51114579Y-55204253D01*
X51078431Y-55187397D01*
X51010545Y-55155741D01*
X51010543Y-55155740D01*
X50975619Y-55151142D01*
X50963139Y-55149500D01*
X50963137Y-55149500D01*
X50636862Y-55149500D01*
X50589456Y-55155740D01*
X50589454Y-55155741D01*
X50485420Y-55204253D01*
X50452326Y-55237348D01*
X50400000Y-55259022D01*
X50347674Y-55237348D01*
X50314579Y-55204253D01*
X50278431Y-55187397D01*
X50210545Y-55155741D01*
X50210543Y-55155740D01*
X50175619Y-55151142D01*
X50163139Y-55149500D01*
X50163137Y-55149500D01*
X49836862Y-55149500D01*
X49789456Y-55155740D01*
X49789454Y-55155741D01*
X49685420Y-55204253D01*
X49652326Y-55237348D01*
X49600000Y-55259022D01*
X49547674Y-55237348D01*
X49514579Y-55204253D01*
X49478431Y-55187397D01*
X49410545Y-55155741D01*
X49410543Y-55155740D01*
X49375619Y-55151142D01*
X49363139Y-55149500D01*
X49363137Y-55149500D01*
X49036862Y-55149500D01*
X48989456Y-55155740D01*
X48989454Y-55155741D01*
X48885420Y-55204253D01*
X48852326Y-55237348D01*
X48800000Y-55259022D01*
X48747674Y-55237348D01*
X48714579Y-55204253D01*
X48678431Y-55187397D01*
X48610545Y-55155741D01*
X48610543Y-55155740D01*
X48575619Y-55151142D01*
X48563139Y-55149500D01*
X48563137Y-55149500D01*
X48236862Y-55149500D01*
X48189456Y-55155740D01*
X48189454Y-55155741D01*
X48085420Y-55204253D01*
X48004253Y-55285420D01*
X47955740Y-55389456D01*
X47949500Y-55436862D01*
X47949500Y-56763137D01*
X47955740Y-56810543D01*
X47955741Y-56810545D01*
X48004253Y-56914579D01*
X48085421Y-56995747D01*
X48189455Y-57044259D01*
X48236861Y-57050500D01*
X48563138Y-57050499D01*
X48610545Y-57044259D01*
X48714579Y-56995747D01*
X48747674Y-56962652D01*
X48800000Y-56940978D01*
X48852326Y-56962652D01*
X48885421Y-56995747D01*
X48989455Y-57044259D01*
X49036861Y-57050500D01*
X49363138Y-57050499D01*
X49410545Y-57044259D01*
X49514579Y-56995747D01*
X49547674Y-56962652D01*
X49600000Y-56940978D01*
X49652326Y-56962652D01*
X49685421Y-56995747D01*
X49789455Y-57044259D01*
X49836861Y-57050500D01*
X49929454Y-57050499D01*
X49981779Y-57072173D01*
X50003454Y-57124498D01*
X49981780Y-57176824D01*
X49981780Y-57176825D01*
X48355781Y-58802826D01*
X48303455Y-58824500D01*
X47377727Y-58824500D01*
X47272273Y-58824500D01*
X47221342Y-58838146D01*
X47170411Y-58851793D01*
X47170407Y-58851795D01*
X47079090Y-58904517D01*
X46554517Y-59429090D01*
X46501795Y-59520407D01*
X46501791Y-59520416D01*
X46481678Y-59595479D01*
X46481679Y-59595480D01*
X46473743Y-59625098D01*
X46439264Y-59670032D01*
X46435860Y-59671880D01*
X46386657Y-59696950D01*
X46296951Y-59786656D01*
X46239353Y-59899698D01*
X46224500Y-59993480D01*
X44825500Y-59993480D01*
X44825500Y-55792255D01*
X44847174Y-55739929D01*
X45389929Y-55197174D01*
X45442255Y-55175500D01*
X47092921Y-55175500D01*
X47092929Y-55175499D01*
X47688138Y-55175499D01*
X47735545Y-55169259D01*
X47839579Y-55120747D01*
X47920747Y-55039579D01*
X47969259Y-54935545D01*
X47975500Y-54888139D01*
X47975499Y-54561862D01*
X47969259Y-54514455D01*
X47920747Y-54410421D01*
X47887652Y-54377326D01*
X47865978Y-54325000D01*
X47887652Y-54272674D01*
X47920747Y-54239579D01*
X47969259Y-54135545D01*
X47975500Y-54088139D01*
X47975499Y-53761862D01*
X47969259Y-53714455D01*
X47920747Y-53610421D01*
X47887652Y-53577326D01*
X47865978Y-53525000D01*
X47887652Y-53472674D01*
X47920747Y-53439579D01*
X47969259Y-53335545D01*
X47975500Y-53288139D01*
X47975499Y-52961862D01*
X47969259Y-52914455D01*
X47920747Y-52810421D01*
X47887652Y-52777326D01*
X47865978Y-52725000D01*
X47887652Y-52672674D01*
X47920747Y-52639579D01*
X47969259Y-52535545D01*
X47975500Y-52488139D01*
X47975499Y-52161862D01*
X47969259Y-52114455D01*
X47920747Y-52010421D01*
X47887652Y-51977326D01*
X47865978Y-51925000D01*
X47887652Y-51872674D01*
X47920747Y-51839579D01*
X47969259Y-51735545D01*
X47975500Y-51688139D01*
X47975499Y-51361862D01*
X47969259Y-51314455D01*
X47920747Y-51210421D01*
X47887652Y-51177326D01*
X47865978Y-51125000D01*
X47887652Y-51072674D01*
X47920747Y-51039579D01*
X47969259Y-50935545D01*
X47975500Y-50888139D01*
X47975499Y-50561862D01*
X47969259Y-50514455D01*
X47920747Y-50410421D01*
X47887652Y-50377326D01*
X47865978Y-50325000D01*
X47887652Y-50272674D01*
X47898791Y-50261535D01*
X47920747Y-50239579D01*
X47969259Y-50135545D01*
X47975500Y-50088139D01*
X47975499Y-49761862D01*
X47969259Y-49714455D01*
X47920747Y-49610421D01*
X47887652Y-49577326D01*
X47865978Y-49525000D01*
X47887652Y-49472674D01*
X47920747Y-49439579D01*
X47969259Y-49335545D01*
X47975500Y-49288139D01*
X47975499Y-48961862D01*
X47969259Y-48914455D01*
X47920747Y-48810421D01*
X47839579Y-48729253D01*
X47735545Y-48680741D01*
X47735543Y-48680740D01*
X47700619Y-48676142D01*
X47688139Y-48674500D01*
X47688137Y-48674500D01*
X46167255Y-48674500D01*
X46114929Y-48652826D01*
X45897174Y-48435071D01*
X45875500Y-48382745D01*
X45875500Y-43466511D01*
X46774500Y-43466511D01*
X46774500Y-43983488D01*
X46790280Y-44083125D01*
X46790281Y-44083126D01*
X46838733Y-44178220D01*
X46851472Y-44203220D01*
X46946780Y-44298528D01*
X46959094Y-44304802D01*
X46995877Y-44347867D01*
X46999500Y-44370737D01*
X46999500Y-44484311D01*
X47015205Y-44542922D01*
X47015205Y-44542923D01*
X47030199Y-44598882D01*
X47030203Y-44598891D01*
X47089508Y-44701610D01*
X47089509Y-44701611D01*
X47089511Y-44701614D01*
X47798386Y-45410489D01*
X47846629Y-45438342D01*
X47901114Y-45469799D01*
X47901115Y-45469799D01*
X47901117Y-45469800D01*
X47958402Y-45485149D01*
X48015688Y-45500499D01*
X48015689Y-45500500D01*
X48015691Y-45500500D01*
X49475500Y-45500500D01*
X49527826Y-45522174D01*
X49549500Y-45574500D01*
X49549500Y-46754380D01*
X49527826Y-46806706D01*
X49475500Y-46828380D01*
X49444227Y-46821447D01*
X49410545Y-46805741D01*
X49410543Y-46805740D01*
X49375619Y-46801142D01*
X49363139Y-46799500D01*
X49363137Y-46799500D01*
X49036862Y-46799500D01*
X48989456Y-46805740D01*
X48989453Y-46805741D01*
X48964444Y-46817403D01*
X48907861Y-46819872D01*
X48866104Y-46781607D01*
X48863635Y-46725024D01*
X48864806Y-46722013D01*
X48866388Y-46718192D01*
X48866392Y-46718186D01*
X48900500Y-46590892D01*
X48900500Y-46459108D01*
X48900500Y-46459106D01*
X48900499Y-46459105D01*
X48885888Y-46404577D01*
X48866392Y-46331814D01*
X48800500Y-46217686D01*
X48707314Y-46124500D01*
X48652623Y-46092924D01*
X48593190Y-46058610D01*
X48593181Y-46058606D01*
X48465894Y-46024500D01*
X48465892Y-46024500D01*
X48334108Y-46024500D01*
X48334106Y-46024500D01*
X48206818Y-46058606D01*
X48206809Y-46058610D01*
X48092685Y-46124500D01*
X47999500Y-46217685D01*
X47933610Y-46331809D01*
X47933606Y-46331818D01*
X47899500Y-46459105D01*
X47899500Y-46459108D01*
X47899500Y-46590892D01*
X47933608Y-46718186D01*
X47933609Y-46718188D01*
X47939584Y-46728536D01*
X47949500Y-46765539D01*
X47949500Y-48413137D01*
X47955740Y-48460543D01*
X47955741Y-48460545D01*
X48004253Y-48564579D01*
X48085421Y-48645747D01*
X48189455Y-48694259D01*
X48236861Y-48700500D01*
X48563138Y-48700499D01*
X48599267Y-48695743D01*
X48653973Y-48710403D01*
X48682291Y-48759452D01*
X48667631Y-48814159D01*
X48645925Y-48833195D01*
X48617686Y-48849499D01*
X48524500Y-48942685D01*
X48458610Y-49056809D01*
X48458606Y-49056818D01*
X48424500Y-49184105D01*
X48424500Y-49315894D01*
X48458606Y-49443181D01*
X48458610Y-49443190D01*
X48498847Y-49512882D01*
X48524500Y-49557314D01*
X48617686Y-49650500D01*
X48731814Y-49716392D01*
X48859105Y-49750499D01*
X48859106Y-49750500D01*
X48859108Y-49750500D01*
X48990894Y-49750500D01*
X48990894Y-49750499D01*
X49118186Y-49716392D01*
X49232314Y-49650500D01*
X49325500Y-49557314D01*
X49391392Y-49443186D01*
X49394486Y-49431637D01*
X49413636Y-49398466D01*
X49560490Y-49251614D01*
X49619799Y-49148887D01*
X49635392Y-49090691D01*
X49650500Y-49034309D01*
X49650500Y-48745619D01*
X49672174Y-48693293D01*
X49724500Y-48671619D01*
X49755772Y-48678552D01*
X49789455Y-48694259D01*
X49836861Y-48700500D01*
X50163138Y-48700499D01*
X50210545Y-48694259D01*
X50314579Y-48645747D01*
X50395747Y-48564579D01*
X50444259Y-48460545D01*
X50450500Y-48413139D01*
X50450500Y-47756007D01*
X50450500Y-45267254D01*
X50472173Y-45214929D01*
X50885489Y-44801614D01*
X50944799Y-44698887D01*
X50958985Y-44645943D01*
X50975500Y-44584309D01*
X50975500Y-44330416D01*
X50980056Y-44319416D01*
X50979122Y-44307547D01*
X50990481Y-44294247D01*
X50997174Y-44278090D01*
X51015903Y-44264482D01*
X51038342Y-44253050D01*
X51038342Y-44253049D01*
X51041906Y-44251234D01*
X51098369Y-44246791D01*
X51141435Y-44283575D01*
X51149500Y-44317169D01*
X51149500Y-50034460D01*
X51139587Y-50071457D01*
X51133608Y-50081814D01*
X51133608Y-50081815D01*
X51133606Y-50081818D01*
X51099500Y-50209105D01*
X51099500Y-50340894D01*
X51133606Y-50468181D01*
X51133610Y-50468190D01*
X51133769Y-50468465D01*
X51199500Y-50582314D01*
X51292686Y-50675500D01*
X51406814Y-50741392D01*
X51534105Y-50775499D01*
X51534106Y-50775500D01*
X51534108Y-50775500D01*
X51665894Y-50775500D01*
X51665894Y-50775499D01*
X51793186Y-50741392D01*
X51907314Y-50675500D01*
X52000500Y-50582314D01*
X52066392Y-50468186D01*
X52100499Y-50340894D01*
X52100500Y-50340894D01*
X52100500Y-50209106D01*
X52100499Y-50209105D01*
X52100134Y-50207744D01*
X52066392Y-50081814D01*
X52060412Y-50071457D01*
X52050500Y-50034460D01*
X52050500Y-48745619D01*
X52072174Y-48693293D01*
X52124500Y-48671619D01*
X52155772Y-48678552D01*
X52189455Y-48694259D01*
X52236861Y-48700500D01*
X52563138Y-48700499D01*
X52610545Y-48694259D01*
X52714579Y-48645747D01*
X52747674Y-48612652D01*
X52800000Y-48590978D01*
X52852326Y-48612652D01*
X52885421Y-48645747D01*
X52989455Y-48694259D01*
X53036861Y-48700500D01*
X53363138Y-48700499D01*
X53410545Y-48694259D01*
X53514579Y-48645747D01*
X53547674Y-48612652D01*
X53600000Y-48590978D01*
X53652326Y-48612652D01*
X53685421Y-48645747D01*
X53789455Y-48694259D01*
X53836861Y-48700500D01*
X54163138Y-48700499D01*
X54210545Y-48694259D01*
X54314579Y-48645747D01*
X54395747Y-48564579D01*
X54444259Y-48460545D01*
X54450500Y-48413139D01*
X54450500Y-47756007D01*
X54450500Y-43990691D01*
X54450500Y-43990689D01*
X54450499Y-43990688D01*
X54419800Y-43876117D01*
X54419798Y-43876112D01*
X54398006Y-43838367D01*
X54370596Y-43790892D01*
X54360489Y-43773386D01*
X54295593Y-43708490D01*
X54294110Y-43706816D01*
X54285546Y-43682000D01*
X54275499Y-43657744D01*
X54275499Y-43418480D01*
X54260646Y-43324695D01*
X54260645Y-43324693D01*
X54226041Y-43256780D01*
X54203050Y-43211658D01*
X54113342Y-43121950D01*
X54000304Y-43064354D01*
X54000302Y-43064353D01*
X54000301Y-43064353D01*
X53906519Y-43049500D01*
X53443480Y-43049500D01*
X53349695Y-43064353D01*
X53349693Y-43064354D01*
X53236657Y-43121950D01*
X53146951Y-43211656D01*
X53089353Y-43324698D01*
X53074500Y-43418480D01*
X53074500Y-44031519D01*
X53089353Y-44125304D01*
X53089354Y-44125306D01*
X53116316Y-44178220D01*
X53146950Y-44238342D01*
X53236658Y-44328050D01*
X53349696Y-44385646D01*
X53443481Y-44400500D01*
X53475499Y-44400499D01*
X53527824Y-44422172D01*
X53549500Y-44474497D01*
X53549500Y-46754380D01*
X53527826Y-46806706D01*
X53475500Y-46828380D01*
X53444227Y-46821447D01*
X53410545Y-46805741D01*
X53410543Y-46805740D01*
X53375619Y-46801142D01*
X53363139Y-46799500D01*
X53363137Y-46799500D01*
X53036862Y-46799500D01*
X52989456Y-46805740D01*
X52989454Y-46805741D01*
X52885420Y-46854253D01*
X52852326Y-46887348D01*
X52800000Y-46909022D01*
X52747674Y-46887348D01*
X52714579Y-46854253D01*
X52649521Y-46823916D01*
X52610545Y-46805741D01*
X52610543Y-46805740D01*
X52575619Y-46801142D01*
X52563139Y-46799500D01*
X52563137Y-46799500D01*
X52236862Y-46799500D01*
X52189456Y-46805740D01*
X52189450Y-46805742D01*
X52155773Y-46821446D01*
X52099189Y-46823916D01*
X52057433Y-46785652D01*
X52050500Y-46754379D01*
X52050500Y-44474499D01*
X52072174Y-44422173D01*
X52124500Y-44400499D01*
X52256519Y-44400499D01*
X52350304Y-44385646D01*
X52350306Y-44385645D01*
X52379564Y-44370737D01*
X52463342Y-44328050D01*
X52553050Y-44238342D01*
X52610646Y-44125304D01*
X52625500Y-44031519D01*
X52625499Y-43418482D01*
X52622523Y-43399693D01*
X52610646Y-43324695D01*
X52610645Y-43324693D01*
X52576041Y-43256780D01*
X52553050Y-43211658D01*
X52497174Y-43155782D01*
X52475500Y-43103456D01*
X52475500Y-42746544D01*
X52497174Y-42694218D01*
X52515893Y-42675499D01*
X52553050Y-42638342D01*
X52610646Y-42525304D01*
X52625500Y-42431519D01*
X52625499Y-41818482D01*
X52625499Y-41818480D01*
X53074500Y-41818480D01*
X53074500Y-42431519D01*
X53089353Y-42525304D01*
X53089354Y-42525306D01*
X53135517Y-42615904D01*
X53146950Y-42638342D01*
X53236658Y-42728050D01*
X53349696Y-42785646D01*
X53443481Y-42800500D01*
X53906518Y-42800499D01*
X53906519Y-42800499D01*
X54000304Y-42785646D01*
X54000306Y-42785645D01*
X54018715Y-42776265D01*
X54113342Y-42728050D01*
X54203050Y-42638342D01*
X54214483Y-42615904D01*
X54257550Y-42579122D01*
X54280417Y-42575500D01*
X54850500Y-42575500D01*
X54902826Y-42597174D01*
X54924500Y-42649500D01*
X54924500Y-48600500D01*
X54902826Y-48652826D01*
X54850501Y-48674500D01*
X54711862Y-48674500D01*
X54664456Y-48680740D01*
X54664454Y-48680741D01*
X54560420Y-48729253D01*
X54479253Y-48810420D01*
X54430740Y-48914456D01*
X54424500Y-48961862D01*
X54424500Y-49288137D01*
X54430740Y-49335543D01*
X54430741Y-49335545D01*
X54479253Y-49439579D01*
X54512348Y-49472674D01*
X54534022Y-49525000D01*
X54512348Y-49577326D01*
X54479253Y-49610420D01*
X54430740Y-49714456D01*
X54424500Y-49761862D01*
X54424500Y-50088137D01*
X54430740Y-50135543D01*
X54430741Y-50135545D01*
X54479253Y-50239579D01*
X54512348Y-50272674D01*
X54534022Y-50325000D01*
X54512348Y-50377326D01*
X54479253Y-50410420D01*
X54430740Y-50514456D01*
X54424500Y-50561862D01*
X54424500Y-50888137D01*
X54430740Y-50935543D01*
X54430741Y-50935545D01*
X54479253Y-51039579D01*
X54512348Y-51072674D01*
X54534022Y-51125000D01*
X54512348Y-51177326D01*
X54479253Y-51210420D01*
X54430740Y-51314456D01*
X54424500Y-51361862D01*
X54424500Y-51688137D01*
X54430740Y-51735543D01*
X54430741Y-51735545D01*
X54479253Y-51839579D01*
X54512348Y-51872674D01*
X54534022Y-51925000D01*
X54512348Y-51977326D01*
X54479253Y-52010420D01*
X54430740Y-52114456D01*
X54424500Y-52161862D01*
X54424500Y-52488137D01*
X54430740Y-52535543D01*
X54430741Y-52535545D01*
X54479253Y-52639579D01*
X54512348Y-52672674D01*
X54534022Y-52725000D01*
X54512348Y-52777326D01*
X54479253Y-52810420D01*
X54430740Y-52914456D01*
X54424500Y-52961862D01*
X54424500Y-53288137D01*
X54430740Y-53335543D01*
X54430741Y-53335545D01*
X54479253Y-53439579D01*
X54512348Y-53472674D01*
X54534022Y-53525000D01*
X54512348Y-53577326D01*
X54479253Y-53610420D01*
X54430740Y-53714456D01*
X54424500Y-53761862D01*
X54424500Y-54088137D01*
X54430740Y-54135543D01*
X54430741Y-54135545D01*
X54479253Y-54239579D01*
X54512348Y-54272674D01*
X54534022Y-54325000D01*
X54512348Y-54377326D01*
X54479253Y-54410420D01*
X54430740Y-54514456D01*
X54424500Y-54561862D01*
X54424500Y-54888137D01*
X54430740Y-54935543D01*
X54430741Y-54935545D01*
X54479253Y-55039579D01*
X54560421Y-55120747D01*
X54664455Y-55169259D01*
X54711861Y-55175500D01*
X55307070Y-55175499D01*
X55307080Y-55175500D01*
X55315691Y-55175500D01*
X56145500Y-55175500D01*
X56197826Y-55197174D01*
X56219500Y-55249500D01*
X56219500Y-66525104D01*
X56197826Y-66577430D01*
X56175589Y-66592289D01*
X56175617Y-66592340D01*
X56175099Y-66592616D01*
X56173827Y-66593467D01*
X56172415Y-66594051D01*
X56172407Y-66594055D01*
X56000345Y-66709022D01*
X56000344Y-66709024D01*
X55854024Y-66855344D01*
X55854022Y-66855345D01*
X55739059Y-67027401D01*
X55659870Y-67218579D01*
X55659868Y-67218586D01*
X55619500Y-67421535D01*
X55619500Y-67628464D01*
X55659868Y-67831413D01*
X55659870Y-67831420D01*
X55739059Y-68022598D01*
X55853268Y-68193526D01*
X55854023Y-68194655D01*
X56000345Y-68340977D01*
X56172402Y-68455941D01*
X56363580Y-68535130D01*
X56566535Y-68575500D01*
X56566536Y-68575500D01*
X56773464Y-68575500D01*
X56773465Y-68575500D01*
X56976420Y-68535130D01*
X57167598Y-68455941D01*
X57339655Y-68340977D01*
X57485977Y-68194655D01*
X57600941Y-68022598D01*
X57680130Y-67831420D01*
X57720500Y-67628465D01*
X57720500Y-67421535D01*
X57680130Y-67218580D01*
X57600941Y-67027402D01*
X57485977Y-66855345D01*
X57339655Y-66709023D01*
X57339652Y-66709021D01*
X57167592Y-66594055D01*
X57167584Y-66594051D01*
X57166173Y-66593467D01*
X57165808Y-66593101D01*
X57164383Y-66592340D01*
X57164614Y-66591907D01*
X57126129Y-66553414D01*
X57120500Y-66525104D01*
X57120500Y-55599500D01*
X57142174Y-55547174D01*
X57194500Y-55525500D01*
X62600500Y-55525500D01*
X62652826Y-55547174D01*
X62674500Y-55599500D01*
X62674500Y-56003456D01*
X62652826Y-56055782D01*
X62646951Y-56061656D01*
X62589353Y-56174698D01*
X62574500Y-56268480D01*
X62574500Y-56881519D01*
X62589353Y-56975304D01*
X62589354Y-56975306D01*
X62624488Y-57044258D01*
X62646950Y-57088342D01*
X62736658Y-57178050D01*
X62849696Y-57235646D01*
X62943481Y-57250500D01*
X63406518Y-57250499D01*
X63406519Y-57250499D01*
X63500304Y-57235646D01*
X63500306Y-57235645D01*
X63514855Y-57228232D01*
X63613342Y-57178050D01*
X63703050Y-57088342D01*
X63760646Y-56975304D01*
X63775500Y-56881519D01*
X63775499Y-56268482D01*
X63760646Y-56174696D01*
X63760646Y-56174695D01*
X63760645Y-56174693D01*
X63703049Y-56061657D01*
X63697174Y-56055782D01*
X63675500Y-56003456D01*
X63675500Y-55596544D01*
X63697174Y-55544218D01*
X63703050Y-55538342D01*
X63760646Y-55425304D01*
X63775500Y-55331519D01*
X63775499Y-54718482D01*
X63760646Y-54624696D01*
X63760646Y-54624695D01*
X63760645Y-54624693D01*
X63717842Y-54540689D01*
X63703050Y-54511658D01*
X63693218Y-54501826D01*
X63671544Y-54449500D01*
X63693218Y-54397174D01*
X63745544Y-54375500D01*
X65457745Y-54375500D01*
X65510071Y-54397174D01*
X65877826Y-54764929D01*
X65899500Y-54817255D01*
X65899500Y-64384311D01*
X65930199Y-64498882D01*
X65930201Y-64498887D01*
X65989586Y-64601743D01*
X65999500Y-64638743D01*
X65999500Y-65946146D01*
X66012835Y-65995911D01*
X66012836Y-65995913D01*
X66022330Y-66031349D01*
X66014938Y-66087500D01*
X65970005Y-66121979D01*
X65970001Y-66121978D01*
X65950852Y-66124500D01*
X64772966Y-66124500D01*
X64720640Y-66102826D01*
X61319640Y-62701826D01*
X61297966Y-62649500D01*
X61319640Y-62597174D01*
X61371966Y-62575500D01*
X63040894Y-62575500D01*
X63040894Y-62575499D01*
X63168186Y-62541392D01*
X63282314Y-62475500D01*
X65225500Y-60532314D01*
X65291392Y-60418186D01*
X65325499Y-60290895D01*
X65325500Y-60290895D01*
X65325500Y-57146544D01*
X65347174Y-57094218D01*
X65353050Y-57088342D01*
X65410646Y-56975304D01*
X65425500Y-56881519D01*
X65425499Y-56268482D01*
X65410646Y-56174696D01*
X65410646Y-56174695D01*
X65410645Y-56174693D01*
X65353049Y-56061657D01*
X65263343Y-55971951D01*
X65263342Y-55971950D01*
X65150304Y-55914354D01*
X65150302Y-55914353D01*
X65150301Y-55914353D01*
X65056519Y-55899500D01*
X64593480Y-55899500D01*
X64499695Y-55914353D01*
X64499693Y-55914354D01*
X64386657Y-55971950D01*
X64296951Y-56061656D01*
X64239353Y-56174698D01*
X64224500Y-56268480D01*
X64224500Y-56881519D01*
X64239353Y-56975304D01*
X64239354Y-56975306D01*
X64296950Y-57088342D01*
X64302826Y-57094218D01*
X64324500Y-57146544D01*
X64324500Y-59987034D01*
X64302826Y-60039360D01*
X62789360Y-61552826D01*
X62737034Y-61574500D01*
X61283422Y-61574500D01*
X61231096Y-61552826D01*
X61221893Y-61541612D01*
X61152139Y-61437218D01*
X61012781Y-61297860D01*
X60848913Y-61188367D01*
X60666839Y-61112950D01*
X60666829Y-61112947D01*
X60537388Y-61087200D01*
X60473541Y-61074500D01*
X60276459Y-61074500D01*
X60221662Y-61085399D01*
X60083170Y-61112947D01*
X60083160Y-61112950D01*
X59901086Y-61188367D01*
X59737218Y-61297860D01*
X59737217Y-61297862D01*
X59597862Y-61437217D01*
X59597860Y-61437218D01*
X59488367Y-61601086D01*
X59412950Y-61783160D01*
X59412947Y-61783170D01*
X59380850Y-61944535D01*
X59379985Y-61948887D01*
X59374500Y-61976460D01*
X59374500Y-62173539D01*
X59412947Y-62366829D01*
X59412950Y-62366839D01*
X59488367Y-62548913D01*
X59526381Y-62605804D01*
X59597861Y-62712782D01*
X59737218Y-62852139D01*
X59901086Y-62961632D01*
X60083165Y-63037051D01*
X60255974Y-63071425D01*
X60293862Y-63091676D01*
X64012826Y-66810640D01*
X64034500Y-66862966D01*
X64034500Y-68044746D01*
X64046133Y-68103232D01*
X64050990Y-68110500D01*
X64090448Y-68169552D01*
X64126327Y-68193526D01*
X64156767Y-68213866D01*
X64156768Y-68213866D01*
X64156769Y-68213867D01*
X64215252Y-68225500D01*
X64215254Y-68225500D01*
X65954746Y-68225500D01*
X65954748Y-68225500D01*
X66013231Y-68213867D01*
X66079552Y-68169552D01*
X66123867Y-68103231D01*
X66135500Y-68044748D01*
X66135500Y-66359833D01*
X66157174Y-66307507D01*
X66209500Y-66285833D01*
X66261824Y-66307506D01*
X66398568Y-66444249D01*
X66640837Y-66686518D01*
X66662511Y-66738844D01*
X66656878Y-66767162D01*
X66614871Y-66868575D01*
X66614868Y-66868586D01*
X66574500Y-67071535D01*
X66574500Y-67278464D01*
X66614868Y-67481413D01*
X66614870Y-67481420D01*
X66694059Y-67672598D01*
X66801814Y-67833867D01*
X66809023Y-67844655D01*
X66955345Y-67990977D01*
X67127402Y-68105941D01*
X67318580Y-68185130D01*
X67521535Y-68225500D01*
X67521536Y-68225500D01*
X67728464Y-68225500D01*
X67728465Y-68225500D01*
X67931420Y-68185130D01*
X68122598Y-68105941D01*
X68294655Y-67990977D01*
X68440977Y-67844655D01*
X68555941Y-67672598D01*
X68635130Y-67481420D01*
X68675500Y-67278465D01*
X68675500Y-67071535D01*
X68635130Y-66868580D01*
X68555941Y-66677402D01*
X68440977Y-66505345D01*
X68294655Y-66359023D01*
X68269627Y-66342300D01*
X68122598Y-66244059D01*
X67931420Y-66164870D01*
X67931413Y-66164868D01*
X67778516Y-66134455D01*
X67728465Y-66124500D01*
X67521535Y-66124500D01*
X67481385Y-66132486D01*
X67318586Y-66164868D01*
X67318575Y-66164871D01*
X67217162Y-66206878D01*
X67160525Y-66206878D01*
X67136518Y-66190837D01*
X66935551Y-65989870D01*
X66722174Y-65776492D01*
X66700500Y-65724166D01*
X66700500Y-65374784D01*
X66722174Y-65322458D01*
X66774500Y-65300784D01*
X66826826Y-65322458D01*
X66955345Y-65450977D01*
X67127402Y-65565941D01*
X67318580Y-65645130D01*
X67521535Y-65685500D01*
X67521536Y-65685500D01*
X67728464Y-65685500D01*
X67728465Y-65685500D01*
X67931420Y-65645130D01*
X68122598Y-65565941D01*
X68294655Y-65450977D01*
X68418174Y-65327458D01*
X68470500Y-65305784D01*
X68522826Y-65327458D01*
X68544500Y-65379784D01*
X68544500Y-65951144D01*
X68565020Y-66027727D01*
X68565021Y-66027729D01*
X68568385Y-66040288D01*
X68614530Y-66120212D01*
X69180836Y-66686518D01*
X69202510Y-66738844D01*
X69196877Y-66767162D01*
X69154871Y-66868575D01*
X69154868Y-66868586D01*
X69114500Y-67071535D01*
X69114500Y-67278464D01*
X69154868Y-67481413D01*
X69154870Y-67481420D01*
X69234059Y-67672598D01*
X69341814Y-67833867D01*
X69349023Y-67844655D01*
X69495345Y-67990977D01*
X69667402Y-68105941D01*
X69858580Y-68185130D01*
X70061535Y-68225500D01*
X70061536Y-68225500D01*
X70268463Y-68225500D01*
X70268465Y-68225500D01*
X70429203Y-68193526D01*
X70484750Y-68204575D01*
X70495964Y-68213778D01*
X71514500Y-69232314D01*
X71607686Y-69325500D01*
X71721814Y-69391392D01*
X71849105Y-69425499D01*
X71849106Y-69425500D01*
X71849108Y-69425500D01*
X79390894Y-69425500D01*
X79390894Y-69425499D01*
X79518186Y-69391392D01*
X79632314Y-69325500D01*
X80515500Y-68442314D01*
X80581392Y-68328186D01*
X80615499Y-68200894D01*
X80615500Y-68200894D01*
X80615500Y-67968555D01*
X80637174Y-67916229D01*
X80648388Y-67907026D01*
X80784655Y-67815977D01*
X80930977Y-67669655D01*
X81045941Y-67497598D01*
X81125130Y-67306420D01*
X81165500Y-67103465D01*
X81165500Y-66896535D01*
X81125130Y-66693580D01*
X81045941Y-66502402D01*
X80930977Y-66330345D01*
X80784655Y-66184023D01*
X80765980Y-66171545D01*
X80612598Y-66069059D01*
X80421420Y-65989870D01*
X80421413Y-65989868D01*
X80268516Y-65959455D01*
X80218465Y-65949500D01*
X80011535Y-65949500D01*
X79971385Y-65957486D01*
X79808586Y-65989868D01*
X79808579Y-65989870D01*
X79617401Y-66069059D01*
X79445345Y-66184022D01*
X79445344Y-66184024D01*
X79299024Y-66330344D01*
X79299022Y-66330345D01*
X79184059Y-66502401D01*
X79104870Y-66693579D01*
X79104868Y-66693586D01*
X79064500Y-66896535D01*
X79064500Y-67103464D01*
X79104868Y-67306413D01*
X79104870Y-67306420D01*
X79184059Y-67497598D01*
X79299023Y-67669655D01*
X79445345Y-67815977D01*
X79538737Y-67878379D01*
X79570203Y-67925470D01*
X79559154Y-67981019D01*
X79549951Y-67992233D01*
X79139360Y-68402826D01*
X79087034Y-68424500D01*
X72152966Y-68424500D01*
X72100640Y-68402826D01*
X71203778Y-67505964D01*
X71182104Y-67453638D01*
X71183525Y-67439210D01*
X71215500Y-67278465D01*
X71215500Y-67071535D01*
X71180691Y-66896535D01*
X76524500Y-66896535D01*
X76524500Y-67103464D01*
X76564868Y-67306413D01*
X76564870Y-67306420D01*
X76644059Y-67497598D01*
X76759023Y-67669655D01*
X76905345Y-67815977D01*
X77077402Y-67930941D01*
X77268580Y-68010130D01*
X77471535Y-68050500D01*
X77471536Y-68050500D01*
X77678464Y-68050500D01*
X77678465Y-68050500D01*
X77881420Y-68010130D01*
X78072598Y-67930941D01*
X78244655Y-67815977D01*
X78390977Y-67669655D01*
X78505941Y-67497598D01*
X78585130Y-67306420D01*
X78625500Y-67103465D01*
X78625500Y-66896535D01*
X78585130Y-66693580D01*
X78505941Y-66502402D01*
X78390977Y-66330345D01*
X78244655Y-66184023D01*
X78225980Y-66171545D01*
X78072598Y-66069059D01*
X77881420Y-65989870D01*
X77881413Y-65989868D01*
X77728516Y-65959455D01*
X77678465Y-65949500D01*
X77471535Y-65949500D01*
X77431385Y-65957486D01*
X77268586Y-65989868D01*
X77268579Y-65989870D01*
X77077401Y-66069059D01*
X76905345Y-66184022D01*
X76905344Y-66184024D01*
X76759024Y-66330344D01*
X76759022Y-66330345D01*
X76644059Y-66502401D01*
X76564870Y-66693579D01*
X76564868Y-66693586D01*
X76524500Y-66896535D01*
X71180691Y-66896535D01*
X71175130Y-66868580D01*
X71095941Y-66677402D01*
X70980977Y-66505345D01*
X70834655Y-66359023D01*
X70809627Y-66342300D01*
X70662598Y-66244059D01*
X70471420Y-66164870D01*
X70471413Y-66164868D01*
X70318516Y-66134455D01*
X70268465Y-66124500D01*
X70061535Y-66124500D01*
X70021385Y-66132486D01*
X69858586Y-66164868D01*
X69858575Y-66164871D01*
X69757162Y-66206877D01*
X69700525Y-66206877D01*
X69676518Y-66190836D01*
X69267174Y-65781492D01*
X69245500Y-65729166D01*
X69245500Y-65379784D01*
X69267174Y-65327458D01*
X69319500Y-65305784D01*
X69371826Y-65327458D01*
X69495345Y-65450977D01*
X69667402Y-65565941D01*
X69858580Y-65645130D01*
X70061535Y-65685500D01*
X70061536Y-65685500D01*
X70268464Y-65685500D01*
X70268465Y-65685500D01*
X70471420Y-65645130D01*
X70662598Y-65565941D01*
X70834655Y-65450977D01*
X70980977Y-65304655D01*
X71095941Y-65132598D01*
X71175130Y-64941420D01*
X71215500Y-64738465D01*
X71215500Y-64531535D01*
X71180691Y-64356535D01*
X76524500Y-64356535D01*
X76524500Y-64563464D01*
X76564868Y-64766413D01*
X76564870Y-64766420D01*
X76644059Y-64957598D01*
X76721199Y-65073048D01*
X76759023Y-65129655D01*
X76905345Y-65275977D01*
X77077402Y-65390941D01*
X77268580Y-65470130D01*
X77471535Y-65510500D01*
X77471536Y-65510500D01*
X77678464Y-65510500D01*
X77678465Y-65510500D01*
X77881420Y-65470130D01*
X78072598Y-65390941D01*
X78244655Y-65275977D01*
X78390977Y-65129655D01*
X78505941Y-64957598D01*
X78585130Y-64766420D01*
X78625500Y-64563465D01*
X78625500Y-64356535D01*
X78585130Y-64153580D01*
X78505941Y-63962402D01*
X78390977Y-63790345D01*
X78244655Y-63644023D01*
X78215990Y-63624870D01*
X78072598Y-63529059D01*
X77881420Y-63449870D01*
X77881413Y-63449868D01*
X77728516Y-63419455D01*
X77678465Y-63409500D01*
X77471535Y-63409500D01*
X77431385Y-63417486D01*
X77268586Y-63449868D01*
X77268579Y-63449870D01*
X77077401Y-63529059D01*
X76905345Y-63644022D01*
X76905344Y-63644024D01*
X76759024Y-63790344D01*
X76759022Y-63790345D01*
X76644059Y-63962401D01*
X76564870Y-64153579D01*
X76564868Y-64153586D01*
X76524500Y-64356535D01*
X71180691Y-64356535D01*
X71175130Y-64328580D01*
X71095941Y-64137402D01*
X70980977Y-63965345D01*
X70834655Y-63819023D01*
X70662598Y-63704059D01*
X70662597Y-63704058D01*
X70662592Y-63704055D01*
X70662584Y-63704051D01*
X70661173Y-63703467D01*
X70660808Y-63703101D01*
X70659383Y-63702340D01*
X70659614Y-63701907D01*
X70621129Y-63663414D01*
X70615500Y-63635104D01*
X70615500Y-61874500D01*
X70637174Y-61822174D01*
X70689500Y-61800500D01*
X78712034Y-61800500D01*
X78764360Y-61822174D01*
X79592826Y-62650640D01*
X79614500Y-62702966D01*
X79614500Y-63491443D01*
X79592826Y-63543769D01*
X79581612Y-63552972D01*
X79445345Y-63644022D01*
X79445344Y-63644024D01*
X79299024Y-63790344D01*
X79299022Y-63790345D01*
X79184059Y-63962401D01*
X79104870Y-64153579D01*
X79104868Y-64153586D01*
X79064500Y-64356535D01*
X79064500Y-64563464D01*
X79104868Y-64766413D01*
X79104870Y-64766420D01*
X79184059Y-64957598D01*
X79261199Y-65073048D01*
X79299023Y-65129655D01*
X79445345Y-65275977D01*
X79617402Y-65390941D01*
X79808580Y-65470130D01*
X80011535Y-65510500D01*
X80011536Y-65510500D01*
X80218464Y-65510500D01*
X80218465Y-65510500D01*
X80421420Y-65470130D01*
X80612598Y-65390941D01*
X80784655Y-65275977D01*
X80930977Y-65129655D01*
X81045941Y-64957598D01*
X81125130Y-64766420D01*
X81165500Y-64563465D01*
X81165500Y-64356535D01*
X81125130Y-64153580D01*
X81045941Y-63962402D01*
X80930977Y-63790345D01*
X80784655Y-63644023D01*
X80771307Y-63635104D01*
X80648388Y-63552972D01*
X80616922Y-63505880D01*
X80615500Y-63491443D01*
X80615500Y-62399106D01*
X80615499Y-62399105D01*
X80609857Y-62378050D01*
X80581392Y-62271814D01*
X80515500Y-62157686D01*
X80422314Y-62064500D01*
X79257314Y-60899500D01*
X79143190Y-60833610D01*
X79143181Y-60833606D01*
X79015894Y-60799500D01*
X79015892Y-60799500D01*
X70689500Y-60799500D01*
X70637174Y-60777826D01*
X70615500Y-60725500D01*
X70615500Y-54205689D01*
X70591286Y-54115327D01*
X70591286Y-54115326D01*
X70584799Y-54091113D01*
X70525489Y-53988386D01*
X69338638Y-52801535D01*
X79074500Y-52801535D01*
X79074500Y-53008464D01*
X79114868Y-53211413D01*
X79114870Y-53211420D01*
X79194059Y-53402598D01*
X79289074Y-53544800D01*
X79309023Y-53574655D01*
X79455345Y-53720977D01*
X79627402Y-53835941D01*
X79818580Y-53915130D01*
X80021535Y-53955500D01*
X80021536Y-53955500D01*
X80228464Y-53955500D01*
X80228465Y-53955500D01*
X80431420Y-53915130D01*
X80622598Y-53835941D01*
X80794655Y-53720977D01*
X80940977Y-53574655D01*
X81055941Y-53402598D01*
X81135130Y-53211420D01*
X81175500Y-53008465D01*
X81175500Y-52801535D01*
X81135130Y-52598580D01*
X81055941Y-52407402D01*
X80940977Y-52235345D01*
X80794655Y-52089023D01*
X80782309Y-52080774D01*
X80622598Y-51974059D01*
X80431420Y-51894870D01*
X80431413Y-51894868D01*
X80278516Y-51864455D01*
X80228465Y-51854500D01*
X80021535Y-51854500D01*
X79981385Y-51862486D01*
X79818586Y-51894868D01*
X79818579Y-51894870D01*
X79627401Y-51974059D01*
X79455345Y-52089022D01*
X79455344Y-52089024D01*
X79309024Y-52235344D01*
X79309022Y-52235345D01*
X79194059Y-52407401D01*
X79114870Y-52598579D01*
X79114868Y-52598586D01*
X79074500Y-52801535D01*
X69338638Y-52801535D01*
X67838929Y-51301826D01*
X67817255Y-51249500D01*
X67838929Y-51197174D01*
X67891255Y-51175500D01*
X79424700Y-51175500D01*
X79465812Y-51187971D01*
X79499410Y-51210420D01*
X79627402Y-51295941D01*
X79818580Y-51375130D01*
X80021535Y-51415500D01*
X80021536Y-51415500D01*
X80228464Y-51415500D01*
X80228465Y-51415500D01*
X80431420Y-51375130D01*
X80622598Y-51295941D01*
X80794655Y-51180977D01*
X80940977Y-51034655D01*
X81055941Y-50862598D01*
X81135130Y-50671420D01*
X81175500Y-50468465D01*
X81175500Y-50261535D01*
X81135130Y-50058580D01*
X81055941Y-49867402D01*
X80940977Y-49695345D01*
X80794655Y-49549023D01*
X80757953Y-49524500D01*
X80622598Y-49434059D01*
X80431420Y-49354870D01*
X80431413Y-49354868D01*
X80275637Y-49323883D01*
X80228465Y-49314500D01*
X80021535Y-49314500D01*
X79981385Y-49322486D01*
X79818586Y-49354868D01*
X79818579Y-49354870D01*
X79627401Y-49434059D01*
X79455345Y-49549022D01*
X79455344Y-49549024D01*
X79309024Y-49695344D01*
X79309022Y-49695345D01*
X79194059Y-49867401D01*
X79114870Y-50058579D01*
X79114868Y-50058586D01*
X79083769Y-50214936D01*
X79052303Y-50262029D01*
X79011191Y-50274500D01*
X76641255Y-50274500D01*
X76588929Y-50252826D01*
X76567255Y-50200500D01*
X76588929Y-50148174D01*
X78439929Y-48297174D01*
X78492255Y-48275500D01*
X79125105Y-48275500D01*
X79177431Y-48297174D01*
X79192288Y-48319410D01*
X79192340Y-48319383D01*
X79192620Y-48319907D01*
X79193473Y-48321183D01*
X79194059Y-48322598D01*
X79309023Y-48494655D01*
X79455345Y-48640977D01*
X79627402Y-48755941D01*
X79818580Y-48835130D01*
X80021535Y-48875500D01*
X80021536Y-48875500D01*
X80228464Y-48875500D01*
X80228465Y-48875500D01*
X80431420Y-48835130D01*
X80622598Y-48755941D01*
X80794655Y-48640977D01*
X80940977Y-48494655D01*
X81055941Y-48322598D01*
X81135130Y-48131420D01*
X81175500Y-47928465D01*
X81175500Y-47721535D01*
X81135130Y-47518580D01*
X81055941Y-47327402D01*
X80940977Y-47155345D01*
X80794655Y-47009023D01*
X80750126Y-46979270D01*
X80622598Y-46894059D01*
X80431420Y-46814870D01*
X80431413Y-46814868D01*
X80278516Y-46784455D01*
X80228465Y-46774500D01*
X80021535Y-46774500D01*
X79981385Y-46782486D01*
X79818586Y-46814868D01*
X79818579Y-46814870D01*
X79627401Y-46894059D01*
X79455345Y-47009022D01*
X79455344Y-47009024D01*
X79309024Y-47155344D01*
X79309022Y-47155345D01*
X79194058Y-47327404D01*
X79193474Y-47328815D01*
X79193107Y-47329181D01*
X79192340Y-47330617D01*
X79191904Y-47330384D01*
X79153427Y-47368866D01*
X79125105Y-47374500D01*
X78215689Y-47374500D01*
X78101114Y-47405200D01*
X78057695Y-47430267D01*
X78057696Y-47430268D01*
X77998389Y-47464508D01*
X76010071Y-49452826D01*
X75957745Y-49474500D01*
X56370620Y-49474500D01*
X56318294Y-49452826D01*
X56296620Y-49400500D01*
X56303553Y-49369227D01*
X56306414Y-49363089D01*
X56319259Y-49335545D01*
X56325500Y-49288139D01*
X56325499Y-48961862D01*
X56319259Y-48914455D01*
X56270747Y-48810421D01*
X56189579Y-48729253D01*
X56085545Y-48680741D01*
X56085543Y-48680740D01*
X56050619Y-48676142D01*
X56038139Y-48674500D01*
X56038137Y-48674500D01*
X55899500Y-48674500D01*
X55847174Y-48652826D01*
X55825500Y-48600500D01*
X55825500Y-42649500D01*
X55847174Y-42597174D01*
X55899500Y-42575500D01*
X59884309Y-42575500D01*
X59974673Y-42551286D01*
X59974674Y-42551286D01*
X59985350Y-42548425D01*
X59998887Y-42544799D01*
X60101614Y-42485489D01*
X60711850Y-41875253D01*
X79074500Y-41875253D01*
X79074500Y-43614746D01*
X79086133Y-43673232D01*
X79096266Y-43688396D01*
X79130448Y-43739552D01*
X79174560Y-43769027D01*
X79196767Y-43783866D01*
X79196768Y-43783866D01*
X79196769Y-43783867D01*
X79255252Y-43795500D01*
X79255254Y-43795500D01*
X80994746Y-43795500D01*
X80994748Y-43795500D01*
X81053231Y-43783867D01*
X81119552Y-43739552D01*
X81163867Y-43673231D01*
X81175500Y-43614748D01*
X81175500Y-41875252D01*
X81163867Y-41816769D01*
X81119552Y-41750448D01*
X81081008Y-41724693D01*
X81053232Y-41706133D01*
X81053233Y-41706133D01*
X81023989Y-41700316D01*
X80994748Y-41694500D01*
X80994746Y-41694500D01*
X80824500Y-41694500D01*
X80772174Y-41672826D01*
X80750500Y-41620500D01*
X80750500Y-37346544D01*
X80772174Y-37294218D01*
X80828050Y-37238342D01*
X80885646Y-37125304D01*
X80900500Y-37031519D01*
X80900499Y-36418482D01*
X80885646Y-36324696D01*
X80885646Y-36324695D01*
X80885645Y-36324693D01*
X80828049Y-36211657D01*
X80738343Y-36121951D01*
X80738342Y-36121950D01*
X80625304Y-36064354D01*
X80625302Y-36064353D01*
X80625301Y-36064353D01*
X80531519Y-36049500D01*
X80068480Y-36049500D01*
X79974695Y-36064353D01*
X79974693Y-36064354D01*
X79861657Y-36121950D01*
X79771951Y-36211656D01*
X79714353Y-36324698D01*
X79699500Y-36418480D01*
X79699500Y-37031519D01*
X79714353Y-37125304D01*
X79714354Y-37125306D01*
X79771950Y-37238342D01*
X79827826Y-37294218D01*
X79849500Y-37346544D01*
X79849500Y-41620500D01*
X79827826Y-41672826D01*
X79775500Y-41694500D01*
X79255252Y-41694500D01*
X79226010Y-41700316D01*
X79196767Y-41706133D01*
X79130449Y-41750447D01*
X79130447Y-41750449D01*
X79086133Y-41816767D01*
X79074500Y-41875253D01*
X60711850Y-41875253D01*
X66168624Y-36418480D01*
X78049500Y-36418480D01*
X78049500Y-37031519D01*
X78064353Y-37125304D01*
X78064354Y-37125306D01*
X78121950Y-37238342D01*
X78211658Y-37328050D01*
X78324696Y-37385646D01*
X78418481Y-37400500D01*
X78881518Y-37400499D01*
X78881519Y-37400499D01*
X78975304Y-37385646D01*
X78975306Y-37385645D01*
X78979720Y-37383396D01*
X79088342Y-37328050D01*
X79178050Y-37238342D01*
X79235646Y-37125304D01*
X79250500Y-37031519D01*
X79250499Y-36418482D01*
X79235646Y-36324696D01*
X79235646Y-36324695D01*
X79235645Y-36324694D01*
X79233421Y-36320330D01*
X79198565Y-36251921D01*
X79190500Y-36218327D01*
X79190500Y-35593060D01*
X79212173Y-35540735D01*
X79302158Y-35450751D01*
X79362451Y-35332420D01*
X79378000Y-35234246D01*
X79378000Y-34655754D01*
X79362451Y-34557580D01*
X79302158Y-34439249D01*
X79208251Y-34345342D01*
X79208249Y-34345340D01*
X79089920Y-34285049D01*
X79089920Y-34285048D01*
X78991747Y-34269500D01*
X78991746Y-34269500D01*
X78488254Y-34269500D01*
X78488253Y-34269500D01*
X78390079Y-34285048D01*
X78390079Y-34285049D01*
X78271750Y-34345340D01*
X78177840Y-34439250D01*
X78117549Y-34557579D01*
X78117548Y-34557579D01*
X78102000Y-34655753D01*
X78102000Y-35234246D01*
X78117549Y-35332420D01*
X78177840Y-35450749D01*
X78177841Y-35450750D01*
X78177842Y-35450751D01*
X78267826Y-35540735D01*
X78289500Y-35593060D01*
X78289500Y-36036940D01*
X78267826Y-36089266D01*
X78249096Y-36102874D01*
X78211657Y-36121950D01*
X78121951Y-36211656D01*
X78064353Y-36324698D01*
X78049500Y-36418480D01*
X66168624Y-36418480D01*
X66350490Y-36236614D01*
X66409799Y-36133886D01*
X66412997Y-36121950D01*
X66440500Y-36019309D01*
X66440500Y-25599894D01*
X66462174Y-25547568D01*
X66484421Y-25532705D01*
X66484394Y-25532654D01*
X66484919Y-25532373D01*
X66486190Y-25531523D01*
X66487598Y-25530941D01*
X66659655Y-25415977D01*
X66805977Y-25269655D01*
X66920941Y-25097598D01*
X67000130Y-24906420D01*
X67040500Y-24703465D01*
X67040500Y-24496535D01*
X67479500Y-24496535D01*
X67479500Y-24703464D01*
X67519868Y-24906413D01*
X67519870Y-24906420D01*
X67599059Y-25097598D01*
X67689644Y-25233170D01*
X67714023Y-25269655D01*
X67860345Y-25415977D01*
X68032402Y-25530941D01*
X68223580Y-25610130D01*
X68426535Y-25650500D01*
X68426536Y-25650500D01*
X68633464Y-25650500D01*
X68633465Y-25650500D01*
X68836420Y-25610130D01*
X69027598Y-25530941D01*
X69199655Y-25415977D01*
X69345977Y-25269655D01*
X69460941Y-25097598D01*
X69540130Y-24906420D01*
X69580500Y-24703465D01*
X69580500Y-24496535D01*
X70019500Y-24496535D01*
X70019500Y-24703464D01*
X70059868Y-24906413D01*
X70059870Y-24906420D01*
X70139059Y-25097598D01*
X70229644Y-25233170D01*
X70254023Y-25269655D01*
X70400345Y-25415977D01*
X70572402Y-25530941D01*
X70763580Y-25610130D01*
X70966535Y-25650500D01*
X70966536Y-25650500D01*
X71173464Y-25650500D01*
X71173465Y-25650500D01*
X71376420Y-25610130D01*
X71567598Y-25530941D01*
X71739655Y-25415977D01*
X71885977Y-25269655D01*
X72000941Y-25097598D01*
X72080130Y-24906420D01*
X72120500Y-24703465D01*
X72120500Y-24496535D01*
X72080130Y-24293580D01*
X72000941Y-24102402D01*
X71885977Y-23930345D01*
X71739655Y-23784023D01*
X71659180Y-23730252D01*
X71567598Y-23669059D01*
X71376420Y-23589870D01*
X71376413Y-23589868D01*
X71223516Y-23559455D01*
X71173465Y-23549500D01*
X70966535Y-23549500D01*
X70926385Y-23557486D01*
X70763586Y-23589868D01*
X70763579Y-23589870D01*
X70572401Y-23669059D01*
X70400345Y-23784022D01*
X70400344Y-23784024D01*
X70254024Y-23930344D01*
X70254022Y-23930345D01*
X70139059Y-24102401D01*
X70059870Y-24293579D01*
X70059868Y-24293586D01*
X70019500Y-24496535D01*
X69580500Y-24496535D01*
X69540130Y-24293580D01*
X69460941Y-24102402D01*
X69345977Y-23930345D01*
X69199655Y-23784023D01*
X69119180Y-23730252D01*
X69027598Y-23669059D01*
X68836420Y-23589870D01*
X68836413Y-23589868D01*
X68683516Y-23559455D01*
X68633465Y-23549500D01*
X68426535Y-23549500D01*
X68386385Y-23557486D01*
X68223586Y-23589868D01*
X68223579Y-23589870D01*
X68032401Y-23669059D01*
X67860345Y-23784022D01*
X67860344Y-23784024D01*
X67714024Y-23930344D01*
X67714022Y-23930345D01*
X67599059Y-24102401D01*
X67519870Y-24293579D01*
X67519868Y-24293586D01*
X67479500Y-24496535D01*
X67040500Y-24496535D01*
X67000130Y-24293580D01*
X66920941Y-24102402D01*
X66805977Y-23930345D01*
X66659655Y-23784023D01*
X66579180Y-23730252D01*
X66487598Y-23669059D01*
X66296420Y-23589870D01*
X66296413Y-23589868D01*
X66143516Y-23559455D01*
X66093465Y-23549500D01*
X65886535Y-23549500D01*
X65846385Y-23557486D01*
X65683586Y-23589868D01*
X65683579Y-23589870D01*
X65492401Y-23669059D01*
X65320345Y-23784022D01*
X65320344Y-23784024D01*
X65174024Y-23930344D01*
X65174022Y-23930345D01*
X65059059Y-24102401D01*
X64979870Y-24293579D01*
X64979868Y-24293586D01*
X64939500Y-24496535D01*
X64939500Y-24703464D01*
X64979868Y-24906413D01*
X64979870Y-24906420D01*
X65059059Y-25097598D01*
X65149644Y-25233170D01*
X65174023Y-25269655D01*
X65320345Y-25415977D01*
X65492402Y-25530941D01*
X65493808Y-25531523D01*
X65494173Y-25531888D01*
X65495606Y-25532654D01*
X65495373Y-25533088D01*
X65533863Y-25571565D01*
X65539500Y-25599894D01*
X65539500Y-35742744D01*
X65517826Y-35795070D01*
X59660071Y-41652826D01*
X59607745Y-41674500D01*
X54280417Y-41674500D01*
X54228091Y-41652826D01*
X54214483Y-41634096D01*
X54203049Y-41611657D01*
X54113343Y-41521951D01*
X54113342Y-41521950D01*
X54000304Y-41464354D01*
X54000302Y-41464353D01*
X54000301Y-41464353D01*
X53906519Y-41449500D01*
X53443480Y-41449500D01*
X53349695Y-41464353D01*
X53349693Y-41464354D01*
X53236657Y-41521950D01*
X53146951Y-41611656D01*
X53089353Y-41724698D01*
X53074500Y-41818480D01*
X52625499Y-41818480D01*
X52625227Y-41816767D01*
X52610646Y-41724695D01*
X52610645Y-41724693D01*
X52565787Y-41636656D01*
X52553050Y-41611658D01*
X52463342Y-41521950D01*
X52350304Y-41464354D01*
X52350302Y-41464353D01*
X52350301Y-41464353D01*
X52256519Y-41449500D01*
X51793480Y-41449500D01*
X51699695Y-41464353D01*
X51699693Y-41464354D01*
X51586658Y-41521950D01*
X51505781Y-41602826D01*
X51453457Y-41624500D01*
X51146544Y-41624500D01*
X51094218Y-41602826D01*
X51038343Y-41546951D01*
X51038342Y-41546950D01*
X50925304Y-41489354D01*
X50925302Y-41489353D01*
X50925301Y-41489353D01*
X50831519Y-41474500D01*
X50218480Y-41474500D01*
X50124695Y-41489353D01*
X50124693Y-41489354D01*
X50011657Y-41546950D01*
X49921951Y-41636656D01*
X49864353Y-41749698D01*
X49849500Y-41843480D01*
X49849500Y-42112033D01*
X49827826Y-42164359D01*
X48964360Y-43027826D01*
X48912034Y-43049500D01*
X48716511Y-43049500D01*
X48616874Y-43065280D01*
X48616873Y-43065281D01*
X48496780Y-43126471D01*
X48401471Y-43221780D01*
X48340281Y-43341873D01*
X48340280Y-43341874D01*
X48324500Y-43441511D01*
X48324500Y-43958488D01*
X48340280Y-44058125D01*
X48340281Y-44058126D01*
X48355103Y-44087217D01*
X48401472Y-44178220D01*
X48496780Y-44273528D01*
X48616874Y-44334719D01*
X48716511Y-44350500D01*
X48716512Y-44350500D01*
X49283489Y-44350500D01*
X49333307Y-44342609D01*
X49383126Y-44334719D01*
X49503220Y-44273528D01*
X49598528Y-44178220D01*
X49659719Y-44058126D01*
X49675500Y-43958488D01*
X49675500Y-43762965D01*
X49697173Y-43710640D01*
X49723175Y-43684638D01*
X49775500Y-43662965D01*
X49827826Y-43684639D01*
X49849500Y-43736965D01*
X49849500Y-43956519D01*
X49864353Y-44050304D01*
X49864354Y-44050306D01*
X49921950Y-44163342D01*
X50011658Y-44253050D01*
X50019075Y-44256829D01*
X50055858Y-44299896D01*
X50051415Y-44356359D01*
X50037806Y-44375090D01*
X49835071Y-44577826D01*
X49782745Y-44599500D01*
X48292255Y-44599500D01*
X48239929Y-44577826D01*
X48009251Y-44347148D01*
X47987577Y-44294822D01*
X48009250Y-44242496D01*
X48048528Y-44203220D01*
X48109719Y-44083126D01*
X48125500Y-43983488D01*
X48125500Y-43466512D01*
X48121540Y-43441512D01*
X48109719Y-43366874D01*
X48109718Y-43366873D01*
X48096980Y-43341874D01*
X48048528Y-43246780D01*
X47953220Y-43151472D01*
X47953219Y-43151471D01*
X47833126Y-43090281D01*
X47833125Y-43090280D01*
X47733489Y-43074500D01*
X47733488Y-43074500D01*
X47166512Y-43074500D01*
X47166511Y-43074500D01*
X47066874Y-43090280D01*
X47066873Y-43090281D01*
X46946780Y-43151471D01*
X46851471Y-43246780D01*
X46790281Y-43366873D01*
X46790280Y-43366874D01*
X46774500Y-43466511D01*
X45875500Y-43466511D01*
X45875500Y-32622254D01*
X45897173Y-32569929D01*
X50876519Y-27590582D01*
X50928844Y-27568909D01*
X50955086Y-27574131D01*
X50955104Y-27574075D01*
X50955675Y-27574248D01*
X50957169Y-27574545D01*
X50958580Y-27575130D01*
X51161535Y-27615500D01*
X51161536Y-27615500D01*
X51368464Y-27615500D01*
X51368465Y-27615500D01*
X51571420Y-27575130D01*
X51762598Y-27495941D01*
X51934655Y-27380977D01*
X52080977Y-27234655D01*
X52195941Y-27062598D01*
X52275130Y-26871420D01*
X52315500Y-26668465D01*
X52315500Y-26461535D01*
X52275130Y-26258580D01*
X52195941Y-26067402D01*
X52080977Y-25895345D01*
X51934655Y-25749023D01*
X51762598Y-25634059D01*
X51571420Y-25554870D01*
X51571413Y-25554868D01*
X51418516Y-25524455D01*
X51368465Y-25514500D01*
X51161535Y-25514500D01*
X51121385Y-25522486D01*
X50958586Y-25554868D01*
X50958579Y-25554870D01*
X50767401Y-25634059D01*
X50595345Y-25749022D01*
X50595344Y-25749024D01*
X50449024Y-25895344D01*
X50449022Y-25895345D01*
X50334059Y-26067401D01*
X50254870Y-26258579D01*
X50254868Y-26258586D01*
X50214500Y-26461535D01*
X50214500Y-26668464D01*
X50254869Y-26871417D01*
X50254871Y-26871426D01*
X50255455Y-26872834D01*
X50255455Y-26873349D01*
X50255926Y-26874902D01*
X50255455Y-26875044D01*
X50255457Y-26929471D01*
X50239415Y-26953480D01*
X45064508Y-32128389D01*
X45005201Y-32231112D01*
X45002680Y-32240523D01*
X45002679Y-32240522D01*
X45002679Y-32240525D01*
X44974500Y-32345688D01*
X44974500Y-48659311D01*
X44986796Y-48705199D01*
X44986796Y-48705200D01*
X45005199Y-48773882D01*
X45005203Y-48773891D01*
X45064508Y-48876610D01*
X45064509Y-48876611D01*
X45064511Y-48876614D01*
X45612716Y-49424819D01*
X45634390Y-49477144D01*
X45612716Y-49529470D01*
X45524500Y-49617685D01*
X45458610Y-49731809D01*
X45458606Y-49731818D01*
X45424500Y-49859105D01*
X45424500Y-49990894D01*
X45458606Y-50118181D01*
X45458610Y-50118190D01*
X45484770Y-50163500D01*
X45492163Y-50219653D01*
X45457684Y-50264586D01*
X45420684Y-50274500D01*
X44917255Y-50274500D01*
X44864929Y-50252826D01*
X44347174Y-49735071D01*
X44325500Y-49682745D01*
X44325500Y-31632255D01*
X44347174Y-31579929D01*
X46322603Y-29604500D01*
X48336519Y-27590583D01*
X48388844Y-27568910D01*
X48415087Y-27574129D01*
X48415104Y-27574075D01*
X48415652Y-27574241D01*
X48417157Y-27574540D01*
X48418580Y-27575130D01*
X48621535Y-27615500D01*
X48621536Y-27615500D01*
X48828464Y-27615500D01*
X48828465Y-27615500D01*
X49031420Y-27575130D01*
X49222598Y-27495941D01*
X49394655Y-27380977D01*
X49540977Y-27234655D01*
X49655941Y-27062598D01*
X49735130Y-26871420D01*
X49775500Y-26668465D01*
X49775500Y-26461535D01*
X49735130Y-26258580D01*
X49655941Y-26067402D01*
X49540977Y-25895345D01*
X49394655Y-25749023D01*
X49222598Y-25634059D01*
X49031420Y-25554870D01*
X49031413Y-25554868D01*
X48878516Y-25524455D01*
X48828465Y-25514500D01*
X48621535Y-25514500D01*
X48581385Y-25522486D01*
X48418586Y-25554868D01*
X48418579Y-25554870D01*
X48227401Y-25634059D01*
X48055345Y-25749022D01*
X48055344Y-25749024D01*
X47909024Y-25895344D01*
X47909022Y-25895345D01*
X47794059Y-26067401D01*
X47714870Y-26258579D01*
X47714868Y-26258586D01*
X47674500Y-26461535D01*
X47674500Y-26668464D01*
X47714868Y-26871413D01*
X47714871Y-26871424D01*
X47715456Y-26872835D01*
X47715456Y-26873350D01*
X47715925Y-26874896D01*
X47715456Y-26875038D01*
X47715456Y-26929472D01*
X47699415Y-26953479D01*
X43751826Y-30901069D01*
X43699500Y-30922743D01*
X43647174Y-30901069D01*
X43625500Y-30848743D01*
X43625500Y-26461535D01*
X45134500Y-26461535D01*
X45134500Y-26668464D01*
X45174868Y-26871413D01*
X45174869Y-26871417D01*
X45174870Y-26871420D01*
X45254059Y-27062598D01*
X45369023Y-27234655D01*
X45515345Y-27380977D01*
X45687402Y-27495941D01*
X45878580Y-27575130D01*
X46081535Y-27615500D01*
X46081536Y-27615500D01*
X46288464Y-27615500D01*
X46288465Y-27615500D01*
X46491420Y-27575130D01*
X46682598Y-27495941D01*
X46854655Y-27380977D01*
X47000977Y-27234655D01*
X47115941Y-27062598D01*
X47195130Y-26871420D01*
X47235500Y-26668465D01*
X47235500Y-26461535D01*
X47195130Y-26258580D01*
X47115941Y-26067402D01*
X47000977Y-25895345D01*
X46854655Y-25749023D01*
X46682598Y-25634059D01*
X46491420Y-25554870D01*
X46491413Y-25554868D01*
X46338516Y-25524455D01*
X46288465Y-25514500D01*
X46081535Y-25514500D01*
X46041385Y-25522486D01*
X45878586Y-25554868D01*
X45878579Y-25554870D01*
X45687401Y-25634059D01*
X45515345Y-25749022D01*
X45515344Y-25749024D01*
X45369024Y-25895344D01*
X45369022Y-25895345D01*
X45254059Y-26067401D01*
X45174870Y-26258579D01*
X45174868Y-26258586D01*
X45134500Y-26461535D01*
X43625500Y-26461535D01*
X43625500Y-24850689D01*
X43625499Y-24850688D01*
X43597321Y-24745525D01*
X43597320Y-24745522D01*
X43597320Y-24745523D01*
X43594799Y-24736114D01*
X43594799Y-24736113D01*
X43558501Y-24673243D01*
X43535491Y-24633389D01*
X43535490Y-24633388D01*
X43535489Y-24633386D01*
X42823638Y-23921535D01*
X45134500Y-23921535D01*
X45134500Y-24128464D01*
X45174868Y-24331413D01*
X45174870Y-24331420D01*
X45254059Y-24522598D01*
X45328086Y-24633389D01*
X45369023Y-24694655D01*
X45515345Y-24840977D01*
X45687402Y-24955941D01*
X45878580Y-25035130D01*
X46081535Y-25075500D01*
X46081536Y-25075500D01*
X46288464Y-25075500D01*
X46288465Y-25075500D01*
X46491420Y-25035130D01*
X46682598Y-24955941D01*
X46854655Y-24840977D01*
X47000977Y-24694655D01*
X47115941Y-24522598D01*
X47195130Y-24331420D01*
X47235500Y-24128465D01*
X47235500Y-23921535D01*
X47674500Y-23921535D01*
X47674500Y-24128464D01*
X47714868Y-24331413D01*
X47714870Y-24331420D01*
X47794059Y-24522598D01*
X47868086Y-24633389D01*
X47909023Y-24694655D01*
X48055345Y-24840977D01*
X48227402Y-24955941D01*
X48418580Y-25035130D01*
X48621535Y-25075500D01*
X48621536Y-25075500D01*
X48828464Y-25075500D01*
X48828465Y-25075500D01*
X49031420Y-25035130D01*
X49222598Y-24955941D01*
X49394655Y-24840977D01*
X49540977Y-24694655D01*
X49655941Y-24522598D01*
X49735130Y-24331420D01*
X49775500Y-24128465D01*
X49775500Y-23921535D01*
X50214500Y-23921535D01*
X50214500Y-24128464D01*
X50254868Y-24331413D01*
X50254870Y-24331420D01*
X50334059Y-24522598D01*
X50408086Y-24633389D01*
X50449023Y-24694655D01*
X50595345Y-24840977D01*
X50767402Y-24955941D01*
X50958580Y-25035130D01*
X51161535Y-25075500D01*
X51161536Y-25075500D01*
X51368464Y-25075500D01*
X51368465Y-25075500D01*
X51571420Y-25035130D01*
X51762598Y-24955941D01*
X51934655Y-24840977D01*
X52080977Y-24694655D01*
X52195941Y-24522598D01*
X52275130Y-24331420D01*
X52315500Y-24128465D01*
X52315500Y-23921535D01*
X52275130Y-23718580D01*
X52195941Y-23527402D01*
X52080977Y-23355345D01*
X51934655Y-23209023D01*
X51854180Y-23155252D01*
X52754500Y-23155252D01*
X52754500Y-24894748D01*
X52756822Y-24906420D01*
X52766133Y-24953232D01*
X52795608Y-24997343D01*
X52810448Y-25019552D01*
X52854560Y-25049027D01*
X52876767Y-25063866D01*
X52876768Y-25063866D01*
X52876769Y-25063867D01*
X52935252Y-25075500D01*
X52935254Y-25075500D01*
X54674746Y-25075500D01*
X54674748Y-25075500D01*
X54733231Y-25063867D01*
X54799552Y-25019552D01*
X54843867Y-24953231D01*
X54855500Y-24894748D01*
X54855500Y-23730253D01*
X59859500Y-23730253D01*
X59859500Y-25469746D01*
X59871133Y-25528232D01*
X59888933Y-25554870D01*
X59915448Y-25594552D01*
X59958829Y-25623539D01*
X59981767Y-25638866D01*
X59981768Y-25638866D01*
X59981769Y-25638867D01*
X60040252Y-25650500D01*
X60040254Y-25650500D01*
X61779746Y-25650500D01*
X61779748Y-25650500D01*
X61838231Y-25638867D01*
X61904552Y-25594552D01*
X61948867Y-25528231D01*
X61960500Y-25469748D01*
X61960500Y-23730252D01*
X61948867Y-23671769D01*
X61947056Y-23669059D01*
X61916134Y-23622782D01*
X61904552Y-23605448D01*
X61881235Y-23589868D01*
X61838232Y-23561133D01*
X61838233Y-23561133D01*
X61808989Y-23555316D01*
X61779748Y-23549500D01*
X60040252Y-23549500D01*
X60011010Y-23555316D01*
X59981767Y-23561133D01*
X59915449Y-23605447D01*
X59915447Y-23605449D01*
X59871133Y-23671767D01*
X59859500Y-23730253D01*
X54855500Y-23730253D01*
X54855500Y-23155252D01*
X54843867Y-23096769D01*
X54842056Y-23094059D01*
X54829027Y-23074560D01*
X54799552Y-23030448D01*
X54776235Y-23014868D01*
X54733232Y-22986133D01*
X54733233Y-22986133D01*
X54703989Y-22980316D01*
X54674748Y-22974500D01*
X52935252Y-22974500D01*
X52906010Y-22980316D01*
X52876767Y-22986133D01*
X52810449Y-23030447D01*
X52810447Y-23030449D01*
X52766133Y-23096767D01*
X52766133Y-23096769D01*
X52754500Y-23155252D01*
X51854180Y-23155252D01*
X51762598Y-23094059D01*
X51571420Y-23014870D01*
X51571413Y-23014868D01*
X51418516Y-22984455D01*
X51368465Y-22974500D01*
X51161535Y-22974500D01*
X51121385Y-22982486D01*
X50958586Y-23014868D01*
X50958579Y-23014870D01*
X50767401Y-23094059D01*
X50595345Y-23209022D01*
X50595344Y-23209024D01*
X50449024Y-23355344D01*
X50449022Y-23355345D01*
X50334059Y-23527401D01*
X50254870Y-23718579D01*
X50254868Y-23718586D01*
X50214500Y-23921535D01*
X49775500Y-23921535D01*
X49735130Y-23718580D01*
X49655941Y-23527402D01*
X49540977Y-23355345D01*
X49394655Y-23209023D01*
X49314180Y-23155252D01*
X49222598Y-23094059D01*
X49031420Y-23014870D01*
X49031413Y-23014868D01*
X48878516Y-22984455D01*
X48828465Y-22974500D01*
X48621535Y-22974500D01*
X48581385Y-22982486D01*
X48418586Y-23014868D01*
X48418579Y-23014870D01*
X48227401Y-23094059D01*
X48055345Y-23209022D01*
X48055344Y-23209024D01*
X47909024Y-23355344D01*
X47909022Y-23355345D01*
X47794059Y-23527401D01*
X47714870Y-23718579D01*
X47714868Y-23718586D01*
X47674500Y-23921535D01*
X47235500Y-23921535D01*
X47195130Y-23718580D01*
X47115941Y-23527402D01*
X47000977Y-23355345D01*
X46854655Y-23209023D01*
X46774180Y-23155252D01*
X46682598Y-23094059D01*
X46491420Y-23014870D01*
X46491413Y-23014868D01*
X46338516Y-22984455D01*
X46288465Y-22974500D01*
X46081535Y-22974500D01*
X46041385Y-22982486D01*
X45878586Y-23014868D01*
X45878579Y-23014870D01*
X45687401Y-23094059D01*
X45515345Y-23209022D01*
X45515344Y-23209024D01*
X45369024Y-23355344D01*
X45369022Y-23355345D01*
X45254059Y-23527401D01*
X45174870Y-23718579D01*
X45174868Y-23718586D01*
X45134500Y-23921535D01*
X42823638Y-23921535D01*
X42234526Y-23332423D01*
X42212852Y-23280097D01*
X42214274Y-23265660D01*
X42236235Y-23155253D01*
X42250500Y-23083541D01*
X42250500Y-22886459D01*
X42212051Y-22693165D01*
X42136632Y-22511086D01*
X42027139Y-22347218D01*
X41887782Y-22207861D01*
X41723914Y-22098368D01*
X41723915Y-22098368D01*
X41723913Y-22098367D01*
X41541839Y-22022950D01*
X41541829Y-22022947D01*
X41412388Y-21997200D01*
X41348541Y-21984500D01*
X41151459Y-21984500D01*
X41096662Y-21995399D01*
X40958170Y-22022947D01*
X40958160Y-22022950D01*
X40776086Y-22098367D01*
X40612218Y-22207860D01*
X40612217Y-22207862D01*
X40472862Y-22347217D01*
X40472860Y-22347218D01*
X40363367Y-22511086D01*
X40287950Y-22693160D01*
X40287947Y-22693170D01*
X40255850Y-22854535D01*
X40249500Y-22886459D01*
X40249500Y-23083541D01*
X40262200Y-23147388D01*
X40287947Y-23276829D01*
X40287950Y-23276839D01*
X40363367Y-23458913D01*
X40461279Y-23605448D01*
X40472861Y-23622782D01*
X40612218Y-23762139D01*
X40776086Y-23871632D01*
X40958165Y-23947051D01*
X41151459Y-23985500D01*
X41151461Y-23985500D01*
X41348539Y-23985500D01*
X41348541Y-23985500D01*
X41485995Y-23958158D01*
X41530660Y-23949274D01*
X41586209Y-23960323D01*
X41597423Y-23969526D01*
X42702826Y-25074929D01*
X42724500Y-25127255D01*
X42724500Y-50133744D01*
X42702826Y-50186070D01*
X42650500Y-50207744D01*
X42598174Y-50186070D01*
X41722174Y-49310070D01*
X41700500Y-49257744D01*
X41700500Y-41706830D01*
X41722174Y-41654504D01*
X41733383Y-41645304D01*
X41887782Y-41542139D01*
X42027139Y-41402782D01*
X42136632Y-41238914D01*
X42212051Y-41056835D01*
X42250500Y-40863541D01*
X42250500Y-40666459D01*
X42212051Y-40473165D01*
X42136632Y-40291086D01*
X42027139Y-40127218D01*
X41887782Y-39987861D01*
X41723914Y-39878368D01*
X41723915Y-39878368D01*
X41723913Y-39878367D01*
X41541839Y-39802950D01*
X41541829Y-39802947D01*
X41412388Y-39777200D01*
X41348541Y-39764500D01*
X41151459Y-39764500D01*
X41096662Y-39775399D01*
X40958170Y-39802947D01*
X40958160Y-39802950D01*
X40776086Y-39878367D01*
X40612218Y-39987860D01*
X40612217Y-39987862D01*
X40472862Y-40127217D01*
X40472860Y-40127218D01*
X40363367Y-40291086D01*
X40292867Y-40461291D01*
X40252819Y-40501340D01*
X40196182Y-40501340D01*
X40156133Y-40461292D01*
X40150500Y-40432973D01*
X40150500Y-38557026D01*
X40172174Y-38504700D01*
X40224500Y-38483026D01*
X40276826Y-38504700D01*
X40292867Y-38528708D01*
X40363367Y-38698913D01*
X40363368Y-38698914D01*
X40472861Y-38862782D01*
X40612218Y-39002139D01*
X40776086Y-39111632D01*
X40958165Y-39187051D01*
X41151459Y-39225500D01*
X41151461Y-39225500D01*
X41348539Y-39225500D01*
X41348541Y-39225500D01*
X41541835Y-39187051D01*
X41723914Y-39111632D01*
X41887782Y-39002139D01*
X42027139Y-38862782D01*
X42136632Y-38698914D01*
X42212051Y-38516835D01*
X42250500Y-38323541D01*
X42250500Y-38126459D01*
X42212051Y-37933165D01*
X42136632Y-37751086D01*
X42027139Y-37587218D01*
X41887782Y-37447861D01*
X41883384Y-37444922D01*
X41851921Y-37397830D01*
X41850500Y-37383396D01*
X41850500Y-36526603D01*
X41872174Y-36474277D01*
X41883388Y-36465074D01*
X41887782Y-36462139D01*
X42027139Y-36322782D01*
X42136632Y-36158914D01*
X42212051Y-35976835D01*
X42250500Y-35783541D01*
X42250500Y-35586459D01*
X42212051Y-35393165D01*
X42136632Y-35211086D01*
X42027139Y-35047218D01*
X41887782Y-34907861D01*
X41883384Y-34904922D01*
X41851921Y-34857830D01*
X41850500Y-34843396D01*
X41850500Y-33986603D01*
X41872174Y-33934277D01*
X41883388Y-33925074D01*
X41887782Y-33922139D01*
X42027139Y-33782782D01*
X42136632Y-33618914D01*
X42212051Y-33436835D01*
X42250500Y-33243541D01*
X42250500Y-33046459D01*
X42212051Y-32853165D01*
X42136632Y-32671086D01*
X42027139Y-32507218D01*
X41887782Y-32367861D01*
X41883384Y-32364922D01*
X41851921Y-32317830D01*
X41850500Y-32303396D01*
X41850500Y-31446603D01*
X41872174Y-31394277D01*
X41883388Y-31385074D01*
X41887782Y-31382139D01*
X42027139Y-31242782D01*
X42136632Y-31078914D01*
X42212051Y-30896835D01*
X42250500Y-30703541D01*
X42250500Y-30506459D01*
X42212051Y-30313165D01*
X42136632Y-30131086D01*
X42027139Y-29967218D01*
X41887782Y-29827861D01*
X41883384Y-29824922D01*
X41851921Y-29777830D01*
X41850500Y-29763396D01*
X41850500Y-28906603D01*
X41872174Y-28854277D01*
X41883388Y-28845074D01*
X41887782Y-28842139D01*
X42027139Y-28702782D01*
X42136632Y-28538914D01*
X42212051Y-28356835D01*
X42250500Y-28163541D01*
X42250500Y-27966459D01*
X42212051Y-27773165D01*
X42136632Y-27591086D01*
X42027139Y-27427218D01*
X41887782Y-27287861D01*
X41848485Y-27261603D01*
X41723913Y-27178367D01*
X41541839Y-27102950D01*
X41541829Y-27102947D01*
X41412388Y-27077200D01*
X41348541Y-27064500D01*
X41151459Y-27064500D01*
X41096662Y-27075399D01*
X40958170Y-27102947D01*
X40958160Y-27102950D01*
X40776086Y-27178367D01*
X40612218Y-27287860D01*
X40612217Y-27287862D01*
X40472862Y-27427217D01*
X40472860Y-27427218D01*
X40363367Y-27591086D01*
X40292867Y-27761291D01*
X40252819Y-27801340D01*
X40196182Y-27801340D01*
X40156133Y-27761292D01*
X40150500Y-27732973D01*
X40150500Y-27292254D01*
X40172173Y-27239929D01*
X40902577Y-26509524D01*
X40954902Y-26487851D01*
X40969332Y-26489272D01*
X41151459Y-26525500D01*
X41151461Y-26525500D01*
X41348539Y-26525500D01*
X41348541Y-26525500D01*
X41541835Y-26487051D01*
X41723914Y-26411632D01*
X41887782Y-26302139D01*
X42027139Y-26162782D01*
X42136632Y-25998914D01*
X42212051Y-25816835D01*
X42250500Y-25623541D01*
X42250500Y-25426459D01*
X42212051Y-25233165D01*
X42136632Y-25051086D01*
X42027139Y-24887218D01*
X41887782Y-24747861D01*
X41884282Y-24745522D01*
X41723913Y-24638367D01*
X41541839Y-24562950D01*
X41541829Y-24562947D01*
X41412388Y-24537200D01*
X41348541Y-24524500D01*
X41151459Y-24524500D01*
X41096662Y-24535399D01*
X40958170Y-24562947D01*
X40958160Y-24562950D01*
X40776086Y-24638367D01*
X40612218Y-24747860D01*
X40612217Y-24747862D01*
X40472862Y-24887217D01*
X40472860Y-24887218D01*
X40363367Y-25051086D01*
X40287950Y-25233160D01*
X40287947Y-25233170D01*
X40249500Y-25426460D01*
X40249500Y-25623540D01*
X40285725Y-25805660D01*
X40274676Y-25861208D01*
X40265473Y-25872422D01*
X39339508Y-26798389D01*
X39280201Y-26901112D01*
X39277680Y-26910523D01*
X39277679Y-26910522D01*
X39277679Y-26910525D01*
X39249500Y-27015688D01*
X39249500Y-49209308D01*
X39273712Y-49299672D01*
X39280200Y-49323883D01*
X39280203Y-49323891D01*
X39339508Y-49426610D01*
X39339509Y-49426611D01*
X39339511Y-49426614D01*
X43398386Y-53485489D01*
X43501113Y-53544799D01*
X43501115Y-53544799D01*
X43501116Y-53544800D01*
X43509184Y-53546961D01*
X43525326Y-53551286D01*
X43597618Y-53570657D01*
X43615690Y-53575500D01*
X43615691Y-53575500D01*
X44283744Y-53575500D01*
X44336070Y-53597174D01*
X44357744Y-53649500D01*
X44336070Y-53701826D01*
X43314508Y-54723389D01*
X43255201Y-54826111D01*
X43253730Y-54831603D01*
X43248713Y-54850326D01*
X43224500Y-54940688D01*
X43224500Y-60757745D01*
X43202826Y-60810071D01*
X40975071Y-63037826D01*
X40922745Y-63059500D01*
X34955256Y-63059500D01*
X34913221Y-63042088D01*
X34911612Y-63044497D01*
X34839232Y-62996133D01*
X34839233Y-62996133D01*
X34809989Y-62990316D01*
X34780748Y-62984500D01*
X34780746Y-62984500D01*
X33299500Y-62984500D01*
X33247174Y-62962826D01*
X33225500Y-62910500D01*
X33225500Y-62533161D01*
X33247174Y-62480835D01*
X33299364Y-62459161D01*
X38375000Y-62450000D01*
X38464934Y-54689907D01*
X38469081Y-54666330D01*
X38497646Y-54584699D01*
X38500500Y-54554266D01*
X38500500Y-52445734D01*
X38497646Y-52415301D01*
X38495797Y-52410018D01*
X38491649Y-52384723D01*
X38550000Y-47350000D01*
X38549998Y-47349999D01*
X38549999Y-47349999D01*
X37118172Y-47332165D01*
X37066120Y-47309841D01*
X37045100Y-47257249D01*
X37067424Y-47205197D01*
X37085495Y-47192238D01*
X37113342Y-47178050D01*
X37203050Y-47088342D01*
X37260646Y-46975304D01*
X37275500Y-46881519D01*
X37275499Y-46418482D01*
X37262079Y-46333747D01*
X37260646Y-46324695D01*
X37260645Y-46324693D01*
X37206121Y-46217686D01*
X37203050Y-46211658D01*
X37113342Y-46121950D01*
X37000304Y-46064354D01*
X37000302Y-46064353D01*
X37000301Y-46064353D01*
X36906520Y-46049500D01*
X36906519Y-46049500D01*
X36491254Y-46049500D01*
X36438928Y-46027826D01*
X36417254Y-45975500D01*
X36438928Y-45923174D01*
X36567785Y-45794318D01*
X36739930Y-45622173D01*
X36792256Y-45600499D01*
X36906519Y-45600499D01*
X37000304Y-45585646D01*
X37000306Y-45585645D01*
X37022179Y-45574500D01*
X37113342Y-45528050D01*
X37203050Y-45438342D01*
X37260646Y-45325304D01*
X37275500Y-45231519D01*
X37275499Y-44768482D01*
X37274576Y-44762656D01*
X37260646Y-44674695D01*
X37260645Y-44674693D01*
X37230770Y-44616061D01*
X37203050Y-44561658D01*
X37113342Y-44471950D01*
X37000304Y-44414354D01*
X37000302Y-44414353D01*
X37000301Y-44414353D01*
X36906519Y-44399500D01*
X36293480Y-44399500D01*
X36199695Y-44414353D01*
X36199693Y-44414354D01*
X36086657Y-44471950D01*
X35996951Y-44561656D01*
X35939353Y-44674698D01*
X35924500Y-44768480D01*
X35924500Y-45132743D01*
X35902826Y-45185069D01*
X35060069Y-46027826D01*
X35007743Y-46049500D01*
X34768480Y-46049500D01*
X34674695Y-46064353D01*
X34674693Y-46064354D01*
X34561657Y-46121950D01*
X34471951Y-46211656D01*
X34414353Y-46324698D01*
X34399500Y-46418480D01*
X34399500Y-46657743D01*
X34377826Y-46710069D01*
X33981515Y-47106379D01*
X33929189Y-47128053D01*
X33876863Y-47106379D01*
X33855189Y-47054053D01*
X33863253Y-47020463D01*
X33909719Y-46929270D01*
X33925500Y-46829632D01*
X33925500Y-46312656D01*
X33909719Y-46213018D01*
X33848528Y-46092924D01*
X33753220Y-45997616D01*
X33753219Y-45997615D01*
X33633126Y-45936425D01*
X33633125Y-45936424D01*
X33533489Y-45920644D01*
X33533488Y-45920644D01*
X33166255Y-45920644D01*
X33113929Y-45898970D01*
X33092255Y-45846644D01*
X33113929Y-45794318D01*
X33214929Y-45693318D01*
X33267255Y-45671644D01*
X33533489Y-45671644D01*
X33583307Y-45663753D01*
X33633126Y-45655863D01*
X33753220Y-45594672D01*
X33848528Y-45499364D01*
X33909719Y-45379270D01*
X33925500Y-45279632D01*
X33925500Y-44762656D01*
X33909719Y-44663018D01*
X33848528Y-44542924D01*
X33753220Y-44447616D01*
X33753219Y-44447615D01*
X33633126Y-44386425D01*
X33633125Y-44386424D01*
X33533489Y-44370644D01*
X33533488Y-44370644D01*
X32966512Y-44370644D01*
X32966511Y-44370644D01*
X32866874Y-44386424D01*
X32866873Y-44386425D01*
X32746780Y-44447615D01*
X32746779Y-44447616D01*
X32651474Y-44542922D01*
X32651472Y-44542924D01*
X32633689Y-44577826D01*
X32590281Y-44663017D01*
X32590280Y-44663018D01*
X32574500Y-44762655D01*
X32574500Y-45028888D01*
X32552826Y-45081214D01*
X31610069Y-46023970D01*
X31557743Y-46045644D01*
X31393480Y-46045644D01*
X31299695Y-46060497D01*
X31299693Y-46060498D01*
X31186657Y-46118094D01*
X31096951Y-46207800D01*
X31096950Y-46207802D01*
X31043525Y-46312655D01*
X31039353Y-46320842D01*
X31024500Y-46414624D01*
X31024500Y-46877663D01*
X31039353Y-46971448D01*
X31039354Y-46971450D01*
X31096950Y-47084486D01*
X31143225Y-47130761D01*
X31164899Y-47183087D01*
X31143225Y-47235413D01*
X31090899Y-47257087D01*
X31089977Y-47257081D01*
X30797181Y-47253434D01*
X30745129Y-47231110D01*
X30724109Y-47178518D01*
X30745777Y-47127114D01*
X30773528Y-47099364D01*
X30834719Y-46979270D01*
X30850500Y-46879632D01*
X30850500Y-46362656D01*
X30834719Y-46263018D01*
X30773528Y-46142924D01*
X30678220Y-46047616D01*
X30678219Y-46047615D01*
X30558126Y-45986425D01*
X30558125Y-45986424D01*
X30458489Y-45970644D01*
X30458488Y-45970644D01*
X29891512Y-45970644D01*
X29891511Y-45970644D01*
X29791874Y-45986424D01*
X29791873Y-45986425D01*
X29671780Y-46047615D01*
X29576471Y-46142924D01*
X29515281Y-46263017D01*
X29515280Y-46263018D01*
X29499500Y-46362655D01*
X29499500Y-46879632D01*
X29515280Y-46979269D01*
X29515281Y-46979270D01*
X29576471Y-47099363D01*
X29588504Y-47111396D01*
X29610178Y-47163722D01*
X29588504Y-47216048D01*
X29536178Y-47237722D01*
X29535256Y-47237716D01*
X24500000Y-47174999D01*
X24504781Y-50101773D01*
X24483192Y-50154134D01*
X24430902Y-50175894D01*
X24378541Y-50154305D01*
X24378455Y-50154220D01*
X23397174Y-49172939D01*
X23375500Y-49120613D01*
X23375500Y-48495740D01*
X23375500Y-48495734D01*
X23372646Y-48465301D01*
X23354393Y-48413138D01*
X23327793Y-48337118D01*
X23327792Y-48337116D01*
X23247153Y-48227853D01*
X23247146Y-48227846D01*
X23137883Y-48147207D01*
X23137881Y-48147206D01*
X23009704Y-48102355D01*
X23009705Y-48102355D01*
X23009700Y-48102354D01*
X23009699Y-48102354D01*
X22992588Y-48100749D01*
X22942517Y-48074284D01*
X22925500Y-48027073D01*
X22925500Y-46746738D01*
X22947174Y-46694412D01*
X22958389Y-46685209D01*
X22975430Y-46673822D01*
X22994655Y-46660977D01*
X23140977Y-46514655D01*
X23165210Y-46478388D01*
X23212303Y-46446922D01*
X23226739Y-46445500D01*
X25646397Y-46445500D01*
X25646413Y-46445501D01*
X25650943Y-46445501D01*
X25809059Y-46445501D01*
X25809059Y-46445500D01*
X25961785Y-46404577D01*
X26034394Y-46362656D01*
X26098716Y-46325520D01*
X26210520Y-46213716D01*
X26210521Y-46213713D01*
X26679514Y-45744719D01*
X26731839Y-45723046D01*
X26746269Y-45724467D01*
X26751459Y-45725500D01*
X26751463Y-45725500D01*
X26948539Y-45725500D01*
X26948541Y-45725500D01*
X27141835Y-45687051D01*
X27323914Y-45611632D01*
X27487782Y-45502139D01*
X27627139Y-45362782D01*
X27736632Y-45198914D01*
X27812051Y-45016835D01*
X27850500Y-44823541D01*
X27850500Y-44626459D01*
X27849469Y-44621279D01*
X27860513Y-44565733D01*
X27869715Y-44554518D01*
X28918713Y-43505521D01*
X28918716Y-43505520D01*
X29030520Y-43393716D01*
X29081624Y-43305201D01*
X29109577Y-43256785D01*
X29150499Y-43104059D01*
X29150500Y-43104059D01*
X29150500Y-41606603D01*
X29172174Y-41554277D01*
X29183388Y-41545074D01*
X29187782Y-41542139D01*
X29327139Y-41402782D01*
X29436632Y-41238914D01*
X29512051Y-41056835D01*
X29550500Y-40863541D01*
X29550500Y-40666459D01*
X29512051Y-40473165D01*
X29436632Y-40291086D01*
X29327139Y-40127218D01*
X29187782Y-39987861D01*
X29023914Y-39878368D01*
X29023915Y-39878368D01*
X29023913Y-39878367D01*
X28841839Y-39802950D01*
X28841829Y-39802947D01*
X28712388Y-39777200D01*
X28648541Y-39764500D01*
X28451459Y-39764500D01*
X28396662Y-39775399D01*
X28258170Y-39802947D01*
X28258160Y-39802950D01*
X28076086Y-39878367D01*
X27912218Y-39987860D01*
X27912217Y-39987862D01*
X27772862Y-40127217D01*
X27772860Y-40127218D01*
X27663367Y-40291086D01*
X27587950Y-40473160D01*
X27587947Y-40473170D01*
X27549500Y-40666460D01*
X27549500Y-40863539D01*
X27587947Y-41056829D01*
X27587950Y-41056839D01*
X27663367Y-41238913D01*
X27663368Y-41238914D01*
X27772861Y-41402782D01*
X27912218Y-41542139D01*
X27916607Y-41545072D01*
X27948077Y-41592160D01*
X27949500Y-41606603D01*
X27949500Y-42745612D01*
X27927826Y-42797938D01*
X27020485Y-43705278D01*
X26968159Y-43726952D01*
X26953729Y-43725532D01*
X26948541Y-43724500D01*
X26751459Y-43724500D01*
X26704977Y-43733746D01*
X26558170Y-43762947D01*
X26558160Y-43762950D01*
X26376086Y-43838367D01*
X26212218Y-43947860D01*
X26212217Y-43947862D01*
X26072862Y-44087217D01*
X26072860Y-44087218D01*
X25963367Y-44251086D01*
X25887950Y-44433160D01*
X25887947Y-44433170D01*
X25866116Y-44542924D01*
X25849500Y-44626459D01*
X25849500Y-44823541D01*
X25850532Y-44828729D01*
X25839477Y-44884277D01*
X25830278Y-44895485D01*
X25502939Y-45222826D01*
X25450613Y-45244500D01*
X23226739Y-45244500D01*
X23174413Y-45222826D01*
X23165210Y-45211612D01*
X23140979Y-45175348D01*
X23140978Y-45175347D01*
X23140977Y-45175345D01*
X22994655Y-45029023D01*
X22976420Y-45016839D01*
X22822598Y-44914059D01*
X22631420Y-44834870D01*
X22631413Y-44834868D01*
X22478516Y-44804455D01*
X22428465Y-44794500D01*
X22221535Y-44794500D01*
X22185790Y-44801610D01*
X22018586Y-44834868D01*
X22018579Y-44834870D01*
X21827401Y-44914059D01*
X21655345Y-45029022D01*
X21655344Y-45029024D01*
X21509024Y-45175344D01*
X21509022Y-45175345D01*
X21394059Y-45347401D01*
X21314870Y-45538579D01*
X21314868Y-45538586D01*
X21274500Y-45741535D01*
X21274500Y-45948465D01*
X21282051Y-45986425D01*
X21314868Y-46151413D01*
X21314870Y-46151420D01*
X21394059Y-46342598D01*
X21509022Y-46514654D01*
X21655344Y-46660976D01*
X21655349Y-46660980D01*
X21691611Y-46685209D01*
X21723078Y-46732300D01*
X21724500Y-46746738D01*
X21724500Y-48025500D01*
X21702826Y-48077826D01*
X21650500Y-48099500D01*
X21620734Y-48099500D01*
X21590301Y-48102354D01*
X21590299Y-48102354D01*
X21590295Y-48102355D01*
X21462118Y-48147206D01*
X21462116Y-48147207D01*
X21352853Y-48227846D01*
X21352846Y-48227853D01*
X21272207Y-48337116D01*
X21272206Y-48337118D01*
X21227355Y-48465295D01*
X21227354Y-48465299D01*
X21227354Y-48465301D01*
X21224500Y-48495734D01*
X20200500Y-48495734D01*
X20200500Y-35861535D01*
X21174500Y-35861535D01*
X21174500Y-36068464D01*
X21214868Y-36271413D01*
X21214870Y-36271420D01*
X21294059Y-36462598D01*
X21366912Y-36571632D01*
X21409023Y-36634655D01*
X21555345Y-36780977D01*
X21727402Y-36895941D01*
X21918580Y-36975130D01*
X22121535Y-37015500D01*
X22121536Y-37015500D01*
X22328464Y-37015500D01*
X22328465Y-37015500D01*
X22531420Y-36975130D01*
X22722598Y-36895941D01*
X22894655Y-36780977D01*
X23040977Y-36634655D01*
X23065210Y-36598388D01*
X23112303Y-36566922D01*
X23126739Y-36565500D01*
X28046563Y-36565500D01*
X28074881Y-36571133D01*
X28228231Y-36634652D01*
X28258165Y-36647051D01*
X28451459Y-36685500D01*
X28451461Y-36685500D01*
X28648539Y-36685500D01*
X28648541Y-36685500D01*
X28841835Y-36647051D01*
X29023914Y-36571632D01*
X29187782Y-36462139D01*
X29327139Y-36322782D01*
X29436632Y-36158914D01*
X29512051Y-35976835D01*
X29550500Y-35783541D01*
X29550500Y-35586459D01*
X29512051Y-35393165D01*
X29436632Y-35211086D01*
X29327139Y-35047218D01*
X29187782Y-34907861D01*
X29112906Y-34857830D01*
X29023913Y-34798367D01*
X28841839Y-34722950D01*
X28841829Y-34722947D01*
X28712388Y-34697200D01*
X28648541Y-34684500D01*
X28451459Y-34684500D01*
X28396662Y-34695399D01*
X28258170Y-34722947D01*
X28258160Y-34722950D01*
X28076086Y-34798367D01*
X27912218Y-34907860D01*
X27912217Y-34907862D01*
X27772862Y-35047217D01*
X27772860Y-35047218D01*
X27663365Y-35211090D01*
X27618744Y-35318818D01*
X27578696Y-35358867D01*
X27550377Y-35364500D01*
X23126739Y-35364500D01*
X23074413Y-35342826D01*
X23065210Y-35331612D01*
X23040979Y-35295348D01*
X23040978Y-35295347D01*
X23040977Y-35295345D01*
X22894655Y-35149023D01*
X22742290Y-35047217D01*
X22722598Y-35034059D01*
X22531420Y-34954870D01*
X22531413Y-34954868D01*
X22378516Y-34924455D01*
X22328465Y-34914500D01*
X22121535Y-34914500D01*
X22081385Y-34922486D01*
X21918586Y-34954868D01*
X21918579Y-34954870D01*
X21727401Y-35034059D01*
X21555345Y-35149022D01*
X21555344Y-35149024D01*
X21409024Y-35295344D01*
X21409022Y-35295345D01*
X21294059Y-35467401D01*
X21214870Y-35658579D01*
X21214868Y-35658586D01*
X21174500Y-35861535D01*
X20200500Y-35861535D01*
X20200500Y-33321535D01*
X21174500Y-33321535D01*
X21174500Y-33528464D01*
X21214868Y-33731413D01*
X21214870Y-33731420D01*
X21294059Y-33922598D01*
X21366912Y-34031632D01*
X21409023Y-34094655D01*
X21555345Y-34240977D01*
X21727402Y-34355941D01*
X21918580Y-34435130D01*
X22121535Y-34475500D01*
X22121536Y-34475500D01*
X22328464Y-34475500D01*
X22328465Y-34475500D01*
X22531420Y-34435130D01*
X22722598Y-34355941D01*
X22894655Y-34240977D01*
X23040977Y-34094655D01*
X23065210Y-34058388D01*
X23112303Y-34026922D01*
X23126739Y-34025500D01*
X28046563Y-34025500D01*
X28074881Y-34031133D01*
X28228231Y-34094652D01*
X28258165Y-34107051D01*
X28451459Y-34145500D01*
X28451461Y-34145500D01*
X28648539Y-34145500D01*
X28648541Y-34145500D01*
X28841835Y-34107051D01*
X29023914Y-34031632D01*
X29187782Y-33922139D01*
X29327139Y-33782782D01*
X29436632Y-33618914D01*
X29512051Y-33436835D01*
X29550500Y-33243541D01*
X29550500Y-33046459D01*
X29512051Y-32853165D01*
X29436632Y-32671086D01*
X29327139Y-32507218D01*
X29187782Y-32367861D01*
X29154603Y-32345691D01*
X29023913Y-32258367D01*
X28841839Y-32182950D01*
X28841829Y-32182947D01*
X28712388Y-32157200D01*
X28648541Y-32144500D01*
X28451459Y-32144500D01*
X28396662Y-32155399D01*
X28258170Y-32182947D01*
X28258160Y-32182950D01*
X28076086Y-32258367D01*
X27912218Y-32367860D01*
X27912217Y-32367862D01*
X27772862Y-32507217D01*
X27772860Y-32507218D01*
X27663365Y-32671090D01*
X27618744Y-32778818D01*
X27578696Y-32818867D01*
X27550377Y-32824500D01*
X23126739Y-32824500D01*
X23074413Y-32802826D01*
X23065210Y-32791612D01*
X23040979Y-32755348D01*
X23040978Y-32755347D01*
X23040977Y-32755345D01*
X22894655Y-32609023D01*
X22742290Y-32507217D01*
X22722598Y-32494059D01*
X22531420Y-32414870D01*
X22531413Y-32414868D01*
X22378516Y-32384455D01*
X22328465Y-32374500D01*
X22121535Y-32374500D01*
X22081385Y-32382486D01*
X21918586Y-32414868D01*
X21918579Y-32414870D01*
X21727401Y-32494059D01*
X21555345Y-32609022D01*
X21555344Y-32609024D01*
X21409024Y-32755344D01*
X21409022Y-32755345D01*
X21294059Y-32927401D01*
X21214870Y-33118579D01*
X21214868Y-33118586D01*
X21174500Y-33321535D01*
X20200500Y-33321535D01*
X20200500Y-30781535D01*
X21174500Y-30781535D01*
X21174500Y-30988464D01*
X21214868Y-31191413D01*
X21214870Y-31191420D01*
X21294059Y-31382598D01*
X21366912Y-31491632D01*
X21409023Y-31554655D01*
X21555345Y-31700977D01*
X21727402Y-31815941D01*
X21918580Y-31895130D01*
X22121535Y-31935500D01*
X22121536Y-31935500D01*
X22328464Y-31935500D01*
X22328465Y-31935500D01*
X22531420Y-31895130D01*
X22722598Y-31815941D01*
X22894655Y-31700977D01*
X23040977Y-31554655D01*
X23065210Y-31518388D01*
X23112303Y-31486922D01*
X23126739Y-31485500D01*
X28046563Y-31485500D01*
X28074881Y-31491133D01*
X28228231Y-31554652D01*
X28258165Y-31567051D01*
X28451459Y-31605500D01*
X28451461Y-31605500D01*
X28648539Y-31605500D01*
X28648541Y-31605500D01*
X28841835Y-31567051D01*
X29023914Y-31491632D01*
X29187782Y-31382139D01*
X29327139Y-31242782D01*
X29436632Y-31078914D01*
X29512051Y-30896835D01*
X29550500Y-30703541D01*
X29550500Y-30506459D01*
X29512051Y-30313165D01*
X29436632Y-30131086D01*
X29327139Y-29967218D01*
X29187782Y-29827861D01*
X29112906Y-29777830D01*
X29023913Y-29718367D01*
X28841839Y-29642950D01*
X28841829Y-29642947D01*
X28712388Y-29617200D01*
X28648541Y-29604500D01*
X28451459Y-29604500D01*
X28396662Y-29615399D01*
X28258170Y-29642947D01*
X28258160Y-29642950D01*
X28076086Y-29718367D01*
X27912218Y-29827860D01*
X27912217Y-29827862D01*
X27772862Y-29967217D01*
X27772860Y-29967218D01*
X27663365Y-30131090D01*
X27618744Y-30238818D01*
X27578696Y-30278867D01*
X27550377Y-30284500D01*
X23126739Y-30284500D01*
X23074413Y-30262826D01*
X23065210Y-30251612D01*
X23040979Y-30215348D01*
X23040978Y-30215347D01*
X23040977Y-30215345D01*
X22894655Y-30069023D01*
X22742290Y-29967217D01*
X22722598Y-29954059D01*
X22531420Y-29874870D01*
X22531413Y-29874868D01*
X22378516Y-29844455D01*
X22328465Y-29834500D01*
X22121535Y-29834500D01*
X22081385Y-29842486D01*
X21918586Y-29874868D01*
X21918579Y-29874870D01*
X21727401Y-29954059D01*
X21555345Y-30069022D01*
X21555344Y-30069024D01*
X21409024Y-30215344D01*
X21409022Y-30215345D01*
X21294059Y-30387401D01*
X21214870Y-30578579D01*
X21214868Y-30578586D01*
X21174500Y-30781535D01*
X20200500Y-30781535D01*
X20200500Y-27475253D01*
X21174500Y-27475253D01*
X21174500Y-29214746D01*
X21186133Y-29273232D01*
X21215608Y-29317343D01*
X21230448Y-29339552D01*
X21274560Y-29369027D01*
X21296767Y-29383866D01*
X21296768Y-29383866D01*
X21296769Y-29383867D01*
X21355252Y-29395500D01*
X21355254Y-29395500D01*
X23094746Y-29395500D01*
X23094748Y-29395500D01*
X23153231Y-29383867D01*
X23219552Y-29339552D01*
X23263867Y-29273231D01*
X23275500Y-29214748D01*
X23275500Y-29019500D01*
X23297174Y-28967174D01*
X23349500Y-28945500D01*
X28046563Y-28945500D01*
X28074881Y-28951133D01*
X28076086Y-28951632D01*
X28258165Y-29027051D01*
X28451459Y-29065500D01*
X28451461Y-29065500D01*
X28648539Y-29065500D01*
X28648541Y-29065500D01*
X28841835Y-29027051D01*
X29023914Y-28951632D01*
X29187782Y-28842139D01*
X29327139Y-28702782D01*
X29436632Y-28538914D01*
X29512051Y-28356835D01*
X29550500Y-28163541D01*
X29550500Y-27966459D01*
X29512051Y-27773165D01*
X29436632Y-27591086D01*
X29327139Y-27427218D01*
X29187782Y-27287861D01*
X29148485Y-27261603D01*
X29023913Y-27178367D01*
X28841839Y-27102950D01*
X28841829Y-27102947D01*
X28712388Y-27077200D01*
X28648541Y-27064500D01*
X28451459Y-27064500D01*
X28396662Y-27075399D01*
X28258170Y-27102947D01*
X28258160Y-27102950D01*
X28076086Y-27178367D01*
X27912218Y-27287860D01*
X27912217Y-27287862D01*
X27772862Y-27427217D01*
X27772860Y-27427218D01*
X27663365Y-27591090D01*
X27618744Y-27698818D01*
X27578696Y-27738867D01*
X27550377Y-27744500D01*
X23349500Y-27744500D01*
X23297174Y-27722826D01*
X23275500Y-27670500D01*
X23275500Y-27475253D01*
X23265945Y-27427217D01*
X23263867Y-27416769D01*
X23219552Y-27350448D01*
X23197343Y-27335608D01*
X23153232Y-27306133D01*
X23153233Y-27306133D01*
X23123989Y-27300316D01*
X23094748Y-27294500D01*
X21355252Y-27294500D01*
X21326010Y-27300316D01*
X21296767Y-27306133D01*
X21230449Y-27350447D01*
X21230447Y-27350449D01*
X21186133Y-27416767D01*
X21174500Y-27475253D01*
X20200500Y-27475253D01*
X20200500Y-25426459D01*
X27549500Y-25426459D01*
X27549500Y-25623541D01*
X27552549Y-25638867D01*
X27587947Y-25816829D01*
X27587950Y-25816839D01*
X27663367Y-25998913D01*
X27709130Y-26067401D01*
X27772861Y-26162782D01*
X27912218Y-26302139D01*
X28076086Y-26411632D01*
X28258165Y-26487051D01*
X28451459Y-26525500D01*
X28451461Y-26525500D01*
X28648539Y-26525500D01*
X28648541Y-26525500D01*
X28841835Y-26487051D01*
X29023914Y-26411632D01*
X29187782Y-26302139D01*
X29327139Y-26162782D01*
X29436632Y-25998914D01*
X29512051Y-25816835D01*
X29550500Y-25623541D01*
X29550500Y-25426459D01*
X29512051Y-25233165D01*
X29436632Y-25051086D01*
X29327139Y-24887218D01*
X29187782Y-24747861D01*
X29184282Y-24745522D01*
X29023913Y-24638367D01*
X28841839Y-24562950D01*
X28841829Y-24562947D01*
X28712388Y-24537200D01*
X28648541Y-24524500D01*
X28451459Y-24524500D01*
X28396662Y-24535399D01*
X28258170Y-24562947D01*
X28258160Y-24562950D01*
X28076086Y-24638367D01*
X27912218Y-24747860D01*
X27912217Y-24747862D01*
X27772862Y-24887217D01*
X27772860Y-24887218D01*
X27663367Y-25051086D01*
X27587950Y-25233160D01*
X27587947Y-25233170D01*
X27580690Y-25269656D01*
X27549500Y-25426459D01*
X20200500Y-25426459D01*
X20200500Y-20274500D01*
X20222174Y-20222174D01*
X20274500Y-20200500D01*
X82625500Y-20200500D01*
X82677826Y-20222174D01*
G37*
%TD.AperFunction*%
%TD*%
M02*
