%TF.GenerationSoftware,KiCad,Pcbnew,10.0.4*%
%TF.CreationDate,2026-07-23T03:48:32+06:00*%
%TF.ProjectId,rader,72616465-722e-46b6-9963-61645f706362,rev?*%
%TF.SameCoordinates,Original*%
%TF.FileFunction,Legend,Top*%
%TF.FilePolarity,Positive*%
%FSLAX46Y46*%
G04 Gerber Fmt 4.6, Leading zero omitted, Abs format (unit mm)*
G04 Created by KiCad (PCBNEW 10.0.4) date 2026-07-23 03:48:32*
%MOMM*%
%LPD*%
G01*
G04 APERTURE LIST*
%ADD10C,0.160000*%
%ADD11C,0.100000*%
%ADD12C,0.200000*%
%ADD13C,0.150000*%
%ADD14C,0.254000*%
%ADD15C,0.120000*%
%ADD16C,0.000000*%
G04 APERTURE END LIST*
D10*
X24989786Y-28451045D02*
X24532643Y-28451045D01*
X24761215Y-28451045D02*
X24761215Y-27651045D01*
X24761215Y-27651045D02*
X24685024Y-27765330D01*
X24685024Y-27765330D02*
X24608834Y-27841521D01*
X24608834Y-27841521D02*
X24532643Y-27879616D01*
X25599310Y-28031997D02*
X25713596Y-28070092D01*
X25713596Y-28070092D02*
X25751691Y-28108188D01*
X25751691Y-28108188D02*
X25789787Y-28184378D01*
X25789787Y-28184378D02*
X25789787Y-28298664D01*
X25789787Y-28298664D02*
X25751691Y-28374854D01*
X25751691Y-28374854D02*
X25713596Y-28412950D01*
X25713596Y-28412950D02*
X25637406Y-28451045D01*
X25637406Y-28451045D02*
X25332644Y-28451045D01*
X25332644Y-28451045D02*
X25332644Y-27651045D01*
X25332644Y-27651045D02*
X25599310Y-27651045D01*
X25599310Y-27651045D02*
X25675501Y-27689140D01*
X25675501Y-27689140D02*
X25713596Y-27727235D01*
X25713596Y-27727235D02*
X25751691Y-27803426D01*
X25751691Y-27803426D02*
X25751691Y-27879616D01*
X25751691Y-27879616D02*
X25713596Y-27955807D01*
X25713596Y-27955807D02*
X25675501Y-27993902D01*
X25675501Y-27993902D02*
X25599310Y-28031997D01*
X25599310Y-28031997D02*
X25332644Y-28031997D01*
X24989786Y-31026955D02*
X24532643Y-31026955D01*
X24761215Y-31026955D02*
X24761215Y-30226955D01*
X24761215Y-30226955D02*
X24685024Y-30341240D01*
X24685024Y-30341240D02*
X24608834Y-30417431D01*
X24608834Y-30417431D02*
X24532643Y-30455526D01*
X25294548Y-30798383D02*
X25675501Y-30798383D01*
X25218358Y-31026955D02*
X25485025Y-30226955D01*
X25485025Y-30226955D02*
X25751691Y-31026955D01*
X24532643Y-32879055D02*
X24570739Y-32840960D01*
X24570739Y-32840960D02*
X24646929Y-32802865D01*
X24646929Y-32802865D02*
X24837405Y-32802865D01*
X24837405Y-32802865D02*
X24913596Y-32840960D01*
X24913596Y-32840960D02*
X24951691Y-32879055D01*
X24951691Y-32879055D02*
X24989786Y-32955246D01*
X24989786Y-32955246D02*
X24989786Y-33031436D01*
X24989786Y-33031436D02*
X24951691Y-33145722D01*
X24951691Y-33145722D02*
X24494548Y-33602865D01*
X24494548Y-33602865D02*
X24989786Y-33602865D01*
X25294548Y-33374293D02*
X25675501Y-33374293D01*
X25218358Y-33602865D02*
X25485025Y-32802865D01*
X25485025Y-32802865D02*
X25751691Y-33602865D01*
X24532643Y-35454965D02*
X24570739Y-35416870D01*
X24570739Y-35416870D02*
X24646929Y-35378775D01*
X24646929Y-35378775D02*
X24837405Y-35378775D01*
X24837405Y-35378775D02*
X24913596Y-35416870D01*
X24913596Y-35416870D02*
X24951691Y-35454965D01*
X24951691Y-35454965D02*
X24989786Y-35531156D01*
X24989786Y-35531156D02*
X24989786Y-35607346D01*
X24989786Y-35607346D02*
X24951691Y-35721632D01*
X24951691Y-35721632D02*
X24494548Y-36178775D01*
X24494548Y-36178775D02*
X24989786Y-36178775D01*
X25599310Y-35759727D02*
X25713596Y-35797822D01*
X25713596Y-35797822D02*
X25751691Y-35835918D01*
X25751691Y-35835918D02*
X25789787Y-35912108D01*
X25789787Y-35912108D02*
X25789787Y-36026394D01*
X25789787Y-36026394D02*
X25751691Y-36102584D01*
X25751691Y-36102584D02*
X25713596Y-36140680D01*
X25713596Y-36140680D02*
X25637406Y-36178775D01*
X25637406Y-36178775D02*
X25332644Y-36178775D01*
X25332644Y-36178775D02*
X25332644Y-35378775D01*
X25332644Y-35378775D02*
X25599310Y-35378775D01*
X25599310Y-35378775D02*
X25675501Y-35416870D01*
X25675501Y-35416870D02*
X25713596Y-35454965D01*
X25713596Y-35454965D02*
X25751691Y-35531156D01*
X25751691Y-35531156D02*
X25751691Y-35607346D01*
X25751691Y-35607346D02*
X25713596Y-35683537D01*
X25713596Y-35683537D02*
X25675501Y-35721632D01*
X25675501Y-35721632D02*
X25599310Y-35759727D01*
X25599310Y-35759727D02*
X25332644Y-35759727D01*
D11*
X54383800Y-65256830D02*
X54421895Y-65142544D01*
X54421895Y-65142544D02*
X54421895Y-64952068D01*
X54421895Y-64952068D02*
X54383800Y-64875877D01*
X54383800Y-64875877D02*
X54345704Y-64837782D01*
X54345704Y-64837782D02*
X54269514Y-64799687D01*
X54269514Y-64799687D02*
X54193323Y-64799687D01*
X54193323Y-64799687D02*
X54117133Y-64837782D01*
X54117133Y-64837782D02*
X54079038Y-64875877D01*
X54079038Y-64875877D02*
X54040942Y-64952068D01*
X54040942Y-64952068D02*
X54002847Y-65104449D01*
X54002847Y-65104449D02*
X53964752Y-65180639D01*
X53964752Y-65180639D02*
X53926657Y-65218734D01*
X53926657Y-65218734D02*
X53850466Y-65256830D01*
X53850466Y-65256830D02*
X53774276Y-65256830D01*
X53774276Y-65256830D02*
X53698085Y-65218734D01*
X53698085Y-65218734D02*
X53659990Y-65180639D01*
X53659990Y-65180639D02*
X53621895Y-65104449D01*
X53621895Y-65104449D02*
X53621895Y-64913972D01*
X53621895Y-64913972D02*
X53659990Y-64799687D01*
X53621895Y-64533020D02*
X54421895Y-64342544D01*
X54421895Y-64342544D02*
X53850466Y-64190163D01*
X53850466Y-64190163D02*
X54421895Y-64037782D01*
X54421895Y-64037782D02*
X53621895Y-63847306D01*
X54421895Y-63542543D02*
X53621895Y-63542543D01*
X53621895Y-63009210D02*
X53621895Y-62856829D01*
X53621895Y-62856829D02*
X53659990Y-62780639D01*
X53659990Y-62780639D02*
X53736180Y-62704448D01*
X53736180Y-62704448D02*
X53888561Y-62666353D01*
X53888561Y-62666353D02*
X54155228Y-62666353D01*
X54155228Y-62666353D02*
X54307609Y-62704448D01*
X54307609Y-62704448D02*
X54383800Y-62780639D01*
X54383800Y-62780639D02*
X54421895Y-62856829D01*
X54421895Y-62856829D02*
X54421895Y-63009210D01*
X54421895Y-63009210D02*
X54383800Y-63085401D01*
X54383800Y-63085401D02*
X54307609Y-63161591D01*
X54307609Y-63161591D02*
X54155228Y-63199687D01*
X54155228Y-63199687D02*
X53888561Y-63199687D01*
X53888561Y-63199687D02*
X53736180Y-63161591D01*
X53736180Y-63161591D02*
X53659990Y-63085401D01*
X53659990Y-63085401D02*
X53621895Y-63009210D01*
X57033800Y-65206830D02*
X57071895Y-65092544D01*
X57071895Y-65092544D02*
X57071895Y-64902068D01*
X57071895Y-64902068D02*
X57033800Y-64825877D01*
X57033800Y-64825877D02*
X56995704Y-64787782D01*
X56995704Y-64787782D02*
X56919514Y-64749687D01*
X56919514Y-64749687D02*
X56843323Y-64749687D01*
X56843323Y-64749687D02*
X56767133Y-64787782D01*
X56767133Y-64787782D02*
X56729038Y-64825877D01*
X56729038Y-64825877D02*
X56690942Y-64902068D01*
X56690942Y-64902068D02*
X56652847Y-65054449D01*
X56652847Y-65054449D02*
X56614752Y-65130639D01*
X56614752Y-65130639D02*
X56576657Y-65168734D01*
X56576657Y-65168734D02*
X56500466Y-65206830D01*
X56500466Y-65206830D02*
X56424276Y-65206830D01*
X56424276Y-65206830D02*
X56348085Y-65168734D01*
X56348085Y-65168734D02*
X56309990Y-65130639D01*
X56309990Y-65130639D02*
X56271895Y-65054449D01*
X56271895Y-65054449D02*
X56271895Y-64863972D01*
X56271895Y-64863972D02*
X56309990Y-64749687D01*
X56271895Y-64483020D02*
X57071895Y-64292544D01*
X57071895Y-64292544D02*
X56500466Y-64140163D01*
X56500466Y-64140163D02*
X57071895Y-63987782D01*
X57071895Y-63987782D02*
X56271895Y-63797306D01*
X56995704Y-63035400D02*
X57033800Y-63073496D01*
X57033800Y-63073496D02*
X57071895Y-63187781D01*
X57071895Y-63187781D02*
X57071895Y-63263972D01*
X57071895Y-63263972D02*
X57033800Y-63378258D01*
X57033800Y-63378258D02*
X56957609Y-63454448D01*
X56957609Y-63454448D02*
X56881419Y-63492543D01*
X56881419Y-63492543D02*
X56729038Y-63530639D01*
X56729038Y-63530639D02*
X56614752Y-63530639D01*
X56614752Y-63530639D02*
X56462371Y-63492543D01*
X56462371Y-63492543D02*
X56386180Y-63454448D01*
X56386180Y-63454448D02*
X56309990Y-63378258D01*
X56309990Y-63378258D02*
X56271895Y-63263972D01*
X56271895Y-63263972D02*
X56271895Y-63187781D01*
X56271895Y-63187781D02*
X56309990Y-63073496D01*
X56309990Y-63073496D02*
X56348085Y-63035400D01*
X57071895Y-62311591D02*
X57071895Y-62692543D01*
X57071895Y-62692543D02*
X56271895Y-62692543D01*
X57071895Y-62044924D02*
X56271895Y-62044924D01*
X57071895Y-61587781D02*
X56614752Y-61930639D01*
X56271895Y-61587781D02*
X56729038Y-62044924D01*
D10*
X66305680Y-28867356D02*
X66343775Y-28753070D01*
X66343775Y-28753070D02*
X66343775Y-28562594D01*
X66343775Y-28562594D02*
X66305680Y-28486403D01*
X66305680Y-28486403D02*
X66267584Y-28448308D01*
X66267584Y-28448308D02*
X66191394Y-28410213D01*
X66191394Y-28410213D02*
X66115203Y-28410213D01*
X66115203Y-28410213D02*
X66039013Y-28448308D01*
X66039013Y-28448308D02*
X66000918Y-28486403D01*
X66000918Y-28486403D02*
X65962822Y-28562594D01*
X65962822Y-28562594D02*
X65924727Y-28714975D01*
X65924727Y-28714975D02*
X65886632Y-28791165D01*
X65886632Y-28791165D02*
X65848537Y-28829260D01*
X65848537Y-28829260D02*
X65772346Y-28867356D01*
X65772346Y-28867356D02*
X65696156Y-28867356D01*
X65696156Y-28867356D02*
X65619965Y-28829260D01*
X65619965Y-28829260D02*
X65581870Y-28791165D01*
X65581870Y-28791165D02*
X65543775Y-28714975D01*
X65543775Y-28714975D02*
X65543775Y-28524498D01*
X65543775Y-28524498D02*
X65581870Y-28410213D01*
X66267584Y-27610212D02*
X66305680Y-27648308D01*
X66305680Y-27648308D02*
X66343775Y-27762593D01*
X66343775Y-27762593D02*
X66343775Y-27838784D01*
X66343775Y-27838784D02*
X66305680Y-27953070D01*
X66305680Y-27953070D02*
X66229489Y-28029260D01*
X66229489Y-28029260D02*
X66153299Y-28067355D01*
X66153299Y-28067355D02*
X66000918Y-28105451D01*
X66000918Y-28105451D02*
X65886632Y-28105451D01*
X65886632Y-28105451D02*
X65734251Y-28067355D01*
X65734251Y-28067355D02*
X65658060Y-28029260D01*
X65658060Y-28029260D02*
X65581870Y-27953070D01*
X65581870Y-27953070D02*
X65543775Y-27838784D01*
X65543775Y-27838784D02*
X65543775Y-27762593D01*
X65543775Y-27762593D02*
X65581870Y-27648308D01*
X65581870Y-27648308D02*
X65619965Y-27610212D01*
X66343775Y-26886403D02*
X66343775Y-27267355D01*
X66343775Y-27267355D02*
X65543775Y-27267355D01*
X68880680Y-28967356D02*
X68918775Y-28853070D01*
X68918775Y-28853070D02*
X68918775Y-28662594D01*
X68918775Y-28662594D02*
X68880680Y-28586403D01*
X68880680Y-28586403D02*
X68842584Y-28548308D01*
X68842584Y-28548308D02*
X68766394Y-28510213D01*
X68766394Y-28510213D02*
X68690203Y-28510213D01*
X68690203Y-28510213D02*
X68614013Y-28548308D01*
X68614013Y-28548308D02*
X68575918Y-28586403D01*
X68575918Y-28586403D02*
X68537822Y-28662594D01*
X68537822Y-28662594D02*
X68499727Y-28814975D01*
X68499727Y-28814975D02*
X68461632Y-28891165D01*
X68461632Y-28891165D02*
X68423537Y-28929260D01*
X68423537Y-28929260D02*
X68347346Y-28967356D01*
X68347346Y-28967356D02*
X68271156Y-28967356D01*
X68271156Y-28967356D02*
X68194965Y-28929260D01*
X68194965Y-28929260D02*
X68156870Y-28891165D01*
X68156870Y-28891165D02*
X68118775Y-28814975D01*
X68118775Y-28814975D02*
X68118775Y-28624498D01*
X68118775Y-28624498D02*
X68156870Y-28510213D01*
X68918775Y-28167355D02*
X68118775Y-28167355D01*
X68118775Y-28167355D02*
X68118775Y-27976879D01*
X68118775Y-27976879D02*
X68156870Y-27862593D01*
X68156870Y-27862593D02*
X68233060Y-27786403D01*
X68233060Y-27786403D02*
X68309251Y-27748308D01*
X68309251Y-27748308D02*
X68461632Y-27710212D01*
X68461632Y-27710212D02*
X68575918Y-27710212D01*
X68575918Y-27710212D02*
X68728299Y-27748308D01*
X68728299Y-27748308D02*
X68804489Y-27786403D01*
X68804489Y-27786403D02*
X68880680Y-27862593D01*
X68880680Y-27862593D02*
X68918775Y-27976879D01*
X68918775Y-27976879D02*
X68918775Y-28167355D01*
X68690203Y-27405451D02*
X68690203Y-27024498D01*
X68918775Y-27481641D02*
X68118775Y-27214974D01*
X68118775Y-27214974D02*
X68918775Y-26948308D01*
D12*
X45644673Y-21917219D02*
X45644673Y-20917219D01*
X46311339Y-20917219D02*
X46501815Y-20917219D01*
X46501815Y-20917219D02*
X46597053Y-20964838D01*
X46597053Y-20964838D02*
X46692291Y-21060076D01*
X46692291Y-21060076D02*
X46739910Y-21250552D01*
X46739910Y-21250552D02*
X46739910Y-21583885D01*
X46739910Y-21583885D02*
X46692291Y-21774361D01*
X46692291Y-21774361D02*
X46597053Y-21869600D01*
X46597053Y-21869600D02*
X46501815Y-21917219D01*
X46501815Y-21917219D02*
X46311339Y-21917219D01*
X46311339Y-21917219D02*
X46216101Y-21869600D01*
X46216101Y-21869600D02*
X46120863Y-21774361D01*
X46120863Y-21774361D02*
X46073244Y-21583885D01*
X46073244Y-21583885D02*
X46073244Y-21250552D01*
X46073244Y-21250552D02*
X46120863Y-21060076D01*
X46120863Y-21060076D02*
X46216101Y-20964838D01*
X46216101Y-20964838D02*
X46311339Y-20917219D01*
X48541101Y-21646980D02*
X48493482Y-21694600D01*
X48493482Y-21694600D02*
X48350625Y-21742219D01*
X48350625Y-21742219D02*
X48255387Y-21742219D01*
X48255387Y-21742219D02*
X48112530Y-21694600D01*
X48112530Y-21694600D02*
X48017292Y-21599361D01*
X48017292Y-21599361D02*
X47969673Y-21504123D01*
X47969673Y-21504123D02*
X47922054Y-21313647D01*
X47922054Y-21313647D02*
X47922054Y-21170790D01*
X47922054Y-21170790D02*
X47969673Y-20980314D01*
X47969673Y-20980314D02*
X48017292Y-20885076D01*
X48017292Y-20885076D02*
X48112530Y-20789838D01*
X48112530Y-20789838D02*
X48255387Y-20742219D01*
X48255387Y-20742219D02*
X48350625Y-20742219D01*
X48350625Y-20742219D02*
X48493482Y-20789838D01*
X48493482Y-20789838D02*
X48541101Y-20837457D01*
X49445863Y-21742219D02*
X48969673Y-21742219D01*
X48969673Y-21742219D02*
X48969673Y-20742219D01*
X49779197Y-21742219D02*
X49779197Y-20742219D01*
X50350625Y-21742219D02*
X49922054Y-21170790D01*
X50350625Y-20742219D02*
X49779197Y-21313647D01*
X48285149Y-28617219D02*
X48475625Y-28617219D01*
X48475625Y-28617219D02*
X48570863Y-28664838D01*
X48570863Y-28664838D02*
X48666101Y-28760076D01*
X48666101Y-28760076D02*
X48713720Y-28950552D01*
X48713720Y-28950552D02*
X48713720Y-29283885D01*
X48713720Y-29283885D02*
X48666101Y-29474361D01*
X48666101Y-29474361D02*
X48570863Y-29569600D01*
X48570863Y-29569600D02*
X48475625Y-29617219D01*
X48475625Y-29617219D02*
X48285149Y-29617219D01*
X48285149Y-29617219D02*
X48189911Y-29569600D01*
X48189911Y-29569600D02*
X48094673Y-29474361D01*
X48094673Y-29474361D02*
X48047054Y-29283885D01*
X48047054Y-29283885D02*
X48047054Y-28950552D01*
X48047054Y-28950552D02*
X48094673Y-28760076D01*
X48094673Y-28760076D02*
X48189911Y-28664838D01*
X48189911Y-28664838D02*
X48285149Y-28617219D01*
X49142292Y-29617219D02*
X49142292Y-28617219D01*
X51191101Y-29546980D02*
X51143482Y-29594600D01*
X51143482Y-29594600D02*
X51000625Y-29642219D01*
X51000625Y-29642219D02*
X50905387Y-29642219D01*
X50905387Y-29642219D02*
X50762530Y-29594600D01*
X50762530Y-29594600D02*
X50667292Y-29499361D01*
X50667292Y-29499361D02*
X50619673Y-29404123D01*
X50619673Y-29404123D02*
X50572054Y-29213647D01*
X50572054Y-29213647D02*
X50572054Y-29070790D01*
X50572054Y-29070790D02*
X50619673Y-28880314D01*
X50619673Y-28880314D02*
X50667292Y-28785076D01*
X50667292Y-28785076D02*
X50762530Y-28689838D01*
X50762530Y-28689838D02*
X50905387Y-28642219D01*
X50905387Y-28642219D02*
X51000625Y-28642219D01*
X51000625Y-28642219D02*
X51143482Y-28689838D01*
X51143482Y-28689838D02*
X51191101Y-28737457D01*
X51572054Y-29594600D02*
X51714911Y-29642219D01*
X51714911Y-29642219D02*
X51953006Y-29642219D01*
X51953006Y-29642219D02*
X52048244Y-29594600D01*
X52048244Y-29594600D02*
X52095863Y-29546980D01*
X52095863Y-29546980D02*
X52143482Y-29451742D01*
X52143482Y-29451742D02*
X52143482Y-29356504D01*
X52143482Y-29356504D02*
X52095863Y-29261266D01*
X52095863Y-29261266D02*
X52048244Y-29213647D01*
X52048244Y-29213647D02*
X51953006Y-29166028D01*
X51953006Y-29166028D02*
X51762530Y-29118409D01*
X51762530Y-29118409D02*
X51667292Y-29070790D01*
X51667292Y-29070790D02*
X51619673Y-29023171D01*
X51619673Y-29023171D02*
X51572054Y-28927933D01*
X51572054Y-28927933D02*
X51572054Y-28832695D01*
X51572054Y-28832695D02*
X51619673Y-28737457D01*
X51619673Y-28737457D02*
X51667292Y-28689838D01*
X51667292Y-28689838D02*
X51762530Y-28642219D01*
X51762530Y-28642219D02*
X52000625Y-28642219D01*
X52000625Y-28642219D02*
X52143482Y-28689838D01*
X55801816Y-22667219D02*
X56135149Y-23667219D01*
X56135149Y-23667219D02*
X56468482Y-22667219D01*
X57373244Y-23571980D02*
X57325625Y-23619600D01*
X57325625Y-23619600D02*
X57182768Y-23667219D01*
X57182768Y-23667219D02*
X57087530Y-23667219D01*
X57087530Y-23667219D02*
X56944673Y-23619600D01*
X56944673Y-23619600D02*
X56849435Y-23524361D01*
X56849435Y-23524361D02*
X56801816Y-23429123D01*
X56801816Y-23429123D02*
X56754197Y-23238647D01*
X56754197Y-23238647D02*
X56754197Y-23095790D01*
X56754197Y-23095790D02*
X56801816Y-22905314D01*
X56801816Y-22905314D02*
X56849435Y-22810076D01*
X56849435Y-22810076D02*
X56944673Y-22714838D01*
X56944673Y-22714838D02*
X57087530Y-22667219D01*
X57087530Y-22667219D02*
X57182768Y-22667219D01*
X57182768Y-22667219D02*
X57325625Y-22714838D01*
X57325625Y-22714838D02*
X57373244Y-22762457D01*
X58373244Y-23571980D02*
X58325625Y-23619600D01*
X58325625Y-23619600D02*
X58182768Y-23667219D01*
X58182768Y-23667219D02*
X58087530Y-23667219D01*
X58087530Y-23667219D02*
X57944673Y-23619600D01*
X57944673Y-23619600D02*
X57849435Y-23524361D01*
X57849435Y-23524361D02*
X57801816Y-23429123D01*
X57801816Y-23429123D02*
X57754197Y-23238647D01*
X57754197Y-23238647D02*
X57754197Y-23095790D01*
X57754197Y-23095790D02*
X57801816Y-22905314D01*
X57801816Y-22905314D02*
X57849435Y-22810076D01*
X57849435Y-22810076D02*
X57944673Y-22714838D01*
X57944673Y-22714838D02*
X58087530Y-22667219D01*
X58087530Y-22667219D02*
X58182768Y-22667219D01*
X58182768Y-22667219D02*
X58325625Y-22714838D01*
X58325625Y-22714838D02*
X58373244Y-22762457D01*
X75676816Y-41892219D02*
X76010149Y-42892219D01*
X76010149Y-42892219D02*
X76343482Y-41892219D01*
X77248244Y-42796980D02*
X77200625Y-42844600D01*
X77200625Y-42844600D02*
X77057768Y-42892219D01*
X77057768Y-42892219D02*
X76962530Y-42892219D01*
X76962530Y-42892219D02*
X76819673Y-42844600D01*
X76819673Y-42844600D02*
X76724435Y-42749361D01*
X76724435Y-42749361D02*
X76676816Y-42654123D01*
X76676816Y-42654123D02*
X76629197Y-42463647D01*
X76629197Y-42463647D02*
X76629197Y-42320790D01*
X76629197Y-42320790D02*
X76676816Y-42130314D01*
X76676816Y-42130314D02*
X76724435Y-42035076D01*
X76724435Y-42035076D02*
X76819673Y-41939838D01*
X76819673Y-41939838D02*
X76962530Y-41892219D01*
X76962530Y-41892219D02*
X77057768Y-41892219D01*
X77057768Y-41892219D02*
X77200625Y-41939838D01*
X77200625Y-41939838D02*
X77248244Y-41987457D01*
X78248244Y-42796980D02*
X78200625Y-42844600D01*
X78200625Y-42844600D02*
X78057768Y-42892219D01*
X78057768Y-42892219D02*
X77962530Y-42892219D01*
X77962530Y-42892219D02*
X77819673Y-42844600D01*
X77819673Y-42844600D02*
X77724435Y-42749361D01*
X77724435Y-42749361D02*
X77676816Y-42654123D01*
X77676816Y-42654123D02*
X77629197Y-42463647D01*
X77629197Y-42463647D02*
X77629197Y-42320790D01*
X77629197Y-42320790D02*
X77676816Y-42130314D01*
X77676816Y-42130314D02*
X77724435Y-42035076D01*
X77724435Y-42035076D02*
X77819673Y-41939838D01*
X77819673Y-41939838D02*
X77962530Y-41892219D01*
X77962530Y-41892219D02*
X78057768Y-41892219D01*
X78057768Y-41892219D02*
X78200625Y-41939838D01*
X78200625Y-41939838D02*
X78248244Y-41987457D01*
X20565136Y-64912331D02*
X21041326Y-64912331D01*
X21041326Y-64912331D02*
X21041326Y-63912331D01*
X21041326Y-68132219D02*
X21041326Y-67132219D01*
X21041326Y-67608409D02*
X20469898Y-67608409D01*
X20469898Y-68132219D02*
X20469898Y-67132219D01*
X24967219Y-48331517D02*
X24967219Y-48902945D01*
X24967219Y-48617231D02*
X23967219Y-48617231D01*
X23967219Y-48617231D02*
X24110076Y-48712469D01*
X24110076Y-48712469D02*
X24205314Y-48807707D01*
X24205314Y-48807707D02*
X24252933Y-48902945D01*
X24062457Y-47950564D02*
X24014838Y-47902945D01*
X24014838Y-47902945D02*
X23967219Y-47807707D01*
X23967219Y-47807707D02*
X23967219Y-47569612D01*
X23967219Y-47569612D02*
X24014838Y-47474374D01*
X24014838Y-47474374D02*
X24062457Y-47426755D01*
X24062457Y-47426755D02*
X24157695Y-47379136D01*
X24157695Y-47379136D02*
X24252933Y-47379136D01*
X24252933Y-47379136D02*
X24395790Y-47426755D01*
X24395790Y-47426755D02*
X24967219Y-47998183D01*
X24967219Y-47998183D02*
X24967219Y-47379136D01*
X24300552Y-47045802D02*
X24967219Y-46807707D01*
X24967219Y-46807707D02*
X24300552Y-46569612D01*
X51067219Y-65548183D02*
X52067219Y-65214850D01*
X52067219Y-65214850D02*
X51067219Y-64881517D01*
X51971980Y-63976755D02*
X52019600Y-64024374D01*
X52019600Y-64024374D02*
X52067219Y-64167231D01*
X52067219Y-64167231D02*
X52067219Y-64262469D01*
X52067219Y-64262469D02*
X52019600Y-64405326D01*
X52019600Y-64405326D02*
X51924361Y-64500564D01*
X51924361Y-64500564D02*
X51829123Y-64548183D01*
X51829123Y-64548183D02*
X51638647Y-64595802D01*
X51638647Y-64595802D02*
X51495790Y-64595802D01*
X51495790Y-64595802D02*
X51305314Y-64548183D01*
X51305314Y-64548183D02*
X51210076Y-64500564D01*
X51210076Y-64500564D02*
X51114838Y-64405326D01*
X51114838Y-64405326D02*
X51067219Y-64262469D01*
X51067219Y-64262469D02*
X51067219Y-64167231D01*
X51067219Y-64167231D02*
X51114838Y-64024374D01*
X51114838Y-64024374D02*
X51162457Y-63976755D01*
X51971980Y-62976755D02*
X52019600Y-63024374D01*
X52019600Y-63024374D02*
X52067219Y-63167231D01*
X52067219Y-63167231D02*
X52067219Y-63262469D01*
X52067219Y-63262469D02*
X52019600Y-63405326D01*
X52019600Y-63405326D02*
X51924361Y-63500564D01*
X51924361Y-63500564D02*
X51829123Y-63548183D01*
X51829123Y-63548183D02*
X51638647Y-63595802D01*
X51638647Y-63595802D02*
X51495790Y-63595802D01*
X51495790Y-63595802D02*
X51305314Y-63548183D01*
X51305314Y-63548183D02*
X51210076Y-63500564D01*
X51210076Y-63500564D02*
X51114838Y-63405326D01*
X51114838Y-63405326D02*
X51067219Y-63262469D01*
X51067219Y-63262469D02*
X51067219Y-63167231D01*
X51067219Y-63167231D02*
X51114838Y-63024374D01*
X51114838Y-63024374D02*
X51162457Y-62976755D01*
X66967219Y-61825564D02*
X67967219Y-61587469D01*
X67967219Y-61587469D02*
X67252933Y-61396993D01*
X67252933Y-61396993D02*
X67967219Y-61206517D01*
X67967219Y-61206517D02*
X66967219Y-60968422D01*
X67919600Y-60635088D02*
X67967219Y-60492231D01*
X67967219Y-60492231D02*
X67967219Y-60254136D01*
X67967219Y-60254136D02*
X67919600Y-60158898D01*
X67919600Y-60158898D02*
X67871980Y-60111279D01*
X67871980Y-60111279D02*
X67776742Y-60063660D01*
X67776742Y-60063660D02*
X67681504Y-60063660D01*
X67681504Y-60063660D02*
X67586266Y-60111279D01*
X67586266Y-60111279D02*
X67538647Y-60158898D01*
X67538647Y-60158898D02*
X67491028Y-60254136D01*
X67491028Y-60254136D02*
X67443409Y-60444612D01*
X67443409Y-60444612D02*
X67395790Y-60539850D01*
X67395790Y-60539850D02*
X67348171Y-60587469D01*
X67348171Y-60587469D02*
X67252933Y-60635088D01*
X67252933Y-60635088D02*
X67157695Y-60635088D01*
X67157695Y-60635088D02*
X67062457Y-60587469D01*
X67062457Y-60587469D02*
X67014838Y-60539850D01*
X67014838Y-60539850D02*
X66967219Y-60444612D01*
X66967219Y-60444612D02*
X66967219Y-60206517D01*
X66967219Y-60206517D02*
X67014838Y-60063660D01*
X67092219Y-58723183D02*
X68092219Y-58389850D01*
X68092219Y-58389850D02*
X67092219Y-58056517D01*
X67996980Y-57151755D02*
X68044600Y-57199374D01*
X68044600Y-57199374D02*
X68092219Y-57342231D01*
X68092219Y-57342231D02*
X68092219Y-57437469D01*
X68092219Y-57437469D02*
X68044600Y-57580326D01*
X68044600Y-57580326D02*
X67949361Y-57675564D01*
X67949361Y-57675564D02*
X67854123Y-57723183D01*
X67854123Y-57723183D02*
X67663647Y-57770802D01*
X67663647Y-57770802D02*
X67520790Y-57770802D01*
X67520790Y-57770802D02*
X67330314Y-57723183D01*
X67330314Y-57723183D02*
X67235076Y-57675564D01*
X67235076Y-57675564D02*
X67139838Y-57580326D01*
X67139838Y-57580326D02*
X67092219Y-57437469D01*
X67092219Y-57437469D02*
X67092219Y-57342231D01*
X67092219Y-57342231D02*
X67139838Y-57199374D01*
X67139838Y-57199374D02*
X67187457Y-57151755D01*
X67996980Y-56151755D02*
X68044600Y-56199374D01*
X68044600Y-56199374D02*
X68092219Y-56342231D01*
X68092219Y-56342231D02*
X68092219Y-56437469D01*
X68092219Y-56437469D02*
X68044600Y-56580326D01*
X68044600Y-56580326D02*
X67949361Y-56675564D01*
X67949361Y-56675564D02*
X67854123Y-56723183D01*
X67854123Y-56723183D02*
X67663647Y-56770802D01*
X67663647Y-56770802D02*
X67520790Y-56770802D01*
X67520790Y-56770802D02*
X67330314Y-56723183D01*
X67330314Y-56723183D02*
X67235076Y-56675564D01*
X67235076Y-56675564D02*
X67139838Y-56580326D01*
X67139838Y-56580326D02*
X67092219Y-56437469D01*
X67092219Y-56437469D02*
X67092219Y-56342231D01*
X67092219Y-56342231D02*
X67139838Y-56199374D01*
X67139838Y-56199374D02*
X67187457Y-56151755D01*
X70419600Y-61977945D02*
X70467219Y-61835088D01*
X70467219Y-61835088D02*
X70467219Y-61596993D01*
X70467219Y-61596993D02*
X70419600Y-61501755D01*
X70419600Y-61501755D02*
X70371980Y-61454136D01*
X70371980Y-61454136D02*
X70276742Y-61406517D01*
X70276742Y-61406517D02*
X70181504Y-61406517D01*
X70181504Y-61406517D02*
X70086266Y-61454136D01*
X70086266Y-61454136D02*
X70038647Y-61501755D01*
X70038647Y-61501755D02*
X69991028Y-61596993D01*
X69991028Y-61596993D02*
X69943409Y-61787469D01*
X69943409Y-61787469D02*
X69895790Y-61882707D01*
X69895790Y-61882707D02*
X69848171Y-61930326D01*
X69848171Y-61930326D02*
X69752933Y-61977945D01*
X69752933Y-61977945D02*
X69657695Y-61977945D01*
X69657695Y-61977945D02*
X69562457Y-61930326D01*
X69562457Y-61930326D02*
X69514838Y-61882707D01*
X69514838Y-61882707D02*
X69467219Y-61787469D01*
X69467219Y-61787469D02*
X69467219Y-61549374D01*
X69467219Y-61549374D02*
X69514838Y-61406517D01*
X70371980Y-60406517D02*
X70419600Y-60454136D01*
X70419600Y-60454136D02*
X70467219Y-60596993D01*
X70467219Y-60596993D02*
X70467219Y-60692231D01*
X70467219Y-60692231D02*
X70419600Y-60835088D01*
X70419600Y-60835088D02*
X70324361Y-60930326D01*
X70324361Y-60930326D02*
X70229123Y-60977945D01*
X70229123Y-60977945D02*
X70038647Y-61025564D01*
X70038647Y-61025564D02*
X69895790Y-61025564D01*
X69895790Y-61025564D02*
X69705314Y-60977945D01*
X69705314Y-60977945D02*
X69610076Y-60930326D01*
X69610076Y-60930326D02*
X69514838Y-60835088D01*
X69514838Y-60835088D02*
X69467219Y-60692231D01*
X69467219Y-60692231D02*
X69467219Y-60596993D01*
X69467219Y-60596993D02*
X69514838Y-60454136D01*
X69514838Y-60454136D02*
X69562457Y-60406517D01*
X70467219Y-59501755D02*
X70467219Y-59977945D01*
X70467219Y-59977945D02*
X69467219Y-59977945D01*
X70544600Y-58827945D02*
X70592219Y-58685088D01*
X70592219Y-58685088D02*
X70592219Y-58446993D01*
X70592219Y-58446993D02*
X70544600Y-58351755D01*
X70544600Y-58351755D02*
X70496980Y-58304136D01*
X70496980Y-58304136D02*
X70401742Y-58256517D01*
X70401742Y-58256517D02*
X70306504Y-58256517D01*
X70306504Y-58256517D02*
X70211266Y-58304136D01*
X70211266Y-58304136D02*
X70163647Y-58351755D01*
X70163647Y-58351755D02*
X70116028Y-58446993D01*
X70116028Y-58446993D02*
X70068409Y-58637469D01*
X70068409Y-58637469D02*
X70020790Y-58732707D01*
X70020790Y-58732707D02*
X69973171Y-58780326D01*
X69973171Y-58780326D02*
X69877933Y-58827945D01*
X69877933Y-58827945D02*
X69782695Y-58827945D01*
X69782695Y-58827945D02*
X69687457Y-58780326D01*
X69687457Y-58780326D02*
X69639838Y-58732707D01*
X69639838Y-58732707D02*
X69592219Y-58637469D01*
X69592219Y-58637469D02*
X69592219Y-58399374D01*
X69592219Y-58399374D02*
X69639838Y-58256517D01*
X70592219Y-57827945D02*
X69592219Y-57827945D01*
X69592219Y-57827945D02*
X69592219Y-57589850D01*
X69592219Y-57589850D02*
X69639838Y-57446993D01*
X69639838Y-57446993D02*
X69735076Y-57351755D01*
X69735076Y-57351755D02*
X69830314Y-57304136D01*
X69830314Y-57304136D02*
X70020790Y-57256517D01*
X70020790Y-57256517D02*
X70163647Y-57256517D01*
X70163647Y-57256517D02*
X70354123Y-57304136D01*
X70354123Y-57304136D02*
X70449361Y-57351755D01*
X70449361Y-57351755D02*
X70544600Y-57446993D01*
X70544600Y-57446993D02*
X70592219Y-57589850D01*
X70592219Y-57589850D02*
X70592219Y-57827945D01*
X76867219Y-62000564D02*
X77867219Y-61762469D01*
X77867219Y-61762469D02*
X77152933Y-61571993D01*
X77152933Y-61571993D02*
X77867219Y-61381517D01*
X77867219Y-61381517D02*
X76867219Y-61143422D01*
X77819600Y-60810088D02*
X77867219Y-60667231D01*
X77867219Y-60667231D02*
X77867219Y-60429136D01*
X77867219Y-60429136D02*
X77819600Y-60333898D01*
X77819600Y-60333898D02*
X77771980Y-60286279D01*
X77771980Y-60286279D02*
X77676742Y-60238660D01*
X77676742Y-60238660D02*
X77581504Y-60238660D01*
X77581504Y-60238660D02*
X77486266Y-60286279D01*
X77486266Y-60286279D02*
X77438647Y-60333898D01*
X77438647Y-60333898D02*
X77391028Y-60429136D01*
X77391028Y-60429136D02*
X77343409Y-60619612D01*
X77343409Y-60619612D02*
X77295790Y-60714850D01*
X77295790Y-60714850D02*
X77248171Y-60762469D01*
X77248171Y-60762469D02*
X77152933Y-60810088D01*
X77152933Y-60810088D02*
X77057695Y-60810088D01*
X77057695Y-60810088D02*
X76962457Y-60762469D01*
X76962457Y-60762469D02*
X76914838Y-60714850D01*
X76914838Y-60714850D02*
X76867219Y-60619612D01*
X76867219Y-60619612D02*
X76867219Y-60381517D01*
X76867219Y-60381517D02*
X76914838Y-60238660D01*
X76992219Y-58898183D02*
X77992219Y-58564850D01*
X77992219Y-58564850D02*
X76992219Y-58231517D01*
X77896980Y-57326755D02*
X77944600Y-57374374D01*
X77944600Y-57374374D02*
X77992219Y-57517231D01*
X77992219Y-57517231D02*
X77992219Y-57612469D01*
X77992219Y-57612469D02*
X77944600Y-57755326D01*
X77944600Y-57755326D02*
X77849361Y-57850564D01*
X77849361Y-57850564D02*
X77754123Y-57898183D01*
X77754123Y-57898183D02*
X77563647Y-57945802D01*
X77563647Y-57945802D02*
X77420790Y-57945802D01*
X77420790Y-57945802D02*
X77230314Y-57898183D01*
X77230314Y-57898183D02*
X77135076Y-57850564D01*
X77135076Y-57850564D02*
X77039838Y-57755326D01*
X77039838Y-57755326D02*
X76992219Y-57612469D01*
X76992219Y-57612469D02*
X76992219Y-57517231D01*
X76992219Y-57517231D02*
X77039838Y-57374374D01*
X77039838Y-57374374D02*
X77087457Y-57326755D01*
X77896980Y-56326755D02*
X77944600Y-56374374D01*
X77944600Y-56374374D02*
X77992219Y-56517231D01*
X77992219Y-56517231D02*
X77992219Y-56612469D01*
X77992219Y-56612469D02*
X77944600Y-56755326D01*
X77944600Y-56755326D02*
X77849361Y-56850564D01*
X77849361Y-56850564D02*
X77754123Y-56898183D01*
X77754123Y-56898183D02*
X77563647Y-56945802D01*
X77563647Y-56945802D02*
X77420790Y-56945802D01*
X77420790Y-56945802D02*
X77230314Y-56898183D01*
X77230314Y-56898183D02*
X77135076Y-56850564D01*
X77135076Y-56850564D02*
X77039838Y-56755326D01*
X77039838Y-56755326D02*
X76992219Y-56612469D01*
X76992219Y-56612469D02*
X76992219Y-56517231D01*
X76992219Y-56517231D02*
X77039838Y-56374374D01*
X77039838Y-56374374D02*
X77087457Y-56326755D01*
X80319600Y-62152945D02*
X80367219Y-62010088D01*
X80367219Y-62010088D02*
X80367219Y-61771993D01*
X80367219Y-61771993D02*
X80319600Y-61676755D01*
X80319600Y-61676755D02*
X80271980Y-61629136D01*
X80271980Y-61629136D02*
X80176742Y-61581517D01*
X80176742Y-61581517D02*
X80081504Y-61581517D01*
X80081504Y-61581517D02*
X79986266Y-61629136D01*
X79986266Y-61629136D02*
X79938647Y-61676755D01*
X79938647Y-61676755D02*
X79891028Y-61771993D01*
X79891028Y-61771993D02*
X79843409Y-61962469D01*
X79843409Y-61962469D02*
X79795790Y-62057707D01*
X79795790Y-62057707D02*
X79748171Y-62105326D01*
X79748171Y-62105326D02*
X79652933Y-62152945D01*
X79652933Y-62152945D02*
X79557695Y-62152945D01*
X79557695Y-62152945D02*
X79462457Y-62105326D01*
X79462457Y-62105326D02*
X79414838Y-62057707D01*
X79414838Y-62057707D02*
X79367219Y-61962469D01*
X79367219Y-61962469D02*
X79367219Y-61724374D01*
X79367219Y-61724374D02*
X79414838Y-61581517D01*
X80271980Y-60581517D02*
X80319600Y-60629136D01*
X80319600Y-60629136D02*
X80367219Y-60771993D01*
X80367219Y-60771993D02*
X80367219Y-60867231D01*
X80367219Y-60867231D02*
X80319600Y-61010088D01*
X80319600Y-61010088D02*
X80224361Y-61105326D01*
X80224361Y-61105326D02*
X80129123Y-61152945D01*
X80129123Y-61152945D02*
X79938647Y-61200564D01*
X79938647Y-61200564D02*
X79795790Y-61200564D01*
X79795790Y-61200564D02*
X79605314Y-61152945D01*
X79605314Y-61152945D02*
X79510076Y-61105326D01*
X79510076Y-61105326D02*
X79414838Y-61010088D01*
X79414838Y-61010088D02*
X79367219Y-60867231D01*
X79367219Y-60867231D02*
X79367219Y-60771993D01*
X79367219Y-60771993D02*
X79414838Y-60629136D01*
X79414838Y-60629136D02*
X79462457Y-60581517D01*
X80367219Y-59676755D02*
X80367219Y-60152945D01*
X80367219Y-60152945D02*
X79367219Y-60152945D01*
X80444600Y-59002945D02*
X80492219Y-58860088D01*
X80492219Y-58860088D02*
X80492219Y-58621993D01*
X80492219Y-58621993D02*
X80444600Y-58526755D01*
X80444600Y-58526755D02*
X80396980Y-58479136D01*
X80396980Y-58479136D02*
X80301742Y-58431517D01*
X80301742Y-58431517D02*
X80206504Y-58431517D01*
X80206504Y-58431517D02*
X80111266Y-58479136D01*
X80111266Y-58479136D02*
X80063647Y-58526755D01*
X80063647Y-58526755D02*
X80016028Y-58621993D01*
X80016028Y-58621993D02*
X79968409Y-58812469D01*
X79968409Y-58812469D02*
X79920790Y-58907707D01*
X79920790Y-58907707D02*
X79873171Y-58955326D01*
X79873171Y-58955326D02*
X79777933Y-59002945D01*
X79777933Y-59002945D02*
X79682695Y-59002945D01*
X79682695Y-59002945D02*
X79587457Y-58955326D01*
X79587457Y-58955326D02*
X79539838Y-58907707D01*
X79539838Y-58907707D02*
X79492219Y-58812469D01*
X79492219Y-58812469D02*
X79492219Y-58574374D01*
X79492219Y-58574374D02*
X79539838Y-58431517D01*
X80492219Y-58002945D02*
X79492219Y-58002945D01*
X79492219Y-58002945D02*
X79492219Y-57764850D01*
X79492219Y-57764850D02*
X79539838Y-57621993D01*
X79539838Y-57621993D02*
X79635076Y-57526755D01*
X79635076Y-57526755D02*
X79730314Y-57479136D01*
X79730314Y-57479136D02*
X79920790Y-57431517D01*
X79920790Y-57431517D02*
X80063647Y-57431517D01*
X80063647Y-57431517D02*
X80254123Y-57479136D01*
X80254123Y-57479136D02*
X80349361Y-57526755D01*
X80349361Y-57526755D02*
X80444600Y-57621993D01*
X80444600Y-57621993D02*
X80492219Y-57764850D01*
X80492219Y-57764850D02*
X80492219Y-58002945D01*
D13*
X35940476Y-50829819D02*
X36607142Y-50829819D01*
X36607142Y-50829819D02*
X35940476Y-51829819D01*
X35940476Y-51829819D02*
X36607142Y-51829819D01*
X36988095Y-51829819D02*
X36988095Y-50829819D01*
X36988095Y-50829819D02*
X37226190Y-50829819D01*
X37226190Y-50829819D02*
X37369047Y-50877438D01*
X37369047Y-50877438D02*
X37464285Y-50972676D01*
X37464285Y-50972676D02*
X37511904Y-51067914D01*
X37511904Y-51067914D02*
X37559523Y-51258390D01*
X37559523Y-51258390D02*
X37559523Y-51401247D01*
X37559523Y-51401247D02*
X37511904Y-51591723D01*
X37511904Y-51591723D02*
X37464285Y-51686961D01*
X37464285Y-51686961D02*
X37369047Y-51782200D01*
X37369047Y-51782200D02*
X37226190Y-51829819D01*
X37226190Y-51829819D02*
X36988095Y-51829819D01*
X38511904Y-51829819D02*
X37940476Y-51829819D01*
X38226190Y-51829819D02*
X38226190Y-50829819D01*
X38226190Y-50829819D02*
X38130952Y-50972676D01*
X38130952Y-50972676D02*
X38035714Y-51067914D01*
X38035714Y-51067914D02*
X37940476Y-51115533D01*
X44449819Y-65529166D02*
X44449819Y-66005356D01*
X44449819Y-66005356D02*
X43449819Y-66005356D01*
X44449819Y-65195832D02*
X43449819Y-65195832D01*
X43449819Y-65195832D02*
X43449819Y-64957737D01*
X43449819Y-64957737D02*
X43497438Y-64814880D01*
X43497438Y-64814880D02*
X43592676Y-64719642D01*
X43592676Y-64719642D02*
X43687914Y-64672023D01*
X43687914Y-64672023D02*
X43878390Y-64624404D01*
X43878390Y-64624404D02*
X44021247Y-64624404D01*
X44021247Y-64624404D02*
X44211723Y-64672023D01*
X44211723Y-64672023D02*
X44306961Y-64719642D01*
X44306961Y-64719642D02*
X44402200Y-64814880D01*
X44402200Y-64814880D02*
X44449819Y-64957737D01*
X44449819Y-64957737D02*
X44449819Y-65195832D01*
X43783152Y-63767261D02*
X44449819Y-63767261D01*
X43402200Y-64005356D02*
X44116485Y-64243451D01*
X44116485Y-64243451D02*
X44116485Y-63624404D01*
X55182142Y-42544819D02*
X54848809Y-42068628D01*
X54610714Y-42544819D02*
X54610714Y-41544819D01*
X54610714Y-41544819D02*
X54991666Y-41544819D01*
X54991666Y-41544819D02*
X55086904Y-41592438D01*
X55086904Y-41592438D02*
X55134523Y-41640057D01*
X55134523Y-41640057D02*
X55182142Y-41735295D01*
X55182142Y-41735295D02*
X55182142Y-41878152D01*
X55182142Y-41878152D02*
X55134523Y-41973390D01*
X55134523Y-41973390D02*
X55086904Y-42021009D01*
X55086904Y-42021009D02*
X54991666Y-42068628D01*
X54991666Y-42068628D02*
X54610714Y-42068628D01*
X56134523Y-42544819D02*
X55563095Y-42544819D01*
X55848809Y-42544819D02*
X55848809Y-41544819D01*
X55848809Y-41544819D02*
X55753571Y-41687676D01*
X55753571Y-41687676D02*
X55658333Y-41782914D01*
X55658333Y-41782914D02*
X55563095Y-41830533D01*
X56991666Y-41878152D02*
X56991666Y-42544819D01*
X56753571Y-41497200D02*
X56515476Y-42211485D01*
X56515476Y-42211485D02*
X57134523Y-42211485D01*
X29634580Y-61316666D02*
X29682200Y-61364285D01*
X29682200Y-61364285D02*
X29729819Y-61507142D01*
X29729819Y-61507142D02*
X29729819Y-61602380D01*
X29729819Y-61602380D02*
X29682200Y-61745237D01*
X29682200Y-61745237D02*
X29586961Y-61840475D01*
X29586961Y-61840475D02*
X29491723Y-61888094D01*
X29491723Y-61888094D02*
X29301247Y-61935713D01*
X29301247Y-61935713D02*
X29158390Y-61935713D01*
X29158390Y-61935713D02*
X28967914Y-61888094D01*
X28967914Y-61888094D02*
X28872676Y-61840475D01*
X28872676Y-61840475D02*
X28777438Y-61745237D01*
X28777438Y-61745237D02*
X28729819Y-61602380D01*
X28729819Y-61602380D02*
X28729819Y-61507142D01*
X28729819Y-61507142D02*
X28777438Y-61364285D01*
X28777438Y-61364285D02*
X28825057Y-61316666D01*
X29729819Y-60364285D02*
X29729819Y-60935713D01*
X29729819Y-60649999D02*
X28729819Y-60649999D01*
X28729819Y-60649999D02*
X28872676Y-60745237D01*
X28872676Y-60745237D02*
X28967914Y-60840475D01*
X28967914Y-60840475D02*
X29015533Y-60935713D01*
X33474580Y-43566666D02*
X33522200Y-43614285D01*
X33522200Y-43614285D02*
X33569819Y-43757142D01*
X33569819Y-43757142D02*
X33569819Y-43852380D01*
X33569819Y-43852380D02*
X33522200Y-43995237D01*
X33522200Y-43995237D02*
X33426961Y-44090475D01*
X33426961Y-44090475D02*
X33331723Y-44138094D01*
X33331723Y-44138094D02*
X33141247Y-44185713D01*
X33141247Y-44185713D02*
X32998390Y-44185713D01*
X32998390Y-44185713D02*
X32807914Y-44138094D01*
X32807914Y-44138094D02*
X32712676Y-44090475D01*
X32712676Y-44090475D02*
X32617438Y-43995237D01*
X32617438Y-43995237D02*
X32569819Y-43852380D01*
X32569819Y-43852380D02*
X32569819Y-43757142D01*
X32569819Y-43757142D02*
X32617438Y-43614285D01*
X32617438Y-43614285D02*
X32665057Y-43566666D01*
X33569819Y-43090475D02*
X33569819Y-42899999D01*
X33569819Y-42899999D02*
X33522200Y-42804761D01*
X33522200Y-42804761D02*
X33474580Y-42757142D01*
X33474580Y-42757142D02*
X33331723Y-42661904D01*
X33331723Y-42661904D02*
X33141247Y-42614285D01*
X33141247Y-42614285D02*
X32760295Y-42614285D01*
X32760295Y-42614285D02*
X32665057Y-42661904D01*
X32665057Y-42661904D02*
X32617438Y-42709523D01*
X32617438Y-42709523D02*
X32569819Y-42804761D01*
X32569819Y-42804761D02*
X32569819Y-42995237D01*
X32569819Y-42995237D02*
X32617438Y-43090475D01*
X32617438Y-43090475D02*
X32665057Y-43138094D01*
X32665057Y-43138094D02*
X32760295Y-43185713D01*
X32760295Y-43185713D02*
X32998390Y-43185713D01*
X32998390Y-43185713D02*
X33093628Y-43138094D01*
X33093628Y-43138094D02*
X33141247Y-43090475D01*
X33141247Y-43090475D02*
X33188866Y-42995237D01*
X33188866Y-42995237D02*
X33188866Y-42804761D01*
X33188866Y-42804761D02*
X33141247Y-42709523D01*
X33141247Y-42709523D02*
X33093628Y-42661904D01*
X33093628Y-42661904D02*
X32998390Y-42614285D01*
X50904819Y-40566666D02*
X50428628Y-40899999D01*
X50904819Y-41138094D02*
X49904819Y-41138094D01*
X49904819Y-41138094D02*
X49904819Y-40757142D01*
X49904819Y-40757142D02*
X49952438Y-40661904D01*
X49952438Y-40661904D02*
X50000057Y-40614285D01*
X50000057Y-40614285D02*
X50095295Y-40566666D01*
X50095295Y-40566666D02*
X50238152Y-40566666D01*
X50238152Y-40566666D02*
X50333390Y-40614285D01*
X50333390Y-40614285D02*
X50381009Y-40661904D01*
X50381009Y-40661904D02*
X50428628Y-40757142D01*
X50428628Y-40757142D02*
X50428628Y-41138094D01*
X49904819Y-40233332D02*
X49904819Y-39566666D01*
X49904819Y-39566666D02*
X50904819Y-39995237D01*
X72109819Y-66063333D02*
X72824104Y-66063333D01*
X72824104Y-66063333D02*
X72966961Y-66110952D01*
X72966961Y-66110952D02*
X73062200Y-66206190D01*
X73062200Y-66206190D02*
X73109819Y-66349047D01*
X73109819Y-66349047D02*
X73109819Y-66444285D01*
X72538390Y-65444285D02*
X72490771Y-65539523D01*
X72490771Y-65539523D02*
X72443152Y-65587142D01*
X72443152Y-65587142D02*
X72347914Y-65634761D01*
X72347914Y-65634761D02*
X72300295Y-65634761D01*
X72300295Y-65634761D02*
X72205057Y-65587142D01*
X72205057Y-65587142D02*
X72157438Y-65539523D01*
X72157438Y-65539523D02*
X72109819Y-65444285D01*
X72109819Y-65444285D02*
X72109819Y-65253809D01*
X72109819Y-65253809D02*
X72157438Y-65158571D01*
X72157438Y-65158571D02*
X72205057Y-65110952D01*
X72205057Y-65110952D02*
X72300295Y-65063333D01*
X72300295Y-65063333D02*
X72347914Y-65063333D01*
X72347914Y-65063333D02*
X72443152Y-65110952D01*
X72443152Y-65110952D02*
X72490771Y-65158571D01*
X72490771Y-65158571D02*
X72538390Y-65253809D01*
X72538390Y-65253809D02*
X72538390Y-65444285D01*
X72538390Y-65444285D02*
X72586009Y-65539523D01*
X72586009Y-65539523D02*
X72633628Y-65587142D01*
X72633628Y-65587142D02*
X72728866Y-65634761D01*
X72728866Y-65634761D02*
X72919342Y-65634761D01*
X72919342Y-65634761D02*
X73014580Y-65587142D01*
X73014580Y-65587142D02*
X73062200Y-65539523D01*
X73062200Y-65539523D02*
X73109819Y-65444285D01*
X73109819Y-65444285D02*
X73109819Y-65253809D01*
X73109819Y-65253809D02*
X73062200Y-65158571D01*
X73062200Y-65158571D02*
X73014580Y-65110952D01*
X73014580Y-65110952D02*
X72919342Y-65063333D01*
X72919342Y-65063333D02*
X72728866Y-65063333D01*
X72728866Y-65063333D02*
X72633628Y-65110952D01*
X72633628Y-65110952D02*
X72586009Y-65158571D01*
X72586009Y-65158571D02*
X72538390Y-65253809D01*
X62159819Y-66238333D02*
X62874104Y-66238333D01*
X62874104Y-66238333D02*
X63016961Y-66285952D01*
X63016961Y-66285952D02*
X63112200Y-66381190D01*
X63112200Y-66381190D02*
X63159819Y-66524047D01*
X63159819Y-66524047D02*
X63159819Y-66619285D01*
X62159819Y-65857380D02*
X62159819Y-65190714D01*
X62159819Y-65190714D02*
X63159819Y-65619285D01*
X79791666Y-39819819D02*
X79791666Y-40534104D01*
X79791666Y-40534104D02*
X79744047Y-40676961D01*
X79744047Y-40676961D02*
X79648809Y-40772200D01*
X79648809Y-40772200D02*
X79505952Y-40819819D01*
X79505952Y-40819819D02*
X79410714Y-40819819D01*
X80744047Y-39819819D02*
X80267857Y-39819819D01*
X80267857Y-39819819D02*
X80220238Y-40296009D01*
X80220238Y-40296009D02*
X80267857Y-40248390D01*
X80267857Y-40248390D02*
X80363095Y-40200771D01*
X80363095Y-40200771D02*
X80601190Y-40200771D01*
X80601190Y-40200771D02*
X80696428Y-40248390D01*
X80696428Y-40248390D02*
X80744047Y-40296009D01*
X80744047Y-40296009D02*
X80791666Y-40391247D01*
X80791666Y-40391247D02*
X80791666Y-40629342D01*
X80791666Y-40629342D02*
X80744047Y-40724580D01*
X80744047Y-40724580D02*
X80696428Y-40772200D01*
X80696428Y-40772200D02*
X80601190Y-40819819D01*
X80601190Y-40819819D02*
X80363095Y-40819819D01*
X80363095Y-40819819D02*
X80267857Y-40772200D01*
X80267857Y-40772200D02*
X80220238Y-40724580D01*
X49379819Y-65441666D02*
X49379819Y-65917856D01*
X49379819Y-65917856D02*
X48379819Y-65917856D01*
X49379819Y-65108332D02*
X48379819Y-65108332D01*
X48379819Y-65108332D02*
X48379819Y-64870237D01*
X48379819Y-64870237D02*
X48427438Y-64727380D01*
X48427438Y-64727380D02*
X48522676Y-64632142D01*
X48522676Y-64632142D02*
X48617914Y-64584523D01*
X48617914Y-64584523D02*
X48808390Y-64536904D01*
X48808390Y-64536904D02*
X48951247Y-64536904D01*
X48951247Y-64536904D02*
X49141723Y-64584523D01*
X49141723Y-64584523D02*
X49236961Y-64632142D01*
X49236961Y-64632142D02*
X49332200Y-64727380D01*
X49332200Y-64727380D02*
X49379819Y-64870237D01*
X49379819Y-64870237D02*
X49379819Y-65108332D01*
X48379819Y-64203570D02*
X48379819Y-63584523D01*
X48379819Y-63584523D02*
X48760771Y-63917856D01*
X48760771Y-63917856D02*
X48760771Y-63774999D01*
X48760771Y-63774999D02*
X48808390Y-63679761D01*
X48808390Y-63679761D02*
X48856009Y-63632142D01*
X48856009Y-63632142D02*
X48951247Y-63584523D01*
X48951247Y-63584523D02*
X49189342Y-63584523D01*
X49189342Y-63584523D02*
X49284580Y-63632142D01*
X49284580Y-63632142D02*
X49332200Y-63679761D01*
X49332200Y-63679761D02*
X49379819Y-63774999D01*
X49379819Y-63774999D02*
X49379819Y-64060713D01*
X49379819Y-64060713D02*
X49332200Y-64155951D01*
X49332200Y-64155951D02*
X49284580Y-64203570D01*
X21916666Y-53374819D02*
X21916666Y-54089104D01*
X21916666Y-54089104D02*
X21869047Y-54231961D01*
X21869047Y-54231961D02*
X21773809Y-54327200D01*
X21773809Y-54327200D02*
X21630952Y-54374819D01*
X21630952Y-54374819D02*
X21535714Y-54374819D01*
X22916666Y-54374819D02*
X22345238Y-54374819D01*
X22630952Y-54374819D02*
X22630952Y-53374819D01*
X22630952Y-53374819D02*
X22535714Y-53517676D01*
X22535714Y-53517676D02*
X22440476Y-53612914D01*
X22440476Y-53612914D02*
X22345238Y-53660533D01*
X31363095Y-50725963D02*
X31363095Y-51535486D01*
X31363095Y-51535486D02*
X31410714Y-51630724D01*
X31410714Y-51630724D02*
X31458333Y-51678344D01*
X31458333Y-51678344D02*
X31553571Y-51725963D01*
X31553571Y-51725963D02*
X31744047Y-51725963D01*
X31744047Y-51725963D02*
X31839285Y-51678344D01*
X31839285Y-51678344D02*
X31886904Y-51630724D01*
X31886904Y-51630724D02*
X31934523Y-51535486D01*
X31934523Y-51535486D02*
X31934523Y-50725963D01*
X32934523Y-51725963D02*
X32363095Y-51725963D01*
X32648809Y-51725963D02*
X32648809Y-50725963D01*
X32648809Y-50725963D02*
X32553571Y-50868820D01*
X32553571Y-50868820D02*
X32458333Y-50964058D01*
X32458333Y-50964058D02*
X32363095Y-51011677D01*
X57984819Y-24933333D02*
X58699104Y-24933333D01*
X58699104Y-24933333D02*
X58841961Y-24980952D01*
X58841961Y-24980952D02*
X58937200Y-25076190D01*
X58937200Y-25076190D02*
X58984819Y-25219047D01*
X58984819Y-25219047D02*
X58984819Y-25314285D01*
X57984819Y-24028571D02*
X57984819Y-24219047D01*
X57984819Y-24219047D02*
X58032438Y-24314285D01*
X58032438Y-24314285D02*
X58080057Y-24361904D01*
X58080057Y-24361904D02*
X58222914Y-24457142D01*
X58222914Y-24457142D02*
X58413390Y-24504761D01*
X58413390Y-24504761D02*
X58794342Y-24504761D01*
X58794342Y-24504761D02*
X58889580Y-24457142D01*
X58889580Y-24457142D02*
X58937200Y-24409523D01*
X58937200Y-24409523D02*
X58984819Y-24314285D01*
X58984819Y-24314285D02*
X58984819Y-24123809D01*
X58984819Y-24123809D02*
X58937200Y-24028571D01*
X58937200Y-24028571D02*
X58889580Y-23980952D01*
X58889580Y-23980952D02*
X58794342Y-23933333D01*
X58794342Y-23933333D02*
X58556247Y-23933333D01*
X58556247Y-23933333D02*
X58461009Y-23980952D01*
X58461009Y-23980952D02*
X58413390Y-24028571D01*
X58413390Y-24028571D02*
X58365771Y-24123809D01*
X58365771Y-24123809D02*
X58365771Y-24314285D01*
X58365771Y-24314285D02*
X58413390Y-24409523D01*
X58413390Y-24409523D02*
X58461009Y-24457142D01*
X58461009Y-24457142D02*
X58556247Y-24504761D01*
X60332142Y-56979819D02*
X59998809Y-56503628D01*
X59760714Y-56979819D02*
X59760714Y-55979819D01*
X59760714Y-55979819D02*
X60141666Y-55979819D01*
X60141666Y-55979819D02*
X60236904Y-56027438D01*
X60236904Y-56027438D02*
X60284523Y-56075057D01*
X60284523Y-56075057D02*
X60332142Y-56170295D01*
X60332142Y-56170295D02*
X60332142Y-56313152D01*
X60332142Y-56313152D02*
X60284523Y-56408390D01*
X60284523Y-56408390D02*
X60236904Y-56456009D01*
X60236904Y-56456009D02*
X60141666Y-56503628D01*
X60141666Y-56503628D02*
X59760714Y-56503628D01*
X61284523Y-56979819D02*
X60713095Y-56979819D01*
X60998809Y-56979819D02*
X60998809Y-55979819D01*
X60998809Y-55979819D02*
X60903571Y-56122676D01*
X60903571Y-56122676D02*
X60808333Y-56217914D01*
X60808333Y-56217914D02*
X60713095Y-56265533D01*
X61903571Y-55979819D02*
X61998809Y-55979819D01*
X61998809Y-55979819D02*
X62094047Y-56027438D01*
X62094047Y-56027438D02*
X62141666Y-56075057D01*
X62141666Y-56075057D02*
X62189285Y-56170295D01*
X62189285Y-56170295D02*
X62236904Y-56360771D01*
X62236904Y-56360771D02*
X62236904Y-56598866D01*
X62236904Y-56598866D02*
X62189285Y-56789342D01*
X62189285Y-56789342D02*
X62141666Y-56884580D01*
X62141666Y-56884580D02*
X62094047Y-56932200D01*
X62094047Y-56932200D02*
X61998809Y-56979819D01*
X61998809Y-56979819D02*
X61903571Y-56979819D01*
X61903571Y-56979819D02*
X61808333Y-56932200D01*
X61808333Y-56932200D02*
X61760714Y-56884580D01*
X61760714Y-56884580D02*
X61713095Y-56789342D01*
X61713095Y-56789342D02*
X61665476Y-56598866D01*
X61665476Y-56598866D02*
X61665476Y-56360771D01*
X61665476Y-56360771D02*
X61713095Y-56170295D01*
X61713095Y-56170295D02*
X61760714Y-56075057D01*
X61760714Y-56075057D02*
X61808333Y-56027438D01*
X61808333Y-56027438D02*
X61903571Y-55979819D01*
X25854819Y-52863094D02*
X24854819Y-52863094D01*
X24854819Y-52863094D02*
X24854819Y-52624999D01*
X24854819Y-52624999D02*
X24902438Y-52482142D01*
X24902438Y-52482142D02*
X24997676Y-52386904D01*
X24997676Y-52386904D02*
X25092914Y-52339285D01*
X25092914Y-52339285D02*
X25283390Y-52291666D01*
X25283390Y-52291666D02*
X25426247Y-52291666D01*
X25426247Y-52291666D02*
X25616723Y-52339285D01*
X25616723Y-52339285D02*
X25711961Y-52386904D01*
X25711961Y-52386904D02*
X25807200Y-52482142D01*
X25807200Y-52482142D02*
X25854819Y-52624999D01*
X25854819Y-52624999D02*
X25854819Y-52863094D01*
X25854819Y-51339285D02*
X25854819Y-51910713D01*
X25854819Y-51624999D02*
X24854819Y-51624999D01*
X24854819Y-51624999D02*
X24997676Y-51720237D01*
X24997676Y-51720237D02*
X25092914Y-51815475D01*
X25092914Y-51815475D02*
X25140533Y-51910713D01*
X40333333Y-58784580D02*
X40285714Y-58832200D01*
X40285714Y-58832200D02*
X40142857Y-58879819D01*
X40142857Y-58879819D02*
X40047619Y-58879819D01*
X40047619Y-58879819D02*
X39904762Y-58832200D01*
X39904762Y-58832200D02*
X39809524Y-58736961D01*
X39809524Y-58736961D02*
X39761905Y-58641723D01*
X39761905Y-58641723D02*
X39714286Y-58451247D01*
X39714286Y-58451247D02*
X39714286Y-58308390D01*
X39714286Y-58308390D02*
X39761905Y-58117914D01*
X39761905Y-58117914D02*
X39809524Y-58022676D01*
X39809524Y-58022676D02*
X39904762Y-57927438D01*
X39904762Y-57927438D02*
X40047619Y-57879819D01*
X40047619Y-57879819D02*
X40142857Y-57879819D01*
X40142857Y-57879819D02*
X40285714Y-57927438D01*
X40285714Y-57927438D02*
X40333333Y-57975057D01*
X40666667Y-57879819D02*
X41285714Y-57879819D01*
X41285714Y-57879819D02*
X40952381Y-58260771D01*
X40952381Y-58260771D02*
X41095238Y-58260771D01*
X41095238Y-58260771D02*
X41190476Y-58308390D01*
X41190476Y-58308390D02*
X41238095Y-58356009D01*
X41238095Y-58356009D02*
X41285714Y-58451247D01*
X41285714Y-58451247D02*
X41285714Y-58689342D01*
X41285714Y-58689342D02*
X41238095Y-58784580D01*
X41238095Y-58784580D02*
X41190476Y-58832200D01*
X41190476Y-58832200D02*
X41095238Y-58879819D01*
X41095238Y-58879819D02*
X40809524Y-58879819D01*
X40809524Y-58879819D02*
X40714286Y-58832200D01*
X40714286Y-58832200D02*
X40666667Y-58784580D01*
X40288333Y-57154580D02*
X40240714Y-57202200D01*
X40240714Y-57202200D02*
X40097857Y-57249819D01*
X40097857Y-57249819D02*
X40002619Y-57249819D01*
X40002619Y-57249819D02*
X39859762Y-57202200D01*
X39859762Y-57202200D02*
X39764524Y-57106961D01*
X39764524Y-57106961D02*
X39716905Y-57011723D01*
X39716905Y-57011723D02*
X39669286Y-56821247D01*
X39669286Y-56821247D02*
X39669286Y-56678390D01*
X39669286Y-56678390D02*
X39716905Y-56487914D01*
X39716905Y-56487914D02*
X39764524Y-56392676D01*
X39764524Y-56392676D02*
X39859762Y-56297438D01*
X39859762Y-56297438D02*
X40002619Y-56249819D01*
X40002619Y-56249819D02*
X40097857Y-56249819D01*
X40097857Y-56249819D02*
X40240714Y-56297438D01*
X40240714Y-56297438D02*
X40288333Y-56345057D01*
X40669286Y-56345057D02*
X40716905Y-56297438D01*
X40716905Y-56297438D02*
X40812143Y-56249819D01*
X40812143Y-56249819D02*
X41050238Y-56249819D01*
X41050238Y-56249819D02*
X41145476Y-56297438D01*
X41145476Y-56297438D02*
X41193095Y-56345057D01*
X41193095Y-56345057D02*
X41240714Y-56440295D01*
X41240714Y-56440295D02*
X41240714Y-56535533D01*
X41240714Y-56535533D02*
X41193095Y-56678390D01*
X41193095Y-56678390D02*
X40621667Y-57249819D01*
X40621667Y-57249819D02*
X41240714Y-57249819D01*
X50638095Y-51654819D02*
X50638095Y-52464342D01*
X50638095Y-52464342D02*
X50685714Y-52559580D01*
X50685714Y-52559580D02*
X50733333Y-52607200D01*
X50733333Y-52607200D02*
X50828571Y-52654819D01*
X50828571Y-52654819D02*
X51019047Y-52654819D01*
X51019047Y-52654819D02*
X51114285Y-52607200D01*
X51114285Y-52607200D02*
X51161904Y-52559580D01*
X51161904Y-52559580D02*
X51209523Y-52464342D01*
X51209523Y-52464342D02*
X51209523Y-51654819D01*
X51638095Y-51750057D02*
X51685714Y-51702438D01*
X51685714Y-51702438D02*
X51780952Y-51654819D01*
X51780952Y-51654819D02*
X52019047Y-51654819D01*
X52019047Y-51654819D02*
X52114285Y-51702438D01*
X52114285Y-51702438D02*
X52161904Y-51750057D01*
X52161904Y-51750057D02*
X52209523Y-51845295D01*
X52209523Y-51845295D02*
X52209523Y-51940533D01*
X52209523Y-51940533D02*
X52161904Y-52083390D01*
X52161904Y-52083390D02*
X51590476Y-52654819D01*
X51590476Y-52654819D02*
X52209523Y-52654819D01*
X30858333Y-61529819D02*
X30382143Y-61529819D01*
X30382143Y-61529819D02*
X30382143Y-60529819D01*
X31715476Y-61529819D02*
X31144048Y-61529819D01*
X31429762Y-61529819D02*
X31429762Y-60529819D01*
X31429762Y-60529819D02*
X31334524Y-60672676D01*
X31334524Y-60672676D02*
X31239286Y-60767914D01*
X31239286Y-60767914D02*
X31144048Y-60815533D01*
X55639819Y-25628333D02*
X56354104Y-25628333D01*
X56354104Y-25628333D02*
X56496961Y-25675952D01*
X56496961Y-25675952D02*
X56592200Y-25771190D01*
X56592200Y-25771190D02*
X56639819Y-25914047D01*
X56639819Y-25914047D02*
X56639819Y-26009285D01*
X56639819Y-25104523D02*
X56639819Y-24914047D01*
X56639819Y-24914047D02*
X56592200Y-24818809D01*
X56592200Y-24818809D02*
X56544580Y-24771190D01*
X56544580Y-24771190D02*
X56401723Y-24675952D01*
X56401723Y-24675952D02*
X56211247Y-24628333D01*
X56211247Y-24628333D02*
X55830295Y-24628333D01*
X55830295Y-24628333D02*
X55735057Y-24675952D01*
X55735057Y-24675952D02*
X55687438Y-24723571D01*
X55687438Y-24723571D02*
X55639819Y-24818809D01*
X55639819Y-24818809D02*
X55639819Y-25009285D01*
X55639819Y-25009285D02*
X55687438Y-25104523D01*
X55687438Y-25104523D02*
X55735057Y-25152142D01*
X55735057Y-25152142D02*
X55830295Y-25199761D01*
X55830295Y-25199761D02*
X56068390Y-25199761D01*
X56068390Y-25199761D02*
X56163628Y-25152142D01*
X56163628Y-25152142D02*
X56211247Y-25104523D01*
X56211247Y-25104523D02*
X56258866Y-25009285D01*
X56258866Y-25009285D02*
X56258866Y-24818809D01*
X56258866Y-24818809D02*
X56211247Y-24723571D01*
X56211247Y-24723571D02*
X56163628Y-24675952D01*
X56163628Y-24675952D02*
X56068390Y-24628333D01*
X47879819Y-65404166D02*
X47879819Y-65880356D01*
X47879819Y-65880356D02*
X46879819Y-65880356D01*
X47879819Y-65070832D02*
X46879819Y-65070832D01*
X46879819Y-65070832D02*
X46879819Y-64832737D01*
X46879819Y-64832737D02*
X46927438Y-64689880D01*
X46927438Y-64689880D02*
X47022676Y-64594642D01*
X47022676Y-64594642D02*
X47117914Y-64547023D01*
X47117914Y-64547023D02*
X47308390Y-64499404D01*
X47308390Y-64499404D02*
X47451247Y-64499404D01*
X47451247Y-64499404D02*
X47641723Y-64547023D01*
X47641723Y-64547023D02*
X47736961Y-64594642D01*
X47736961Y-64594642D02*
X47832200Y-64689880D01*
X47832200Y-64689880D02*
X47879819Y-64832737D01*
X47879819Y-64832737D02*
X47879819Y-65070832D01*
X46975057Y-64118451D02*
X46927438Y-64070832D01*
X46927438Y-64070832D02*
X46879819Y-63975594D01*
X46879819Y-63975594D02*
X46879819Y-63737499D01*
X46879819Y-63737499D02*
X46927438Y-63642261D01*
X46927438Y-63642261D02*
X46975057Y-63594642D01*
X46975057Y-63594642D02*
X47070295Y-63547023D01*
X47070295Y-63547023D02*
X47165533Y-63547023D01*
X47165533Y-63547023D02*
X47308390Y-63594642D01*
X47308390Y-63594642D02*
X47879819Y-64166070D01*
X47879819Y-64166070D02*
X47879819Y-63547023D01*
X27574819Y-51437810D02*
X27098628Y-51771143D01*
X27574819Y-52009238D02*
X26574819Y-52009238D01*
X26574819Y-52009238D02*
X26574819Y-51628286D01*
X26574819Y-51628286D02*
X26622438Y-51533048D01*
X26622438Y-51533048D02*
X26670057Y-51485429D01*
X26670057Y-51485429D02*
X26765295Y-51437810D01*
X26765295Y-51437810D02*
X26908152Y-51437810D01*
X26908152Y-51437810D02*
X27003390Y-51485429D01*
X27003390Y-51485429D02*
X27051009Y-51533048D01*
X27051009Y-51533048D02*
X27098628Y-51628286D01*
X27098628Y-51628286D02*
X27098628Y-52009238D01*
X27574819Y-50485429D02*
X27574819Y-51056857D01*
X27574819Y-50771143D02*
X26574819Y-50771143D01*
X26574819Y-50771143D02*
X26717676Y-50866381D01*
X26717676Y-50866381D02*
X26812914Y-50961619D01*
X26812914Y-50961619D02*
X26860533Y-51056857D01*
X61044819Y-67858333D02*
X61759104Y-67858333D01*
X61759104Y-67858333D02*
X61901961Y-67905952D01*
X61901961Y-67905952D02*
X61997200Y-68001190D01*
X61997200Y-68001190D02*
X62044819Y-68144047D01*
X62044819Y-68144047D02*
X62044819Y-68239285D01*
X61378152Y-66953571D02*
X62044819Y-66953571D01*
X60997200Y-67191666D02*
X61711485Y-67429761D01*
X61711485Y-67429761D02*
X61711485Y-66810714D01*
X30624580Y-43566666D02*
X30672200Y-43614285D01*
X30672200Y-43614285D02*
X30719819Y-43757142D01*
X30719819Y-43757142D02*
X30719819Y-43852380D01*
X30719819Y-43852380D02*
X30672200Y-43995237D01*
X30672200Y-43995237D02*
X30576961Y-44090475D01*
X30576961Y-44090475D02*
X30481723Y-44138094D01*
X30481723Y-44138094D02*
X30291247Y-44185713D01*
X30291247Y-44185713D02*
X30148390Y-44185713D01*
X30148390Y-44185713D02*
X29957914Y-44138094D01*
X29957914Y-44138094D02*
X29862676Y-44090475D01*
X29862676Y-44090475D02*
X29767438Y-43995237D01*
X29767438Y-43995237D02*
X29719819Y-43852380D01*
X29719819Y-43852380D02*
X29719819Y-43757142D01*
X29719819Y-43757142D02*
X29767438Y-43614285D01*
X29767438Y-43614285D02*
X29815057Y-43566666D01*
X30148390Y-42995237D02*
X30100771Y-43090475D01*
X30100771Y-43090475D02*
X30053152Y-43138094D01*
X30053152Y-43138094D02*
X29957914Y-43185713D01*
X29957914Y-43185713D02*
X29910295Y-43185713D01*
X29910295Y-43185713D02*
X29815057Y-43138094D01*
X29815057Y-43138094D02*
X29767438Y-43090475D01*
X29767438Y-43090475D02*
X29719819Y-42995237D01*
X29719819Y-42995237D02*
X29719819Y-42804761D01*
X29719819Y-42804761D02*
X29767438Y-42709523D01*
X29767438Y-42709523D02*
X29815057Y-42661904D01*
X29815057Y-42661904D02*
X29910295Y-42614285D01*
X29910295Y-42614285D02*
X29957914Y-42614285D01*
X29957914Y-42614285D02*
X30053152Y-42661904D01*
X30053152Y-42661904D02*
X30100771Y-42709523D01*
X30100771Y-42709523D02*
X30148390Y-42804761D01*
X30148390Y-42804761D02*
X30148390Y-42995237D01*
X30148390Y-42995237D02*
X30196009Y-43090475D01*
X30196009Y-43090475D02*
X30243628Y-43138094D01*
X30243628Y-43138094D02*
X30338866Y-43185713D01*
X30338866Y-43185713D02*
X30529342Y-43185713D01*
X30529342Y-43185713D02*
X30624580Y-43138094D01*
X30624580Y-43138094D02*
X30672200Y-43090475D01*
X30672200Y-43090475D02*
X30719819Y-42995237D01*
X30719819Y-42995237D02*
X30719819Y-42804761D01*
X30719819Y-42804761D02*
X30672200Y-42709523D01*
X30672200Y-42709523D02*
X30624580Y-42661904D01*
X30624580Y-42661904D02*
X30529342Y-42614285D01*
X30529342Y-42614285D02*
X30338866Y-42614285D01*
X30338866Y-42614285D02*
X30243628Y-42661904D01*
X30243628Y-42661904D02*
X30196009Y-42709523D01*
X30196009Y-42709523D02*
X30148390Y-42804761D01*
X47734580Y-40592857D02*
X47782200Y-40640476D01*
X47782200Y-40640476D02*
X47829819Y-40783333D01*
X47829819Y-40783333D02*
X47829819Y-40878571D01*
X47829819Y-40878571D02*
X47782200Y-41021428D01*
X47782200Y-41021428D02*
X47686961Y-41116666D01*
X47686961Y-41116666D02*
X47591723Y-41164285D01*
X47591723Y-41164285D02*
X47401247Y-41211904D01*
X47401247Y-41211904D02*
X47258390Y-41211904D01*
X47258390Y-41211904D02*
X47067914Y-41164285D01*
X47067914Y-41164285D02*
X46972676Y-41116666D01*
X46972676Y-41116666D02*
X46877438Y-41021428D01*
X46877438Y-41021428D02*
X46829819Y-40878571D01*
X46829819Y-40878571D02*
X46829819Y-40783333D01*
X46829819Y-40783333D02*
X46877438Y-40640476D01*
X46877438Y-40640476D02*
X46925057Y-40592857D01*
X47829819Y-39640476D02*
X47829819Y-40211904D01*
X47829819Y-39926190D02*
X46829819Y-39926190D01*
X46829819Y-39926190D02*
X46972676Y-40021428D01*
X46972676Y-40021428D02*
X47067914Y-40116666D01*
X47067914Y-40116666D02*
X47115533Y-40211904D01*
X47829819Y-38688095D02*
X47829819Y-39259523D01*
X47829819Y-38973809D02*
X46829819Y-38973809D01*
X46829819Y-38973809D02*
X46972676Y-39069047D01*
X46972676Y-39069047D02*
X47067914Y-39164285D01*
X47067914Y-39164285D02*
X47115533Y-39259523D01*
X37004819Y-43591666D02*
X36528628Y-43924999D01*
X37004819Y-44163094D02*
X36004819Y-44163094D01*
X36004819Y-44163094D02*
X36004819Y-43782142D01*
X36004819Y-43782142D02*
X36052438Y-43686904D01*
X36052438Y-43686904D02*
X36100057Y-43639285D01*
X36100057Y-43639285D02*
X36195295Y-43591666D01*
X36195295Y-43591666D02*
X36338152Y-43591666D01*
X36338152Y-43591666D02*
X36433390Y-43639285D01*
X36433390Y-43639285D02*
X36481009Y-43686904D01*
X36481009Y-43686904D02*
X36528628Y-43782142D01*
X36528628Y-43782142D02*
X36528628Y-44163094D01*
X36100057Y-43210713D02*
X36052438Y-43163094D01*
X36052438Y-43163094D02*
X36004819Y-43067856D01*
X36004819Y-43067856D02*
X36004819Y-42829761D01*
X36004819Y-42829761D02*
X36052438Y-42734523D01*
X36052438Y-42734523D02*
X36100057Y-42686904D01*
X36100057Y-42686904D02*
X36195295Y-42639285D01*
X36195295Y-42639285D02*
X36290533Y-42639285D01*
X36290533Y-42639285D02*
X36433390Y-42686904D01*
X36433390Y-42686904D02*
X37004819Y-43258332D01*
X37004819Y-43258332D02*
X37004819Y-42639285D01*
X21415476Y-25419819D02*
X21415476Y-26134104D01*
X21415476Y-26134104D02*
X21367857Y-26276961D01*
X21367857Y-26276961D02*
X21272619Y-26372200D01*
X21272619Y-26372200D02*
X21129762Y-26419819D01*
X21129762Y-26419819D02*
X21034524Y-26419819D01*
X22415476Y-26419819D02*
X21844048Y-26419819D01*
X22129762Y-26419819D02*
X22129762Y-25419819D01*
X22129762Y-25419819D02*
X22034524Y-25562676D01*
X22034524Y-25562676D02*
X21939286Y-25657914D01*
X21939286Y-25657914D02*
X21844048Y-25705533D01*
X23034524Y-25419819D02*
X23129762Y-25419819D01*
X23129762Y-25419819D02*
X23225000Y-25467438D01*
X23225000Y-25467438D02*
X23272619Y-25515057D01*
X23272619Y-25515057D02*
X23320238Y-25610295D01*
X23320238Y-25610295D02*
X23367857Y-25800771D01*
X23367857Y-25800771D02*
X23367857Y-26038866D01*
X23367857Y-26038866D02*
X23320238Y-26229342D01*
X23320238Y-26229342D02*
X23272619Y-26324580D01*
X23272619Y-26324580D02*
X23225000Y-26372200D01*
X23225000Y-26372200D02*
X23129762Y-26419819D01*
X23129762Y-26419819D02*
X23034524Y-26419819D01*
X23034524Y-26419819D02*
X22939286Y-26372200D01*
X22939286Y-26372200D02*
X22891667Y-26324580D01*
X22891667Y-26324580D02*
X22844048Y-26229342D01*
X22844048Y-26229342D02*
X22796429Y-26038866D01*
X22796429Y-26038866D02*
X22796429Y-25800771D01*
X22796429Y-25800771D02*
X22844048Y-25610295D01*
X22844048Y-25610295D02*
X22891667Y-25515057D01*
X22891667Y-25515057D02*
X22939286Y-25467438D01*
X22939286Y-25467438D02*
X23034524Y-25419819D01*
X35554819Y-43566666D02*
X35078628Y-43899999D01*
X35554819Y-44138094D02*
X34554819Y-44138094D01*
X34554819Y-44138094D02*
X34554819Y-43757142D01*
X34554819Y-43757142D02*
X34602438Y-43661904D01*
X34602438Y-43661904D02*
X34650057Y-43614285D01*
X34650057Y-43614285D02*
X34745295Y-43566666D01*
X34745295Y-43566666D02*
X34888152Y-43566666D01*
X34888152Y-43566666D02*
X34983390Y-43614285D01*
X34983390Y-43614285D02*
X35031009Y-43661904D01*
X35031009Y-43661904D02*
X35078628Y-43757142D01*
X35078628Y-43757142D02*
X35078628Y-44138094D01*
X34554819Y-42661904D02*
X34554819Y-43138094D01*
X34554819Y-43138094D02*
X35031009Y-43185713D01*
X35031009Y-43185713D02*
X34983390Y-43138094D01*
X34983390Y-43138094D02*
X34935771Y-43042856D01*
X34935771Y-43042856D02*
X34935771Y-42804761D01*
X34935771Y-42804761D02*
X34983390Y-42709523D01*
X34983390Y-42709523D02*
X35031009Y-42661904D01*
X35031009Y-42661904D02*
X35126247Y-42614285D01*
X35126247Y-42614285D02*
X35364342Y-42614285D01*
X35364342Y-42614285D02*
X35459580Y-42661904D01*
X35459580Y-42661904D02*
X35507200Y-42709523D01*
X35507200Y-42709523D02*
X35554819Y-42804761D01*
X35554819Y-42804761D02*
X35554819Y-43042856D01*
X35554819Y-43042856D02*
X35507200Y-43138094D01*
X35507200Y-43138094D02*
X35459580Y-43185713D01*
X76048333Y-35399819D02*
X75572143Y-35399819D01*
X75572143Y-35399819D02*
X75572143Y-34399819D01*
X76381667Y-35399819D02*
X76381667Y-34399819D01*
X76381667Y-34399819D02*
X76619762Y-34399819D01*
X76619762Y-34399819D02*
X76762619Y-34447438D01*
X76762619Y-34447438D02*
X76857857Y-34542676D01*
X76857857Y-34542676D02*
X76905476Y-34637914D01*
X76905476Y-34637914D02*
X76953095Y-34828390D01*
X76953095Y-34828390D02*
X76953095Y-34971247D01*
X76953095Y-34971247D02*
X76905476Y-35161723D01*
X76905476Y-35161723D02*
X76857857Y-35256961D01*
X76857857Y-35256961D02*
X76762619Y-35352200D01*
X76762619Y-35352200D02*
X76619762Y-35399819D01*
X76619762Y-35399819D02*
X76381667Y-35399819D01*
X77905476Y-35399819D02*
X77334048Y-35399819D01*
X77619762Y-35399819D02*
X77619762Y-34399819D01*
X77619762Y-34399819D02*
X77524524Y-34542676D01*
X77524524Y-34542676D02*
X77429286Y-34637914D01*
X77429286Y-34637914D02*
X77334048Y-34685533D01*
X37675580Y-65656666D02*
X37723200Y-65704285D01*
X37723200Y-65704285D02*
X37770819Y-65847142D01*
X37770819Y-65847142D02*
X37770819Y-65942380D01*
X37770819Y-65942380D02*
X37723200Y-66085237D01*
X37723200Y-66085237D02*
X37627961Y-66180475D01*
X37627961Y-66180475D02*
X37532723Y-66228094D01*
X37532723Y-66228094D02*
X37342247Y-66275713D01*
X37342247Y-66275713D02*
X37199390Y-66275713D01*
X37199390Y-66275713D02*
X37008914Y-66228094D01*
X37008914Y-66228094D02*
X36913676Y-66180475D01*
X36913676Y-66180475D02*
X36818438Y-66085237D01*
X36818438Y-66085237D02*
X36770819Y-65942380D01*
X36770819Y-65942380D02*
X36770819Y-65847142D01*
X36770819Y-65847142D02*
X36818438Y-65704285D01*
X36818438Y-65704285D02*
X36866057Y-65656666D01*
X36770819Y-64751904D02*
X36770819Y-65228094D01*
X36770819Y-65228094D02*
X37247009Y-65275713D01*
X37247009Y-65275713D02*
X37199390Y-65228094D01*
X37199390Y-65228094D02*
X37151771Y-65132856D01*
X37151771Y-65132856D02*
X37151771Y-64894761D01*
X37151771Y-64894761D02*
X37199390Y-64799523D01*
X37199390Y-64799523D02*
X37247009Y-64751904D01*
X37247009Y-64751904D02*
X37342247Y-64704285D01*
X37342247Y-64704285D02*
X37580342Y-64704285D01*
X37580342Y-64704285D02*
X37675580Y-64751904D01*
X37675580Y-64751904D02*
X37723200Y-64799523D01*
X37723200Y-64799523D02*
X37770819Y-64894761D01*
X37770819Y-64894761D02*
X37770819Y-65132856D01*
X37770819Y-65132856D02*
X37723200Y-65228094D01*
X37723200Y-65228094D02*
X37675580Y-65275713D01*
X46154819Y-65541666D02*
X46154819Y-66017856D01*
X46154819Y-66017856D02*
X45154819Y-66017856D01*
X46154819Y-65208332D02*
X45154819Y-65208332D01*
X45154819Y-65208332D02*
X45154819Y-64970237D01*
X45154819Y-64970237D02*
X45202438Y-64827380D01*
X45202438Y-64827380D02*
X45297676Y-64732142D01*
X45297676Y-64732142D02*
X45392914Y-64684523D01*
X45392914Y-64684523D02*
X45583390Y-64636904D01*
X45583390Y-64636904D02*
X45726247Y-64636904D01*
X45726247Y-64636904D02*
X45916723Y-64684523D01*
X45916723Y-64684523D02*
X46011961Y-64732142D01*
X46011961Y-64732142D02*
X46107200Y-64827380D01*
X46107200Y-64827380D02*
X46154819Y-64970237D01*
X46154819Y-64970237D02*
X46154819Y-65208332D01*
X45154819Y-63732142D02*
X45154819Y-64208332D01*
X45154819Y-64208332D02*
X45631009Y-64255951D01*
X45631009Y-64255951D02*
X45583390Y-64208332D01*
X45583390Y-64208332D02*
X45535771Y-64113094D01*
X45535771Y-64113094D02*
X45535771Y-63874999D01*
X45535771Y-63874999D02*
X45583390Y-63779761D01*
X45583390Y-63779761D02*
X45631009Y-63732142D01*
X45631009Y-63732142D02*
X45726247Y-63684523D01*
X45726247Y-63684523D02*
X45964342Y-63684523D01*
X45964342Y-63684523D02*
X46059580Y-63732142D01*
X46059580Y-63732142D02*
X46107200Y-63779761D01*
X46107200Y-63779761D02*
X46154819Y-63874999D01*
X46154819Y-63874999D02*
X46154819Y-64113094D01*
X46154819Y-64113094D02*
X46107200Y-64208332D01*
X46107200Y-64208332D02*
X46059580Y-64255951D01*
X60307142Y-55454819D02*
X59973809Y-54978628D01*
X59735714Y-55454819D02*
X59735714Y-54454819D01*
X59735714Y-54454819D02*
X60116666Y-54454819D01*
X60116666Y-54454819D02*
X60211904Y-54502438D01*
X60211904Y-54502438D02*
X60259523Y-54550057D01*
X60259523Y-54550057D02*
X60307142Y-54645295D01*
X60307142Y-54645295D02*
X60307142Y-54788152D01*
X60307142Y-54788152D02*
X60259523Y-54883390D01*
X60259523Y-54883390D02*
X60211904Y-54931009D01*
X60211904Y-54931009D02*
X60116666Y-54978628D01*
X60116666Y-54978628D02*
X59735714Y-54978628D01*
X61259523Y-55454819D02*
X60688095Y-55454819D01*
X60973809Y-55454819D02*
X60973809Y-54454819D01*
X60973809Y-54454819D02*
X60878571Y-54597676D01*
X60878571Y-54597676D02*
X60783333Y-54692914D01*
X60783333Y-54692914D02*
X60688095Y-54740533D01*
X61592857Y-54454819D02*
X62211904Y-54454819D01*
X62211904Y-54454819D02*
X61878571Y-54835771D01*
X61878571Y-54835771D02*
X62021428Y-54835771D01*
X62021428Y-54835771D02*
X62116666Y-54883390D01*
X62116666Y-54883390D02*
X62164285Y-54931009D01*
X62164285Y-54931009D02*
X62211904Y-55026247D01*
X62211904Y-55026247D02*
X62211904Y-55264342D01*
X62211904Y-55264342D02*
X62164285Y-55359580D01*
X62164285Y-55359580D02*
X62116666Y-55407200D01*
X62116666Y-55407200D02*
X62021428Y-55454819D01*
X62021428Y-55454819D02*
X61735714Y-55454819D01*
X61735714Y-55454819D02*
X61640476Y-55407200D01*
X61640476Y-55407200D02*
X61592857Y-55359580D01*
X34285714Y-29019104D02*
X34761904Y-29019104D01*
X34190476Y-29304819D02*
X34523809Y-28304819D01*
X34523809Y-28304819D02*
X34857142Y-29304819D01*
X35714285Y-29304819D02*
X35142857Y-29304819D01*
X35428571Y-29304819D02*
X35428571Y-28304819D01*
X35428571Y-28304819D02*
X35333333Y-28447676D01*
X35333333Y-28447676D02*
X35238095Y-28542914D01*
X35238095Y-28542914D02*
X35142857Y-28590533D01*
X57808333Y-57459580D02*
X57760714Y-57507200D01*
X57760714Y-57507200D02*
X57617857Y-57554819D01*
X57617857Y-57554819D02*
X57522619Y-57554819D01*
X57522619Y-57554819D02*
X57379762Y-57507200D01*
X57379762Y-57507200D02*
X57284524Y-57411961D01*
X57284524Y-57411961D02*
X57236905Y-57316723D01*
X57236905Y-57316723D02*
X57189286Y-57126247D01*
X57189286Y-57126247D02*
X57189286Y-56983390D01*
X57189286Y-56983390D02*
X57236905Y-56792914D01*
X57236905Y-56792914D02*
X57284524Y-56697676D01*
X57284524Y-56697676D02*
X57379762Y-56602438D01*
X57379762Y-56602438D02*
X57522619Y-56554819D01*
X57522619Y-56554819D02*
X57617857Y-56554819D01*
X57617857Y-56554819D02*
X57760714Y-56602438D01*
X57760714Y-56602438D02*
X57808333Y-56650057D01*
X58141667Y-56554819D02*
X58808333Y-56554819D01*
X58808333Y-56554819D02*
X58379762Y-57554819D01*
X21991666Y-40379819D02*
X21991666Y-41094104D01*
X21991666Y-41094104D02*
X21944047Y-41236961D01*
X21944047Y-41236961D02*
X21848809Y-41332200D01*
X21848809Y-41332200D02*
X21705952Y-41379819D01*
X21705952Y-41379819D02*
X21610714Y-41379819D01*
X22420238Y-40475057D02*
X22467857Y-40427438D01*
X22467857Y-40427438D02*
X22563095Y-40379819D01*
X22563095Y-40379819D02*
X22801190Y-40379819D01*
X22801190Y-40379819D02*
X22896428Y-40427438D01*
X22896428Y-40427438D02*
X22944047Y-40475057D01*
X22944047Y-40475057D02*
X22991666Y-40570295D01*
X22991666Y-40570295D02*
X22991666Y-40665533D01*
X22991666Y-40665533D02*
X22944047Y-40808390D01*
X22944047Y-40808390D02*
X22372619Y-41379819D01*
X22372619Y-41379819D02*
X22991666Y-41379819D01*
X76798333Y-37124819D02*
X76465000Y-36648628D01*
X76226905Y-37124819D02*
X76226905Y-36124819D01*
X76226905Y-36124819D02*
X76607857Y-36124819D01*
X76607857Y-36124819D02*
X76703095Y-36172438D01*
X76703095Y-36172438D02*
X76750714Y-36220057D01*
X76750714Y-36220057D02*
X76798333Y-36315295D01*
X76798333Y-36315295D02*
X76798333Y-36458152D01*
X76798333Y-36458152D02*
X76750714Y-36553390D01*
X76750714Y-36553390D02*
X76703095Y-36601009D01*
X76703095Y-36601009D02*
X76607857Y-36648628D01*
X76607857Y-36648628D02*
X76226905Y-36648628D01*
X77131667Y-36124819D02*
X77750714Y-36124819D01*
X77750714Y-36124819D02*
X77417381Y-36505771D01*
X77417381Y-36505771D02*
X77560238Y-36505771D01*
X77560238Y-36505771D02*
X77655476Y-36553390D01*
X77655476Y-36553390D02*
X77703095Y-36601009D01*
X77703095Y-36601009D02*
X77750714Y-36696247D01*
X77750714Y-36696247D02*
X77750714Y-36934342D01*
X77750714Y-36934342D02*
X77703095Y-37029580D01*
X77703095Y-37029580D02*
X77655476Y-37077200D01*
X77655476Y-37077200D02*
X77560238Y-37124819D01*
X77560238Y-37124819D02*
X77274524Y-37124819D01*
X77274524Y-37124819D02*
X77179286Y-37077200D01*
X77179286Y-37077200D02*
X77131667Y-37029580D01*
X49309580Y-40541666D02*
X49357200Y-40589285D01*
X49357200Y-40589285D02*
X49404819Y-40732142D01*
X49404819Y-40732142D02*
X49404819Y-40827380D01*
X49404819Y-40827380D02*
X49357200Y-40970237D01*
X49357200Y-40970237D02*
X49261961Y-41065475D01*
X49261961Y-41065475D02*
X49166723Y-41113094D01*
X49166723Y-41113094D02*
X48976247Y-41160713D01*
X48976247Y-41160713D02*
X48833390Y-41160713D01*
X48833390Y-41160713D02*
X48642914Y-41113094D01*
X48642914Y-41113094D02*
X48547676Y-41065475D01*
X48547676Y-41065475D02*
X48452438Y-40970237D01*
X48452438Y-40970237D02*
X48404819Y-40827380D01*
X48404819Y-40827380D02*
X48404819Y-40732142D01*
X48404819Y-40732142D02*
X48452438Y-40589285D01*
X48452438Y-40589285D02*
X48500057Y-40541666D01*
X48738152Y-39684523D02*
X49404819Y-39684523D01*
X48357200Y-39922618D02*
X49071485Y-40160713D01*
X49071485Y-40160713D02*
X49071485Y-39541666D01*
X32129819Y-43566666D02*
X31653628Y-43899999D01*
X32129819Y-44138094D02*
X31129819Y-44138094D01*
X31129819Y-44138094D02*
X31129819Y-43757142D01*
X31129819Y-43757142D02*
X31177438Y-43661904D01*
X31177438Y-43661904D02*
X31225057Y-43614285D01*
X31225057Y-43614285D02*
X31320295Y-43566666D01*
X31320295Y-43566666D02*
X31463152Y-43566666D01*
X31463152Y-43566666D02*
X31558390Y-43614285D01*
X31558390Y-43614285D02*
X31606009Y-43661904D01*
X31606009Y-43661904D02*
X31653628Y-43757142D01*
X31653628Y-43757142D02*
X31653628Y-44138094D01*
X31129819Y-42709523D02*
X31129819Y-42899999D01*
X31129819Y-42899999D02*
X31177438Y-42995237D01*
X31177438Y-42995237D02*
X31225057Y-43042856D01*
X31225057Y-43042856D02*
X31367914Y-43138094D01*
X31367914Y-43138094D02*
X31558390Y-43185713D01*
X31558390Y-43185713D02*
X31939342Y-43185713D01*
X31939342Y-43185713D02*
X32034580Y-43138094D01*
X32034580Y-43138094D02*
X32082200Y-43090475D01*
X32082200Y-43090475D02*
X32129819Y-42995237D01*
X32129819Y-42995237D02*
X32129819Y-42804761D01*
X32129819Y-42804761D02*
X32082200Y-42709523D01*
X32082200Y-42709523D02*
X32034580Y-42661904D01*
X32034580Y-42661904D02*
X31939342Y-42614285D01*
X31939342Y-42614285D02*
X31701247Y-42614285D01*
X31701247Y-42614285D02*
X31606009Y-42661904D01*
X31606009Y-42661904D02*
X31558390Y-42709523D01*
X31558390Y-42709523D02*
X31510771Y-42804761D01*
X31510771Y-42804761D02*
X31510771Y-42995237D01*
X31510771Y-42995237D02*
X31558390Y-43090475D01*
X31558390Y-43090475D02*
X31606009Y-43138094D01*
X31606009Y-43138094D02*
X31701247Y-43185713D01*
D14*
X30046237Y-65989318D02*
X30046237Y-64719318D01*
X31376714Y-65868365D02*
X31316238Y-65928842D01*
X31316238Y-65928842D02*
X31134809Y-65989318D01*
X31134809Y-65989318D02*
X31013857Y-65989318D01*
X31013857Y-65989318D02*
X30832428Y-65928842D01*
X30832428Y-65928842D02*
X30711476Y-65807889D01*
X30711476Y-65807889D02*
X30650999Y-65686937D01*
X30650999Y-65686937D02*
X30590523Y-65445032D01*
X30590523Y-65445032D02*
X30590523Y-65263603D01*
X30590523Y-65263603D02*
X30650999Y-65021699D01*
X30650999Y-65021699D02*
X30711476Y-64900746D01*
X30711476Y-64900746D02*
X30832428Y-64779794D01*
X30832428Y-64779794D02*
X31013857Y-64719318D01*
X31013857Y-64719318D02*
X31134809Y-64719318D01*
X31134809Y-64719318D02*
X31316238Y-64779794D01*
X31316238Y-64779794D02*
X31376714Y-64840270D01*
X32586238Y-65989318D02*
X31860523Y-65989318D01*
X32223380Y-65989318D02*
X32223380Y-64719318D01*
X32223380Y-64719318D02*
X32102428Y-64900746D01*
X32102428Y-64900746D02*
X31981476Y-65021699D01*
X31981476Y-65021699D02*
X31860523Y-65082175D01*
D13*
X24061009Y-50658333D02*
X24061009Y-50991666D01*
X24584819Y-50991666D02*
X23584819Y-50991666D01*
X23584819Y-50991666D02*
X23584819Y-50515476D01*
X24584819Y-49610714D02*
X24584819Y-50182142D01*
X24584819Y-49896428D02*
X23584819Y-49896428D01*
X23584819Y-49896428D02*
X23727676Y-49991666D01*
X23727676Y-49991666D02*
X23822914Y-50086904D01*
X23822914Y-50086904D02*
X23870533Y-50182142D01*
X55132142Y-44079819D02*
X54798809Y-43603628D01*
X54560714Y-44079819D02*
X54560714Y-43079819D01*
X54560714Y-43079819D02*
X54941666Y-43079819D01*
X54941666Y-43079819D02*
X55036904Y-43127438D01*
X55036904Y-43127438D02*
X55084523Y-43175057D01*
X55084523Y-43175057D02*
X55132142Y-43270295D01*
X55132142Y-43270295D02*
X55132142Y-43413152D01*
X55132142Y-43413152D02*
X55084523Y-43508390D01*
X55084523Y-43508390D02*
X55036904Y-43556009D01*
X55036904Y-43556009D02*
X54941666Y-43603628D01*
X54941666Y-43603628D02*
X54560714Y-43603628D01*
X56084523Y-44079819D02*
X55513095Y-44079819D01*
X55798809Y-44079819D02*
X55798809Y-43079819D01*
X55798809Y-43079819D02*
X55703571Y-43222676D01*
X55703571Y-43222676D02*
X55608333Y-43317914D01*
X55608333Y-43317914D02*
X55513095Y-43365533D01*
X56989285Y-43079819D02*
X56513095Y-43079819D01*
X56513095Y-43079819D02*
X56465476Y-43556009D01*
X56465476Y-43556009D02*
X56513095Y-43508390D01*
X56513095Y-43508390D02*
X56608333Y-43460771D01*
X56608333Y-43460771D02*
X56846428Y-43460771D01*
X56846428Y-43460771D02*
X56941666Y-43508390D01*
X56941666Y-43508390D02*
X56989285Y-43556009D01*
X56989285Y-43556009D02*
X57036904Y-43651247D01*
X57036904Y-43651247D02*
X57036904Y-43889342D01*
X57036904Y-43889342D02*
X56989285Y-43984580D01*
X56989285Y-43984580D02*
X56941666Y-44032200D01*
X56941666Y-44032200D02*
X56846428Y-44079819D01*
X56846428Y-44079819D02*
X56608333Y-44079819D01*
X56608333Y-44079819D02*
X56513095Y-44032200D01*
X56513095Y-44032200D02*
X56465476Y-43984580D01*
X27101819Y-68186666D02*
X26625628Y-68519999D01*
X27101819Y-68758094D02*
X26101819Y-68758094D01*
X26101819Y-68758094D02*
X26101819Y-68377142D01*
X26101819Y-68377142D02*
X26149438Y-68281904D01*
X26149438Y-68281904D02*
X26197057Y-68234285D01*
X26197057Y-68234285D02*
X26292295Y-68186666D01*
X26292295Y-68186666D02*
X26435152Y-68186666D01*
X26435152Y-68186666D02*
X26530390Y-68234285D01*
X26530390Y-68234285D02*
X26578009Y-68281904D01*
X26578009Y-68281904D02*
X26625628Y-68377142D01*
X26625628Y-68377142D02*
X26625628Y-68758094D01*
X26435152Y-67329523D02*
X27101819Y-67329523D01*
X26054200Y-67567618D02*
X26768485Y-67805713D01*
X26768485Y-67805713D02*
X26768485Y-67186666D01*
%TO.C,ZD1*%
D15*
X35000000Y-55010000D02*
X35000000Y-49200000D01*
X35000000Y-55010000D02*
X39300000Y-55010000D01*
X39300000Y-55010000D02*
X39300000Y-49200000D01*
%TO.C,LD4*%
X43340000Y-66900000D02*
X43340000Y-69185000D01*
X43340000Y-69185000D02*
X44810000Y-69185000D01*
X44810000Y-69185000D02*
X44810000Y-66900000D01*
%TO.C,R12*%
X47927500Y-60787742D02*
X47927500Y-61262258D01*
X48972500Y-60787742D02*
X48972500Y-61262258D01*
%TO.C,R14*%
X53087258Y-41602500D02*
X52612742Y-41602500D01*
X53087258Y-42647500D02*
X52612742Y-42647500D01*
%TO.C,C1*%
X28890000Y-58615580D02*
X28890000Y-58334420D01*
X29910000Y-58615580D02*
X29910000Y-58334420D01*
%TO.C,C9*%
X32740000Y-45936724D02*
X32740000Y-45655564D01*
X33760000Y-45936724D02*
X33760000Y-45655564D01*
%TO.C,R7*%
X50002500Y-43137258D02*
X50002500Y-42662742D01*
X51047500Y-43137258D02*
X51047500Y-42662742D01*
%TO.C,J8*%
X73655000Y-63080000D02*
X81495000Y-63080000D01*
X73655000Y-65730000D02*
X73655000Y-63080000D01*
X73655000Y-68380000D02*
X73655000Y-67000000D01*
X75035000Y-68380000D02*
X73655000Y-68380000D01*
X76305000Y-65730000D02*
X73655000Y-65730000D01*
X76305000Y-68380000D02*
X76305000Y-65730000D01*
X76305000Y-68380000D02*
X81495000Y-68380000D01*
X81495000Y-68380000D02*
X81495000Y-63080000D01*
%TO.C,J7*%
X63705000Y-63255000D02*
X71545000Y-63255000D01*
X63705000Y-65905000D02*
X63705000Y-63255000D01*
X63705000Y-68555000D02*
X63705000Y-67175000D01*
X65085000Y-68555000D02*
X63705000Y-68555000D01*
X66355000Y-65905000D02*
X63705000Y-65905000D01*
X66355000Y-68555000D02*
X66355000Y-65905000D01*
X66355000Y-68555000D02*
X71545000Y-68555000D01*
X71545000Y-68555000D02*
X71545000Y-63255000D01*
%TO.C,J5*%
X78745000Y-41365000D02*
X80125000Y-41365000D01*
X78745000Y-42745000D02*
X78745000Y-41365000D01*
X78745000Y-44015000D02*
X78745000Y-54285000D01*
X78745000Y-44015000D02*
X81505000Y-44015000D01*
X78745000Y-54285000D02*
X81505000Y-54285000D01*
X81505000Y-44015000D02*
X81505000Y-54285000D01*
%TO.C,LD3*%
X48190000Y-66937500D02*
X48190000Y-69222500D01*
X48190000Y-69222500D02*
X49660000Y-69222500D01*
X49660000Y-69222500D02*
X49660000Y-66937500D01*
%TO.C,J1*%
X20870000Y-54920000D02*
X22250000Y-54920000D01*
X20870000Y-56300000D02*
X20870000Y-54920000D01*
X20870000Y-57570000D02*
X20870000Y-60220000D01*
X20870000Y-57570000D02*
X23630000Y-57570000D01*
X20870000Y-60220000D02*
X23630000Y-60220000D01*
X23630000Y-57570000D02*
X23630000Y-60220000D01*
%TO.C,U1*%
X29535000Y-49161144D02*
X29630000Y-49161144D01*
X29535000Y-53281144D02*
X29535000Y-49161144D01*
X29630000Y-53281144D02*
X29535000Y-53281144D01*
X34560000Y-49161144D02*
X34655000Y-49161144D01*
X34655000Y-49161144D02*
X34655000Y-53281144D01*
X34655000Y-53281144D02*
X34560000Y-53281144D01*
X29625000Y-53821144D02*
X29295000Y-54061144D01*
X29295000Y-53581144D01*
X29625000Y-53821144D01*
G36*
X29625000Y-53821144D02*
G01*
X29295000Y-54061144D01*
X29295000Y-53581144D01*
X29625000Y-53821144D01*
G37*
%TO.C,J6*%
X59530000Y-25980000D02*
X59530000Y-24600000D01*
X60910000Y-25980000D02*
X59530000Y-25980000D01*
X62180000Y-23220000D02*
X72450000Y-23220000D01*
X62180000Y-25980000D02*
X62180000Y-23220000D01*
X62180000Y-25980000D02*
X72450000Y-25980000D01*
X72450000Y-25980000D02*
X72450000Y-23220000D01*
%TO.C,R10*%
X63762742Y-56052500D02*
X64237258Y-56052500D01*
X63762742Y-57097500D02*
X64237258Y-57097500D01*
%TO.C,D1*%
X24225000Y-60735000D02*
X24225000Y-54925000D01*
X24225000Y-60735000D02*
X28525000Y-60735000D01*
X28525000Y-60735000D02*
X28525000Y-54925000D01*
%TO.C,C3*%
X37884420Y-57915000D02*
X38165580Y-57915000D01*
X37884420Y-58935000D02*
X38165580Y-58935000D01*
%TO.C,C2*%
X37884420Y-56340000D02*
X38165580Y-56340000D01*
X37884420Y-57360000D02*
X38165580Y-57360000D01*
%TO.C,U2*%
X47590000Y-48315000D02*
X47890000Y-48315000D01*
X47590000Y-48615000D02*
X47590000Y-48315000D01*
X47590000Y-55535000D02*
X47590000Y-55235000D01*
X47890000Y-55535000D02*
X47590000Y-55535000D01*
X54510000Y-48315000D02*
X54810000Y-48315000D01*
X54810000Y-48315000D02*
X54810000Y-48615000D01*
X54810000Y-55235000D02*
X54810000Y-55535000D01*
X54810000Y-55535000D02*
X54510000Y-55535000D01*
X54520000Y-47675000D02*
X54990000Y-47335000D01*
X54990000Y-48015000D01*
X54520000Y-47675000D01*
G36*
X54990000Y-48015000D02*
G01*
X54520000Y-47675000D01*
X54990000Y-47335000D01*
X54990000Y-48015000D01*
G37*
%TO.C,L1*%
X34060000Y-55308856D02*
X34060000Y-55758856D01*
X34285000Y-55533856D02*
X33835000Y-55533856D01*
X33785000Y-55726403D02*
G75*
G02*
X31665000Y-55726403I-1060000J-2119741D01*
G01*
%TO.C,J9*%
X44805000Y-22645000D02*
X44805000Y-27945000D01*
X52535000Y-22645000D02*
X44805000Y-22645000D01*
X52535000Y-22645000D02*
X52535000Y-25295000D01*
X52535000Y-25295000D02*
X55185000Y-25295000D01*
X53805000Y-22645000D02*
X55185000Y-22645000D01*
X55185000Y-22645000D02*
X55185000Y-24025000D01*
X55185000Y-25295000D02*
X55185000Y-27945000D01*
X55185000Y-27945000D02*
X44805000Y-27945000D01*
%TO.C,LD2*%
X46590000Y-66937500D02*
X46590000Y-69222500D01*
X46590000Y-69222500D02*
X48060000Y-69222500D01*
X48060000Y-69222500D02*
X48060000Y-66937500D01*
%TO.C,R1*%
X28027500Y-51508402D02*
X28027500Y-51033886D01*
X29072500Y-51508402D02*
X29072500Y-51033886D01*
%TO.C,J4*%
X50210000Y-66145000D02*
X50210000Y-68905000D01*
X57940000Y-66145000D02*
X50210000Y-66145000D01*
X57940000Y-66145000D02*
X57940000Y-68905000D01*
X57940000Y-68905000D02*
X50210000Y-68905000D01*
X59210000Y-66145000D02*
X60590000Y-66145000D01*
X60590000Y-66145000D02*
X60590000Y-67525000D01*
%TO.C,C8*%
X29665000Y-45986724D02*
X29665000Y-45705564D01*
X30685000Y-45986724D02*
X30685000Y-45705564D01*
%TO.C,R9*%
X50952500Y-60737742D02*
X50952500Y-61212258D01*
X51997500Y-60737742D02*
X51997500Y-61212258D01*
%TO.C,C11*%
X46940000Y-43090580D02*
X46940000Y-42809420D01*
X47960000Y-43090580D02*
X47960000Y-42809420D01*
%TO.C,R2*%
X36077500Y-46062258D02*
X36077500Y-45587742D01*
X37122500Y-46062258D02*
X37122500Y-45587742D01*
%TO.C,J3*%
X21992000Y-63140000D02*
X23372000Y-63140000D01*
X21992000Y-64520000D02*
X21992000Y-63140000D01*
X21992000Y-65790000D02*
X21992000Y-68440000D01*
X21992000Y-65790000D02*
X24752000Y-65790000D01*
X21992000Y-68440000D02*
X24752000Y-68440000D01*
X24752000Y-65790000D02*
X24752000Y-68440000D01*
%TO.C,J10*%
X20845000Y-26965000D02*
X22225000Y-26965000D01*
X20845000Y-28345000D02*
X20845000Y-26965000D01*
X20845000Y-29615000D02*
X20845000Y-37345000D01*
X20845000Y-29615000D02*
X23605000Y-29615000D01*
X20845000Y-37345000D02*
X23605000Y-37345000D01*
X23605000Y-29615000D02*
X23605000Y-37345000D01*
%TO.C,R5*%
X34552500Y-46062258D02*
X34552500Y-45587742D01*
X35597500Y-46062258D02*
X35597500Y-45587742D01*
%TO.C,R8*%
X49452500Y-60762742D02*
X49452500Y-61237258D01*
X50497500Y-60762742D02*
X50497500Y-61237258D01*
%TO.C,LD1*%
X78727500Y-35680000D02*
X81012500Y-35680000D01*
X81012500Y-34210000D02*
X78727500Y-34210000D01*
X81012500Y-35680000D02*
X81012500Y-34210000D01*
%TO.C,C5*%
X35376000Y-65349420D02*
X35376000Y-65630580D01*
X36396000Y-65349420D02*
X36396000Y-65630580D01*
%TO.C,LD5*%
X44965000Y-66925000D02*
X44965000Y-69210000D01*
X44965000Y-69210000D02*
X46435000Y-69210000D01*
X46435000Y-69210000D02*
X46435000Y-66925000D01*
%TO.C,R13*%
X64237258Y-54502500D02*
X63762742Y-54502500D01*
X64237258Y-55547500D02*
X63762742Y-55547500D01*
%TO.C,A1*%
X27150000Y-21585000D02*
X27150000Y-22985000D01*
X27150000Y-24255000D02*
X27150000Y-42165000D01*
X27150000Y-42165000D02*
X42650000Y-42165000D01*
X28550000Y-21585000D02*
X27150000Y-21585000D01*
X29820000Y-21585000D02*
X29820000Y-24255000D01*
X29820000Y-24255000D02*
X27150000Y-24255000D01*
X29820000Y-24255000D02*
X29820000Y-42165000D01*
X39980000Y-21585000D02*
X39980000Y-42165000D01*
X42650000Y-21585000D02*
X29820000Y-21585000D01*
X42650000Y-42165000D02*
X42650000Y-21585000D01*
%TO.C,C7*%
X59335000Y-61065000D02*
X57154000Y-61065000D01*
X59335000Y-61105000D02*
X57157000Y-61105000D01*
X59335000Y-61145000D02*
X57161000Y-61145000D01*
X59335000Y-61185000D02*
X57165000Y-61185000D01*
X59335000Y-61225000D02*
X57170000Y-61225000D01*
X59335000Y-61265000D02*
X57175000Y-61265000D01*
X59335000Y-61305000D02*
X57180000Y-61305000D01*
X59335000Y-61345000D02*
X57187000Y-61345000D01*
X59335000Y-61385000D02*
X57193000Y-61385000D01*
X59335000Y-61425000D02*
X57201000Y-61425000D01*
X59335000Y-61465000D02*
X57208000Y-61465000D01*
X59335000Y-61505000D02*
X57216000Y-61505000D01*
X59335000Y-61545000D02*
X57225000Y-61545000D01*
X59335000Y-61585000D02*
X57235000Y-61585000D01*
X59335000Y-61625000D02*
X57244000Y-61625000D01*
X59335000Y-61665000D02*
X57255000Y-61665000D01*
X59335000Y-61705000D02*
X57266000Y-61705000D01*
X59335000Y-61745000D02*
X57277000Y-61745000D01*
X59335000Y-61785000D02*
X57289000Y-61785000D01*
X59335000Y-61825000D02*
X57302000Y-61825000D01*
X59335000Y-61865000D02*
X57315000Y-61865000D01*
X59335000Y-61905000D02*
X57328000Y-61905000D01*
X59335000Y-61945000D02*
X57343000Y-61945000D01*
X59335000Y-61985000D02*
X57358000Y-61985000D01*
X59335000Y-62025000D02*
X57373000Y-62025000D01*
X59335000Y-62065000D02*
X57389000Y-62065000D01*
X59335000Y-62105000D02*
X57406000Y-62105000D01*
X59335000Y-62145000D02*
X57423000Y-62145000D01*
X59335000Y-62185000D02*
X57441000Y-62185000D01*
X59335000Y-62225000D02*
X57460000Y-62225000D01*
X59335000Y-62265000D02*
X57479000Y-62265000D01*
X59335000Y-62305000D02*
X57499000Y-62305000D01*
X59335000Y-62345000D02*
X57520000Y-62345000D01*
X59335000Y-62385000D02*
X57541000Y-62385000D01*
X59335000Y-62425000D02*
X57563000Y-62425000D01*
X59335000Y-62465000D02*
X57586000Y-62465000D01*
X59335000Y-62505000D02*
X57610000Y-62505000D01*
X59335000Y-62545000D02*
X57634000Y-62545000D01*
X59335000Y-62585000D02*
X57659000Y-62585000D01*
X59335000Y-62625000D02*
X57685000Y-62625000D01*
X59335000Y-62665000D02*
X57712000Y-62665000D01*
X59335000Y-62705000D02*
X57739000Y-62705000D01*
X59335000Y-62745000D02*
X57768000Y-62745000D01*
X59335000Y-62785000D02*
X57798000Y-62785000D01*
X59335000Y-62825000D02*
X57828000Y-62825000D01*
X59335000Y-62865000D02*
X57859000Y-62865000D01*
X59335000Y-62905000D02*
X57892000Y-62905000D01*
X59335000Y-62945000D02*
X57925000Y-62945000D01*
X59335000Y-62985000D02*
X57960000Y-62985000D01*
X59335000Y-63025000D02*
X57996000Y-63025000D01*
X59335000Y-63065000D02*
X58033000Y-63065000D01*
X59335000Y-63105000D02*
X58071000Y-63105000D01*
X60777000Y-64065000D02*
X59973000Y-64065000D01*
X61008000Y-64025000D02*
X59742000Y-64025000D01*
X61176000Y-63985000D02*
X59574000Y-63985000D01*
X61314000Y-63945000D02*
X59436000Y-63945000D01*
X61433000Y-63905000D02*
X59317000Y-63905000D01*
X61540000Y-63865000D02*
X59210000Y-63865000D01*
X61636000Y-63825000D02*
X59114000Y-63825000D01*
X61725000Y-63785000D02*
X59025000Y-63785000D01*
X61807000Y-63745000D02*
X58943000Y-63745000D01*
X61884000Y-63705000D02*
X58866000Y-63705000D01*
X61956000Y-63665000D02*
X58794000Y-63665000D01*
X62024000Y-63625000D02*
X58726000Y-63625000D01*
X62089000Y-63585000D02*
X58661000Y-63585000D01*
X62150000Y-63545000D02*
X58600000Y-63545000D01*
X62209000Y-63505000D02*
X58541000Y-63505000D01*
X62214000Y-57324759D02*
X62214000Y-57954759D01*
X62265000Y-63465000D02*
X58485000Y-63465000D01*
X62318000Y-63425000D02*
X58432000Y-63425000D01*
X62370000Y-63385000D02*
X58380000Y-63385000D01*
X62419000Y-63345000D02*
X58331000Y-63345000D01*
X62466000Y-63305000D02*
X58284000Y-63305000D01*
X62512000Y-63265000D02*
X58238000Y-63265000D01*
X62529000Y-57639759D02*
X61899000Y-57639759D01*
X62556000Y-63225000D02*
X58194000Y-63225000D01*
X62598000Y-63185000D02*
X58152000Y-63185000D01*
X62639000Y-63145000D02*
X58111000Y-63145000D01*
X62679000Y-63105000D02*
X61415000Y-63105000D01*
X62717000Y-63065000D02*
X61415000Y-63065000D01*
X62754000Y-63025000D02*
X61415000Y-63025000D01*
X62790000Y-62985000D02*
X61415000Y-62985000D01*
X62825000Y-62945000D02*
X61415000Y-62945000D01*
X62858000Y-62905000D02*
X61415000Y-62905000D01*
X62891000Y-62865000D02*
X61415000Y-62865000D01*
X62922000Y-62825000D02*
X61415000Y-62825000D01*
X62952000Y-62785000D02*
X61415000Y-62785000D01*
X62982000Y-62745000D02*
X61415000Y-62745000D01*
X63011000Y-62705000D02*
X61415000Y-62705000D01*
X63038000Y-62665000D02*
X61415000Y-62665000D01*
X63065000Y-62625000D02*
X61415000Y-62625000D01*
X63091000Y-62585000D02*
X61415000Y-62585000D01*
X63116000Y-62545000D02*
X61415000Y-62545000D01*
X63140000Y-62505000D02*
X61415000Y-62505000D01*
X63164000Y-62465000D02*
X61415000Y-62465000D01*
X63187000Y-62425000D02*
X61415000Y-62425000D01*
X63209000Y-62385000D02*
X61415000Y-62385000D01*
X63230000Y-62345000D02*
X61415000Y-62345000D01*
X63251000Y-62305000D02*
X61415000Y-62305000D01*
X63271000Y-62265000D02*
X61415000Y-62265000D01*
X63290000Y-62225000D02*
X61415000Y-62225000D01*
X63309000Y-62185000D02*
X61415000Y-62185000D01*
X63327000Y-62145000D02*
X61415000Y-62145000D01*
X63344000Y-62105000D02*
X61415000Y-62105000D01*
X63361000Y-62065000D02*
X61415000Y-62065000D01*
X63377000Y-62025000D02*
X61415000Y-62025000D01*
X63392000Y-61985000D02*
X61415000Y-61985000D01*
X63407000Y-61945000D02*
X61415000Y-61945000D01*
X63422000Y-61905000D02*
X61415000Y-61905000D01*
X63435000Y-61865000D02*
X61415000Y-61865000D01*
X63448000Y-61825000D02*
X61415000Y-61825000D01*
X63461000Y-61785000D02*
X61415000Y-61785000D01*
X63473000Y-61745000D02*
X61415000Y-61745000D01*
X63484000Y-61705000D02*
X61415000Y-61705000D01*
X63495000Y-61665000D02*
X61415000Y-61665000D01*
X63506000Y-61625000D02*
X61415000Y-61625000D01*
X63515000Y-61585000D02*
X61415000Y-61585000D01*
X63525000Y-61545000D02*
X61415000Y-61545000D01*
X63534000Y-61505000D02*
X61415000Y-61505000D01*
X63542000Y-61465000D02*
X61415000Y-61465000D01*
X63549000Y-61425000D02*
X61415000Y-61425000D01*
X63557000Y-61385000D02*
X61415000Y-61385000D01*
X63563000Y-61345000D02*
X61415000Y-61345000D01*
X63570000Y-61305000D02*
X61415000Y-61305000D01*
X63575000Y-61265000D02*
X61415000Y-61265000D01*
X63580000Y-61225000D02*
X61415000Y-61225000D01*
X63585000Y-61185000D02*
X61415000Y-61185000D01*
X63589000Y-61145000D02*
X61415000Y-61145000D01*
X63593000Y-61105000D02*
X61415000Y-61105000D01*
X63596000Y-61065000D02*
X61415000Y-61065000D01*
X63599000Y-61025000D02*
X57151000Y-61025000D01*
X63601000Y-60985000D02*
X57149000Y-60985000D01*
X63603000Y-60945000D02*
X57147000Y-60945000D01*
X63604000Y-60905000D02*
X57146000Y-60905000D01*
X63605000Y-60825000D02*
X57145000Y-60825000D01*
X63605000Y-60865000D02*
X57145000Y-60865000D01*
X63645000Y-60825000D02*
G75*
G02*
X57105000Y-60825000I-3270000J0D01*
G01*
X57105000Y-60825000D02*
G75*
G02*
X63645000Y-60825000I3270000J0D01*
G01*
%TO.C,J2*%
X20945000Y-41925000D02*
X22325000Y-41925000D01*
X20945000Y-43305000D02*
X20945000Y-41925000D01*
X20945000Y-44575000D02*
X20945000Y-47225000D01*
X20945000Y-44575000D02*
X23705000Y-44575000D01*
X20945000Y-47225000D02*
X23705000Y-47225000D01*
X23705000Y-44575000D02*
X23705000Y-47225000D01*
%TO.C,R3*%
X79712258Y-36202500D02*
X79237742Y-36202500D01*
X79712258Y-37247500D02*
X79237742Y-37247500D01*
%TO.C,C4*%
X48490000Y-43065580D02*
X48490000Y-42784420D01*
X49510000Y-43065580D02*
X49510000Y-42784420D01*
%TO.C,R6*%
X31177500Y-46058402D02*
X31177500Y-45583886D01*
X32222500Y-46058402D02*
X32222500Y-45583886D01*
%TO.C,IC1*%
D12*
X29688000Y-62963000D02*
X32884000Y-62963000D01*
X29688000Y-67867000D02*
X29688000Y-62963000D01*
X32884000Y-62963000D02*
X32884000Y-67867000D01*
X32884000Y-67867000D02*
X29688000Y-67867000D01*
X34761000Y-67995000D02*
X33234000Y-67995000D01*
D16*
%TO.C,G\u002A\u002A\u002A*%
G36*
X68443851Y-37302556D02*
G01*
X68801092Y-37324139D01*
X69152655Y-37364331D01*
X69483551Y-37422001D01*
X69657163Y-37462257D01*
X70133210Y-37608362D01*
X70591694Y-37796799D01*
X71030019Y-38025445D01*
X71445592Y-38292178D01*
X71835819Y-38594878D01*
X72198105Y-38931420D01*
X72529857Y-39299684D01*
X72828481Y-39697546D01*
X73091382Y-40122886D01*
X73227169Y-40382756D01*
X73424271Y-40837326D01*
X73579297Y-41306850D01*
X73691458Y-41786882D01*
X73759965Y-42272976D01*
X73784031Y-42760685D01*
X73762865Y-43245564D01*
X73752671Y-43345981D01*
X73673022Y-43860972D01*
X73551510Y-44354819D01*
X73388155Y-44827482D01*
X73182977Y-45278917D01*
X72935997Y-45709084D01*
X72647234Y-46117941D01*
X72316707Y-46505446D01*
X72181533Y-46645713D01*
X71803081Y-46993793D01*
X71401686Y-47301016D01*
X70978092Y-47567009D01*
X70533044Y-47791399D01*
X70067287Y-47973816D01*
X69581566Y-48113886D01*
X69076627Y-48211238D01*
X69035671Y-48217135D01*
X68920328Y-48230214D01*
X68775566Y-48241953D01*
X68613035Y-48251873D01*
X68444387Y-48259494D01*
X68281272Y-48264336D01*
X68135341Y-48265921D01*
X68018246Y-48263769D01*
X67971653Y-48260931D01*
X67478079Y-48202282D01*
X67015667Y-48112847D01*
X66578517Y-47990595D01*
X66160730Y-47833494D01*
X65756408Y-47639511D01*
X65359652Y-47406615D01*
X65215882Y-47311733D01*
X64815284Y-47011848D01*
X64445466Y-46678234D01*
X64108447Y-46313766D01*
X64033377Y-46216279D01*
X65486341Y-46216279D01*
X65494698Y-46315283D01*
X65522458Y-46382534D01*
X65575813Y-46431285D01*
X65591136Y-46440578D01*
X65666255Y-46466049D01*
X65746364Y-46453372D01*
X65791654Y-46433123D01*
X65839054Y-46397349D01*
X65860054Y-46359158D01*
X65860116Y-46356900D01*
X65844774Y-46321241D01*
X65804756Y-46263023D01*
X65747958Y-46193445D01*
X65733229Y-46176878D01*
X65669433Y-46107865D01*
X65626783Y-46068622D01*
X65595742Y-46053437D01*
X65566773Y-46056602D01*
X65546335Y-46064971D01*
X65510445Y-46086557D01*
X65492466Y-46118466D01*
X65486578Y-46175373D01*
X65486341Y-46216279D01*
X64033377Y-46216279D01*
X63806246Y-45921322D01*
X63678415Y-45720186D01*
X65462142Y-45720186D01*
X65479334Y-45757833D01*
X65530547Y-45826541D01*
X65615239Y-45925662D01*
X65732865Y-46054547D01*
X65816660Y-46143412D01*
X66171177Y-46515812D01*
X66284052Y-46515812D01*
X66374491Y-46506707D01*
X66431469Y-46481148D01*
X66433747Y-46478992D01*
X66468359Y-46427231D01*
X66485648Y-46382083D01*
X66487584Y-46359843D01*
X66479907Y-46333798D01*
X66458841Y-46299424D01*
X66454577Y-46294157D01*
X70481119Y-46294157D01*
X70483431Y-46332927D01*
X70499775Y-46368060D01*
X70533159Y-46395917D01*
X70587959Y-46424854D01*
X70640562Y-46442803D01*
X70648269Y-46443965D01*
X70679410Y-46440812D01*
X70734483Y-46431139D01*
X70736805Y-46430676D01*
X70767382Y-46419247D01*
X70804667Y-46393549D01*
X70852879Y-46349296D01*
X70916237Y-46282197D01*
X70950936Y-46242671D01*
X71090951Y-46242671D01*
X71110964Y-46279357D01*
X71159848Y-46316476D01*
X71220877Y-46343472D01*
X71262153Y-46350700D01*
X71312716Y-46340893D01*
X71370714Y-46317326D01*
X71423382Y-46281848D01*
X71452687Y-46235034D01*
X71464729Y-46163333D01*
X71466205Y-46105135D01*
X71453465Y-46016382D01*
X71418695Y-45955014D01*
X71367065Y-45929694D01*
X71361310Y-45929478D01*
X71330174Y-45946817D01*
X71281250Y-45991633D01*
X71223865Y-46053123D01*
X71167340Y-46120488D01*
X71121002Y-46182925D01*
X71094174Y-46229632D01*
X71090951Y-46242671D01*
X70950936Y-46242671D01*
X70998963Y-46187964D01*
X71105275Y-46062308D01*
X71139240Y-46021633D01*
X71248310Y-45889961D01*
X71330171Y-45788781D01*
X71388276Y-45713087D01*
X71426073Y-45657870D01*
X71447013Y-45618123D01*
X71454546Y-45588836D01*
X71452594Y-45566794D01*
X71413796Y-45498029D01*
X71346726Y-45453187D01*
X71265606Y-45436331D01*
X71184660Y-45451524D01*
X71141753Y-45478001D01*
X71111791Y-45508009D01*
X71056814Y-45567347D01*
X70982422Y-45649804D01*
X70894211Y-45749170D01*
X70797781Y-45859233D01*
X70787679Y-45870845D01*
X70674017Y-46003258D01*
X70589510Y-46106649D01*
X70531178Y-46186165D01*
X70496041Y-46246952D01*
X70481119Y-46294157D01*
X66454577Y-46294157D01*
X66420609Y-46252199D01*
X66361434Y-46187600D01*
X66277539Y-46101105D01*
X66165148Y-45988191D01*
X66114877Y-45938109D01*
X65989296Y-45813822D01*
X65891724Y-45719222D01*
X65824363Y-45656799D01*
X65976200Y-45656799D01*
X66155393Y-45837049D01*
X66235241Y-45916405D01*
X66290887Y-45967372D01*
X66330764Y-45995252D01*
X66363306Y-46005348D01*
X66396945Y-46002964D01*
X66413669Y-45999463D01*
X66481846Y-45976507D01*
X66563336Y-45938951D01*
X66598652Y-45919565D01*
X66674462Y-45866729D01*
X66760201Y-45793715D01*
X66848484Y-45708530D01*
X66931926Y-45619185D01*
X67003142Y-45533689D01*
X67054747Y-45460051D01*
X67079356Y-45406281D01*
X67080425Y-45397047D01*
X67064076Y-45373869D01*
X67020059Y-45327394D01*
X66955911Y-45265314D01*
X66908407Y-45221520D01*
X66736389Y-45065724D01*
X66608810Y-45117576D01*
X66408639Y-45223369D01*
X66220834Y-45371828D01*
X66049787Y-45559399D01*
X66027920Y-45587922D01*
X65976200Y-45656799D01*
X65824363Y-45656799D01*
X65817447Y-45650390D01*
X65761751Y-45603406D01*
X65719920Y-45574351D01*
X65687242Y-45559306D01*
X65659001Y-45554350D01*
X65653151Y-45554224D01*
X65578863Y-45572380D01*
X65513174Y-45618447D01*
X65470586Y-45679825D01*
X65462142Y-45720186D01*
X63678415Y-45720186D01*
X63540879Y-45503780D01*
X63314367Y-45064015D01*
X63171900Y-44711680D01*
X66638738Y-44711680D01*
X66653390Y-44767206D01*
X66674995Y-44798436D01*
X66722224Y-44857654D01*
X66789186Y-44938109D01*
X66869989Y-45033050D01*
X66958739Y-45135723D01*
X67049545Y-45239377D01*
X67136513Y-45337262D01*
X67213752Y-45422624D01*
X67275370Y-45488712D01*
X67315473Y-45528774D01*
X67324572Y-45536275D01*
X67377245Y-45551570D01*
X67449228Y-45551014D01*
X67515969Y-45535373D01*
X67527581Y-45529945D01*
X67557129Y-45491549D01*
X67570035Y-45439722D01*
X69322393Y-45439722D01*
X69347812Y-45496376D01*
X69348043Y-45496609D01*
X69402104Y-45523168D01*
X69476996Y-45529501D01*
X69550736Y-45514544D01*
X69566714Y-45507193D01*
X69594193Y-45482070D01*
X69644430Y-45426567D01*
X69698781Y-45362899D01*
X69801353Y-45362899D01*
X69917457Y-45501849D01*
X70043358Y-45635940D01*
X70179949Y-45752739D01*
X70316831Y-45844423D01*
X70443602Y-45903167D01*
X70456340Y-45907239D01*
X70519336Y-45923034D01*
X70569729Y-45923198D01*
X70616858Y-45902809D01*
X70670060Y-45856948D01*
X70738671Y-45780695D01*
X70772447Y-45740670D01*
X70930492Y-45551862D01*
X70844063Y-45446386D01*
X70734203Y-45332982D01*
X70599605Y-45225689D01*
X70453285Y-45132838D01*
X70308254Y-45062760D01*
X70186527Y-45025440D01*
X70152095Y-45022439D01*
X70119579Y-45032198D01*
X70080717Y-45060614D01*
X70027249Y-45113583D01*
X69959495Y-45187472D01*
X69801353Y-45362899D01*
X69698781Y-45362899D01*
X69711800Y-45347648D01*
X69790674Y-45252277D01*
X69875425Y-45147416D01*
X69960427Y-45040031D01*
X70040053Y-44937084D01*
X70108676Y-44845538D01*
X70160669Y-44772358D01*
X70161502Y-44771127D01*
X70206222Y-44697005D01*
X70219343Y-44646272D01*
X70200935Y-44607717D01*
X70162755Y-44577581D01*
X70132260Y-44559859D01*
X70103210Y-44553799D01*
X70064959Y-44561724D01*
X70006860Y-44585957D01*
X69918269Y-44628819D01*
X69910631Y-44632587D01*
X69800517Y-44683792D01*
X69682813Y-44733585D01*
X69579821Y-44772619D01*
X69563052Y-44778279D01*
X69407175Y-44829374D01*
X69396960Y-45010036D01*
X69387873Y-45108037D01*
X69373528Y-45196625D01*
X69356897Y-45257798D01*
X69355518Y-45261057D01*
X69325083Y-45357427D01*
X69322393Y-45439722D01*
X67570035Y-45439722D01*
X67572849Y-45428421D01*
X67572596Y-45361256D01*
X67554228Y-45310752D01*
X67550702Y-45306791D01*
X67530678Y-45268852D01*
X67507504Y-45199423D01*
X67484932Y-45113410D01*
X67466717Y-45025718D01*
X67456612Y-44951253D01*
X67455679Y-44929446D01*
X67452668Y-44886560D01*
X67436482Y-44859375D01*
X67396388Y-44838836D01*
X67321656Y-44815887D01*
X67320822Y-44815650D01*
X67154040Y-44763819D01*
X66997882Y-44707007D01*
X66868741Y-44651257D01*
X66850670Y-44642329D01*
X66767334Y-44615706D01*
X66698944Y-44621739D01*
X66653433Y-44655405D01*
X66638738Y-44711680D01*
X63171900Y-44711680D01*
X63128726Y-44604905D01*
X62987471Y-44135295D01*
X62885741Y-43636495D01*
X62829942Y-43136739D01*
X62819493Y-42638685D01*
X62853808Y-42144988D01*
X62932306Y-41658306D01*
X63054403Y-41181294D01*
X63219516Y-40716608D01*
X63372287Y-40385589D01*
X64772045Y-40385589D01*
X64772076Y-40394483D01*
X64773016Y-40559227D01*
X64775079Y-40686856D01*
X64779235Y-40787158D01*
X64786453Y-40869925D01*
X64797704Y-40944946D01*
X64813957Y-41022012D01*
X64836183Y-41110913D01*
X64847215Y-41152936D01*
X64960014Y-41493804D01*
X65112356Y-41817115D01*
X65300908Y-42118042D01*
X65522335Y-42391759D01*
X65773305Y-42633440D01*
X65978116Y-42790224D01*
X66046570Y-42837918D01*
X66141827Y-42905059D01*
X66259402Y-42988427D01*
X66394814Y-43084803D01*
X66543579Y-43190968D01*
X66701215Y-43303704D01*
X66863237Y-43419790D01*
X67025163Y-43536009D01*
X67182509Y-43649140D01*
X67330793Y-43755965D01*
X67465532Y-43853266D01*
X67582242Y-43937822D01*
X67676440Y-44006415D01*
X67743643Y-44055826D01*
X67779368Y-44082835D01*
X67784026Y-44086932D01*
X67766842Y-44103427D01*
X67719238Y-44144579D01*
X67647134Y-44205386D01*
X67556449Y-44280844D01*
X67477212Y-44346172D01*
X67377511Y-44429984D01*
X67293653Y-44504181D01*
X67231146Y-44563582D01*
X67195496Y-44603004D01*
X67189909Y-44616586D01*
X67219835Y-44634087D01*
X67280844Y-44663313D01*
X67360548Y-44698371D01*
X67372428Y-44703382D01*
X67535437Y-44771771D01*
X67582183Y-44951917D01*
X67604945Y-45035980D01*
X67623846Y-45099100D01*
X67635584Y-45130451D01*
X67637093Y-45132063D01*
X67656912Y-45117976D01*
X67707585Y-45078630D01*
X67783601Y-45018398D01*
X67879453Y-44941653D01*
X67989631Y-44852766D01*
X68021200Y-44827188D01*
X68397142Y-44522312D01*
X68498533Y-44592071D01*
X68552994Y-44630159D01*
X68636116Y-44689051D01*
X68738541Y-44762084D01*
X68850909Y-44842591D01*
X68910196Y-44885220D01*
X69015583Y-44960303D01*
X69107983Y-45024635D01*
X69180613Y-45073613D01*
X69226687Y-45102629D01*
X69239323Y-45108610D01*
X69251820Y-45087277D01*
X69267594Y-45030888D01*
X69283558Y-44950862D01*
X69286007Y-44936104D01*
X69313835Y-44763597D01*
X69497626Y-44673990D01*
X69578642Y-44632343D01*
X69639076Y-44597140D01*
X69669899Y-44573832D01*
X69671781Y-44568793D01*
X69650574Y-44550470D01*
X69597764Y-44509364D01*
X69519687Y-44450278D01*
X69422679Y-44378015D01*
X69332874Y-44311874D01*
X69225714Y-44232326D01*
X69133136Y-44161678D01*
X69061264Y-44104761D01*
X69016222Y-44066406D01*
X69003601Y-44052110D01*
X69021318Y-44034116D01*
X69072070Y-43989801D01*
X69152257Y-43922139D01*
X69258280Y-43834104D01*
X69386539Y-43728669D01*
X69533435Y-43608809D01*
X69695367Y-43477496D01*
X69853786Y-43349731D01*
X70085888Y-43163006D01*
X70284448Y-43003163D01*
X70452457Y-42867663D01*
X70592905Y-42753969D01*
X70708783Y-42659541D01*
X70803082Y-42581841D01*
X70878792Y-42518331D01*
X70938905Y-42466471D01*
X70986412Y-42423724D01*
X71024302Y-42387550D01*
X71055567Y-42355412D01*
X71083198Y-42324770D01*
X71110185Y-42293086D01*
X71137858Y-42259821D01*
X71360529Y-41957510D01*
X71538842Y-41639948D01*
X71672775Y-41307206D01*
X71762304Y-40959353D01*
X71807406Y-40596457D01*
X71809290Y-40242036D01*
X71799819Y-40096099D01*
X71786419Y-39953412D01*
X71770292Y-39822387D01*
X71752641Y-39711432D01*
X71734667Y-39628959D01*
X71717573Y-39583378D01*
X71714617Y-39579675D01*
X71699002Y-39575016D01*
X71680729Y-39594312D01*
X71657617Y-39642428D01*
X71627486Y-39724232D01*
X71588153Y-39844592D01*
X71570181Y-39901962D01*
X71442235Y-40285917D01*
X71310259Y-40626410D01*
X71172770Y-40926818D01*
X71028280Y-41190515D01*
X70946498Y-41319321D01*
X70890461Y-41399661D01*
X70829937Y-41478911D01*
X70761887Y-41559904D01*
X70683274Y-41645475D01*
X70591057Y-41738459D01*
X70482200Y-41841689D01*
X70353663Y-41958001D01*
X70202408Y-42090228D01*
X70025396Y-42241205D01*
X69819588Y-42413766D01*
X69581947Y-42610746D01*
X69411846Y-42750856D01*
X68369788Y-43607586D01*
X67286016Y-42816039D01*
X67017997Y-42619699D01*
X66785134Y-42447642D01*
X66584202Y-42297188D01*
X66411973Y-42165657D01*
X66265222Y-42050367D01*
X66140724Y-41948639D01*
X66035251Y-41857793D01*
X65945577Y-41775147D01*
X65868477Y-41698022D01*
X65800725Y-41623737D01*
X65739094Y-41549612D01*
X65698174Y-41496791D01*
X65574570Y-41326539D01*
X65465136Y-41160056D01*
X65365021Y-40988246D01*
X65269376Y-40802013D01*
X65173351Y-40592261D01*
X65072096Y-40349894D01*
X65062020Y-40324592D01*
X66001570Y-40324592D01*
X66017575Y-40345800D01*
X66061753Y-40393454D01*
X66128342Y-40461609D01*
X66211583Y-40544324D01*
X66265420Y-40596818D01*
X66403082Y-40723076D01*
X66560445Y-40855675D01*
X66727852Y-40987376D01*
X66895646Y-41110939D01*
X67054171Y-41219123D01*
X67193772Y-41304688D01*
X67249793Y-41334875D01*
X67300403Y-41359827D01*
X67344572Y-41377793D01*
X67391207Y-41389919D01*
X67449216Y-41397354D01*
X67527509Y-41401244D01*
X67634994Y-41402736D01*
X67778666Y-41402978D01*
X67935327Y-41403801D01*
X68051150Y-41407152D01*
X68132188Y-41414353D01*
X68184496Y-41426727D01*
X68214126Y-41445595D01*
X68227133Y-41472280D01*
X68229640Y-41501482D01*
X68243266Y-41533018D01*
X68290580Y-41543566D01*
X68300000Y-41543698D01*
X68350371Y-41537302D01*
X68368762Y-41510489D01*
X68370360Y-41486448D01*
X68379268Y-41436605D01*
X68394488Y-41414287D01*
X68424963Y-41409479D01*
X68494056Y-41405607D01*
X68593483Y-41402919D01*
X68714961Y-41401661D01*
X68813761Y-41401793D01*
X69208906Y-41404211D01*
X69363542Y-41323609D01*
X69483998Y-41254291D01*
X69629328Y-41160082D01*
X69789801Y-41047757D01*
X69955689Y-40924093D01*
X70094183Y-40814719D01*
X70159173Y-40759164D01*
X70237591Y-40688004D01*
X70322437Y-40608116D01*
X70406713Y-40526375D01*
X70483419Y-40449656D01*
X70545556Y-40384835D01*
X70586125Y-40338788D01*
X70598430Y-40319363D01*
X70576884Y-40315391D01*
X70518387Y-40318540D01*
X70432153Y-40327618D01*
X70327396Y-40341432D01*
X70213328Y-40358788D01*
X70099164Y-40378494D01*
X70015387Y-40394850D01*
X69899280Y-40420695D01*
X69767944Y-40452639D01*
X69633879Y-40487361D01*
X69509583Y-40521539D01*
X69407556Y-40551851D01*
X69345977Y-40572745D01*
X69341268Y-40562652D01*
X69361507Y-40522976D01*
X69402604Y-40460970D01*
X69430607Y-40422648D01*
X69569325Y-40222667D01*
X69693023Y-40014322D01*
X69795279Y-39809586D01*
X69869676Y-39620438D01*
X69882283Y-39580022D01*
X69889506Y-39547816D01*
X69878048Y-39538455D01*
X69837538Y-39549145D01*
X69807048Y-39559760D01*
X69679060Y-39612900D01*
X69526320Y-39689376D01*
X69360537Y-39783014D01*
X69227307Y-39865537D01*
X69035635Y-39989186D01*
X69067899Y-39869350D01*
X69082056Y-39796780D01*
X69095602Y-39692311D01*
X69106843Y-39570940D01*
X69113211Y-39468074D01*
X69126260Y-39186634D01*
X68958177Y-39350808D01*
X68872059Y-39438168D01*
X68786379Y-39530520D01*
X68715270Y-39612448D01*
X68694182Y-39638708D01*
X68644771Y-39699757D01*
X68607246Y-39741109D01*
X68589692Y-39753857D01*
X68589666Y-39753832D01*
X68580409Y-39728704D01*
X68563101Y-39669042D01*
X68540875Y-39585865D01*
X68531559Y-39549466D01*
X68497881Y-39430675D01*
X68456068Y-39303160D01*
X68414846Y-39193434D01*
X68412618Y-39188081D01*
X68377331Y-39102523D01*
X68348447Y-39029962D01*
X68331591Y-38984564D01*
X68330582Y-38981417D01*
X68311303Y-38946753D01*
X68299453Y-38940374D01*
X68279071Y-38961707D01*
X68248779Y-39020683D01*
X68211286Y-39109767D01*
X68169299Y-39221424D01*
X68125525Y-39348119D01*
X68082672Y-39482317D01*
X68043449Y-39616483D01*
X68010561Y-39743082D01*
X68009675Y-39746795D01*
X67993931Y-39740602D01*
X67957093Y-39704884D01*
X67906836Y-39647166D01*
X67902002Y-39641255D01*
X67832407Y-39558939D01*
X67754773Y-39472251D01*
X67676126Y-39388417D01*
X67603493Y-39314664D01*
X67543902Y-39258220D01*
X67504378Y-39226312D01*
X67494180Y-39221814D01*
X67485043Y-39243453D01*
X67480926Y-39301783D01*
X67481244Y-39386924D01*
X67485415Y-39488996D01*
X67492856Y-39598120D01*
X67502983Y-39704415D01*
X67515215Y-39798002D01*
X67528968Y-39869000D01*
X67533275Y-39884329D01*
X67551545Y-39953511D01*
X67549574Y-39980935D01*
X67541321Y-39979346D01*
X67510419Y-39959784D01*
X67450913Y-39921472D01*
X67373480Y-39871297D01*
X67338412Y-39848491D01*
X67202773Y-39765869D01*
X67051945Y-39683205D01*
X66903269Y-39609524D01*
X66774089Y-39553850D01*
X66767018Y-39551159D01*
X66720951Y-39536386D01*
X66707610Y-39547411D01*
X66715736Y-39590778D01*
X66749561Y-39692048D01*
X66805868Y-39820101D01*
X66878749Y-39964379D01*
X66962297Y-40114325D01*
X67050604Y-40259382D01*
X67137761Y-40388992D01*
X67217862Y-40492599D01*
X67224986Y-40500814D01*
X67264108Y-40548253D01*
X67274808Y-40573199D01*
X67252988Y-40577165D01*
X67194554Y-40561664D01*
X67124041Y-40538105D01*
X67027555Y-40508230D01*
X66908497Y-40476494D01*
X66774061Y-40444264D01*
X66631438Y-40412910D01*
X66487822Y-40383798D01*
X66350405Y-40358298D01*
X66226378Y-40337777D01*
X66122936Y-40323604D01*
X66047270Y-40317147D01*
X66006572Y-40319773D01*
X66001570Y-40324592D01*
X65062020Y-40324592D01*
X65029145Y-40242036D01*
X64977122Y-40112483D01*
X64928774Y-39996806D01*
X64887451Y-39902657D01*
X64856502Y-39837686D01*
X64840159Y-39810351D01*
X64819009Y-39797800D01*
X64802344Y-39811000D01*
X64789757Y-39853446D01*
X64780841Y-39928633D01*
X64775188Y-40040056D01*
X64772392Y-40191209D01*
X64772045Y-40385589D01*
X63372287Y-40385589D01*
X63427061Y-40266906D01*
X63676455Y-39834843D01*
X63967115Y-39423077D01*
X64043123Y-39327354D01*
X64158279Y-39193350D01*
X64297643Y-39043489D01*
X64451430Y-38887341D01*
X64609849Y-38734478D01*
X64763114Y-38594472D01*
X64901437Y-38476892D01*
X64959220Y-38431556D01*
X65386134Y-38136455D01*
X65829543Y-37884996D01*
X66288671Y-37677485D01*
X66762743Y-37514229D01*
X67250981Y-37395534D01*
X67752610Y-37321709D01*
X67772299Y-37319756D01*
X68095923Y-37300718D01*
X68443851Y-37302556D01*
G37*
%TO.C,F1*%
D15*
X21390000Y-49722936D02*
X21390000Y-50927064D01*
X23210000Y-49722936D02*
X23210000Y-50927064D01*
%TO.C,R11*%
X46377500Y-60812742D02*
X46377500Y-61287258D01*
X47422500Y-60812742D02*
X47422500Y-61287258D01*
%TO.C,R15*%
X53087258Y-43202500D02*
X52612742Y-43202500D01*
X53087258Y-44247500D02*
X52612742Y-44247500D01*
%TO.C,R4*%
X26049500Y-65132742D02*
X26049500Y-65607258D01*
X27094500Y-65132742D02*
X27094500Y-65607258D01*
%TD*%
M02*
