M48
; DRILL file KiCad 10.0.4 date 2026-07-23T03:41:55
; FORMAT={-:-/ absolute / metric / decimal}
; #@! TF.CreationDate,2026-07-23T03:41:55+06:00
; #@! TF.GenerationSoftware,Kicad,Pcbnew,10.0.4
; #@! TF.FileFunction,Plated,1,2,PTH
FMAT,2
METRIC
; #@! TA.AperFunction,Plated,PTH,ViaDrill
T1C0.200
; #@! TA.AperFunction,Plated,PTH,ComponentDrill
T2C0.200
; #@! TA.AperFunction,Plated,PTH,ViaDrill
T3C0.300
; #@! TA.AperFunction,Plated,PTH,ComponentDrill
T4C0.800
; #@! TA.AperFunction,Plated,PTH,ComponentDrill
T5C0.889
; #@! TA.AperFunction,Plated,PTH,ComponentDrill
T6C0.950
; #@! TA.AperFunction,Plated,PTH,ComponentDrill
T7C1.000
; #@! TA.AperFunction,Plated,PTH,ComponentDrill
T8C1.016
; #@! TA.AperFunction,Plated,PTH,ComponentDrill
T9C1.626
%
G90
G05
T1
X56.075Y-58.475
X56.925Y-58.575
X57.425Y-57.475
X57.85Y-52.9
X58.375Y-53.525
X59.725Y-51.45
X60.6Y-56.375
X60.675Y-58.025
X62.075Y-54.775
X64.8Y-61.425
X66.65Y-50.5
X66.65Y-52.025
X71.35Y-55.212
X74.537Y-47.0
X75.225Y-45.85
X75.225Y-51.9
X75.7Y-46.2
X76.0Y-55.175
X76.225Y-46.7
X76.35Y-52.2
X77.4Y-62.1
X77.925Y-71.575
X78.25Y-77.55
X78.275Y-73.7
X78.425Y-52.45
X78.775Y-45.175
X79.15Y-52.275
X79.15Y-73.175
X79.45Y-48.375
X79.7Y-72.375
X79.775Y-77.6
X80.104Y-45.796
X81.07Y-46.055
X81.225Y-69.325
X81.25Y-85.1
X81.5Y-74.15
X81.75Y-66.55
X82.05Y-69.825
X82.35Y-46.225
X82.9Y-45.05
X83.75Y-81.0
X84.05Y-69.275
X84.25Y-81.375
X84.7Y-74.925
X84.8Y-80.975
X85.7Y-65.225
X85.75Y-80.5
X86.375Y-76.75
X86.5Y-71.625
X86.75Y-76.2
X89.025Y-88.85
X90.075Y-72.35
X103.025Y-73.815
X103.05Y-71.275
X105.15Y-49.55
T2
X75.475Y-48.112
X75.475Y-49.112
X75.475Y-50.112
X76.475Y-48.112
X76.475Y-49.112
X76.475Y-50.112
X77.475Y-48.112
X77.475Y-49.112
X77.475Y-50.112
T3
X53.825Y-60.875
X53.85Y-57.775
X53.95Y-64.175
X53.95Y-65.75
X53.95Y-67.275
X55.299Y-56.301
X57.675Y-65.125
X59.45Y-65.775
X66.4Y-64.55
X66.65Y-48.975
X87.325Y-85.025
X87.4Y-79.2
X89.65Y-77.425
X97.35Y-70.375
X98.2Y-74.85
X103.35Y-69.05
T4
X43.425Y-80.05
X45.925Y-80.05
X56.2Y-86.125
X58.7Y-86.125
X67.925Y-80.268
X67.925Y-82.768
X89.505Y-38.575
X89.505Y-51.275
X91.675Y-80.125
X91.675Y-82.125
X91.675Y-84.125
X91.675Y-86.125
X92.045Y-38.575
X92.045Y-51.275
X94.585Y-38.575
X94.585Y-51.275
X97.125Y-38.575
X97.125Y-51.275
X99.665Y-38.575
X99.665Y-51.275
X102.205Y-38.575
X102.205Y-51.275
X104.745Y-38.575
X104.745Y-51.275
X107.285Y-38.575
X107.285Y-51.275
T5
X52.725Y-35.53
X52.725Y-38.07
X52.725Y-40.61
X52.725Y-43.15
X55.265Y-36.8
X55.265Y-39.34
X55.265Y-41.88
X55.265Y-44.42
T6
X79.0Y-92.0
X81.5Y-92.0
X84.0Y-92.0
X86.5Y-92.0
X89.0Y-92.0
X91.5Y-92.0
T7
X37.65Y-53.17
X37.65Y-55.71
X37.65Y-58.25
X37.65Y-60.79
X37.65Y-65.135
X37.65Y-67.675
X37.9Y-77.2
X37.9Y-79.74
X73.8Y-81.98
X73.8Y-84.52
X73.8Y-87.06
X73.8Y-89.6
X73.8Y-92.14
X79.57Y-31.05
X82.11Y-31.05
X84.65Y-31.05
X94.455Y-30.9
X95.8Y-54.875
X95.8Y-57.415
X95.855Y-61.035
X95.855Y-63.575
X96.995Y-30.9
X97.16Y-90.035
X97.16Y-92.575
X98.34Y-54.875
X98.34Y-57.415
X98.395Y-61.035
X98.395Y-63.575
X99.535Y-30.9
X99.7Y-90.035
X99.7Y-92.575
X100.88Y-54.875
X100.88Y-57.415
X100.935Y-61.035
X100.935Y-63.575
X102.075Y-30.9
X102.24Y-90.035
X102.24Y-92.575
X104.78Y-90.035
X104.78Y-92.575
X106.025Y-66.155
X106.025Y-68.695
X106.025Y-71.235
X106.025Y-73.775
X106.025Y-76.315
T8
X41.475Y-33.35
X41.475Y-35.89
X41.475Y-44.06
X41.475Y-46.6
T9
X49.425Y-32.23
X49.425Y-47.72
M30
