%TF.GenerationSoftware,KiCad,Pcbnew,10.0.4*%
%TF.CreationDate,2026-07-23T03:41:54+06:00*%
%TF.ProjectId,drone,64726f6e-652e-46b6-9963-61645f706362,rev?*%
%TF.SameCoordinates,Original*%
%TF.FileFunction,Legend,Bot*%
%TF.FilePolarity,Positive*%
%FSLAX46Y46*%
G04 Gerber Fmt 4.6, Leading zero omitted, Abs format (unit mm)*
G04 Created by KiCad (PCBNEW 10.0.4) date 2026-07-23 03:41:54*
%MOMM*%
%LPD*%
G01*
G04 APERTURE LIST*
%ADD10C,0.100000*%
%ADD11C,0.508000*%
G04 APERTURE END LIST*
D10*
X97666353Y-79147419D02*
X97047306Y-79147419D01*
X97047306Y-79147419D02*
X97380639Y-79528371D01*
X97380639Y-79528371D02*
X97237782Y-79528371D01*
X97237782Y-79528371D02*
X97142544Y-79575990D01*
X97142544Y-79575990D02*
X97094925Y-79623609D01*
X97094925Y-79623609D02*
X97047306Y-79718847D01*
X97047306Y-79718847D02*
X97047306Y-79956942D01*
X97047306Y-79956942D02*
X97094925Y-80052180D01*
X97094925Y-80052180D02*
X97142544Y-80099800D01*
X97142544Y-80099800D02*
X97237782Y-80147419D01*
X97237782Y-80147419D02*
X97523496Y-80147419D01*
X97523496Y-80147419D02*
X97618734Y-80099800D01*
X97618734Y-80099800D02*
X97666353Y-80052180D01*
X96618734Y-80052180D02*
X96571115Y-80099800D01*
X96571115Y-80099800D02*
X96618734Y-80147419D01*
X96618734Y-80147419D02*
X96666353Y-80099800D01*
X96666353Y-80099800D02*
X96618734Y-80052180D01*
X96618734Y-80052180D02*
X96618734Y-80147419D01*
X96237782Y-79147419D02*
X95618735Y-79147419D01*
X95618735Y-79147419D02*
X95952068Y-79528371D01*
X95952068Y-79528371D02*
X95809211Y-79528371D01*
X95809211Y-79528371D02*
X95713973Y-79575990D01*
X95713973Y-79575990D02*
X95666354Y-79623609D01*
X95666354Y-79623609D02*
X95618735Y-79718847D01*
X95618735Y-79718847D02*
X95618735Y-79956942D01*
X95618735Y-79956942D02*
X95666354Y-80052180D01*
X95666354Y-80052180D02*
X95713973Y-80099800D01*
X95713973Y-80099800D02*
X95809211Y-80147419D01*
X95809211Y-80147419D02*
X96094925Y-80147419D01*
X96094925Y-80147419D02*
X96190163Y-80099800D01*
X96190163Y-80099800D02*
X96237782Y-80052180D01*
X95285401Y-79480752D02*
X95047306Y-80147419D01*
X95047306Y-80147419D02*
X94809211Y-79480752D01*
X94428258Y-79766466D02*
X93666354Y-79766466D01*
X94047306Y-80147419D02*
X94047306Y-79385514D01*
X98368734Y-81974800D02*
X98225877Y-82022419D01*
X98225877Y-82022419D02*
X97987782Y-82022419D01*
X97987782Y-82022419D02*
X97892544Y-81974800D01*
X97892544Y-81974800D02*
X97844925Y-81927180D01*
X97844925Y-81927180D02*
X97797306Y-81831942D01*
X97797306Y-81831942D02*
X97797306Y-81736704D01*
X97797306Y-81736704D02*
X97844925Y-81641466D01*
X97844925Y-81641466D02*
X97892544Y-81593847D01*
X97892544Y-81593847D02*
X97987782Y-81546228D01*
X97987782Y-81546228D02*
X98178258Y-81498609D01*
X98178258Y-81498609D02*
X98273496Y-81450990D01*
X98273496Y-81450990D02*
X98321115Y-81403371D01*
X98321115Y-81403371D02*
X98368734Y-81308133D01*
X98368734Y-81308133D02*
X98368734Y-81212895D01*
X98368734Y-81212895D02*
X98321115Y-81117657D01*
X98321115Y-81117657D02*
X98273496Y-81070038D01*
X98273496Y-81070038D02*
X98178258Y-81022419D01*
X98178258Y-81022419D02*
X97940163Y-81022419D01*
X97940163Y-81022419D02*
X97797306Y-81070038D01*
X97463972Y-81022419D02*
X97225877Y-82022419D01*
X97225877Y-82022419D02*
X97035401Y-81308133D01*
X97035401Y-81308133D02*
X96844925Y-82022419D01*
X96844925Y-82022419D02*
X96606830Y-81022419D01*
X95654449Y-81927180D02*
X95702068Y-81974800D01*
X95702068Y-81974800D02*
X95844925Y-82022419D01*
X95844925Y-82022419D02*
X95940163Y-82022419D01*
X95940163Y-82022419D02*
X96083020Y-81974800D01*
X96083020Y-81974800D02*
X96178258Y-81879561D01*
X96178258Y-81879561D02*
X96225877Y-81784323D01*
X96225877Y-81784323D02*
X96273496Y-81593847D01*
X96273496Y-81593847D02*
X96273496Y-81450990D01*
X96273496Y-81450990D02*
X96225877Y-81260514D01*
X96225877Y-81260514D02*
X96178258Y-81165276D01*
X96178258Y-81165276D02*
X96083020Y-81070038D01*
X96083020Y-81070038D02*
X95940163Y-81022419D01*
X95940163Y-81022419D02*
X95844925Y-81022419D01*
X95844925Y-81022419D02*
X95702068Y-81070038D01*
X95702068Y-81070038D02*
X95654449Y-81117657D01*
X94749687Y-82022419D02*
X95225877Y-82022419D01*
X95225877Y-82022419D02*
X95225877Y-81022419D01*
X94416353Y-82022419D02*
X94416353Y-81022419D01*
X93844925Y-82022419D02*
X94273496Y-81450990D01*
X93844925Y-81022419D02*
X94416353Y-81593847D01*
X98118734Y-84124800D02*
X97975877Y-84172419D01*
X97975877Y-84172419D02*
X97737782Y-84172419D01*
X97737782Y-84172419D02*
X97642544Y-84124800D01*
X97642544Y-84124800D02*
X97594925Y-84077180D01*
X97594925Y-84077180D02*
X97547306Y-83981942D01*
X97547306Y-83981942D02*
X97547306Y-83886704D01*
X97547306Y-83886704D02*
X97594925Y-83791466D01*
X97594925Y-83791466D02*
X97642544Y-83743847D01*
X97642544Y-83743847D02*
X97737782Y-83696228D01*
X97737782Y-83696228D02*
X97928258Y-83648609D01*
X97928258Y-83648609D02*
X98023496Y-83600990D01*
X98023496Y-83600990D02*
X98071115Y-83553371D01*
X98071115Y-83553371D02*
X98118734Y-83458133D01*
X98118734Y-83458133D02*
X98118734Y-83362895D01*
X98118734Y-83362895D02*
X98071115Y-83267657D01*
X98071115Y-83267657D02*
X98023496Y-83220038D01*
X98023496Y-83220038D02*
X97928258Y-83172419D01*
X97928258Y-83172419D02*
X97690163Y-83172419D01*
X97690163Y-83172419D02*
X97547306Y-83220038D01*
X97213972Y-83172419D02*
X96975877Y-84172419D01*
X96975877Y-84172419D02*
X96785401Y-83458133D01*
X96785401Y-83458133D02*
X96594925Y-84172419D01*
X96594925Y-84172419D02*
X96356830Y-83172419D01*
X95975877Y-84172419D02*
X95975877Y-83172419D01*
X95975877Y-83172419D02*
X95737782Y-83172419D01*
X95737782Y-83172419D02*
X95594925Y-83220038D01*
X95594925Y-83220038D02*
X95499687Y-83315276D01*
X95499687Y-83315276D02*
X95452068Y-83410514D01*
X95452068Y-83410514D02*
X95404449Y-83600990D01*
X95404449Y-83600990D02*
X95404449Y-83743847D01*
X95404449Y-83743847D02*
X95452068Y-83934323D01*
X95452068Y-83934323D02*
X95499687Y-84029561D01*
X95499687Y-84029561D02*
X95594925Y-84124800D01*
X95594925Y-84124800D02*
X95737782Y-84172419D01*
X95737782Y-84172419D02*
X95975877Y-84172419D01*
X94975877Y-84172419D02*
X94975877Y-83172419D01*
X94309211Y-83172419D02*
X94118735Y-83172419D01*
X94118735Y-83172419D02*
X94023497Y-83220038D01*
X94023497Y-83220038D02*
X93928259Y-83315276D01*
X93928259Y-83315276D02*
X93880640Y-83505752D01*
X93880640Y-83505752D02*
X93880640Y-83839085D01*
X93880640Y-83839085D02*
X93928259Y-84029561D01*
X93928259Y-84029561D02*
X94023497Y-84124800D01*
X94023497Y-84124800D02*
X94118735Y-84172419D01*
X94118735Y-84172419D02*
X94309211Y-84172419D01*
X94309211Y-84172419D02*
X94404449Y-84124800D01*
X94404449Y-84124800D02*
X94499687Y-84029561D01*
X94499687Y-84029561D02*
X94547306Y-83839085D01*
X94547306Y-83839085D02*
X94547306Y-83505752D01*
X94547306Y-83505752D02*
X94499687Y-83315276D01*
X94499687Y-83315276D02*
X94404449Y-83220038D01*
X94404449Y-83220038D02*
X94309211Y-83172419D01*
%TO.C,J14*%
D11*
X53106000Y-30043599D02*
G75*
G02*
X52344000Y-30043599I-381000J0D01*
G01*
X52344000Y-30043599D02*
G75*
G02*
X53106000Y-30043599I381000J0D01*
G01*
%TD*%
M02*
