%TF.GenerationSoftware,KiCad,Pcbnew,10.0.4*%
%TF.CreationDate,2026-07-23T03:41:54+06:00*%
%TF.ProjectId,drone,64726f6e-652e-46b6-9963-61645f706362,rev?*%
%TF.SameCoordinates,Original*%
%TF.FileFunction,Paste,Top*%
%TF.FilePolarity,Positive*%
%FSLAX46Y46*%
G04 Gerber Fmt 4.6, Leading zero omitted, Abs format (unit mm)*
G04 Created by KiCad (PCBNEW 10.0.4) date 2026-07-23 03:41:54*
%MOMM*%
%LPD*%
G01*
G04 APERTURE LIST*
G04 Aperture macros list*
%AMRoundRect*
0 Rectangle with rounded corners*
0 $1 Rounding radius*
0 $2 $3 $4 $5 $6 $7 $8 $9 X,Y pos of 4 corners*
0 Add a 4 corners polygon primitive as box body*
4,1,4,$2,$3,$4,$5,$6,$7,$8,$9,$2,$3,0*
0 Add four circle primitives for the rounded corners*
1,1,$1+$1,$2,$3*
1,1,$1+$1,$4,$5*
1,1,$1+$1,$6,$7*
1,1,$1+$1,$8,$9*
0 Add four rect primitives between the rounded corners*
20,1,$1+$1,$2,$3,$4,$5,0*
20,1,$1+$1,$4,$5,$6,$7,0*
20,1,$1+$1,$6,$7,$8,$9,0*
20,1,$1+$1,$8,$9,$2,$3,0*%
G04 Aperture macros list end*
%ADD10RoundRect,0.225000X-0.225000X-0.250000X0.225000X-0.250000X0.225000X0.250000X-0.225000X0.250000X0*%
%ADD11RoundRect,0.200000X0.200000X0.275000X-0.200000X0.275000X-0.200000X-0.275000X0.200000X-0.275000X0*%
%ADD12RoundRect,0.200000X0.275000X-0.200000X0.275000X0.200000X-0.275000X0.200000X-0.275000X-0.200000X0*%
%ADD13RoundRect,0.200000X-0.200000X-0.275000X0.200000X-0.275000X0.200000X0.275000X-0.200000X0.275000X0*%
%ADD14RoundRect,0.225000X0.225000X0.250000X-0.225000X0.250000X-0.225000X-0.250000X0.225000X-0.250000X0*%
%ADD15RoundRect,0.225000X0.250000X-0.225000X0.250000X0.225000X-0.250000X0.225000X-0.250000X-0.225000X0*%
%ADD16RoundRect,0.150000X0.150000X-0.825000X0.150000X0.825000X-0.150000X0.825000X-0.150000X-0.825000X0*%
%ADD17RoundRect,0.200000X-0.275000X0.200000X-0.275000X-0.200000X0.275000X-0.200000X0.275000X0.200000X0*%
%ADD18RoundRect,0.225000X-0.250000X0.225000X-0.250000X-0.225000X0.250000X-0.225000X0.250000X0.225000X0*%
%ADD19RoundRect,0.075000X-0.075000X0.700000X-0.075000X-0.700000X0.075000X-0.700000X0.075000X0.700000X0*%
%ADD20RoundRect,0.075000X-0.700000X0.075000X-0.700000X-0.075000X0.700000X-0.075000X0.700000X0.075000X0*%
%ADD21RoundRect,0.250000X-0.900000X1.000000X-0.900000X-1.000000X0.900000X-1.000000X0.900000X1.000000X0*%
%ADD22RoundRect,0.218750X0.256250X-0.218750X0.256250X0.218750X-0.256250X0.218750X-0.256250X-0.218750X0*%
%ADD23RoundRect,0.218750X-0.256250X0.218750X-0.256250X-0.218750X0.256250X-0.218750X0.256250X0.218750X0*%
%ADD24R,0.850000X0.200000*%
%ADD25R,0.200000X0.850000*%
%ADD26R,4.450000X4.450000*%
%ADD27RoundRect,0.250000X1.000000X0.900000X-1.000000X0.900000X-1.000000X-0.900000X1.000000X-0.900000X0*%
%ADD28RoundRect,0.250000X0.625000X-0.375000X0.625000X0.375000X-0.625000X0.375000X-0.625000X-0.375000X0*%
%ADD29R,0.650000X0.850000*%
%ADD30RoundRect,0.062500X0.062500X-0.375000X0.062500X0.375000X-0.062500X0.375000X-0.062500X-0.375000X0*%
%ADD31RoundRect,0.062500X0.375000X-0.062500X0.375000X0.062500X-0.375000X0.062500X-0.375000X-0.062500X0*%
G04 APERTURE END LIST*
D10*
%TO.C,C14*%
X64800000Y-58225000D03*
X66350000Y-58225000D03*
%TD*%
D11*
%TO.C,R24*%
X47900000Y-59350000D03*
X46250000Y-59350000D03*
%TD*%
D12*
%TO.C,R23*%
X63575000Y-56400000D03*
X63575000Y-54750000D03*
%TD*%
%TO.C,R22*%
X62075000Y-56425000D03*
X62075000Y-54775000D03*
%TD*%
D13*
%TO.C,R21*%
X64750000Y-64550000D03*
X66400000Y-64550000D03*
%TD*%
%TO.C,R7*%
X49225000Y-59350000D03*
X50875000Y-59350000D03*
%TD*%
%TO.C,R5*%
X52225000Y-59350000D03*
X53875000Y-59350000D03*
%TD*%
D10*
%TO.C,C40*%
X64775000Y-62975000D03*
X66325000Y-62975000D03*
%TD*%
D14*
%TO.C,C16*%
X53825000Y-60875000D03*
X52275000Y-60875000D03*
%TD*%
D10*
%TO.C,C15*%
X64800000Y-61425000D03*
X66350000Y-61425000D03*
%TD*%
D14*
%TO.C,C13*%
X53950000Y-65750000D03*
X52400000Y-65750000D03*
%TD*%
%TO.C,C12*%
X53950000Y-67275000D03*
X52400000Y-67275000D03*
%TD*%
D15*
%TO.C,C11*%
X65075000Y-56350000D03*
X65075000Y-54800000D03*
%TD*%
D14*
%TO.C,C4*%
X53850000Y-57775000D03*
X52300000Y-57775000D03*
%TD*%
D15*
%TO.C,C3*%
X60600000Y-56375000D03*
X60600000Y-54825000D03*
%TD*%
D10*
%TO.C,C2*%
X64825000Y-59825000D03*
X66375000Y-59825000D03*
%TD*%
D14*
%TO.C,C1*%
X53950000Y-64175000D03*
X52400000Y-64175000D03*
%TD*%
D16*
%TO.C,U1*%
X52470000Y-81825000D03*
X53740000Y-81825000D03*
X55010000Y-81825000D03*
X56280000Y-81825000D03*
X56280000Y-76875000D03*
X55010000Y-76875000D03*
X53740000Y-76875000D03*
X52470000Y-76875000D03*
%TD*%
D17*
%TO.C,R11*%
X49425000Y-50200000D03*
X49425000Y-51850000D03*
%TD*%
D10*
%TO.C,C47*%
X91175000Y-70650000D03*
X92725000Y-70650000D03*
%TD*%
D11*
%TO.C,R19*%
X103025000Y-73815000D03*
X101375000Y-73815000D03*
%TD*%
D10*
%TO.C,C45*%
X66650000Y-50500000D03*
X68200000Y-50500000D03*
%TD*%
D18*
%TO.C,C31*%
X85775000Y-82525000D03*
X85775000Y-84075000D03*
%TD*%
D12*
%TO.C,R6*%
X53450000Y-74675000D03*
X53450000Y-73025000D03*
%TD*%
D18*
%TO.C,C18*%
X64750000Y-87800000D03*
X64750000Y-89350000D03*
%TD*%
D12*
%TO.C,R3*%
X63525000Y-81500000D03*
X63525000Y-79850000D03*
%TD*%
D15*
%TO.C,C35*%
X74525000Y-45025000D03*
X74525000Y-43475000D03*
%TD*%
D12*
%TO.C,R17*%
X72925000Y-55150000D03*
X72925000Y-53500000D03*
%TD*%
D13*
%TO.C,R2*%
X58675000Y-81450000D03*
X60325000Y-81450000D03*
%TD*%
D12*
%TO.C,R1*%
X50875000Y-80175000D03*
X50875000Y-78525000D03*
%TD*%
D11*
%TO.C,R12*%
X82425000Y-48950000D03*
X80775000Y-48950000D03*
%TD*%
D19*
%TO.C,U3*%
X85750000Y-67775000D03*
X85250000Y-67775000D03*
X84750000Y-67775000D03*
X84250000Y-67775000D03*
X83750000Y-67775000D03*
X83250000Y-67775000D03*
X82750000Y-67775000D03*
X82250000Y-67775000D03*
X81750000Y-67775000D03*
X81250000Y-67775000D03*
X80750000Y-67775000D03*
X80250000Y-67775000D03*
X79750000Y-67775000D03*
X79250000Y-67775000D03*
X78750000Y-67775000D03*
X78250000Y-67775000D03*
D20*
X76325000Y-69700000D03*
X76325000Y-70200000D03*
X76325000Y-70700000D03*
X76325000Y-71200000D03*
X76325000Y-71700000D03*
X76325000Y-72200000D03*
X76325000Y-72700000D03*
X76325000Y-73200000D03*
X76325000Y-73700000D03*
X76325000Y-74200000D03*
X76325000Y-74700000D03*
X76325000Y-75200000D03*
X76325000Y-75700000D03*
X76325000Y-76200000D03*
X76325000Y-76700000D03*
X76325000Y-77200000D03*
D19*
X78250000Y-79125000D03*
X78750000Y-79125000D03*
X79250000Y-79125000D03*
X79750000Y-79125000D03*
X80250000Y-79125000D03*
X80750000Y-79125000D03*
X81250000Y-79125000D03*
X81750000Y-79125000D03*
X82250000Y-79125000D03*
X82750000Y-79125000D03*
X83250000Y-79125000D03*
X83750000Y-79125000D03*
X84250000Y-79125000D03*
X84750000Y-79125000D03*
X85250000Y-79125000D03*
X85750000Y-79125000D03*
D20*
X87675000Y-77200000D03*
X87675000Y-76700000D03*
X87675000Y-76200000D03*
X87675000Y-75700000D03*
X87675000Y-75200000D03*
X87675000Y-74700000D03*
X87675000Y-74200000D03*
X87675000Y-73700000D03*
X87675000Y-73200000D03*
X87675000Y-72700000D03*
X87675000Y-72200000D03*
X87675000Y-71700000D03*
X87675000Y-71200000D03*
X87675000Y-70700000D03*
X87675000Y-70200000D03*
X87675000Y-69700000D03*
%TD*%
D15*
%TO.C,C27*%
X78300000Y-65300000D03*
X78300000Y-63750000D03*
%TD*%
D12*
%TO.C,R15*%
X76050000Y-45075000D03*
X76050000Y-43425000D03*
%TD*%
%TO.C,R13*%
X76000000Y-55175000D03*
X76000000Y-53525000D03*
%TD*%
D14*
%TO.C,C29*%
X74125000Y-76875000D03*
X72575000Y-76875000D03*
%TD*%
D21*
%TO.C,ZD1*%
X67825000Y-87625000D03*
X67825000Y-91925000D03*
%TD*%
D10*
%TO.C,C28*%
X91175000Y-67575000D03*
X92725000Y-67575000D03*
%TD*%
D22*
%TO.C,LD2*%
X69625000Y-55162500D03*
X69625000Y-53587500D03*
%TD*%
D14*
%TO.C,C32*%
X73950000Y-70500000D03*
X72400000Y-70500000D03*
%TD*%
D11*
%TO.C,R18*%
X103050000Y-71275000D03*
X101400000Y-71275000D03*
%TD*%
D10*
%TO.C,C36*%
X80825000Y-50500000D03*
X82375000Y-50500000D03*
%TD*%
D14*
%TO.C,C46*%
X74150000Y-75325000D03*
X72600000Y-75325000D03*
%TD*%
D15*
%TO.C,C25*%
X55075000Y-74625000D03*
X55075000Y-73075000D03*
%TD*%
%TO.C,C17*%
X52475000Y-86050000D03*
X52475000Y-84500000D03*
%TD*%
D13*
%TO.C,R8*%
X91125000Y-72125000D03*
X92775000Y-72125000D03*
%TD*%
D12*
%TO.C,R9*%
X81250000Y-65375000D03*
X81250000Y-63725000D03*
%TD*%
D23*
%TO.C,L2*%
X79775000Y-63762500D03*
X79775000Y-65337500D03*
%TD*%
D15*
%TO.C,C23*%
X51875000Y-74625000D03*
X51875000Y-73075000D03*
%TD*%
D10*
%TO.C,C30*%
X91175000Y-69150000D03*
X92725000Y-69150000D03*
%TD*%
D13*
%TO.C,R14*%
X80775000Y-47400000D03*
X82425000Y-47400000D03*
%TD*%
D10*
%TO.C,C49*%
X79295000Y-33725000D03*
X80845000Y-33725000D03*
%TD*%
D18*
%TO.C,C20*%
X61600000Y-87800000D03*
X61600000Y-89350000D03*
%TD*%
D24*
%TO.C,U2*%
X56925000Y-59000000D03*
X56925000Y-59400000D03*
X56925000Y-59800000D03*
X56925000Y-60200000D03*
X56925000Y-60600000D03*
X56925000Y-61000000D03*
X56925000Y-61400000D03*
X56925000Y-61800000D03*
X56925000Y-62200000D03*
X56925000Y-62600000D03*
X56925000Y-63000000D03*
X56925000Y-63400000D03*
D25*
X57675000Y-64150000D03*
X58075000Y-64150000D03*
X58475000Y-64150000D03*
X58875000Y-64150000D03*
X59275000Y-64150000D03*
X59675000Y-64150000D03*
X60075000Y-64150000D03*
X60475000Y-64150000D03*
X60875000Y-64150000D03*
X61275000Y-64150000D03*
X61675000Y-64150000D03*
X62075000Y-64150000D03*
D24*
X62825000Y-63400000D03*
X62825000Y-63000000D03*
X62825000Y-62600000D03*
X62825000Y-62200000D03*
X62825000Y-61800000D03*
X62825000Y-61400000D03*
X62825000Y-61000000D03*
X62825000Y-60600000D03*
X62825000Y-60200000D03*
X62825000Y-59800000D03*
X62825000Y-59400000D03*
X62825000Y-59000000D03*
D25*
X62075000Y-58250000D03*
X61675000Y-58250000D03*
X61275000Y-58250000D03*
X60875000Y-58250000D03*
X60475000Y-58250000D03*
X60075000Y-58250000D03*
X59675000Y-58250000D03*
X59275000Y-58250000D03*
X58875000Y-58250000D03*
X58475000Y-58250000D03*
X58075000Y-58250000D03*
X57675000Y-58250000D03*
D26*
X59875000Y-61200000D03*
%TD*%
D10*
%TO.C,C43*%
X66675000Y-47450000D03*
X68225000Y-47450000D03*
%TD*%
%TO.C,C42*%
X66650000Y-48975000D03*
X68200000Y-48975000D03*
%TD*%
D18*
%TO.C,C41*%
X47850000Y-50250000D03*
X47850000Y-51800000D03*
%TD*%
D27*
%TO.C,D1*%
X49700000Y-86050000D03*
X45400000Y-86050000D03*
%TD*%
D10*
%TO.C,C33*%
X63125000Y-73100000D03*
X64675000Y-73100000D03*
%TD*%
%TO.C,C39*%
X58025000Y-39325000D03*
X59575000Y-39325000D03*
%TD*%
D11*
%TO.C,R4*%
X60300000Y-79900000D03*
X58650000Y-79900000D03*
%TD*%
D18*
%TO.C,C37*%
X74475000Y-53575000D03*
X74475000Y-55125000D03*
%TD*%
D22*
%TO.C,LD1*%
X61900000Y-81487500D03*
X61900000Y-79912500D03*
%TD*%
D10*
%TO.C,C44*%
X66650000Y-52025000D03*
X68200000Y-52025000D03*
%TD*%
D15*
%TO.C,C34*%
X82725000Y-65325000D03*
X82725000Y-63775000D03*
%TD*%
D28*
%TO.C,F1*%
X41575000Y-74475000D03*
X41575000Y-71675000D03*
%TD*%
D18*
%TO.C,C38*%
X78275000Y-53475000D03*
X78275000Y-55025000D03*
%TD*%
%TO.C,C19*%
X63200000Y-87800000D03*
X63200000Y-89350000D03*
%TD*%
D10*
%TO.C,C26*%
X89025000Y-88850000D03*
X90575000Y-88850000D03*
%TD*%
D12*
%TO.C,R16*%
X71350000Y-55212500D03*
X71350000Y-53562500D03*
%TD*%
D29*
%TO.C,Y1*%
X63100000Y-71550000D03*
X64750000Y-71550000D03*
X64750000Y-70000000D03*
X63100000Y-70000000D03*
%TD*%
D15*
%TO.C,C48*%
X77575000Y-45025000D03*
X77575000Y-43475000D03*
%TD*%
D11*
%TO.C,R10*%
X92800000Y-73675000D03*
X91150000Y-73675000D03*
%TD*%
D30*
%TO.C,U4*%
X75225000Y-51050000D03*
X75725000Y-51050000D03*
X76225000Y-51050000D03*
X76725000Y-51050000D03*
X77225000Y-51050000D03*
X77725000Y-51050000D03*
D31*
X78412500Y-50362500D03*
X78412500Y-49862500D03*
X78412500Y-49362500D03*
X78412500Y-48862500D03*
X78412500Y-48362500D03*
X78412500Y-47862500D03*
D30*
X77725000Y-47175000D03*
X77225000Y-47175000D03*
X76725000Y-47175000D03*
X76225000Y-47175000D03*
X75725000Y-47175000D03*
X75225000Y-47175000D03*
D31*
X74537500Y-47862500D03*
X74537500Y-48362500D03*
X74537500Y-48862500D03*
X74537500Y-49362500D03*
X74537500Y-49862500D03*
X74537500Y-50362500D03*
%TD*%
M02*
